<?xml version="1.0" encoding="utf-8"?>
<!-- Generator: Adobe Illustrator 23.0.1, SVG Export Plug-In . SVG Version: 6.00 Build 0)  -->
<svg version="1.1" id="Layer_1" xmlns="http://www.w3.org/2000/svg" xmlns:xlink="http://www.w3.org/1999/xlink" x="0px" y="0px"
     viewBox="0 0 272 200" style="enable-background:new 0 0 272 200;" xml:space="preserve">
<style type="text/css">
	.st0{fill:#F49A1C;}
	.st1{opacity:0.2;fill:#F49A1C;}
	.st2{fill:#FFFFFF;}
	.st3{fill:#EFE2DE;}
	.st4{fill:#F8F6F4;}
	.st5{fill:#FABE58;}
	.st6{opacity:0.2;fill:#FABE58;}
	.st7{fill:#241A43;}
	.st8{opacity:0.2;}
	.st9{opacity:0.5;fill:#F49A1C;}
	.st10{opacity:0.4;fill:#F49A1C;}
	.st11{fill:#F49B1B;}
	.st12{fill:#EE771B;}
</style>
    <g>
	<g>
		<g>
			<path class="st0" d="M165.4,163.2c0,5.4-3.6,10.5-9.1,12l-14.7,4.2L72.3,199c-5.7,1.6-11.6-1-14.3-6c-0.4-0.8-0.8-1.7-1.1-2.6
				c-0.3-1.1-0.5-2.3-0.5-3.4c0-1.1,0.1-2.1,0.4-3.1c1.1-4.1,4.3-7.6,8.7-8.9l48.8-13.8l35.3-10c6.6-1.9,13.5,2,15.4,8.6
				C165.2,161,165.4,162.1,165.4,163.2z"/>
            <path class="st1" d="M163.6,156.8c-2.6-1.2-5.6-1.4-8.5-0.6l-84,23.7c-4.4,1.2-7.6,4.7-8.7,8.9c-0.3,1-0.4,2.1-0.4,3.1
				c0,1.1,0.2,2.3,0.5,3.4c0.3,0.9,0.6,1.8,1.1,2.6c0.1,0.1,0.2,0.3,0.3,0.4c-2.4-1.1-4.5-3-5.8-5.4c-0.4-0.8-0.8-1.7-1.1-2.6
				c-0.3-1.1-0.5-2.3-0.5-3.4c0-1.1,0.1-2.1,0.4-3.1c1.1-4.1,4.3-7.6,8.7-8.9l84-23.7C155,149.6,160.8,152.1,163.6,156.8z"/>
		</g>
        <path class="st1" d="M165.4,163.2c0,5.4-3.6,10.5-9.1,12l-14.7,4.2l-27.3-18.2l35.3-10c6.6-1.9,13.5,2,15.4,8.6
			C165.2,161,165.4,162.1,165.4,163.2z"/>
        <g>
			<g>
				<g>
					<path class="st2" d="M254.2,71.3l-79.7,119.5c-1.1,1.7-3.5,2.2-5.2,1l-36.6-24.4l-42.1-28.1c-0.8-0.6-1.4-1.4-1.6-2.4l-1.7-8.4
						c-0.2-1,0-2,0.6-2.8l71.7-107.5l4.7-7c1.1-1.7,3.5-2.2,5.2-1l25.8,17.2L215,40.7l38.1,25.4C254.9,67.3,255.3,69.6,254.2,71.3z"
                    />
                    <polygon class="st3" points="89.2,138.5 86.9,127.1 93.8,131.6 					"/>
				</g>
                <path class="st4" d="M215,40.7l-34.9,135.2c-0.5,2-2.6,3.2-4.6,2.7l-42.9-11.1l-42.1-28.1c-0.8-0.6-1.4-1.4-1.6-2.4l-1.7-8.4
					c-0.2-1,0-2,0.6-2.8l71.7-107.5l35.7,9.2L215,40.7z"/>
                <g>
					<path class="st3" d="M169.4,73.7l-21-14c-0.9-0.6-2.2-0.4-2.9,0.6c-0.6,0.9-0.4,2.2,0.6,2.9l21,14c0.9,0.6,2.2,0.4,2.9-0.6
						C170.6,75.6,170.4,74.3,169.4,73.7z"/>
                    <path class="st3" d="M215.5,104.4L178,79.4c-0.9-0.6-2.2-0.4-2.9,0.6c-0.6,0.9-0.4,2.2,0.6,2.9l37.6,25.1
						c0.9,0.6,2.2,0.4,2.9-0.6C216.7,106.4,216.5,105.1,215.5,104.4z"/>
                    <path class="st3" d="M178.2,95.6L141,70.8c-0.9-0.6-2.2-0.4-2.9,0.6c-0.6,0.9-0.4,2.2,0.6,2.9l37.2,24.8
						c0.9,0.6,2.2,0.4,2.9-0.6C179.4,97.5,179.2,96.3,178.2,95.6z"/>
                    <path class="st3" d="M208.1,115.5l-20.4-13.6c-0.9-0.6-2.2-0.4-2.9,0.6c-0.6,0.9-0.4,2.2,0.6,2.9l20.4,13.6
						c0.9,0.6,2.2,0.4,2.9-0.6C209.3,117.5,209,116.2,208.1,115.5z"/>
                    <path class="st3" d="M148.7,92l-15.1-10.1c-0.9-0.6-2.2-0.4-2.9,0.6c-0.6,0.9-0.4,2.2,0.6,2.9l15.1,10.1
						c0.9,0.6,2.2,0.4,2.9-0.6C149.9,93.9,149.7,92.6,148.7,92z"/>
                    <path class="st3" d="M184.7,116l-27.8-18.5c-0.9-0.6-2.2-0.4-2.9,0.6c-0.6,0.9-0.4,2.2,0.6,2.9l27.8,18.5
						c0.9,0.6,2.2,0.4,2.9-0.6C185.9,117.9,185.6,116.6,184.7,116z"/>
                    <path class="st3" d="M200.7,126.7l-8.2-5.5c-0.9-0.6-2.2-0.4-2.9,0.6c-0.6,0.9-0.4,2.2,0.6,2.9l8.2,5.5
						c0.9,0.6,2.2,0.4,2.9-0.6C201.9,128.6,201.6,127.3,200.7,126.7z"/>
                    <path class="st3" d="M159.6,117l-34.2-22.8c-0.9-0.6-2.2-0.4-2.9,0.6c-0.6,0.9-0.4,2.2,0.6,2.9l34.2,22.8
						c0.9,0.6,2.2,0.4,2.9-0.6C160.8,118.9,160.5,117.7,159.6,117z"/>
                    <path class="st3" d="M192.5,139l-24.8-16.5c-0.9-0.6-2.2-0.4-2.9,0.6c-0.6,0.9-0.4,2.2,0.6,2.9l24.8,16.5
						c0.9,0.6,2.2,0.4,2.9-0.6C193.7,140.9,193.4,139.6,192.5,139z"/>
                    <path class="st3" d="M172.2,169.3l-14.3-9.6c-0.9-0.6-2.2-0.4-2.9,0.6c-0.6,0.9-0.4,2.2,0.6,2.9l14.3,9.6
						c0.9,0.6,2.2,0.4,2.9-0.6C173.4,171.2,173.2,169.9,172.2,169.3z"/>
				</g>
			</g>
            <g>
				<g>
					<path class="st2" d="M212.3,29.9L176.4,169c-0.5,2-2.6,3.2-4.6,2.7l-38.1-9.8L80.2,148c-1-0.2-1.8-0.9-2.3-1.7l-4.3-7.4
						c-0.5-0.9-0.6-1.9-0.4-2.8l28-108.5l6.4-24.8c0.5-2,2.6-3.2,4.6-2.7l97.5,25.2C211.6,25.8,212.8,27.8,212.3,29.9z"/>
                    <polygon class="st3" points="78.7,147.6 72.8,137.6 80.8,139.6 					"/>
				</g>
                <path class="st4" d="M151.1,156.9l-17.4,4.9L80.2,148c-1-0.2-1.8-0.9-2.3-1.7l-4.3-7.4c-0.5-0.9-0.6-1.9-0.4-2.8l28-108.5
					l17.5-4.9l6.7-1.9c2.8-0.8,5.8,0.8,6.6,3.7l13.7,48.5c0.8,2.8-0.8,5.8-3.7,6.6l-6.7,1.9l19.5,68.9
					C155.5,153.2,153.9,156.1,151.1,156.9z"/>
                <g>
					<path class="st3" d="M133.1,60l-24.4-6.3c-1.1-0.3-2.2,0.4-2.5,1.5c-0.3,1.1,0.4,2.2,1.5,2.5L132,64c1.1,0.3,2.2-0.4,2.5-1.5
						C134.8,61.4,134.2,60.3,133.1,60z"/>
                    <path class="st3" d="M186.7,73.9L143,62.6c-1.1-0.3-2.2,0.4-2.5,1.5c-0.3,1.1,0.4,2.2,1.5,2.5l43.7,11.3
						c1.1,0.3,2.2-0.4,2.5-1.5C188.5,75.3,187.8,74.2,186.7,73.9z"/>
                    <path class="st3" d="M148.6,77.8l-43.3-11.2c-1.1-0.3-2.2,0.4-2.5,1.5c-0.3,1.1,0.4,2.2,1.5,2.5l43.3,11.2
						c1.1,0.3,2.2-0.4,2.5-1.5C150.4,79.2,149.7,78.1,148.6,77.8z"/>
                    <path class="st3" d="M183.4,86.8l-23.7-6.1c-1.1-0.3-2.2,0.4-2.5,1.5c-0.3,1.1,0.4,2.2,1.5,2.5l23.7,6.1
						c1.1,0.3,2.2-0.4,2.5-1.5C185.2,88.2,184.5,87.1,183.4,86.8z"/>
                    <path class="st3" d="M119.6,84.1L102,79.6c-1.1-0.3-2.2,0.4-2.5,1.5c-0.3,1.1,0.4,2.2,1.5,2.5l17.6,4.5
						c1.1,0.3,2.2-0.4,2.5-1.5C121.3,85.5,120.7,84.4,119.6,84.1z"/>
                    <path class="st3" d="M161.4,94.9l-32.3-8.3c-1.1-0.3-2.2,0.4-2.5,1.5c-0.3,1.1,0.4,2.2,1.5,2.5l32.3,8.3
						c1.1,0.3,2.2-0.4,2.5-1.5C163.2,96.3,162.5,95.2,161.4,94.9z"/>
                    <path class="st3" d="M180.1,99.7l-9.5-2.5c-1.1-0.3-2.2,0.4-2.5,1.5c-0.3,1.1,0.4,2.2,1.5,2.5l9.5,2.5c1.1,0.3,2.2-0.4,2.5-1.5
						C181.8,101.1,181.2,100,180.1,99.7z"/>
                    <path class="st3" d="M138.1,104.2L98.3,93.9c-1.1-0.3-2.2,0.4-2.5,1.5c-0.3,1.1,0.4,2.2,1.5,2.5l39.8,10.3
						c1.1,0.3,2.2-0.4,2.5-1.5C139.8,105.6,139.2,104.5,138.1,104.2z"/>
                    <path class="st3" d="M176.4,114.1l-28.8-7.4c-1.1-0.3-2.2,0.4-2.5,1.5c-0.3,1.1,0.4,2.2,1.5,2.5l28.8,7.4
						c1.1,0.3,2.2-0.4,2.5-1.5C178.1,115.5,177.5,114.3,176.4,114.1z"/>
                    <path class="st3" d="M167.2,149.4l-16.7-4.3c-1.1-0.3-2.2,0.4-2.5,1.5c-0.3,1.1,0.4,2.2,1.5,2.5l16.7,4.3
						c1.1,0.3,2.2-0.4,2.5-1.5C169,150.8,168.3,149.7,167.2,149.4z"/>
				</g>
			</g>
		</g>
        <g>
			<g>
				<path class="st5" d="M56.4,187c0-5.4,3.6-10.5,9.1-12l-12,3.4l3.4,12C56.5,189.2,56.4,188.1,56.4,187z"/>
                <path class="st5" d="M148.2,146l-7.3-25.7l-12.2-43.2l6.7-1.9c2.8-0.8,4.5-3.8,3.7-6.6l-13.7-48.5c-0.8-2.8-3.8-4.5-6.6-3.7
					l-6.7,1.9L67.6,30.9L66,31.4L63.8,32l-1.7,0.5l-7.7,2.2l-1.7,0.5L49.8,36l-1.6,0.5l-27.1,7.7c-2.8,0.8-4.5,3.8-3.7,6.6l9.4,33.2
					c0,0,0,0,0,0l26.7,94.5l91-25.7C147.3,151.8,149,148.9,148.2,146z"/>
			</g>
            <g>
				<path class="st6" d="M56.4,187c0-5.4,3.6-10.5,9.1-12l-12,3.4l3.4,12C56.5,189.2,56.4,188.1,56.4,187z"/>
                <path class="st6" d="M148.2,146l-7.3-25.7C69.3,145.3,27,84.3,26.8,83.9l26.7,94.5l91-25.7C147.3,151.8,149,148.9,148.2,146z"/>
			</g>
		</g>
        <g>
			<path class="st7" d="M77.1,71.4c-0.8,2-2.3,3.7-4.3,4.6c-1.1,0.5-2.2,0.7-3.3,0.7c-3.1,0-6.1-1.8-7.5-4.9L46.8,38
				c-0.1-0.3-0.3-0.7-0.4-1c-0.7-2.2-0.7-4.6,0.2-6.8c1-2.5,2.9-4.5,5.3-5.7c5.1-2.3,11.1,0,13.4,5.1l0.8,1.7l-1.6,0.5l-0.7-1.5
				c-1.9-4.3-6.9-6.2-11.2-4.3c-2.1,0.9-3.6,2.6-4.5,4.7c-0.7,1.9-0.7,3.8-0.1,5.7c0.1,0.3,0.2,0.5,0.3,0.8l15.2,33.9
				c1.5,3.3,5.3,4.8,8.6,3.3c1.6-0.7,2.8-2,3.4-3.6c0.6-1.6,0.6-3.4-0.1-5L60.6,32.9l-0.2-0.4c-1-2.2-3.5-3.1-5.7-2.2
				c-1.9,0.9-2.9,2.9-2.4,4.9c0.1,0.3,0.1,0.5,0.3,0.8l8.9,20c0.2,0.4,0,0.9-0.4,1.1c-0.4,0.2-0.9,0-1.1-0.4l-8.9-20
				c-0.1-0.3-0.3-0.7-0.3-1C50,33,51.4,30,54.1,28.8c3-1.4,6.6,0,7.9,3l0.3,0.6l14.6,32.7C77.8,67.1,77.8,69.3,77.1,71.4z"/>
		</g>
        <g class="st8">
			<path class="st5" d="M52.8,36.5c-0.1-0.4-0.2-0.9-0.2-1.3l1.7-0.5c0,0.5,0,0.9,0.1,1.4c0.1,0.3,0.1,0.5,0.3,0.8l8.9,20
				c0.2,0.4,0,0.9-0.4,1.1c-0.4,0.2-0.9,0-1.1-0.4l-8.9-20C53,37.2,52.9,36.9,52.8,36.5z"/>
            <path class="st5" d="M79.2,72.2c-0.8,2-2.3,3.7-4.3,4.6c-1.1,0.5-2.2,0.7-3.3,0.7c-3.1,0-6.1-1.8-7.5-4.9L48.9,38.8
				c-0.1-0.3-0.3-0.7-0.4-1c-0.1-0.4-0.3-0.9-0.3-1.3l1.6-0.5c0.1,0.4,0.2,0.9,0.3,1.3c0.1,0.3,0.2,0.5,0.3,0.8l15.2,33.9
				c1.5,3.3,5.3,4.8,8.6,3.3c1.6-0.7,2.8-2,3.4-3.6c0.6-1.6,0.6-3.4-0.1-5L62.7,33.7l-0.2-0.4c-0.1-0.3-0.3-0.6-0.5-0.8l1.7-0.5
				c0.1,0.2,0.2,0.4,0.3,0.6l0.3,0.6L79,65.9C79.9,67.9,80,70.1,79.2,72.2z"/>
		</g>
	</g>
        <g>
		<g>
			<g>
				<g>
					<path class="st7" d="M43.3,145.4H11.8v-12.8c0-7.1,5.8-12.8,12.8-12.8h18.6c7.1,0,12.8,5.8,12.8,12.8
						C56.1,139.7,50.4,145.4,43.3,145.4z M12.2,145.1h31.1c6.9,0,12.5-5.6,12.5-12.5c0-6.9-5.6-12.5-12.5-12.5H24.7
						c-6.9,0-12.5,5.6-12.5,12.5V145.1z"/>
				</g>
			</g>
            <g>
				<g>
					<path class="st7" d="M69.8,126.6H42.3c-6.2,0-11.2-5-11.2-11.2c0-6.2,5-11.2,11.2-11.2h16.2c6.2,0,11.2,5,11.2,11.2V126.6z
						 M42.3,104.6c-6,0-10.9,4.9-10.9,10.9c0,6,4.9,10.9,10.9,10.9h27.1v-10.9c0-6-4.9-10.9-10.9-10.9H42.3z"/>
				</g>
			</g>
		</g>
            <g>
			<g>
				<path class="st9" d="M43.4,149.1H7.9v-14.3c0-7.9,6.4-14.3,14.3-14.3h21.1c7.9,0,14.3,6.4,14.3,14.3l0,0
					C57.7,142.7,51.3,149.1,43.4,149.1z"/>
                <g>
					<path class="st2" d="M40.3,134.8c0,1.4,1.2,2.6,2.6,2.6s2.6-1.2,2.6-2.6s-1.2-2.6-2.6-2.6C41.4,132.2,40.3,133.3,40.3,134.8z"
                    />
                    <ellipse class="st2" cx="32.8" cy="134.8" rx="2.6" ry="2.6"/>
                    <ellipse class="st2" cx="22.8" cy="134.8" rx="2.6" ry="2.6"/>
				</g>
			</g>
                <g>
				<path class="st10" d="M41.9,128.1h30.9v-12.5c0-6.9-5.6-12.5-12.5-12.5H41.9c-6.9,0-12.5,5.6-12.5,12.5l0,0
					C29.5,122.5,35,128.1,41.9,128.1z"/>
                    <g>
					<path class="st2" d="M44.6,115.6c0,1.3-1,2.3-2.3,2.3c-1.3,0-2.3-1-2.3-2.3c0-1.3,1-2.3,2.3-2.3
						C43.6,113.3,44.6,114.3,44.6,115.6z"/>
                        <ellipse class="st2" cx="51.1" cy="115.6" rx="2.3" ry="2.3"/>
                        <ellipse class="st2" cx="59.9" cy="115.6" rx="2.3" ry="2.3"/>
				</g>
			</g>
		</g>
	</g>
        <g>
		<g>
			<path class="st0" d="M7,39.4c3.7,0.4,6.5,3.6,6.5,3.6s-3.3,2.6-7,2.2C2.7,44.9,0,41.7,0,41.7S3.3,39.1,7,39.4z"/>
		</g>
            <g>
			<g>
				<path class="st7" d="M16.1,34.2c2.3,2.9,1.9,7.1,1.9,7.1s-4.2-0.6-6.5-3.5c-2.3-2.9-1.9-7.1-1.9-7.1S13.8,31.3,16.1,34.2z"/>
			</g>
		</g>
            <path class="st11" d="M12.7,55c-0.1,1-1.1,1.8-2.1,1.6c-1-0.1-1.8-1.1-1.6-2.1c0.1-1,1.1-1.8,2.1-1.6C12.1,53,12.8,53.9,12.7,55z"
            />
            <path class="st11" d="M35.8,165c-0.1,1-1.1,1.8-2.1,1.6c-1-0.1-1.8-1.1-1.6-2.1c0.1-1,1.1-1.8,2.1-1.6C35.2,163.1,36,164,35.8,165
			z"/>
            <g>
			<g>
				<path class="st7" d="M34.5,171.8c1.3-3.4,4.9-5.1,4.9-5.1s1.6,3.7,0.3,7.1c-1.3,3.4-4.9,5.1-4.9,5.1S33.2,175.1,34.5,171.8z"/>
			</g>
		</g>
            <path class="st11" d="M218.4,173.9c-0.6-0.8-0.5-2,0.3-2.6c0.8-0.6,2-0.5,2.6,0.3c0.6,0.8,0.5,2-0.3,2.6
			C220.1,174.9,219,174.7,218.4,173.9z"/>
            <g>
			<g>
				<path class="st12" d="M225,136.1c2.2,2.2,2.2,5.6,2.2,5.6s-3.5-0.1-5.6-2.3c-2.2-2.2-2.2-5.6-2.2-5.6S222.8,133.9,225,136.1z"/>
			</g>
		</g>
            <g>
			<g>
				<path class="st7" d="M227.7,128.4c3.4-0.3,6.3,2.1,6.3,2.1s-2.5,2.8-5.9,3.1c-3.4,0.3-6.3-2.1-6.3-2.1S224.3,128.6,227.7,128.4z
					"/>
			</g>
		</g>
            <path class="st11" d="M227.1,35.9c-0.6-0.8-0.5-2,0.3-2.6c0.8-0.6,2-0.5,2.6,0.3c0.6,0.8,0.5,2-0.3,2.6
			C228.9,36.9,227.7,36.7,227.1,35.9z"/>
	</g>
        <g>
		<g>
			<g>
				<path class="st10" d="M257.7,80H165c-2.3,0-4-2-3.6-4.3l3.6-20.6c0.3-1.7,1.8-3,3.6-3h92.7c2.3,0,4,2,3.6,4.3L261.2,77
					C260.9,78.8,259.4,80,257.7,80z"/>
                <g>
					<g>
						<path class="st2" d="M180,72.5l-8.3,0c-1,0-1.7-0.8-1.5-1.8l1.5-8.3c0.2-1,1.1-1.8,2.2-1.8l8.3,0c1,0,1.7,0.8,1.5,1.8
							l-1.5,8.3C181.9,71.7,181,72.5,180,72.5z M173.6,61.7c-0.4,0-0.8,0.4-0.9,0.8l-1.5,8.3c-0.1,0.4,0.2,0.8,0.6,0.8l8.3,0
							c0.4,0,0.8-0.4,0.9-0.8l1.5-8.3c0.1-0.4-0.2-0.8-0.6-0.8L173.6,61.7z"/>
					</g>
                    <g>
						<path class="st0" d="M175,70.1c-0.2,0-0.4-0.1-0.5-0.2l-2.7-3.2c-0.3-0.3-0.2-0.8,0.2-1.1c0.4-0.3,0.9-0.3,1.1,0l2.2,2.7
							l9.8-8.3c0.4-0.3,0.9-0.3,1.1,0c0.3,0.3,0.2,0.8-0.2,1.1l-10.4,8.9C175.4,70.1,175.2,70.1,175,70.1z"/>
					</g>
				</g>
			</g>
            <path class="st2" d="M251.9,64.5h-59.7c-0.5,0-0.8-0.4-0.7-0.9l0,0c0.1-0.5,0.5-0.9,1-0.9h59.7c0.5,0,0.8,0.4,0.7,0.9l0,0
				C252.8,64.2,252.4,64.5,251.9,64.5z"/>
            <g>
				<path class="st2" d="M207.9,69.4h-17.3c-0.5,0-0.8-0.4-0.7-0.9v0c0.1-0.5,0.5-0.9,1-0.9h17.3c0.5,0,0.8,0.4,0.7,0.9v0
					C208.8,69,208.4,69.4,207.9,69.4z"/>
                <path class="st2" d="M219.6,69.4h-7.8c-0.5,0-0.8-0.4-0.7-0.9v0c0.1-0.5,0.5-0.9,1-0.9h7.8c0.5,0,0.8,0.4,0.7,0.9v0
					C220.5,69,220.1,69.4,219.6,69.4z"/>
			</g>
		</g>
            <g>
			<g>
				<path class="st10" d="M264.6,111.8h-92.7c-2.3,0-4-2-3.6-4.3L172,87c0.3-1.7,1.8-3,3.6-3h92.7c2.3,0,4,2,3.6,4.3l-3.6,20.6
					C267.9,110.6,266.4,111.8,264.6,111.8z"/>
                <g>
					<g>
						<path class="st2" d="M186.9,104.3l-8.3,0c-1,0-1.7-0.8-1.5-1.8l1.5-8.3c0.2-1,1.1-1.8,2.2-1.8l8.3,0c1,0,1.7,0.8,1.5,1.8
							l-1.5,8.3C188.9,103.5,187.9,104.3,186.9,104.3z M180.6,93.4c-0.4,0-0.8,0.4-0.9,0.8l-1.5,8.3c-0.1,0.4,0.2,0.8,0.6,0.8l8.3,0
							c0.4,0,0.8-0.4,0.9-0.8l1.5-8.3c0.1-0.4-0.2-0.8-0.6-0.8L180.6,93.4z"/>
					</g>
                    <g>
						<path class="st0" d="M182,101.9c-0.2,0-0.4-0.1-0.5-0.2l-2.7-3.2c-0.3-0.3-0.2-0.8,0.2-1.1c0.4-0.3,0.9-0.3,1.1,0l2.2,2.7
							l9.8-8.3c0.4-0.3,0.9-0.3,1.1,0c0.3,0.3,0.2,0.8-0.2,1.1l-10.4,8.9C182.4,101.8,182.2,101.9,182,101.9z"/>
					</g>
				</g>
			</g>
                <path class="st2" d="M258.9,96.3h-59.7c-0.5,0-0.8-0.4-0.7-0.9l0,0c0.1-0.5,0.5-0.9,1-0.9h59.7c0.5,0,0.8,0.4,0.7,0.9l0,0
				C259.8,95.9,259.3,96.3,258.9,96.3z"/>
                <g>
				<path class="st2" d="M214.8,101.2h-17.3c-0.5,0-0.8-0.4-0.7-0.9v0c0.1-0.5,0.5-0.9,1-0.9h17.3c0.5,0,0.8,0.4,0.7,0.9v0
					C215.8,100.8,215.3,101.2,214.8,101.2z"/>
                    <path class="st2" d="M226.5,101.2h-7.8c-0.5,0-0.8-0.4-0.7-0.9v0c0.1-0.5,0.5-0.9,1-0.9h7.8c0.5,0,0.8,0.4,0.7,0.9v0
					C227.5,100.8,227,101.2,226.5,101.2z"/>
			</g>
		</g>
	</g>
        <g>
		<path class="st7" d="M203.8,178.6c-0.9,0.1-1.9-0.1-2.8-0.5c-1.3-0.6-2.2-1.7-2.7-3c-0.5-1.3-0.4-2.7,0.2-4l8.3-17.3
			c1.6-3.4,5.7-4.8,9.1-3.2c1.6,0.8,2.9,2.2,3.5,3.9c0.6,1.7,0.5,3.6-0.3,5.2l-2.3,4.9c-0.1,0.3-0.5,0.4-0.8,0.3
			c-0.3-0.1-0.4-0.5-0.3-0.8l2.3-4.9c0.7-1.4,0.7-2.9,0.2-4.4c-0.5-1.4-1.5-2.6-2.9-3.2c-1.4-0.7-2.9-0.7-4.4-0.2
			c-1.4,0.5-2.6,1.5-3.2,2.9l-8.3,17.3c-0.5,1-0.5,2.1-0.2,3.1c0.4,1,1.1,1.9,2.1,2.3c2,1,4.5,0.1,5.5-1.9l7.9-16.5
			c0.6-1.3,0.1-2.8-1.2-3.5c-1.3-0.6-2.8-0.1-3.5,1.2l-3.9,8.2c-0.1,0.3-0.5,0.4-0.8,0.3c-0.3-0.1-0.4-0.5-0.3-0.8l3.9-8.2
			c0.9-1.9,3.1-2.6,5-1.8c1.9,0.9,2.6,3.1,1.8,5l-7.9,16.5C207.2,177.4,205.5,178.5,203.8,178.6z"/>
	</g>
</g>
</svg>
