<svg xmlns="http://www.w3.org/2000/svg" viewBox="0 0 232 164" class="svg-inline"><style>.st1{fill:#ffdd5e}.st2{fill:#2e2e28}.st3{fill:#fff}.st4{fill:#ff975e}.st5{fill:#2585bf}.st6{fill:#6e83be}</style><path d="M229.2 148c0 4.4-50.7 7.9-113.2 7.9S2.8 152.3 2.8 148s50.7-8 113.2-8 113.2 3.6 113.2 8" style="fill:#a3a6b0"/><path class="st1" d="m118.8 115.6-1.7 6.1c-.1.2-.2.3-.4.3l-6.3-.6c-.8-.1-1.5.3-1.9 1-1.1 1.9-2.5 3.7-4.1 5.4-.6.6-.7 1.4-.5 2.1l2.2 6c.1.2 0 .4-.2.5l-5.4 3.1c-.2.1-.2.1-.3 0-.1 0-.2-.1-.2-.2l-4-4.9c-.5-.6-1.3-.9-2.1-.6-2.2.6-4.5.9-6.7.8-.8 0-1.5.4-1.9 1.1l-2.7 5.8c-.1.2-.2.2-.5.2L76 140c-.2-.1-.3-.2-.3-.4l.6-6.3c.1-.8-.3-1.5-1-1.9-1.9-1.1-3.7-2.4-5.2-4.1-.2-.2-.6-.4-.9-.6-.4-.1-.8-.1-1.2.1l-6 2.2h-.2c-.1 0-.2-.1-.2-.2l-3.1-5.4c-.1-.2-.1-.4.1-.5l4.9-4c.6-.5.9-1.3.6-2.1-.6-2.2-.9-4.5-.9-6.7 0-.8-.5-1.5-1.1-1.9l-5.8-2.7c-.2-.1-.2-.2-.2-.5l1.7-6.1c.1-.2.2-.3.4-.3l6.2.6c.8.1 1.5-.3 1.9-1 1.1-1.9 2.5-3.8 4.1-5.4.6-.6.7-1.4.5-2.1l-2.2-6c-.1-.2 0-.4.2-.5l5.4-3.1c.2-.1.2-.1.3 0 .1 0 .2.1.2.2l4 4.9c.5.6 1.3.9 2.1.6 2.2-.6 4.5-.9 6.7-.9.8 0 1.5-.5 1.9-1.1l2.7-5.8c.1-.2.2-.2.5-.2l6.1 1.7c.2.1.3.2.2.4l-.6 6.2c-.1.8.3 1.5 1 1.9 2 1.1 3.8 2.6 5.4 4.2.6.6 1.4.8 2.1.5l5.9-2.2h.2c.1 0 .2.1.2.2l3.1 5.4c.1.2.1.4-.1.5l-4.9 4c-.6.5-.9 1.3-.6 2.1.6 2.2.9 4.5.8 6.7 0 .8.4 1.5 1.1 1.9l5.8 2.7c.3.3.4.4.4.6m-16.6-1.3c2.3-8.2-2.5-16.7-10.7-18.9-8.2-2.3-16.7 2.5-19 10.7S75 122.8 83.2 125c8.2 2.3 16.7-2.5 19-10.7"/><path class="st2" d="M82.1 142.4c-.1 0-.2 0-.3-.1l-6.1-1.7c-.6-.2-.9-.6-.8-1.2l.6-6.3c.1-.5-.2-1-.6-1.2-1.9-1.1-3.7-2.5-5.4-4.1-.2-.2-.3-.2-.6-.3-.2-.1-.5-.1-.7 0l-6 2.2h-.1c-.2.1-.4.1-.6 0-.3-.1-.6-.2-.7-.6l-3.1-5.4c-.2-.5-.2-1.1.2-1.4l4.9-4c.4-.3.6-.8.4-1.3-.6-2.3-.9-4.5-.9-6.9 0-.5-.3-1-.7-1.1l-5.8-2.7c-.5-.2-.7-.8-.6-1.4l1.7-6.1c.2-.6.6-.9 1.2-.8l6.2.6c.5.1 1-.2 1.2-.6 1.1-2 2.6-3.9 4.2-5.5.3-.3.5-.9.3-1.3l-2.2-6c-.2-.5 0-1.1.5-1.4l5.4-3.1c.2-.1.5-.2.9-.1.2.1.4.2.6.4l4 4.9c.3.4.8.6 1.3.4 2.3-.6 4.6-.9 6.9-.9.5 0 1-.3 1.1-.7l2.7-5.8c.2-.5.8-.7 1.4-.6l6.1 1.7c.6.2.9.6.8 1.2l-.6 6.2c-.1.5.2 1 .6 1.2 2.1 1.1 4 2.7 5.6 4.4.3.4.9.5 1.4.3l5.9-2.2h.1c.2-.1.5-.1.6 0 .2.1.6.2.6.6l3.1 5.4c.2.5.2 1.1-.2 1.5l-4.9 4c-.4.3-.6.8-.4 1.3.6 2.2.9 4.5.9 6.9 0 .5.2 1 .7 1.1l5.8 2.7c.5.2.7.8.6 1.4l-1.7 6.1c0 .1-.1.2-.1.2-.2.4-.6.6-1.1.6l-6.3-.6c-.5-.1-1 .2-1.2.6-1.1 2-2.6 3.9-4.3 5.5-.3.3-.5.9-.3 1.4l2.2 6c.2.5-.1 1.1-.5 1.4l-5.4 3.1c-.2.2-.6.2-.9.1-.2-.1-.4-.2-.6-.4l-4-4.9c-.3-.4-.8-.6-1.3-.4-2.3.6-4.5.9-6.9.9-.5 0-1 .2-1.1.7l-2.7 5.8c-.2-.1-.6.3-1 .3zm-5.7-3.1 5.4 1.5 2.6-5.4c.5-1 1.5-1.6 2.5-1.6 2.2 0 4.4-.2 6.5-.8 1.1-.2 2.2.1 2.8.9l3.8 4.7 4.9-2.8-2-5.7c-.4-1.1-.1-2.2.6-2.9 1.5-1.5 2.9-3.2 4.1-5.2.6-1 1.5-1.5 2.7-1.4l6 .6 1.5-5.4-5.5-2.6c-1-.5-1.6-1.5-1.6-2.5 0-2.2-.2-4.4-.8-6.5-.2-1.1.1-2.2.9-2.8l4.7-3.8-2.8-4.9-5.7 2.1c-1.1.4-2.2.1-2.9-.6-1.5-1.6-3.3-3-5.3-4.1-1-.6-1.5-1.6-1.4-2.7l.6-6-5.4-1.5-2.6 5.5c-.5 1-1.5 1.6-2.5 1.6-2.2 0-4.4.2-6.5.8-1.1.2-2.2-.1-2.8-.9L74.5 82l-4.9 2.8 2.1 5.8c.4 1.1.1 2.2-.6 2.9-1.5 1.5-2.9 3.2-4 5.2-.6 1-1.6 1.5-2.7 1.4l-6-.6-1.5 5.4 5.5 2.6c1 .5 1.6 1.5 1.6 2.5 0 2.2.2 4.4.8 6.5.2 1.1-.1 2.2-.9 2.8l-4.7 3.8L62 128l5.8-2.1c.5-.2 1.1-.2 1.7-.1.5.2.9.4 1.2.7 1.5 1.5 3.2 2.8 5 3.9 1 .6 1.5 1.5 1.4 2.7l-.7 6.2zm11-13c-1.5 0-2.8-.2-4.3-.6-8.6-2.4-13.6-11.3-11.3-19.9s11.3-13.6 19.9-11.3c4.1 1.1 7.6 3.8 9.7 7.6 2.1 3.7 2.7 8.1 1.5 12.2-1.9 7.4-8.5 12-15.5 12m0-30.8c-6.4 0-12.3 4.3-14.1 10.7-2.2 7.8 2.4 15.9 10.2 18 7.8 2.2 15.9-2.4 18-10.2l.7.2-.7-.2c1.1-3.7.6-7.7-1.4-11.1s-5-5.8-8.8-6.9c-1.3-.3-2.6-.5-3.9-.5"/><path class="st1" d="m122.6 116.7-1.7 6.1c-.6 2.1-2.5 3.4-4.7 3.2l-5-.6c-.9 1.5-2 2.8-3.2 4.1l1.7 4.8c.7 2-.1 4.3-1.9 5.4l-5.4 3.1c-1.1.6-2.2.7-3.3.4-.9-.2-1.7-.7-2.3-1.5l-3.2-4c-1.7.4-3.5.6-5.2.6l-2.2 4.6c-.9 1.9-3.1 3-5.2 2.4l-6.1-1.7c-2.1-.6-3.4-2.6-3.2-4.7l.6-5c-1.5-.9-2.8-1.9-4.1-3.1l-4.9 1.8c-.9.3-1.8.3-2.7.1-1.1-.3-2.1-1.1-2.7-2.1l-3.1-5.4c-1.1-1.9-.6-4.2 1.1-5.6l3.9-3.2c-.4-1.7-.6-3.5-.6-5.2l-4.6-2.2c-1.9-.9-3-3.1-2.4-5.2l1.7-6.1c.6-2.1 2.5-3.4 4.7-3.2l5 .5c1-1.5 2-2.8 3.2-4.1L65 86.1c-.7-2 .1-4.3 1.9-5.4l5.5-3.1c1.1-.6 2.2-.7 3.3-.4.9.2 1.7.7 2.3 1.5l3.2 4c1.7-.4 3.5-.6 5.2-.6l2.2-4.6c.9-1.9 3.1-3 5.2-2.4l6.1 1.7c2.1.6 3.4 2.6 3.2 4.7l-.5 4.9c1.5 1 3 2.1 4.3 3.3l4.8-1.7c.9-.3 1.8-.3 2.7-.1 1.1.3 2.1 1.1 2.7 2.1l3.1 5.4c1.1 1.9.6 4.2-1.1 5.6l-4 3.2c.4 1.7.6 3.5.6 5.2l4.6 2.2c1.9.8 2.9 3 2.3 5.1m-5.5 5 1.7-6.1c.1-.2 0-.4-.2-.5l-5.8-2.7c-.7-.3-1.1-1.1-1.1-1.9 0-2.3-.2-4.5-.8-6.7-.2-.7.1-1.6.6-2.1l4.9-4c.2-.2.2-.3.1-.5l-3.1-5.4c-.1-.2-.2-.2-.2-.2h-.2l-5.9 2.2c-.7.2-1.5.1-2.1-.5-1.6-1.7-3.4-3.1-5.4-4.2-.7-.4-1.1-1.1-1-1.9l.6-6.2c0-.2-.1-.4-.2-.4l-6.1-1.7c-.2-.1-.4 0-.5.2l-2.7 5.8c-.3.7-1.1 1.1-1.9 1.1-2.3 0-4.5.2-6.7.9-.7.2-1.6-.1-2.1-.6l-4-4.9-.2-.2h-.3L69 84.3c-.2.1-.2.3-.2.5l2.2 6c.2.7.1 1.5-.5 2.1-1.6 1.5-3 3.4-4.1 5.4-.4.7-1.1 1.1-1.9 1l-6.2-.6c-.2 0-.4.1-.4.3l-1.7 6.1c-.1.2 0 .4.2.5l5.8 2.7c.7.3 1.1 1.1 1.1 1.9 0 2.3.2 4.5.9 6.7.2.7-.1 1.6-.6 2.1l-4.9 4c-.2.2-.2.3-.1.5l3.1 5.4c.1.2.2.2.2.2h.2l6-2.2c.4-.2.8-.2 1.2-.1.3.1.6.2.9.6 1.5 1.5 3.3 2.9 5.2 4.1.6.4 1.1 1.1 1 1.9l-.6 6.3c0 .2.1.4.3.4l6.1 1.7c.2.1.4 0 .5-.2l2.7-5.8c.3-.7 1.1-1.2 1.9-1.1 2.3.1 4.5-.2 6.7-.8.7-.2 1.6.1 2.1.6l4 4.9.2.2h.3l5.4-3.1c.2-.1.2-.3.2-.5l-2.2-6c-.2-.7-.1-1.5.5-2.1 1.6-1.5 3-3.4 4.1-5.4.4-.6 1.1-1.1 1.9-1l6.3.6c0-.1.2-.3.3-.4z"/><path class="st2" d="M82.1 146.3c-.5 0-.9-.1-1.4-.2l-6.1-1.7c-2.4-.6-4.1-3-3.7-5.5l.5-4.6c-1.2-.8-2.4-1.7-3.4-2.7l-4.4 1.6c-1 .4-2.1.4-3.2.2-1.3-.4-2.4-1.2-3.1-2.4l-3.1-5.4c-1.3-2.2-.7-4.9 1.2-6.6l3.6-2.8c-.3-1.5-.5-2.9-.6-4.5l-4.2-2c-2.3-1.1-3.5-3.7-2.8-6.1l1.7-6.1c.6-2.4 3-4.1 5.5-3.7l4.5.5c.8-1.3 1.7-2.4 2.8-3.6l-1.6-4.4c-.9-2.4.1-5 2.3-6.2l5.5-3.1c1.2-.6 2.6-.9 3.9-.5 1.1.3 1.9.9 2.6 1.7l2.8 3.6c1.5-.3 2.9-.5 4.5-.6l2-4.2c1.1-2.3 3.7-3.5 6.1-2.8l6.1 1.7c2.4.6 4.1 3 3.7 5.5l-.5 4.5c1.3.8 2.5 1.8 3.7 2.8l4.4-1.6c1-.4 2.1-.4 3.2-.2 1.3.4 2.4 1.2 3.1 2.4l3.1 5.4c1.3 2.2.7 4.9-1.2 6.6l-3.6 2.9c.3 1.5.5 2.9.6 4.5l4.2 1.9c2.3 1.1 3.5 3.7 2.8 6.1l-1.7 6c-.6 2.4-3 4.1-5.5 3.7l-4.6-.5c-.8 1.2-1.7 2.4-2.8 3.5l1.6 4.4c.9 2.4-.1 5-2.3 6.2l-5.4 3.1c-1.2.6-2.6.9-3.9.5-1.1-.3-1.9-.9-2.6-1.7l-2.9-3.6c-1.5.3-2.9.5-4.5.6l-1.9 4.2c-1.2 2.1-3.1 3.2-5 3.2m-14-16.2c.2 0 .4.1.5.2 1.2 1.1 2.5 2.1 3.9 3 .2.2.4.4.3.7l-.6 5c-.2 1.8 1 3.4 2.7 3.9l6.1 1.7c1.7.5 3.6-.3 4.3-1.9l2.2-4.6c.1-.2.4-.4.6-.4 1.7-.1 3.4-.2 5.1-.6.2-.1.6 0 .7.2l3.2 4c.5.6 1.1 1.1 1.9 1.2 1 .2 1.9.2 2.8-.3l5.4-3.1c1.5-.9 2.3-2.8 1.6-4.5l-1.7-4.8c-.1-.2 0-.6.2-.7 1.2-1.3 2.3-2.7 3.2-4.1.2-.2.4-.4.7-.3l5 .6c1.8.2 3.4-1 3.9-2.7l1.7-6.1c.5-1.7-.3-3.5-1.9-4.3l-4.6-2.2c-.2-.1-.4-.4-.4-.6-.1-1.7-.2-3.4-.6-5.1-.1-.2 0-.6.2-.7l4-3.2c1.4-1.1 1.8-3.1.9-4.6l-3.1-5.4c-.5-.9-1.3-1.5-2.2-1.7-.7-.2-1.5-.2-2.2.1l-4.8 1.7c-.2.1-.6 0-.7-.2-1.3-1.2-2.7-2.4-4.2-3.2-.2-.2-.4-.4-.3-.7l.5-4.9c.2-1.8-1-3.4-2.7-3.9l-6.1-1.7c-1.7-.5-3.6.3-4.3 1.9L87 82.2c-.1.2-.4.4-.6.4-1.7.1-3.4.2-5.1.6-.2.1-.6 0-.7-.2l-3.2-4c-.5-.6-1.1-1.1-1.9-1.2-1-.2-1.9-.2-2.8.3l-5.5 3.1c-1.5.9-2.3 2.8-1.6 4.5l1.8 4.9c.1.2 0 .6-.2.7-1.1 1.2-2.2 2.6-3.1 4.1-.2.2-.4.4-.7.3l-5-.5c-1.8-.2-3.4 1-3.9 2.7l-1.7 6.1c-.5 1.7.3 3.6 1.9 4.3l4.6 2.2c.2.1.4.4.4.6.1 1.7.2 3.4.6 5 .1.2 0 .6-.2.7l-3.9 3.2c-1.4 1.1-1.8 3.1-.9 4.6l3.1 5.4c.5.9 1.3 1.5 2.2 1.7.7.2 1.5.2 2.2-.1l4.9-1.8c.3.3.4.3.4.3m14 12.3c-.1 0-.2 0-.3-.1l-6.1-1.7c-.6-.2-.9-.6-.8-1.2l.6-6.3c.1-.5-.2-1-.6-1.2-1.9-1.1-3.7-2.5-5.4-4.1-.2-.2-.3-.2-.6-.3-.2-.1-.5-.1-.7 0l-6 2.2h-.1c-.2.1-.4.1-.6 0-.3-.1-.6-.2-.7-.6l-3.1-5.4c-.2-.5-.2-1.1.2-1.4l4.9-4c.4-.3.6-.8.4-1.3-.6-2.3-.9-4.6-.9-6.9 0-.5-.3-1-.7-1.1l-5.8-2.7c-.5-.2-.7-.8-.6-1.4l1.7-6.1c.2-.6.6-.9 1.2-.8l6.2.6c.5.1 1-.2 1.2-.6 1.1-2 2.6-3.9 4.2-5.5.3-.3.5-.9.3-1.3l-2.2-6c-.2-.5 0-1.1.5-1.4l5.4-3.1c.2-.1.5-.2.9-.1.2.1.4.2.6.4l4 4.9c.3.4.8.6 1.3.4 2.3-.6 4.5-.9 6.9-.9.5 0 1-.3 1.1-.7l2.7-5.8c.2-.5.8-.7 1.4-.6l6.1 1.7c.6.2.9.6.8 1.2l-.6 6.2c-.1.5.2 1 .6 1.2 2.1 1.1 4 2.7 5.6 4.4.3.4.9.5 1.4.3l5.9-2.2h.1c.2-.1.5-.1.6 0 .2.1.6.2.6.6l3.1 5.4c.2.5.2 1.1-.2 1.5l-4.9 4c-.4.3-.6.8-.4 1.3.6 2.2.9 4.5.9 6.9 0 .5.2 1 .7 1.1l5.8 2.7c.5.2.7.8.6 1.4l-1.7 6.1c0 .1-.1.2-.1.2-.2.4-.6.6-1.1.6l-6.3-.6c-.5-.1-1 .2-1.2.6-1.1 2-2.6 3.9-4.3 5.5-.3.3-.5.9-.3 1.4l2.2 6c.2.5-.1 1.1-.5 1.4l-5.4 3.1c-.2.2-.6.2-.9.1-.2-.1-.4-.2-.6-.4l-4-4.9c-.3-.4-.8-.6-1.3-.4-2.3.6-4.5.9-6.9.9-.5 0-1 .2-1.1.7l-2.7 5.8c-.2-.1-.6.3-1 .3zm-5.7-3.1 5.4 1.5 2.6-5.4c.5-1 1.5-1.6 2.5-1.6 2.2 0 4.4-.2 6.5-.8 1.1-.2 2.2.1 2.8.9l3.8 4.7 4.9-2.8-2-5.7c-.4-1.1-.1-2.2.6-2.9 1.5-1.5 2.9-3.2 4.1-5.2.6-1 1.5-1.5 2.7-1.4l6 .6 1.5-5.4-5.5-2.6c-1-.5-1.6-1.5-1.6-2.5 0-2.2-.2-4.4-.8-6.5-.2-1.1.1-2.2.9-2.8l4.7-3.8-2.8-4.9-5.7 2.1c-1.1.4-2.2.1-2.9-.6-1.5-1.6-3.3-3-5.3-4.1-1-.6-1.5-1.6-1.4-2.7l.6-6-5.4-1.5-2.6 5.5c-.5 1-1.5 1.6-2.5 1.6-2.2 0-4.4.2-6.5.8-1.1.2-2.2-.1-2.8-.9L74.5 82l-4.9 2.8 2.1 5.8c.4 1.1.1 2.2-.6 2.9-1.5 1.5-2.9 3.2-4 5.2-.6 1-1.6 1.5-2.7 1.4l-6-.6-1.5 5.4 5.5 2.6c1 .5 1.6 1.5 1.6 2.5 0 2.2.2 4.4.8 6.5.2 1.1-.1 2.2-.9 2.8l-4.7 3.8L62 128l5.8-2.1c.5-.2 1.1-.2 1.7-.1.5.2.9.4 1.2.7 1.5 1.5 3.2 2.8 5 3.9 1 .6 1.5 1.5 1.4 2.7l-.7 6.2z"/><path class="st1" d="M91.5 95.4c8.2 2.3 13 10.8 10.7 18.9-2.3 8.2-10.8 13-18.9 10.7-8.2-2.3-13-10.8-10.7-18.9 2.2-8.2 10.7-13 18.9-10.7m6.8 17.8c1.7-6.1-1.9-12.3-7.9-14-6.1-1.7-12.3 1.9-14 7.9-1.7 6.1 1.9 12.3 7.9 14 6.1 1.7 12.4-1.9 14-7.9"/><path class="st2" d="M87.4 126.3c-1.5 0-2.8-.2-4.3-.6-8.6-2.4-13.6-11.3-11.3-19.9s11.3-13.6 19.9-11.3c4.1 1.1 7.6 3.8 9.7 7.6 2.1 3.7 2.7 8.1 1.5 12.2-1.9 7.4-8.5 12-15.5 12m0-30.8c-6.4 0-12.3 4.3-14.1 10.7-2.2 7.8 2.4 15.9 10.2 18 1.3.3 2.6.6 3.9.6 6.4 0 12.3-4.3 14.1-10.7 1.1-3.7.6-7.7-1.4-11.1s-5-5.8-8.8-6.9c-1.3-.4-2.6-.6-3.9-.6m0 26.8c-1.1 0-2.2-.2-3.2-.4-3.1-.9-5.7-2.9-7.3-5.7-1.6-2.8-2-6.1-1.1-9.2 1.8-6.4 8.4-10.2 14.9-8.4 3.1.9 5.7 2.9 7.3 5.7 1.6 2.8 2 6.1 1.1 9.2l-.7-.2.7.2c-.9 3.1-2.9 5.7-5.7 7.3-1.9.9-3.9 1.5-6 1.5m0-22.7c-4.6 0-8.9 3.1-10.2 7.8-.7 2.8-.4 5.6 1 8 1.4 2.4 3.7 4.2 6.4 5 2.8.7 5.6.4 8-1s4.2-3.7 5-6.4c.7-2.8.4-5.6-1-8-1.4-2.4-3.7-4.2-6.4-5-1-.3-1.9-.4-2.8-.4"/><path class="st3" d="M83.1 125.5c-8.4-2.4-13.4-11.1-11-19.5 2.4-8.4 11.1-13.4 19.5-11 8.4 2.4 13.4 11.1 11 19.5-2.3 8.3-11 13.3-19.5 11m8.2-29.7c-7.9-2.2-16.1 2.5-18.4 10.4-2.2 7.9 2.5 16.1 10.4 18.3 7.9 2.2 16.1-2.5 18.3-10.4 2.4-7.8-2.3-16.1-10.3-18.3m-7.1 25.8c-6.2-1.7-10-8.3-8.3-14.5 1.7-6.2 8.3-10 14.5-8.3 6.2 1.7 10 8.3 8.3 14.5-1.7 6.3-8.2 10-14.5 8.3m6.1-21.9c-5.8-1.6-11.8 1.8-13.5 7.6-1.6 5.8 1.8 11.8 7.6 13.4 5.8 1.6 11.8-1.8 13.4-7.6 1.7-5.8-1.8-11.8-7.5-13.4"/><path class="st2" d="M87.4 126.8c-1.5 0-3-.2-4.5-.6-8.8-2.4-14-11.6-11.6-20.4 1.2-4.3 4-7.8 7.8-10 3.9-2.2 8.4-2.8 12.6-1.5 4.3 1.2 7.8 4 10 7.8 2.2 3.9 2.8 8.4 1.5 12.6-1.2 4.3-4 7.8-7.8 10-2.4 1.3-5.2 2.1-8 2.1m0-30.8c-2.4 0-4.8.6-7 1.9-3.3 1.9-5.7 4.9-6.7 8.5-2.1 7.5 2.4 15.3 9.9 17.4 1.3.3 2.5.5 3.8.5 6.2 0 11.9-4.1 13.7-10.4 2.1-7.5-2.4-15.3-9.9-17.4-1.3-.3-2.5-.5-3.8-.5m0 26.8c-1.1 0-2.3-.2-3.3-.5-3.2-.9-5.9-3-7.6-5.9-1.6-2.9-2.1-6.3-1.2-9.6 1.9-6.7 8.8-10.6 15.5-8.8 3.2.9 5.9 3 7.5 5.9 1.6 2.9 2.1 6.3 1.2 9.6-.9 3.2-3 5.9-5.9 7.5-1.9 1.2-4 1.8-6.2 1.8m0-22.8c-1.7 0-3.5.5-5 1.3-2.4 1.4-4.1 3.5-4.8 6.2-.7 2.6-.4 5.4 1 7.7 1.4 2.4 3.5 4.1 6.2 4.8.9.2 1.8.4 2.7.4 1.7 0 3.4-.5 5-1.3 2.4-1.4 4.1-3.5 4.8-6.2.7-2.6.4-5.4-1-7.7-1.4-2.4-3.5-4.1-6.2-4.8-.9-.2-1.8-.4-2.7-.4"/><path class="st4" d="m175.1 103.1-3.3-1.9c.1-1.3 0-2.6-.2-3.9l3.2-2.1c1.3-.9 1.8-2.7 1.1-4.1l-1.9-4.2c-.4-.8-1.1-1.4-1.9-1.7-.6-.2-1.3-.2-2-.1l-3.7 1c-.9-1-1.9-1.9-3-2.8l.7-3.7c.3-1.6-.6-3.2-2.1-3.7l-4.4-1.6c-1.5-.6-3.2.1-4 1.5l-1.9 3.3c-1.3-.1-2.6 0-3.9.2l-2.1-3.2c-.4-.6-1-1-1.6-1.2-.8-.3-1.7-.2-2.5.1l-4.3 1.9c-1.5.6-2.2 2.3-1.8 3.9l1.1 3.7c-1 .9-1.9 1.9-2.7 2.9l-3.7-.6c-1.6-.3-3.2.6-3.7 2.1l-1.6 4.4c-.6 1.5.1 3.2 1.5 4l3.3 1.9c-.1 1.3 0 2.6.2 3.9l-3.1 2.1c-1.3.9-1.8 2.7-1.1 4.1l1.9 4.3c.4.8 1.1 1.4 1.9 1.7.6.2 1.3.2 2 .1l3.7-1c.9 1 1.8 1.8 2.8 2.6l-.7 3.7c-.3 1.6.6 3.2 2.1 3.7l4.4 1.6c1.5.6 3.2-.1 4-1.5l1.9-3.3c1.3.1 2.6 0 3.9-.2l2.1 3.2c.4.6 1 1 1.6 1.2.8.3 1.7.2 2.5-.1l4.3-1.9c1.5-.6 2.2-2.3 1.8-3.9l-1-3.7c1-.9 1.9-1.9 2.7-2.9l3.7.7c1.6.3 3.2-.6 3.7-2.1l1.6-4.4c.5-1.6-.1-3.3-1.5-4m-13.6.9c-2.2 5.9-8.8 9-14.8 6.8-5.9-2.2-9-8.8-6.8-14.8s8.8-9 14.8-6.8 9 8.9 6.8 14.8"/><path class="st2" d="M144.9 126.9c-.5 0-1-.1-1.4-.2l-4.4-1.6c-1.9-.6-2.9-2.6-2.6-4.5l.6-3.2c-.8-.6-1.5-1.3-2.2-2l-3.2.9c-.8.2-1.6.2-2.4-.1-1-.4-1.8-1.1-2.3-2.1l-1.9-4.2c-.8-1.8-.2-3.9 1.4-5l2.8-1.9c-.2-1.1-.2-2.1-.2-3.2l-2.9-1.7c-1.7-1-2.4-3.1-1.8-4.9l1.6-4.4c.6-1.9 2.6-2.9 4.5-2.6l3.2.6c.6-.8 1.4-1.6 2.1-2.4L135 81c-.5-1.9.4-3.9 2.2-4.7l4.3-1.9c1-.5 2.1-.5 3.1-.2.8.3 1.5.8 1.9 1.5l1.9 2.8c1.1-.2 2.1-.2 3.2-.2l1.7-2.9c1-1.7 3.1-2.4 4.9-1.8l4.4 1.6c1.9.6 2.9 2.6 2.6 4.5l-.6 3.2c.8.6 1.7 1.4 2.4 2.2l3.2-.9c.8-.2 1.6-.2 2.4.1 1 .4 1.8 1.1 2.3 2.1l1.9 4.3c.8 1.8.2 3.9-1.4 5l-2.8 1.9c.1 1.1.2 2.1.2 3.2l2.9 1.6c1.7 1 2.5 3.1 1.8 4.9l-1.6 4.4c-.6 1.6-2.1 2.7-3.8 2.7-.2 0-.5 0-.7-.1l-3.2-.6c-.6.8-1.4 1.5-2.1 2.3l.9 3.2c.5 1.9-.4 3.9-2.2 4.7l-4.3 1.9c-1 .5-2.1.5-3.1.2-.8-.3-1.5-.8-1.9-1.5l-1.9-2.8c-1.1.1-2.1.2-3.2.2l-1.6 2.9c-1.2 1.2-2.5 2.1-3.9 2.1m-9.8-13.4c.2 0 .4.1.6.2.8.9 1.7 1.7 2.7 2.5.2.2.3.5.2.7l-.7 3.7c-.2 1.2.5 2.4 1.6 2.8l4.4 1.6c1.1.4 2.4-.1 3.1-1.1l1.9-3.3c.2-.2.4-.4.6-.4 1.3.1 2.5 0 3.8-.2.2 0 .6.1.7.3l2.1 3.2c.3.4.7.7 1.2 1 .6.2 1.3.2 1.9-.1l4.3-1.9c1.1-.5 1.7-1.8 1.4-3l-1-3.7c-.1-.2 0-.6.2-.7 1-.9 1.9-1.8 2.6-2.8.2-.2.5-.3.7-.3l3.7.7c1.2.2 2.4-.5 2.8-1.6l1.6-4.4c.4-1.1 0-2.4-1.1-3.1l-3.3-1.9c-.2-.2-.4-.4-.4-.6.1-1.3 0-2.5-.2-3.8 0-.2.1-.6.3-.7l3.2-2.1c1.1-.7 1.4-2 .9-3.2L173 87c-.3-.6-.8-1.1-1.5-1.3-.5-.2-1.1-.2-1.5-.1l-3.7 1c-.2.1-.6 0-.7-.2-.9-1-1.9-1.9-2.9-2.7-.2-.2-.3-.5-.3-.7l.7-3.7c.2-1.2-.5-2.4-1.6-2.8l-4.4-1.6c-1.1-.4-2.4.1-3.1 1.1l-1.9 3.3c-.2.2-.4.4-.6.4-1.3-.1-2.5 0-3.8.2-.2.1-.6-.1-.7-.3l-2.1-3.2c-.3-.4-.7-.7-1.2-1-.6-.2-1.3-.2-1.9.1l-4.3 1.9c-1.1.5-1.7 1.8-1.4 3l1 3.7c.1.2 0 .6-.2.7-.9.8-1.8 1.8-2.5 2.8-.2.2-.5.3-.7.3l-3.7-.6c-1.2-.2-2.4.5-2.8 1.6l-1.6 4.4c-.4 1.1.1 2.4 1.1 3.1l3.3 1.9c.2.2.4.4.4.6-.1 1.3 0 2.5.2 3.8 0 .2-.1.6-.3.7l-3.1 2.1c-1.1.7-1.4 2-.9 3.2l1.9 4.3c.3.6.8 1.1 1.5 1.3.5.2 1.1.2 1.5.1l3.7-1.1c.1.3.2.2.2.2m15.6-1.2c-1.4 0-2.8-.2-4.2-.7-3.1-1.1-5.5-3.4-6.9-6.3-1.4-3-1.5-6.3-.4-9.3 2.4-6.3 9.4-9.6 15.7-7.3 3.1 1.1 5.5 3.4 6.9 6.3 1.4 3 1.5 6.3.4 9.3-1.8 5-6.5 8-11.5 8m0-23c-4.4 0-8.5 2.7-10.1 7.1-1 2.7-.9 5.6.3 8.2 1.2 2.6 3.3 4.6 6.1 5.6 5.6 2 11.8-.8 13.8-6.4 1-2.7.9-5.6-.3-8.2s-3.3-4.6-6.1-5.6c-1.2-.5-2.5-.7-3.7-.7z"/><path class="st4" d="M154.7 89.2c5.9 2.2 9 8.8 6.8 14.8-2.2 5.9-8.8 9-14.8 6.8-5.9-2.2-9-8.8-6.8-14.8 2.2-5.9 8.8-9 14.8-6.8m4 13.8c1.6-4.4-.6-9.2-5-10.9-4.4-1.6-9.3.6-10.9 5-1.6 4.4.6 9.2 5 10.9s9.2-.6 10.9-5"/><path class="st2" d="M150.7 112.3c-1.4 0-2.8-.2-4.2-.7-3.1-1.1-5.5-3.4-6.9-6.3-1.4-3-1.5-6.3-.4-9.3 2.4-6.3 9.4-9.6 15.7-7.3 3.1 1.1 5.5 3.4 6.9 6.3 1.4 3 1.5 6.3.4 9.3-1.8 5-6.5 8-11.5 8m0-23c-4.4 0-8.5 2.7-10.1 7.1-1 2.7-.9 5.6.3 8.2s3.3 4.6 6.1 5.6c1.2.5 2.4.6 3.7.6 4.4 0 8.5-2.7 10.1-7.1 1-2.7.9-5.6-.3-8.2-1.2-2.6-3.3-4.6-6.1-5.6-1.2-.4-2.5-.6-3.7-.6m0 20c-1.1 0-2.1-.2-3.2-.6-4.8-1.8-7.2-7.1-5.5-11.8 1.8-4.8 7.1-7.2 11.8-5.5 4.8 1.8 7.2 7.1 5.5 11.8-1.3 3.8-4.9 6.1-8.6 6.1m0-17c-1.1 0-2.2.2-3.2.7-1.9.9-3.3 2.4-4.1 4.4-1.5 4 .6 8.4 4.6 10 1.9.7 4.1.6 5.9-.2 1.9-.9 3.3-2.4 4.1-4.4 1.5-4-.6-8.4-4.6-10-.9-.3-1.8-.5-2.7-.5z"/><path class="st3" d="M146.6 111.2c-6.2-2.3-9.2-9.1-7.1-15.2 2.3-6.2 9.1-9.2 15.2-7.1 6.2 2.3 9.2 9.1 7.1 15.2-2.2 6.1-9.1 9.3-15.2 7.1m7.9-21.7c-5.8-2.1-12.2.8-14.4 6.7-2.1 5.8.9 12.2 6.7 14.4 5.8 2.1 12.2-.8 14.4-6.7 2.1-5.8-.9-12.2-6.7-14.4m-6.9 18.9c-4.5-1.7-6.9-6.7-5.3-11.4 1.7-4.5 6.7-6.9 11.4-5.3 4.5 1.7 6.9 6.7 5.3 11.4-1.7 4.5-6.7 7-11.4 5.3m5.9-16c-4.2-1.5-8.9.6-10.5 4.9-1.5 4.2.6 8.9 4.9 10.5 4.2 1.5 8.9-.6 10.5-4.9 1.5-4.3-.7-9-4.9-10.5"/><path class="st2" d="M150.7 112.7c-1.5 0-2.9-.2-4.3-.8-6.5-2.4-9.9-9.7-7.5-16.1 2.4-6.5 9.7-9.9 16.1-7.5 3.2 1.1 5.7 3.5 7.1 6.6 1.4 3.1 1.5 6.5.4 9.7-1.1 3.2-3.5 5.7-6.6 7.1-1.6.6-3.4 1-5.2 1m0-23.1c-1.5 0-3 .3-4.4 1-2.5 1.1-4.5 3.2-5.4 5.8-1.9 5.4.8 11.4 6.2 13.4 5.4 1.9 11.4-.8 13.4-6.2 1-2.6.8-5.4-.3-7.9s-3.2-4.5-5.8-5.4c-1.2-.4-2.5-.7-3.7-.7m0 20.1c-1.1 0-2.2-.2-3.3-.6-2.4-.9-4.3-2.7-5.4-4.9-1.1-2.4-1.2-4.9-.3-7.3.9-2.4 2.7-4.3 4.9-5.4 2.4-1.1 4.9-1.2 7.3-.3 4.9 1.8 7.5 7.3 5.7 12.3-1.3 3.7-5 6.2-8.9 6.2m0-17.1c-1.1 0-2.1.2-3.1.7-1.8.8-3.2 2.3-3.8 4.1-.6 1.9-.6 3.9.2 5.7.8 1.8 2.3 3.2 4.1 3.8 1.9.6 3.9.6 5.7-.2 1.8-.8 3.2-2.3 3.8-4.1.6-1.9.6-3.9-.2-5.7-.8-1.8-2.3-3.2-4.1-3.8-.9-.3-1.8-.5-2.6-.5"/><path class="st5" d="m141.4 52.1-3.7-1.7c-.1-1.5-.2-2.8-.5-4.2l3.2-2.6c1.4-1.1 1.7-3 .8-4.5l-2.5-4.4c-.5-.8-1.2-1.5-2.1-1.7-.7-.2-1.5-.2-2.2.1l-3.8 1.4c-1.1-1-2.2-1.9-3.5-2.7l.4-4.1c.2-1.7-.9-3.3-2.6-3.8l-4.9-1.4c-1.7-.5-3.4.3-4.1 1.9l-1.8 3.7c-1.4.1-2.8.2-4.2.6l-2.5-3.2c-.5-.6-1.1-1-1.8-1.2-.9-.2-1.9-.2-2.7.3l-4.4 2.5c-1.5.9-2.2 2.7-1.6 4.3l1.4 3.9c-1 1.1-1.9 2.2-2.6 3.3l-4.1-.4c-1.7-.2-3.3.9-3.8 2.6l-1.4 4.9c-.5 1.7.3 3.4 1.9 4.1l3.7 1.8c.1 1.4.2 2.8.6 4.2l-3.2 2.5c-1.4 1.1-1.7 3-.8 4.5l2.5 4.4c.5.8 1.2 1.5 2.1 1.7.7.2 1.5.2 2.2-.1l3.9-1.4c1 1 2.1 1.8 3.2 2.5l-.4 4.1c-.2 1.7.9 3.3 2.6 3.8l4.9 1.4c1.7.5 3.4-.3 4.1-1.9l1.7-3.7c1.5-.1 2.8-.2 4.2-.5l2.6 3.2c.5.6 1.1 1 1.8 1.2.9.2 1.9.2 2.7-.3l4.4-2.5c1.5-.9 2.2-2.7 1.6-4.3l-1.4-3.8c1-1.1 1.9-2.2 2.6-3.3l4.1.4c1.7.2 3.3-.9 3.8-2.6l1.4-4.9c.5-1.7-.3-3.4-1.8-4.1m-14.5 2.2c-1.8 6.6-8.7 10.5-15.3 8.7-6.6-1.9-10.5-8.7-8.7-15.3 1.9-6.6 8.7-10.5 15.3-8.7 6.6 1.9 10.5 8.7 8.7 15.3"/><path class="st2" d="M110.6 80.2c-.4 0-.8-.1-1.1-.2l-4.9-1.4c-2-.6-3.3-2.5-3.2-4.6l.4-3.7c-.9-.6-1.8-1.3-2.6-2l-3.5 1.3c-.7.4-1.6.4-2.5.2-1.1-.3-2-1.1-2.6-2l-2.5-4.4c-1.1-1.9-.6-4.1 1.1-5.4l2.8-2.3c-.2-1.1-.4-2.3-.4-3.4l-3.3-1.5c-1.9-.9-2.9-3-2.4-5l1.4-4.9c.6-2 2.5-3.3 4.6-3.2l3.6.4c.6-1 1.4-1.9 2.1-2.8l-1.3-3.5c-.7-1.9.1-4.1 1.9-5.2l4.4-2.5c1-.6 2.2-.7 3.2-.4.9.2 1.6.7 2.2 1.5l2.3 2.8c1.1-.2 2.3-.4 3.4-.4l1.5-3.3c.9-1.9 3-2.9 5-2.4l4.9 1.4c2 .6 3.3 2.5 3.2 4.6l-.4 3.6c1 .6 1.9 1.4 2.8 2.2l3.4-1.2c.8-.3 1.7-.3 2.6-.1 1.1.3 2 1.1 2.6 2l2.5 4.4c1.1 1.9.6 4.1-1.1 5.4l-2.8 2.3c.2 1.1.4 2.3.4 3.4l3.3 1.5c1.9.9 2.9 3 2.3 5l-1.4 4.9c-.6 2-2.5 3.3-4.6 3.2l-3.7-.4c-.6.9-1.3 1.9-2.1 2.8l1.2 3.4c.7 1.9-.1 4.1-1.9 5.2L127 78c-1 .6-2.2.7-3.2.4-.9-.2-1.6-.7-2.2-1.5l-2.3-2.8c-1.1.2-2.3.4-3.4.4l-1.5 3.3c-.6 1.5-2.1 2.4-3.8 2.4M99.4 66.9c.2 0 .4.1.5.2 1 .9 2 1.7 3.2 2.4.2.2.4.4.3.7l-.4 4.1c-.2 1.4.7 2.6 2 3l4.9 1.4c1.3.4 2.7-.2 3.3-1.5l1.7-3.7c.1-.2.4-.4.6-.4 1.4 0 2.8-.2 4.1-.5.2-.1.6 0 .7.2l2.6 3.2c.4.5.9.8 1.5 1 .7.2 1.5.1 2.1-.2l4.4-2.5c1.2-.6 1.7-2.1 1.2-3.4l-1.4-3.9c-.1-.2 0-.6.2-.7 1-1.1 1.8-2.1 2.5-3.2.2-.2.4-.4.7-.3l4.1.4h.3c1.2 0 2.4-.8 2.7-2l1.4-4.9c.4-1.3-.2-2.7-1.5-3.2l-3.7-1.7c-.2-.1-.4-.4-.4-.6-.1-1.4-.2-2.8-.5-4.1-.1-.2 0-.6.2-.7l3.2-2.6c1.1-.9 1.4-2.4.6-3.6l-2.5-4.4c-.4-.6-1-1.1-1.7-1.3-.6-.2-1.1-.2-1.7.1l-3.9 1.4c-.2.1-.6 0-.7-.2-1.1-1-2.2-1.9-3.3-2.6-.2-.2-.4-.4-.3-.7l.4-4.1c.2-1.4-.7-2.6-2-3l-4.9-1.4c-1.3-.4-2.7.2-3.3 1.5l-1.8 3.7c-.1.2-.4.4-.6.4-1.4.1-2.8.2-4.1.5-.2.1-.6 0-.7-.2l-2.5-3.2c-.3-.5-.9-.8-1.5-1-.7-.2-1.5-.1-2.1.2L98.9 28c-1.2.6-1.7 2.1-1.2 3.4l1.4 3.9c.1.2 0 .6-.2.7-.9 1-1.8 2.1-2.5 3.2-.2.2-.4.4-.7.3l-4.1-.4c-1.4-.2-2.6.7-3 2L87.1 46c-.4 1.3.2 2.7 1.5 3.3l3.7 1.8c.2.1.4.4.4.6.1 1.4.2 2.8.6 4.1.1.2 0 .6-.2.7L90 59c-1.1.9-1.4 2.4-.6 3.6l2.5 4.4c.4.6 1 1.1 1.7 1.3.6.2 1.1.2 1.7-.1l3.9-1.4c0 .1.1.1.2.1m15.5-2.7c-1.1 0-2.4-.2-3.5-.5-3.4-1-6.2-3.2-7.9-6.2-1.7-3.1-2.2-6.6-1.2-10s3.2-6.2 6.2-7.9c3.1-1.7 6.6-2.2 10-1.2s6.2 3.2 7.9 6.2c1.7 3.1 2.2 6.6 1.2 10-1.6 5.7-6.9 9.6-12.7 9.6m0-24.9c-2 0-4 .5-5.8 1.5-2.7 1.5-4.6 4.1-5.5 7.1-.8 3-.4 6.2 1.1 8.8 1.5 2.7 4.1 4.6 7.1 5.5 6.2 1.7 12.7-1.9 14.4-8.1l.7.2-.7-.2c.8-3 .4-6.2-1.1-8.8-1.5-2.7-4.1-4.6-7.1-5.5-1-.3-2.1-.5-3.1-.5"/><path class="st5" d="M118.2 39c6.6 1.9 10.5 8.7 8.7 15.3-1.8 6.6-8.7 10.5-15.3 8.7-6.6-1.9-10.5-8.7-8.7-15.3 1.9-6.7 8.7-10.5 15.3-8.7m5.5 14.4c1.4-4.9-1.5-9.9-6.4-11.3s-9.9 1.5-11.3 6.4 1.5 9.9 6.4 11.3c5 1.4 10-1.5 11.3-6.4"/><path class="st2" d="M114.9 64.2c-1.1 0-2.4-.2-3.5-.5-3.4-1-6.2-3.2-7.9-6.2-1.7-3.1-2.2-6.6-1.2-10 1-3.4 3.2-6.2 6.2-7.9 3.1-1.7 6.6-2.2 10-1.2 3.4 1 6.2 3.2 7.9 6.2 1.7 3.1 2.2 6.6 1.2 10-1.6 5.7-6.9 9.6-12.7 9.6m0-24.9c-2 0-4 .5-5.8 1.5-2.7 1.5-4.6 4.1-5.5 7.1-.8 3-.4 6.2 1.1 8.8 1.5 2.7 4.1 4.6 7.1 5.5 1.1.3 2.1.4 3.1.4 5.1 0 9.8-3.4 11.3-8.5.8-3 .4-6.2-1.1-8.8-1.5-2.7-4.1-4.6-7.1-5.5-1-.3-2.1-.5-3.1-.5m0 21.6c-.9 0-1.8-.1-2.7-.3-2.5-.7-4.7-2.4-6-4.7-1.3-2.3-1.6-4.9-.9-7.5.7-2.5 2.4-4.7 4.7-6 2.3-1.3 4.9-1.6 7.5-.9 2.5.7 4.7 2.4 6 4.7 1.3 2.3 1.6 4.9.9 7.5-1.2 4.3-5.2 7.2-9.5 7.2m0-18.3c-1.5 0-2.8.4-4.1 1.1-1.9 1.1-3.3 2.9-4 5.1-.6 2.2-.3 4.5.8 6.4s2.9 3.3 5.1 4c4.5 1.2 9.1-1.4 10.4-5.8.6-2.2.3-4.5-.8-6.4-1.1-1.9-2.9-3.3-5.1-4-.8-.3-1.5-.4-2.3-.4z"/><path class="st3" d="M111.5 63.3c-6.8-1.9-10.8-8.9-8.9-15.7 1.9-6.8 8.9-10.8 15.7-8.9 6.8 1.9 10.8 8.9 8.9 15.7-1.9 6.8-8.9 10.8-15.7 8.9m6.6-23.9c-6.4-1.8-13.1 2-14.8 8.4-1.8 6.4 2 13.1 8.4 14.8 6.4 1.8 13.1-2 14.8-8.4 1.7-6.4-2-13.1-8.4-14.8m-5.8 20.8c-5-1.4-8-6.7-6.7-11.8 1.4-5 6.7-8 11.8-6.7 5 1.4 8 6.7 6.7 11.8-1.4 5.1-6.6 8.1-11.8 6.7m4.9-17.7c-4.7-1.3-9.5 1.5-10.8 6.2s1.5 9.5 6.2 10.8c4.7 1.3 9.5-1.5 10.8-6.2 1.3-4.6-1.5-9.5-6.2-10.8"/><path class="st2" d="M114.9 64.5c-1.2 0-2.4-.2-3.7-.5-7.2-2-11.4-9.5-9.4-16.6 2-7.2 9.5-11.4 16.6-9.4 7.2 2 11.4 9.5 9.4 16.6-1 3.5-3.2 6.4-6.4 8.2-1.9 1.1-4.2 1.7-6.5 1.7m0-24.8c-4.9 0-9.5 3.2-10.9 8.3-1.6 6 1.9 12.2 7.9 13.9 2.9.8 5.9.4 8.6-1.1 2.6-1.5 4.5-3.9 5.4-6.8.8-2.9.4-5.9-1.1-8.6-1.5-2.6-3.9-4.5-6.8-5.4-1.1-.2-2.1-.3-3.1-.3m0 21.5c-.9 0-1.9-.2-2.8-.4-5.4-1.5-8.7-7.2-7.1-12.7 1.5-5.4 7.2-8.7 12.7-7.1 2.7.7 4.9 2.4 6.2 4.9 1.4 2.4 1.7 5.2 1 7.8-.7 2.7-2.4 4.9-4.9 6.2-1.6.9-3.4 1.3-5.1 1.3m0-18.3c-3.5 0-6.7 2.4-7.8 5.9-.6 2-.3 4.2.7 6.1 1.1 1.9 2.8 3.2 4.9 3.8 2 .6 4.2.3 6.1-.7 1.9-1.1 3.2-2.8 3.8-4.9.6-2 .3-4.2-.7-6.1-1.1-1.9-2.8-3.2-4.9-3.8-.7-.1-1.4-.3-2.1-.3"/><path class="st3" d="M83.5 133.8c1.1.1 2.4.2 3.5.2h1.2l.4-.1.4-.1c.2 0 .3 0 .4-.1l.9-.2h.2l.2-.1.4-.1.4-.1c.2 0 .2-.1.4-.1l.4-.1c.2 0 .2-.1.4-.1l.8-.2c.2 0 .2-.1.4-.2l.4-.2.4-.2.4-.2.4-.2.4-.2.8-.4c1.1-.5 2-1.1 3-1.8s1.9-1.4 2.7-2.1c.8-.8 1.6-1.6 2.4-2.5l.5-.6c.1-.1.2-.2.2-.3l.2-.3.2-.3.2-.3.2-.3c.1-.1.2-.2.2-.3l.4-.7.1-.1.1-.1.1-.2.2-.4c.1-.2.2-.2.2-.4l.2-.4.2-.4.2-.4.3-.8.2-.4.2-.4.2-.4.1-.4.1-.4.1-.2v-.2l.2-.8.1-.2v-.2l.1-.4.2-1.7c0-.2.1-.6.1-.8v-3.7c0-.2 0-.2-.1-.4l-.1-.4v-.4l-.2-.8v-.2l-.1-.2-.1-.4-.1-.4c0-.2-.1-.2-.1-.4l-.1-.4c0-.2-.1-.2-.1-.4l-.2-.8c-.4-1.1-.8-2.1-1.4-3.1-.6-1-1.1-1.9-1.8-2.8-.6-.9-1.4-1.8-2.2-2.6s-1.6-1.5-2.5-2.3l-.6-.5c-.1-.1-.2-.2-.3-.2l-.3-.2c-.1-.1-.2-.2-.3-.2l-.3-.2-.3-.2-.2-.1c-.1 0-.2-.1-.2-.1l-.7-.4-.1-.1-.1-.1-.2-.1-.4-.3-.4-.2-.4-.2-.4-.1-.4-.2-.8-.3-.4-.2-.4-.2-.4-.1c-.2 0-.2-.1-.4-.1-.2-.1-.6-.2-.8-.2-.6-.1-1.1-.2-1.7-.3h-1l-.8-.1h-2.4l-.8.1h-.4l-.4.1-.4.1c-.2 0-.2.1-.4.1l-.4.1h-.4l-.8.2c-4.5 1-8.6 3.2-11.8 6.6l-.6.6-.3.3-.2.3-.4.2-.2.3-.2.3c-.1.1-.2.2-.2.3l-.5.7c-.1.1-.2.2-.2.3l-.2.4c-.1.2-.2.2-.2.4l-.2.4-.2.4-.1.2c0 .1-.1.2-.1.2l-.4.8c-.1.2-.2.2-.2.4l-.2.4-.2.4-.2.4-.2.4-.2.4c-.4 1.1-.7 2.3-1 3.4h-.2l.2-.9v-.2c0-.1 0-.2.1-.2l.1-.4.1-.4.1-.2c0-.1 0-.2.1-.2l.2-.8c0-.2.1-.2.2-.4l.2-.4.2-.4.2-.4.2-.4.2-.4.4-.8c0-.1.1-.2.1-.2l.1-.2.2-.4.2-.4c.1-.2.2-.2.2-.4l.2-.4c.1-.2.2-.2.2-.4l-.2-1c.1-.2.2-.2.2-.3l.2-.3.2-.3.2-.3.2-.3c.1-.1.2-.2.2-.3l.6-.6c.8-.9 1.7-1.7 2.6-2.4.9-.7 1.9-1.4 2.9-2C75.9 89 77 88.4 78 88l.8-.3.4-.2.4-.2.4-.2.4-.1.4-.1c.2 0 .3-.1.4-.1l.9-.2h.4l.4-.1c.2 0 .3-.1.4-.1l.4-.1.4-.1c.2 0 .3 0 .4-.1l.9-.1h2.4l.9.1h.5l.4.1c.6.1 1.1.2 1.8.3.3.1.6.2.9.2.2 0 .3.1.4.1l.4.2.4.2c.2.1.3.1.4.2l.8.3.4.2.4.2.4.2c.2.1.2.2.4.2l.4.2.2.1.1.1.1.1.8.4c.1 0 .2.1.2.1l.2.1.4.2.4.2c.2.1.2.2.4.2l.4.2c.2.1.2.2.4.2l.7.5c.2.1.2.2.3.2l.3.2c.1.1.2.2.3.2l.3.3.3.3.2.2.2.2.6.6c.8.8 1.6 1.8 2.3 2.7.7 1 1.3 1.9 1.9 3l.4.8c0 .1.1.2.1.2l.1.2.2.4.2.4.2.4.2.4.2.4.2.8.2.4.1.4c0 .2.1.3.1.4l.1.4.1.4.1.2v.2l.2.9v.4l.1.4c0 .2 0 .3.1.4v3.7c0 .3-.1.6-.1.9-.1.6-.2 1.1-.2 1.8l-.1.4c0 .1 0 .2-.1.2l-.1.2-.2.9v.2l-.1.2-.2.4-.2.4-.2.4-.2.4-.2.4-.3.8-.2.4-.2.4-.2.4c-.1.2-.2.2-.2.4l-.2.4-.1.2-.1.1-.1.1-.5.7c-.1.2-.2.2-.2.4l-.2.4-.2.4-.2.3-.2.3c-.1.1-.2.2-.2.3l-.6.7c-.7.9-1.6 1.8-2.5 2.5-.9.8-1.9 1.5-2.8 2.2-1 .6-2 1.2-3.1 1.7l-.8.3-.4.2-.4.2-.4.2-.4.2-.4.2-.4.2-.9.2c-.2.1-.3.1-.4.1l-.4.1c-.2 0-.3.1-.4.1l-.4.1-.4.1h-.5l-.9.1-5.4.4-.9-.2.9.2z"/><path class="st2" d="M87.1 135.1h-1.3l-1.1-.1h-.2l-1.1-.2c-.2 0-.4-.2-.5-.3s-.2-.4-.2-.6v-.2c.1-.4.4-.6.8-.6 1.4.2 2.4.2 3.4.2h.4l.8-.1.8-.1h.4l.9-.2h.2l1.1-.2c.1 0 .2-.1.2-.1h.2l.4-.1h.2c.1 0 .2-.1.2-.1l.8-.2c.1 0 .2-.1.2-.1l.9-.3.8-.3c.1-.1.2-.1.3-.2l.8-.4c1.1-.5 1.9-1.1 2.8-1.7.9-.6 1.8-1.4 2.6-2.1.8-.7 1.5-1.5 2.3-2.4l.5-.6c.1-.1.1-.2.2-.2 0 0 0-.1.1-.1l.5-.6.5-.7c.1-.1.1-.2.2-.2l.5-.8.3-.6c0-.1.1-.1.1-.2s.1-.2.1-.2l.3-.8c.1-.1.1-.2.2-.3l.3-.8c0-.1.1-.2.1-.2s0-.1.1-.2l.2-.8.3-1.1.2-1.1v-.2l.1-.4c.1-.4.2-.8.2-1.2 0-.2 0-.2.1-.4v-3.5l-.1-.9v-.4l-.1-.7-.2-.9v-.2l-.2-1.1c0-.1-.1-.2-.1-.2s0-.1-.1-.2l-.1-.4v-.2c0-.1-.1-.2-.1-.2l-.2-.8c-.4-1.1-.8-2.1-1.3-3-.5-1-1.1-1.9-1.7-2.8-.6-.9-1.4-1.7-2.1-2.5-.7-.7-1.5-1.5-2.4-2.2l-.6-.5c-.1-.1-.2-.1-.2-.2l-.1-.1-.3-.2c-.1 0-.1-.1-.2-.1-.2-.3-.2-.3-.2-.4l-.9-.6h-.2l-.8-.4-.6-.3c-.1 0-.1-.1-.2-.1s-.2-.1-.2-.1l-.9-.3c-.1 0-.2-.1-.2-.1l-.8-.2c-.1 0-.2-.1-.2-.1l-1-.2c-.1 0-.2 0-.2-.1h-.2c-.1 0-.2-.1-.3-.1-.2-.1-.3-.1-.5-.1s-.3-.1-.4-.1c-.4-.1-.8-.2-1.1-.2l-.4-.1h-.2l-1.1-.1-1.1-.1h-1.2l-.8.1H85l-.9.1h-.4l-.7.2-.9.2c-4.3 1-8.4 3.2-11.4 6.3l-.6.6-.2.2-.6.6-.6.7-.2.2-.5.7c-.1.1-.1.2-.2.2 0 .1-.1.1-.1.2l-.2.3c0 .1-.1.1-.1.2-.1.1-.1.2-.2.2l-.6 1s0 .1-.1.1v.1l-.4.8c0 .1-.1.2-.1.2s-.1.1-.1.2l-.3.8-.3.8c0 .1 0 .1-.1.2 0 .1-.1.2-.1.2-.3.9-.6 1.9-1 3.3-.1.4-.5.6-.8.6h-.2c-.2 0-.4-.2-.5-.3-.1-.2-.2-.4-.2-.6l.2-1.1c0-.1 0-.2.1-.2l.2-1.1c0-.1 0-.1.1-.2v.2l.2-.8c0-.2.1-.2.1-.3v-.1l.3-.8.3-.8s0-.1.1-.1c0-.1.1-.2.2-.3l.4-.8v-.1c0-.1.1-.1.1-.2l.5-1c.1-.1.1-.2.2-.2 0-.1.1-.1.1-.2l.2-.4.1-.1c.1-.1.1-.2.2-.3l.5-.7c.1-.1.2-.2.2-.3l.6-.8.6-.7.3-.3.6-.6c.8-.9 1.7-1.7 2.7-2.5 1-.7 1.9-1.5 3-2.1 1.1-.6 2.1-1.1 3.2-1.6l.8-.3.4-.2 1-.3.9-.2c.2 0 .2-.1.4-.1l1-.2.7-.2h.2c.1 0 .2 0 .3-.1l.9-.1c.2 0 .3 0 .4-.1l.9-.1h2.7l1.1.1h.2l.5.1c.5.1.9.2 1.4.2.2 0 .3.1.4.1.2.1.4.1.6.2.1 0 .2.1.3.1h.2c.1 0 .2.1.3.1l.9.2c.2 0 .2.1.4.2l.8.3.4.2.9.4c.1.1.2.1.2.2.1 0 .1.1.2.1l.7.3.9.5h.1c.1 0 .1.1.2.1l1 .6c.1.1.2.1.2.2.1 0 .1.1.2.1l.4.2.1.1c.1.1.2.2.3.2l.7.5c.1.1.2.2.3.2l.1.1.3.2c.1 0 .1.1.1.1l.2.2.8.7c.1 0 .1.1.2.1l.1.1.6.6c.8.9 1.6 1.8 2.4 2.8.7 1 1.4 2 1.9 3.1l.4.8v.1c0 .1.1.1.1.2l.4 1.1c0 .1.1.2.1.2 0 .1 0 .1.1.2l.2.4c0 .1 0 .1.1.1 0 .1.1.2.2.3l.2.8c.1.2.1.2.1.3v.1l.1.4c0 .1 0 .1.1.2 0 .1.1.2.1.3l.2 1.1v.2l.2 1 .1.8v.5l.1 1v3.5c0 .2 0 .4-.1.6 0 .2 0 .3-.1.4-.1.4-.1.9-.2 1.4l-.1.5v.2l-.2 1.2-.3 1.1-.3.8v.1c0 .1-.1.2-.2.3l-.3.8-.2.4-.4.8c-.1.1-.1.2-.2.2 0 .1-.1.1-.1.2l-.4.7-.5.9c-.1.2-.2.2-.2.4l-.5.8-.6.8c-.1.1-.2.2-.2.3l-.6.6c-.8 1-1.7 1.9-2.5 2.6-.9.8-1.9 1.5-2.9 2.2-1 .6-2.1 1.2-3.2 1.8l-.8.3-.4.2-.9.3-.9.3c-.1 0-.2.1-.4.1l-.8.2c-.1 0-.2.1-.3.1h-.2l-.4.1h-.2c-.1 0-.2.1-.3.1l-.9.2h-.2l-.9.1h-.5l-.9.1h-1c-.1-.3-.2-.2-.3-.2"/><path class="st3" d="M165.2 108c.3-.7.6-1.5.9-2.3 0-.1.1-.2.1-.3l.1-.3.1-.3.1-.3.1-.3c0-.1.1-.2.1-.3l.1-.6c0-.1 0-.2.1-.3v-2.2c0-.8 0-1.6-.2-2.4-.1-.8-.2-1.5-.5-2.4-.2-.7-.5-1.5-.8-2.2s-.6-1.4-1.1-2.1l-.3-.5c-.1-.1-.1-.2-.2-.2l-.2-.2-.2-.2-.2-.2-.2-.4c-.1-.1-.1-.2-.2-.2l-.4-.4-.2-.2-.1.2-.2-.2-.2-.2-.2-.2-.2-.2-.4-.4-.2-.2-.2-.2-.2-.2-.2-.2c-.2-.1-.3-.2-.5-.3l-.5-.3-.2-.1c-.1 0-.1-.1-.2-.1l-.2-.2c-.3-.2-.6-.3-1.1-.6-.2-.1-.3-.2-.6-.2-.1 0-.2-.1-.2-.1l-.2-.1-.2-.1c-.1 0-.2-.1-.2-.1l-.6-.2c-.7-.2-1.5-.4-2.3-.5h-2.5c-.8 0-1.5.1-2.3.2-.7.1-1.5.3-2.3.5-.7.2-1.5.5-2.2.8-.7.3-1.4.7-2 1.1l-.5.3c-.1.1-.2.1-.2.2l-.2.2-.2.2-.2.2-.2.2-.2.2-.4.4-.2.2-.2.2-.2.2-.2.2-.2.2-.2.2-.3.5c-.1.1-.1.2-.2.2l-.2.2-.2.2c-.1.1-.1.2-.2.2-.1.2-.2.3-.3.5-.2.3-.4.6-.6 1l-.2.2c0 .1-.1.1-.1.2l-.2.6-.2.6c-.3.7-.6 1.5-.7 2.2 0 .1-.1.2-.1.2l-.1.2-.1.2c0 .1 0 .2-.1.3l-.1.3c0 .1 0 .2-.1.3l-.1.6v4.5l.1.6c.2.8.3 1.5.6 2.3.2.7.6 1.5.9 2.2.3.7.7 1.4 1.2 2l.3.5c.1.1.1.2.2.2l.2.2.2.2.2.2.2.2.2.2.4.4.2.2.2.2.2.2.2.2.2.2.2.2c.6.5 1.3 1 1.9 1.4l-.1.1-.6-.3c-.1-.1-.2-.1-.2-.2l-.2-.2-.2-.2-.2-.1c-.1 0-.1-.1-.2-.1l-.5-.3-.2-.2-.2-.2-.2-.2-.2-.2-.2-.2-.2-.2-.4-.4-.2-.2-.2-.2-.2-.2-.2-.2-.2-.2-.2-.2-.4-.5c-.5-.6-.9-1.4-1.3-2-.4-.7-.7-1.5-1-2.2-.2-.7-.5-1.5-.6-2.4s-.2-1.6-.3-2.4v-2.5l.1-.6c0-.1 0-.2.1-.3l.1-.3c0-.1 0-.2.1-.3l.1-.3.1-.3c0-.1.1-.2.1-.3l.2-.6c0-.1.1-.2.1-.3l.1-.3.1-.3.1-.2c.1-.2.2-.4.2-.6l.2-.6.1-.2c0-.1.1-.1.1-.2l.2-.2c.2-.4.4-.7.6-1.1.1-.2.2-.3.3-.5.1-.1.1-.2.2-.2l.2-.2.2-.2c.1-.1.1-.2.2-.2l.4-.5.2-.2.2-.2.2-.2.2-.2.2-.2.2-.2.4-.4.2-.2.2-.2.2-.2.2-.2.2-.2.2-.2.5-.3c.6-.4 1.4-.8 2.1-1.2.7-.3 1.5-.6 2.3-.9.8-.2 1.5-.4 2.4-.5s1.6-.2 2.4-.2h2.3c.1 0 .2 0 .3.1l.6.1c.1 0 .2.1.3.1l.3.1c.1 0 .2.1.3.1l.3.1.3.1c.1 0 .2.1.3.1l.6.2c.1 0 .2.1.3.1l.2.1.3.1c.1 0 .2.1.2.2.2.1.4.2.6.2.3.2.7.3 1.1.6l.2.2c.1 0 .1.1.2.1l.2.1.5.3c.2.1.3.2.5.3l.2.2.2.2.2.2.2.2.5.4.2.2.2.2.2.2.2.2.2.2.2.2.4.5.2.2.2.2.2.2.2.2.2.2c.1.1.1.2.2.2l.3.5c.4.7.8 1.5 1.1 2.2.3.7.6 1.5.7 2.4.2.8.3 1.6.4 2.4.1.8.1 1.6.1 2.4l-.1.6v1l-.1.3-.1.3c0 .1 0 .2-.1.3l-.2.6c0 .1-.1.2-.1.3l-.1.3-.1.3-.1.3-.1.3c0 .1-.1.2-.1.3l-.2.6c0 .1 0 .1-.1.2l-.1.2-.2.2-.2.2c0 .1-.1.2-.2.2l.5-.2z"/><path class="st2" d="M142.8 115.4c-.2 0-.2 0-.4-.1l-.6-.3s-.1 0-.1-.1c-.1 0-.2-.1-.2-.2l-.6-.4-.1-.1-.5-.3c-.1-.1-.2-.1-.2-.2 0 0-.1 0-.1-.1l-.5-.4-.5-.4s-.1 0-.1-.1c-.1-.1-.2-.1-.2-.2l-.4-.4-.2-.2-.4-.5-.2-.2-.1-.1-.2-.2s0-.1-.1-.1c-.1-.1-.1-.2-.2-.2l-.4-.5c-.5-.7-1-1.5-1.4-2.1-.4-.7-.7-1.5-1.1-2.4-.2-.8-.5-1.6-.6-2.4-.2-.8-.2-1.6-.3-2.5v-1.5l.1-.6v-.3l.1-.6v-.3l.1-.3v-.3l.2-.6c0-.1.1-.2.1-.3l.2-.6c0-.1.1-.2.1-.2V95l.2-.6.1-.2c0-.1.1-.2.1-.2l.2-.4.3-.7s0-.1.1-.1l.2-.3c.2-.3.3-.6.5-.8.1-.1.1-.2.2-.2.1-.1.2-.2.2-.3 0-.1.1-.1.1-.2 0 0 0-.1.1-.1 0-.1.1-.2.1-.2l.4-.6c.1-.1.1-.2.2-.2l.4-.5.2-.2.4-.5.2-.2.3-.3s0-.1.1-.1l.2-.2.4-.4.2-.2.5-.4.5-.4s.1 0 .1-.1c.1-.1.2-.1.2-.2l.5-.3c.7-.5 1.5-.9 2.2-1.2.7-.3 1.5-.6 2.4-.9.8-.2 1.6-.4 2.5-.6.8-.1 1.6-.2 2.5-.2h.9l.6.1.6.1c.1 0 .2 0 .3.1l.6.1c.1 0 .2 0 .2.1h.1l.4.1c.1 0 .2 0 .2.1l.6.2c.1 0 .2.1.2.1l.6.2c.1 0 .2.1.2.1l.6.2c.1 0 .2.1.2.1s.1 0 .1.1c.1 0 .2.1.2.1l.4.2c.1.1.2.1.2.2.2.2.6.3.8.5l.3.2s.1 0 .1.1l.6.4c.2.1.2.2.3.2.1 0 .1.1.2.1l.2.2.5.4s.1 0 .1.1c.1.1.2.1.2.2l.4.4.2.2.5.4.2.2.1.1.2.2s0 .1.1.1l.2.2.4.5.2.2.4.5.4.6c.1.1.1.2.2.2l.3.5c.4.7.8 1.5 1.1 2.3.3.8.6 1.6.8 2.4.2.8.3 1.6.4 2.5.1.8.1 1.6.1 2.5l-.1.6v1l-.1.6c0 .1 0 .2-.1.3l-.2.6c0 .1-.1.2-.1.2v.1l-.2.6-.2.6v.1c0 .1-.1.2-.1.2l-.2.6v.1s0 .1-.1.1l-.3.7c0 .1-.1.2-.1.2s0 .1-.1.1l-.2.6c-.1.2-.2.3-.4.4s-.4.1-.6-.1l-.1-.1c-.3-.2-.5-.6-.3-1 .4-.8.6-1.5.8-2.2 0-.1 0-.1.1-.2v-.1l.2-.6.2-.6v-.4l.1-.6v-.2l.1-.6v-1.4c0-.8 0-1.5-.2-2.3-.1-.8-.2-1.5-.4-2.2-.2-.7-.5-1.5-.7-2.1-.3-.6-.6-1.4-1.1-1.9l-.3-.5c0-.1-.1-.1-.1-.2l-.4-.5-.4-.5-.2-.2-.4-.4-.1-.1-.1-.1-.2-.2-.1-.1.2.1-.4-.4-.2-.2-.4-.4-.1-.1s-.1 0-.1-.1l-.4-.3-.2-.2-.2-.2-.2-.2-.6-.4h-.1l-.3-.2c-.2-.2-.5-.2-.7-.4-.1-.1-.2-.1-.2-.2-.1-.1-.2-.1-.3-.2-.1 0-.2-.1-.2-.1s-.1 0-.1-.1c-.1 0-.1-.1-.2-.1l-.6-.2c-.1 0-.1-.1-.2-.1l-.6-.2c-.6-.2-1.4-.4-2.1-.5h-.2l-.6-.1h-1.4c-.7 0-1.5.1-2.2.2s-1.5.2-2.2.5-1.4.5-2 .8-1.3.6-1.9 1.1l-.5.3-.1.1s-.1 0-.1.1l-.4.3-.5.4-.2.2-.4.4-.1.1-.1.1-.4.4-.4.5c-.1.1-.1.1-.1.2l-.3.5s-.1.1-.1.2l-.4.5c0 .1-.1.1-.1.2 0 0 0 .1-.1.1 0 .1-.1.1-.1.2l-.2.2c-.1.1-.1.2-.2.2-.2.2-.2.5-.4.7l-.2.3v.1l-.3.6c-.3.7-.6 1.4-.7 2.1 0 .1 0 .2-.1.2l-.2.6v.2l-.1.2v.2l-.1.6v.3l-.1.6v2.2l.1.7.1.7c.2.7.3 1.5.6 2.2.2.6.5 1.4.9 2.1.3.6.6 1.3 1.1 1.9l.3.5.1.1.1.1.2.2.1.1c0 .1.1.1.1.2l.4.5c.1.1.1.2.2.2l.4.4.1.1.1.1.4.4.4.4.1.1c.1 0 .1.1.2.1.5.4 1.1.8 1.9 1.3.3.2.5.6.2 1l-.1.1c.2 0 0 .2-.3.1.2 0 .1 0 0 0"/><path class="st3" d="M116.5 67.6c.8-.2 1.6-.3 2.4-.6.1 0 .2-.1.3-.1l.3-.1.3-.1.2-.1.2-.1c.1 0 .2-.1.2-.1l.6-.2c.1 0 .2-.1.2-.2l.2-.2.2-.2c.1-.1.2-.1.2-.2l.2-.2c.1-.1.2-.1.2-.2l.5-.3c.6-.4 1.3-.9 1.9-1.5.6-.5 1.1-1.1 1.6-1.7.5-.6 1-1.2 1.4-1.9s.8-1.4 1.1-2l.2-.6c0-.1.1-.2.1-.2l.1-.2.1-.2.1-.2.1-.2c0-.1.1-.2.1-.2l.2-.6c0-.1.1-.2.1-.2l.1-.3c0-.1 0-.2.1-.3l.1-.3.1-.3v-.3l.1-.6v-3.1c0-.4-.1-.7-.2-1.1 0-.2-.1-.4-.1-.6 0-.1 0-.2-.1-.3l-.1-.2-.1-.2c0-.1-.1-.2-.1-.2l-.2-.6c-.2-.7-.5-1.5-.9-2.1 0-.1-.1-.2-.2-.2l-.2-.2-.2-.2-.2-.2-.2-.2c-.1-.1-.1-.2-.2-.2l-.3-.5c-.4-.6-.9-1.2-1.5-1.8-.5-.6-1.1-1.1-1.7-1.5-.6-.5-1.2-.9-1.9-1.3-.6-.4-1.4-.7-2-1.1l-.6-.2c-.1 0-.2-.1-.2-.1l-.2-.1-.2-.1-.2-.1-.2-.1c-.1 0-.2-.1-.2-.1l-.6-.2c-.1 0-.2 0-.2-.1l-.3-.1-.3-.1h-1l-.6-.1h-1.9c-.4 0-.8.1-1.1.1h-.6l-.6.1c-.7.2-1.5.3-2.3.6-.1 0-.2.1-.2.1l-.2.1-.2.1c-.1 0-.2.1-.2.1l-.2.1c-.1 0-.2.1-.2.1l-.4-.1c-.1.1-.2.1-.2.2l-.2.2-.2.2-.2.2-.2.2c-.1.1-.2.1-.2.2l-.5.3c-.1.1-.2.1-.2.2l-.2.2c-.1.1-.2.1-.2.2l-.2.2-.2.2-.1.1-.1.1-.4.4c-.6.6-1.1 1.1-1.5 1.8s-.9 1.3-1.3 1.9c-.4.6-.7 1.4-1.1 2.1l-.2.6c0 .1-.1.2-.1.2l-.5-.1c0 .1-.1.2-.1.3l-.1.3-.1.3c0 .1-.1.2-.1.3l-.2.6c0 .1 0 .2-.1.3l-.1.3-.1.3v1c-.1.8-.1 1.6 0 2.4H98l-.1-.6v-3.5c0-.1 0-.2.1-.3l.1-.6c0-.1 0-.2.1-.3l.1-.3.1-.3c0-.1.1-.2.1-.3l.1-.3c0-.1.1-.2.1-.3l.2-.6c.2-.7.6-1.5 1-2.2.4-.7.8-1.4 1.3-2 .5-.6 1-1.3 1.5-1.9.6-.6 1.2-1.1 1.9-1.6l.5-.3c.1-.1.2-.1.2-.2l.2-.2.2-.2.2-.2.2-.2c.1-.1.2-.1.2-.2l.6-.2c.1-.1.2-.1.2-.2l.2-.2c.1-.1.2-.1.2-.2l.2-.1.2-.1c.1 0 .2-.1.3-.1l.6-.2c.1 0 .2-.1.3-.1l.3-.1.3-.1.3-.1c.2-.1.4-.1.6-.2l.6-.1h.6c.4-.1.8-.1 1.2-.1h1.9l.6.1h1c.1 0 .2 0 .3.1l.3.1c.1 0 .2 0 .3.1l.6.2c.1 0 .2.1.3.1l.3.1.3.1.3.1.3.1c.1 0 .2.1.3.1l.6.2c.7.3 1.5.6 2.2 1.1.7.4 1.4.9 2 1.4.6.5 1.2 1.1 1.8 1.7.6.6 1.1 1.2 1.5 1.9l.3.5c.1.1.1.2.2.2l.2.2.2.2.2.2.2.2c.1.1.1.2.2.2l.2.6c.1.1.1.2.1.2l.1.2c0 .1.1.2.1.2l.1.3.1.3c0 .1.1.2.1.3l.2.6c0 .1.1.2.1.3l.1.3.1.3c0 .1 0 .2.1.3 0 .2.1.4.1.6.1.4.1.8.2 1.2V53l-.1.6c0 .1 0 .2-.1.3l-.1.3-.1.3c0 .1-.1.2-.1.3l-.1.3c0 .1-.1.2-.1.3l-.2.6c0 .1-.1.2-.1.3l-.1.3-.1.3-.1.2-.1.2c0 .1-.1.2-.1.2l-.2.6c-.3.7-.7 1.5-1.2 2.1l-1.5 1.9c-.6.6-1.1 1.1-1.8 1.7-.6.5-1.3 1-1.9 1.4l-.5.3c-.1.1-.2.1-.2.2l-.2.2c-.1.1-.2.1-.2.2l-.2.2-.2.2c-.1.1-.2.1-.2.1l-.6.2c-.1 0-.2.1-.3.1l-.3.1-.3.1-.3.1-.3.1c-.1 0-.2.1-.3.1l-.6.2h-.3l-.3.1-.3.1c-.1 0-.2 0-.3.1l-.6.1v-.4z"/><path class="st2" d="M116.6 68.4c-.2 0-.3-.1-.5-.2-.2-.2-.2-.3-.2-.5v-.1c-.1-.4.2-.7.6-.8.9-.2 1.6-.3 2.3-.5.1 0 .1 0 .2-.1h.1l.6-.2.6-.2h.1c.1 0 .1 0 .2-.1l.6-.2c.1 0 .2-.1.2-.1l.6-.2c.1 0 .1-.1.2-.1 0 0 .1 0 .1-.1l.2-.2s.1 0 .1-.1c.1 0 .1-.1.2-.1l.5-.3c.6-.4 1.2-.9 1.8-1.4.6-.5 1.1-1.1 1.6-1.6s.9-1.2 1.3-1.8c.4-.6.7-1.3 1.1-1.9l.2-.6c0-.1 0-.1.1-.2l.2-.6.2-.6c0-.1.1-.2.1-.2l.2-.6v-.2l.1-.2v-.2l.1-.6v-.2l-.1-.8V50c0-.2-.1-.5-.1-.8 0-.1 0-.2-.1-.3 0-.1-.1-.2-.1-.3s0-.2-.1-.2v-.2l-.2-.6c0-.1 0-.2-.1-.2l-.2-.6c-.2-.6-.5-1.3-.8-2 0-.1-.1-.1-.1-.2l-.2-.5-.2-.5s0-.1-.1-.1c0-.1-.1-.1-.1-.2l-.3-.5c-.4-.6-.9-1.2-1.4-1.7-.5-.5-1.1-1.1-1.6-1.5-.6-.5-1.2-.9-1.8-1.3-.6-.3-1.3-.6-1.9-1l-.6-.2s-.1 0-.2-.1h-.1l-.5-.2-.6-.2c-.1 0-.2-.1-.2-.1l-.6-.2h-.2l-.6-.1-.6-.1h-.2l-.6-.1h-1.9c-.2 0-.6 0-.8.1h-.4l-.7.1c-.8.2-1.5.3-2.1.6-.1 0-.1.1-.2.1l-.6.2c-.1 0-.1.1-.2.1 0 0-.1 0-.1.1l-.2.1s-.1 0-.1.1c-.1 0-.1 0-.1.1l-.5.2c-.1 0-.1.1-.2.1l-.6.3-.6.3c-.1 0-.1.1-.2.1l-.5.3-.1.1-.1.1-.2.2-.1.1c-.1 0-.1.1-.2.1l-.6.5-.5.5c-.6.5-1.1 1.1-1.5 1.7-.4.6-.9 1.2-1.2 1.9s-.6 1.3-1 2l-.2.6s0 .1-.1.2v.1l-.1.2v.1c0 .1 0 .1-.1.2l-.2.6c0 .1-.1.2-.1.2l-.2.6v.1l-.1.6-.1.6v.2c-.1.6-.1 1.4 0 2.4 0 .4-.2.7-.6.8h-.1c-.2 0-.4-.1-.6-.2-.2-.2-.2-.3-.2-.5l-.1-.6v-2.2l.1-.6.4-.5v-.3l.1-.6c0-.1.1-.2.1-.3l.2-.6c0-.1 0-.2.1-.2v-.1l.1-.3v-.1c0-.1.1-.2.1-.2l.2-.6c.3-.8.6-1.6 1.1-2.4.4-.7.9-1.5 1.4-2.2.5-.6 1.1-1.3 1.6-1.9.6-.6 1.2-1.1 1.9-1.7l.5-.3c.1-.1.2-.1.2-.2l.6-.4.6-.3c.1-.1.2-.1.2-.2l.5-.2c.1-.1.2-.1.2-.1h.1l.2-.2s.1 0 .1-.1c.1 0 .2-.1.2-.1l.6-.2c.1 0 .2-.1.3-.1l.6-.2c.1 0 .2-.1.2-.1h.1l.6-.2.3-.1c.1 0 .2 0 .2-.1.2 0 .2-.1.4-.1l.7-.2h.1l.3-.1c.3-.1.6-.1 1-.1h2.3l.6.1h.3l.6.1h.2l.4.1h.1c.1 0 .2 0 .2.1l.6.2c.1 0 .2.1.3.1l.6.2.6.2h.1c.1 0 .2.1.2.1l.6.2c.8.3 1.5.7 2.3 1.1.7.4 1.5.9 2.1 1.5.6.6 1.3 1.1 1.9 1.7.6.6 1.1 1.3 1.5 2l.3.5c.1.1.1.2.2.2v.1l.3.6.3.6c.1.1.1.2.2.3l.2.6c0 .1.1.2.1.2v.1l.2.4c0 .1.1.2.1.2l.2.6c0 .1.1.2.1.2l.2.6c0 .1.1.2.1.3l.2.6c0 .1 0 .2.1.2v.3c0 .2.1.2.1.4v.3c0 .3.1.6.1 1V52l-.1.6v.3l-.1.6c0 .1 0 .2-.1.3l-.1.6c0 .1 0 .2-.1.2v.4l-.1.3v.1c0 .1 0 .2-.1.2l-.2.6c0 .1-.1.2-.1.3l-.2.6-.2.6c0 .1-.1.2-.1.2l-.2.6c-.4.8-.8 1.5-1.2 2.2-.5.7-1 1.4-1.5 2s-1.1 1.2-1.9 1.8c-.6.5-1.3 1-2.1 1.5l-.5.3c-.1.1-.2.1-.2.2h-.1l-.2.2s-.1 0-.1.1c-.1 0-.2.1-.2.1l-.6.2c-.1.1-.2.1-.3.2l-.6.2c-.1 0-.2.1-.2.1h-.1l-.6.2-.6.2h-.1c-.1 0-.2.1-.2.1l-.6.2h-.2l-.7.2h-.3l-.8-.1"/><path class="st1" d="M119.2 79c-1.9.8-2.9 3-2.1 4.9s3 2.9 4.9 2.1c1.9-.8 2.9-3 2.1-4.9-.7-1.9-2.9-2.8-4.9-2.1"/><path class="st2" d="M120.6 87.1c-1.8 0-3.6-1.1-4.2-2.9-.5-1.1-.4-2.4.1-3.5s1.4-1.9 2.5-2.4c2.4-.9 4.9.2 5.9 2.6.9 2.4-.2 4.9-2.6 5.9-.5.2-1.1.3-1.7.3m0-7.6c-.4 0-.7.1-1.1.2-1.5.6-2.4 2.4-1.7 4 .5 1.2 1.6 1.9 2.8 1.9.4 0 .7-.1 1.1-.2 1.5-.6 2.4-2.4 1.7-4-.4-1.2-1.6-1.9-2.8-1.9"/><path class="st3" d="M119.6 80.6c-.3 0-.5.3-.5.6s.3.5.6.5.5-.3.5-.6c-.1-.3-.3-.5-.6-.5"/><path class="st2" d="M119.6 82.4c-.6 0-1.2-.5-1.3-1.1 0-.3.1-.6.3-1 .2-.2.6-.4.9-.5.7-.1 1.3.5 1.4 1.1.1.7-.5 1.3-1.1 1.4-.1.1-.1.1-.2.1z"/><path class="st3" d="M122.4 82.4c-.3 0-.5.3-.5.6s.3.5.6.5.5-.3.5-.6-.3-.5-.6-.5"/><path class="st2" d="M122.5 84.2c-.6 0-1.2-.5-1.3-1.1-.1-.7.5-1.3 1.1-1.4.3 0 .6.1 1 .3.2.2.4.6.5.9.1.7-.5 1.3-1.1 1.4l-.2-.1m-1 .8s-1.1.9-2.4.2c-1.2-.8-.9-2.1-.9-2.1s1.8 1.3 3.3 1.9"/><path class="st1" d="M183.5 109.9c-1.1 1.8-.5 4.1 1.3 5.2 1.8 1.1 4.1.5 5.2-1.3 1.1-1.8.5-4.1-1.3-5.2-1.8-1-4.2-.5-5.2 1.3"/><path class="st2" d="M186.7 116.5c-.8 0-1.6-.2-2.4-.6-1.1-.6-1.8-1.6-2-2.8-.3-1.2-.1-2.4.6-3.4.6-1.1 1.6-1.8 2.8-2 1.2-.3 2.4-.1 3.4.6 1.1.6 1.8 1.6 2 2.8.3 1.2.1 2.4-.6 3.4-.6 1.1-1.6 1.8-2.8 2-.2-.1-.6 0-1 0m0-7.6c-.2 0-.5 0-.7.1-.8.2-1.5.6-1.9 1.4-.9 1.5-.4 3.3 1.1 4.2.7.4 1.5.6 2.4.3.8-.2 1.5-.6 1.9-1.4.4-.7.6-1.5.3-2.4-.2-.8-.6-1.5-1.4-1.9-.6-.2-1.1-.3-1.7-.3"/><path class="st3" d="M184.7 111c-.2.2-.2.6 0 .7.2.2.6.2.7 0 .2-.2.2-.6 0-.7-.1-.2-.4-.2-.7 0"/><path class="st2" d="M185 112.7c-.4 0-.7-.2-1-.4-.2-.2-.3-.6-.3-.9 0-.3.2-.6.4-.9.2-.2.6-.3.9-.3.3 0 .6.2.9.4.2.2.3.6.3.9 0 .3-.2.6-.4.9-.1.2-.4.3-.8.3"/><path class="st3" d="M188 110.7c-.2.2-.2.6 0 .7.2.2.6.2.7 0 .2-.2.2-.6 0-.7-.1-.1-.4-.2-.7 0"/><path class="st2" d="M188.4 112.4c-.4 0-.7-.2-1-.4-.2-.2-.3-.6-.3-.9 0-.3.2-.6.4-.9.2-.2.6-.3.9-.3.3 0 .6.2.9.4.2.2.3.6.3.9 0 .3-.2.6-.4.9-.2.2-.5.3-.8.3zm.5.9s-.3 1.4-1.8 1.5c-1.5.2-1.9-1.2-1.9-1.2s2.2.2 3.7-.3"/><path class="st1" d="M163.9 26.3c-1.6 1.9-1.4 4.9.6 6.6 1.9 1.6 4.9 1.4 6.6-.6 1.6-1.9 1.4-4.9-.6-6.6-2-1.7-4.9-1.5-6.6.6"/><path class="st2" d="M167.4 34.6c-1.2 0-2.4-.4-3.5-1.3-2.3-1.9-2.6-5.4-.6-7.6.9-1.1 2.3-1.8 3.7-1.9 1.5-.2 2.8.3 4 1.2 1.1.9 1.8 2.3 1.9 3.7.2 1.5-.3 2.8-1.2 4-1.2 1.3-2.7 1.9-4.3 1.9m.1-9.3h-.3c-1.1.1-1.9.6-2.7 1.4-1.4 1.6-1.1 4.1.5 5.5.8.6 1.8 1 2.8.9 1.1-.1 1.9-.6 2.7-1.4.6-.8 1-1.8.9-2.8s-.6-1.9-1.4-2.7c-.7-.6-1.6-.9-2.5-.9z"/><path class="st3" d="M165.2 27.8c-.3.2-.4.6-.2.9.2.3.6.4.9.2.3-.2.4-.6.2-.9-.2-.3-.6-.4-.9-.2"/><path class="st2" d="M165.6 29.8h-.2c-.4-.1-.6-.3-.9-.6-.4-.6-.2-1.5.4-1.9.6-.4 1.5-.2 1.9.4.4.6.2 1.5-.4 1.9-.4.1-.6.2-.8.2"/><path class="st3" d="M169.3 28.1c-.3.2-.4.6-.2.9.2.3.6.4.9.2.3-.2.4-.6.2-.9-.2-.4-.6-.5-.9-.2"/><path class="st2" d="M169.6 30c-.5 0-.9-.2-1.1-.6-.4-.6-.2-1.5.4-1.9.6-.4 1.5-.2 1.9.4.4.6.2 1.5-.4 1.9-.2.1-.5.2-.8.2m.3 1.4s-.6 1.6-2.5 1.5c-1.8-.1-2.2-1.8-2.2-1.8s2.7.5 4.7.3"/><path class="st1" d="M53.9 46.1c-.5 2.6 1.3 5 3.8 5.4 2.6.5 5-1.3 5.4-3.8.5-2.6-1.3-5-3.8-5.4-2.6-.5-5 1.2-5.4 3.8"/><path class="st2" d="M58.5 52.3c-.3 0-.6 0-1-.1-3-.5-4.9-3.3-4.5-6.3l.7.2-.7-.2c.2-1.5 1.1-2.7 2.3-3.5s2.7-1.1 4.1-.9c1.5.2 2.7 1.1 3.5 2.3.8 1.2 1.1 2.7.9 4.1-.2 1.5-1.1 2.7-2.3 3.5-.8.6-1.9.9-3 .9m0-9.4c-1.9 0-3.6 1.4-3.9 3.2-.4 2.2 1.1 4.2 3.2 4.6 1.1.2 2.1-.1 2.9-.6.9-.6 1.5-1.5 1.6-2.6.2-1.1-.1-2.1-.6-2.9-.6-.9-1.5-1.5-2.6-1.6-.1-.1-.4-.1-.6-.1"/><path class="st4" d="M169.1 61.2c.2.1.3.1.5.2 1 .5 1.8 1.9 1.3 3.7l-.2.6c-.7 1.6-2.8 3.2-7.5 4.5-2.8-4-3.2-6.6-2.8-8.3l.2-.6c.8-1.7 2.3-2.2 3.3-1.9.2.1.3.1.5.2 1.1.4 1.5 1.1 1.9 2.1.9-.6 1.6-1 2.8-.5"/><path class="st2" d="M163.1 70.9c-.2 0-.5-.1-.6-.3-2.6-3.7-3.5-6.7-2.8-8.9v-.1l.2-.6v-.1c1-2.1 2.8-2.7 4.2-2.4.2.1.4.1.6.2 1.1.4 1.6 1.1 2 1.8.7-.3 1.6-.5 2.7-.1l.5.2c1.2.6 2.3 2.3 1.7 4.5v.1l-.2.6v.1c-1 2.1-3.7 3.7-8 4.9-.2 0-.3.1-.3.1m-2-8.9c-.5 1.7.3 4.1 2.4 7.2 3.6-1 5.8-2.3 6.5-3.9l.2-.6c.4-1.4-.2-2.4-.9-2.8-.2-.1-.2-.2-.4-.2-.8-.3-1.3-.2-2.2.3-.2.1-.4.2-.6.1-.2-.1-.4-.2-.4-.5-.3-1-.6-1.4-1.5-1.7l-.4-.2c-.7-.2-1.9.2-2.4 1.5l-.3.8z"/><path class="st4" d="M79.9 41.6c.2.1.4.2.6.2 1.3.6 2.4 2.4 1.7 4.9l-.3.8c-1 2.2-3.7 4.3-10 5.9-3.7-5.4-4.3-8.8-3.7-11l.3-.8c1.1-2.3 3.1-2.9 4.5-2.5.2.1.4.2.6.2 1.5.6 2 1.5 2.5 2.8 1.3-.7 2.3-1.1 3.8-.5"/><path class="st2" d="M72 54.2c-.2 0-.5-.1-.6-.3-3.4-4.9-4.6-8.8-3.7-11.7v-.1l.3-.8v-.1c.6-1.2 1.4-2.1 2.4-2.6.9-.5 1.9-.6 2.8-.3l.7.2c1.5.6 2.2 1.5 2.7 2.5 1-.5 2.1-.7 3.7-.2l.6.3c.9.4 1.5 1.2 1.9 2.1.5 1.1.5 2.4.2 3.6v.2l-.3.8v.1c-1.3 2.8-4.7 4.9-10.5 6.3H72m-3-11.5c-.6 2.4.4 5.7 3.2 10 4.9-1.4 7.9-3.2 9-5.4l.2-.7c.6-2-.3-3.4-1.3-4-.2-.1-.4-.2-.6-.2-1.2-.5-1.9-.2-3.2.5-.2.1-.4.2-.6.1-.2-.1-.4-.2-.4-.5-.5-1.3-.9-1.9-2-2.4-.2-.1-.4-.2-.6-.2-1.1-.3-2.7.2-3.6 2.1.2-.1-.1.7-.1.7z"/><path class="st4" d="M150.2 16.3c.2 0 .3.1.5.1 1.1.2 2.2 1.3 2.1 3.2l-.1.6c-.3 1.8-1.9 3.8-6.2 6.2-3.7-3.2-4.8-5.6-4.7-7.4l.1-.6c.3-1.9 1.7-2.7 2.8-2.7h.5c1.2.2 1.8.7 2.4 1.6.8-.7 1.4-1.1 2.6-1"/><path class="st2" d="M146.6 27.2c-.2 0-.3-.1-.5-.2-3.4-3-5-5.6-4.9-7.9V19l.1-.6v-.1c.4-2.3 2.1-3.3 3.5-3.3h.6c1.2.2 1.9.6 2.4 1.3.6-.5 1.5-.8 2.6-.7.2 0 .4.1.6.1 1.4.3 2.8 1.6 2.8 4v.1l-.1.6v.1c-.4 2.4-2.6 4.5-6.6 6.7h-.5m-4-8.1c-.1 1.8 1.3 3.9 4.1 6.4 3.2-1.9 5-3.7 5.4-5.4l.1-.6c0-1.5-.8-2.3-1.5-2.4-.2 0-.3-.1-.4-.1-.9-.1-1.3.2-2 .9-.2.2-.4.2-.6.2-.2 0-.4-.2-.6-.3-.6-.8-.9-1.2-1.8-1.3h-.4c-.8 0-1.7.6-2 2l-.3.6z"/><path class="st1" d="m164.3 50.8 7.3-11.2 18.3 12-7.3 11.2-18.3-12z"/><path class="st2" d="M182.6 63.5c-.2 0-.2 0-.4-.2l-18.3-12c-.2-.1-.2-.2-.3-.5-.1-.2 0-.4.1-.6l7.4-11.2c.2-.3.7-.4 1.1-.2l18.3 12c.2.1.2.2.3.5 0 .2 0 .4-.1.6l-7.4 11.2c-.2.3-.5.4-.7.4m-17.3-13 17 11.2 6.6-10-17-11.2-6.6 10z"/><path class="st1" d="m171.6 39.6 5.5 11.6 12.8.4-18.3-12z"/><path class="st2" d="m190 52.3-12.8-.4c-.2 0-.6-.2-.6-.4l-5.4-11.6c-.2-.3-.1-.6.2-.9.2-.2.6-.2.9-.1l18.3 12c.2.2.4.6.3.8-.4.5-.6.6-.9.6m-12.4-1.9 9.7.3-13.9-9.1 4.2 8.8z"/><path class="st1" d="m58.9 21.3 16.5-1.4.9 10.1-16.5 1.4-.9-10.1z"/><path class="st2" d="M59.8 32.2c-.2 0-.3-.1-.5-.2-.2-.2-.2-.3-.2-.5l-.9-10.1c0-.4.2-.8.6-.8l16.5-1.5c.2 0 .4.1.6.2.2.2.2.3.2.5l.9 10.1c0 .4-.2.8-.6.8l-16.6 1.5m-.1-10.1.7 8.6 15-1.3-.7-8.6-15 1.3z"/><path class="st1" d="m58.9 21.4 8.7 4.3 7.8-5.8-16.5 1.5z"/><path class="st2" d="M67.6 26.4c-.1 0-.2 0-.3-.1L58.6 22c-.3-.2-.5-.5-.4-.8.1-.3.3-.6.6-.6l16.5-1.5c.3 0 .6.2.7.5s0 .6-.2.9L68 26.4h-.4m-6-4.5 5.9 2.9 5.3-3.9-11.2 1z"/><path class="st3" d="m168.8 74.9 1.9.8h.2l1.4-1.1c.2-.1.3 0 .3.2v1.9c0 .1 0 .2.1.2l1.5 1.1c.2.1.1.3-.1.4l-1.8.5c-.1 0-.1.1-.2.1l-.8 1.7c-.1.2-.3.2-.4 0l-.8-1.5c0-.1-.1-.1-.2-.1l-1.7-.2c-.2 0-.2-.2-.2-.3l1.1-1.3c.1-.1.1-.2 0-.2l-.7-1.9c.1-.1.2-.3.4-.3"/><path class="st2" d="M171.2 81.6c-.3 0-.6-.2-.8-.5l-.6-1.2-1.5-.2c-.3 0-.6-.2-.8-.6-.2-.3-.1-.7.2-1l.9-1.1-.6-1.6c-.2-.3-.1-.8.2-1.1.2-.2.7-.3 1.1-.2l1.6.7 1.1-.9c.3-.2.6-.2 1.1-.1.3.2.6.5.6.9v1.6l1.2 1c.3.2.4.6.3 1-.1.3-.3.6-.7.7l-1.5.4-.6 1.5c-.5.5-.8.7-1.2.7m-1.8-3.2.7.1c.3 0 .6.2.7.5l.3.6.3-.7c.1-.2.3-.5.6-.6l.7-.2-.6-.5c-.2-.2-.4-.5-.4-.8V76l-.5.4c-.2.2-.6.2-1 .2l-.7-.3.2.7c.1.3.1.6-.2 1l-.1.4z"/><path class="st1" d="m168.8 75.1 1.7.6h.2l1.5-1c.2-.1.3 0 .3.2l-.1 1.8c0 .1 0 .2.1.2L174 78c.2.1.1.3-.1.4l-1.7.5c-.1 0-.2.1-.2.2l-.6 1.7c-.1.2-.3.2-.4.1l-1-1.5c0-.1-.1-.1-.2-.1l-1.8-.1c-.2 0-.2-.2-.2-.3l1.1-1.4c.1-.1.1-.2.1-.2l-.5-1.7c0-.4.1-.6.3-.5"/><path class="st2" d="M171.2 81.6c-.3 0-.6-.2-.8-.4l-.8-1.3-1.5-.1c-.4 0-.7-.2-.8-.6-.2-.3-.1-.7.2-1l1-1.1-.4-1.5c-.1-.3 0-.7.2-1 .2-.2.6-.3 1-.2l1.4.6 1.2-.9c.3-.2.7-.2 1.1-.1.3.2.5.5.5.9l-.1 1.5 1.2.9c.3.2.4.6.3 1-.1.3-.3.6-.7.7l-1.5.4-.5 1.5c-.3.5-.6.7-1 .7m-2.1-3.2h.7c.3 0 .6.2.8.4l.4.6.2-.6c.1-.3.3-.5.6-.6l.7-.2-.6-.4c-.2-.2-.4-.5-.4-.8V76l-.6.4c-.2.2-.6.2-.9.1l-.6-.2.2.7c.1.3 0 .6-.2.9l-.3.5z"/><path class="st3" d="m81.4 19.1 3.7 1.4c.2.1.3 0 .4-.1l2.5-2.2c.2-.2.6-.1.7.3l.2 3.7c0 .2.1.2.2.3l2.8 1.9c.3.2.2.6-.1.7l-3.3 1.1c-.1 0-.2.2-.2.2l-1.4 3.3c-.2.3-.6.3-.7.1L84.5 27c-.1-.1-.2-.2-.3-.2l-3.3-.2c-.3 0-.5-.4-.3-.6l1.9-2.6c.1-.1.1-.2.1-.4l-1.5-3.6c-.4-.1-.1-.4.3-.3"/><path class="st2" d="M86.5 30.8c-.4 0-.8-.2-1-.6L84 27.7l-3.2-.1c-.4 0-.8-.2-1-.6-.2-.4-.2-.8.1-1.2l1.8-2.4-1.5-3.3c-.2-.4-.1-.9.2-1.3.3-.3.8-.5 1.2-.3l3.5 1.3 2.4-2c.3-.3.8-.4 1.2-.2.4.2.6.6.7 1.1l.2 3.5 2.7 1.9c.4.2.6.7.5 1.1-.1.4-.4.8-.8 1l-3.2 1-1.3 3.2c-.2.4-.6.7-1 .7m-5.1-5 2.7.1c.4 0 .7.2 1 .6l1.3 2.2 1.1-2.8c.2-.3.4-.6.7-.6l2.7-.8-2.3-1.6c-.3-.2-.5-.6-.5-.9l-.1-3-2 1.8c-.3.2-.8.3-1.1.2L82 20.1l1.2 2.8c.2.4.1.8-.2 1.1.1.1-1.6 2.1-1.6 2.1z"/><path class="st1" d="m81.4 19.4 3.2 1.1c.2.1.2 0 .4-.1l2.8-2.1c.2-.2.6 0 .6.3v3.5c0 .2.1.2.2.3l2.8 1.9c.3.2.2.6-.1.7L88 26.1c-.2.1-.2.2-.2.2l-1 3.3c-.1.3-.6.4-.7.1l-2-2.8c-.1-.1-.2-.2-.3-.2l-3.5.1c-.3 0-.6-.4-.3-.6l2-2.8c.1-.1.1-.2.1-.4L81 19.8c-.2-.3.1-.6.4-.4"/><path class="st2" d="M86.4 30.8c-.4 0-.7-.2-1-.5l-1.9-2.7-3.2.1c-.5 0-.9-.2-1.1-.6-.2-.4-.2-.9.1-1.2l1.9-2.7-1.1-3.1c-.2-.4-.1-.9.2-1.2.3-.3.8-.4 1.2-.3l3.1 1.1 2.6-1.9c.3-.2.8-.3 1.2-.1.4.2.6.6.6 1.1V22l2.7 1.9c.4.2.6.7.5 1.1-.1.4-.4.8-.8 1l-3.2 1-1 3.2c-.2.4-.5.7-.9.8h.1m-2.7-4.8c.4 0 .7.2 1 .5l1.6 2.3.8-2.7c.1-.4.4-.6.7-.8l2.7-.8-2.2-1.7c-.3-.2-.5-.6-.5-1v-2.8L85.6 21c-.3.2-.7.3-1.1.2l-2.7-.9.9 2.6c.2.3.1.7-.2 1.1L81 26.2h2.7z"/><path class="st3" d="m179.7 32.5 1.8-1.1c.1 0 .1-.1.1-.2v-1.8c0-.2.2-.3.3-.2l1.5 1.1c.1.1.2.1.2 0l1.7-.5c.2-.1.3.2.2.3l-.6 1.7v.2l.9 1.6c.1.2-.1.3-.2.3l-1.6-.2c-.1 0-.2 0-.2.1l-1.1 1.3c-.1.2-.3.1-.4-.1l-.4-1.6c0-.1-.1-.2-.2-.2l-1.9-.6c-.3.2-.3 0-.1-.1"/><path class="st2" d="M182.4 36.2h-.2c-.3-.1-.6-.3-.7-.7l-.3-1.3-1.6-.5c-.4-.1-.6-.4-.7-.8-.1-.4.2-.7.5-1l1.5-.9v-1.5c0-.4.2-.7.6-.9.3-.2.7-.2 1.1.1l1.3 1 1.5-.4c.3-.1.7 0 1 .3.2.2.3.6.2 1l-.6 1.5.8 1.5c.2.3.2.7-.1 1-.2.3-.6.5-.9.4l-1.4-.2-1 1.1c-.5.1-.7.3-1 .3zm-1.3-3.7.7.2c.3.1.6.3.6.7l.2.6.5-.6c.2-.2.6-.3.9-.3l.6.1-.4-.7c-.2-.2-.2-.6-.1-.8l.2-.6-.7.2c-.3.1-.6 0-.8-.2l-.6-.5v.6c0 .3-.2.6-.5.9 0 .1-.6.4-.6.4z"/><path class="st5" d="m179.8 32.6 1.5-1c.1 0 .1-.1.1-.2l.1-1.8c0-.2.2-.2.3-.2l1.4 1.1c.1.1.2.1.2.1l1.7-.5c.2-.1.3.2.2.3l-.6 1.7v.2l1 1.5c.1.2 0 .3-.2.3l-1.8-.2c-.1 0-.2 0-.2.1l-1.1 1.4c-.1.2-.3.1-.4-.1l-.4-1.7c0-.1-.1-.2-.2-.2l-1.7-.6c0 .1-.1-.1.1-.2"/><path class="st2" d="M182.3 36.4h-.3c-.3-.1-.6-.3-.7-.7l-.4-1.5-1.5-.6c-.3-.2-.6-.4-.6-.8s.2-.7.5-.9l1.3-.8.1-1.5c0-.4.2-.7.6-.8.3-.2.7-.1 1 .2l1.1 1 1.5-.4c.3-.1.7 0 1 .3.2.2.3.6.2 1l-.6 1.4.8 1.3c.2.3.2.7 0 1.1-.2.3-.6.5-.9.5l-1.5-.1-1 1.2c-.1 0-.3.1-.6.1m-1.2-3.7.6.2c.3.1.5.3.6.6l.2.7.5-.6c.2-.2.5-.4.8-.3l.7.1-.4-.6c-.2-.2-.2-.6-.1-.9l.2-.6-.7.2c-.3.1-.6 0-.9-.2l-.6-.5v.7c0 .3-.2.6-.5.8l-.4.4z"/><path class="st3" d="m181.4 94.7 3.3.3c.2 0 .2-.1.3-.2l1.6-2.4c.2-.2.6-.2.6.1l.9 3c0 .1.1.2.2.2l2.8 1.1c.2.1.3.5.1.6l-2.5 1.5-.2.2-.4 3.1c0 .3-.4.4-.6.2l-1.9-1.9c-.1-.1-.2-.1-.3-.1l-2.8.6c-.2.1-.5-.2-.4-.5l1.1-2.5c.1-.1 0-.2-.1-.3l-2-2.6c-.3 0 0-.4.3-.4"/><path class="st2" d="M187.8 103.5c-.2 0-.6-.1-.7-.3l-1.8-1.8-2.6.6c-.4.1-.8-.1-1.1-.4-.2-.3-.3-.7-.2-1.1l1-2.4-1.9-2.4c-.2-.3-.3-.8-.1-1.2.2-.4.6-.6 1.1-.6l3.1.3 1.5-2.2c.2-.3.6-.6 1.1-.5.4.1.7.4.9.8l.8 2.8 2.6 1c.4.2.6.5.7.9s-.2.8-.5 1.1l-2.4 1.5-.4 2.8c-.1.4-.3.7-.7.9-.2.2-.2.2-.4.2m-2.4-3.7c.3 0 .6.1.7.3l1.4 1.4.3-2.3c.1-.3.2-.6.5-.8l1.9-1.1-1.9-.7c-.3-.1-.6-.4-.6-.7l-.6-2.2-1.2 1.7c-.2.3-.6.5-1.1.5l-2.4-.2 1.5 1.9c.2.3.3.7.2 1.1l-.7 1.9 2-.5c-.2-.3-.1-.3 0-.3z"/><path class="st5" d="m181.5 94.9 2.9.2c.1 0 .2-.1.3-.2l1.9-2.3c.2-.2.6-.2.6.2l.7 2.8c0 .1.1.2.2.2L191 97c.2.1.3.5.1.6l-2.5 1.5c-.1.1-.2.2-.2.3l-.2 2.9c0 .3-.3.5-.6.2l-2.3-1.9c-.1-.1-.2-.1-.3-.1l-2.8.8c-.3.1-.6-.2-.4-.5l1.1-2.8c.1-.1 0-.2 0-.3l-1.6-2.4c-.3-.1-.2-.4.2-.4"/><path class="st2" d="M187.7 103.5c-.2 0-.5-.1-.7-.2l-2-1.8-2.7.7c-.4.1-.8 0-1.1-.3-.2-.3-.3-.7-.2-1.1l1.1-2.5-1.5-2.3c-.2-.3-.2-.8 0-1.1.2-.4.6-.6 1.1-.6l2.8.2 1.7-2.1c.2-.3.6-.5 1.1-.4.4.1.7.4.8.8l.6 2.7 2.6 1c.4.2.6.5.7.9.1.4-.2.8-.5 1.1l-2.4 1.5-.2 2.8c0 .4-.2.8-.6 1h-.6m-2.7-3.9c.2 0 .5.1.7.2l1.6 1.4.1-2.2c0-.3.2-.7.5-.9l1.9-1.1-2-.7c-.3-.2-.6-.4-.6-.7l-.5-2.1-1.4 1.7c-.2.3-.6.4-1 .4l-2.2-.2 1.2 1.8c.2.3.2.6.1 1.1l-.8 2 2.1-.6c.2-.1.3-.1.3-.1z"/><path class="st3" d="m188.1 64.2 2.3.4c.1 0 .2 0 .2-.1l1.2-1.5c.2-.2.4-.1.4.1l.5 2.1c0 .1.1.2.2.2l1.9.8c.2.1.2.3 0 .5l-1.8 1c-.1 0-.1.1-.2.2l-.4 2.1c0 .2-.3.2-.4.1l-1.3-1.4c-.1-.1-.2-.1-.2-.1l-1.9.3c-.2 0-.3-.2-.2-.3l.8-1.7v-.2l-1.3-1.9c-.2-.4 0-.6.2-.6"/><path class="st2" d="M192.3 70.8c-.2 0-.6-.1-.7-.3l-1.1-1.2-1.7.2c-.4.1-.7-.1-1-.4-.2-.3-.2-.7-.1-1.1l.7-1.5-1.1-1.7c-.2-.3-.2-.7 0-1.1.2-.3.6-.5 1-.4l2 .3 1.1-1.3c.2-.3.6-.4 1-.3.4.1.6.4.7.7l.4 1.9 1.6.7c.3.2.6.5.6.9s-.2.7-.5.9l-1.6.9-.4 1.9c-.1.4-.3.6-.7.7-.1.2-.2.2-.2.2m-1.8-3.1c.2 0 .6.1.7.3l.6.6.2-1.1c.1-.3.2-.6.5-.6l.9-.5-1-.4c-.2-.2-.5-.4-.6-.7l-.2-1.1-.6.7c-.2.3-.6.4-1 .3l-1.1-.2.6.9c.2.3.2.6.1 1l-.4.9 1.1-.2.2.1z"/><path class="st1" d="m188.1 64.3 2 .2c.1 0 .2 0 .2-.1l1.4-1.5c.2-.2.4-.1.4.2l.3 2c0 .1.1.2.2.2l1.9.8c.2.1.2.3 0 .5l-1.8 1c-.1 0-.1.1-.2.2l-.2 2c0 .2-.2.3-.4.2l-1.5-1.5c-.1-.1-.2-.1-.2-.1l-2 .4c-.2.1-.3-.2-.2-.3l.9-1.9v-.2l-1.1-1.8s.2-.3.3-.3"/><path class="st2" d="M192.2 70.8c-.2 0-.5-.1-.6-.2l-1.3-1.2-1.8.3c-.4.1-.7-.1-1-.3-.2-.3-.2-.7-.1-1.1l.8-1.6-.9-1.5c-.2-.3-.2-.7.1-1.1s.6-.5 1-.4l1.8.2 1.2-1.3c.2-.2.6-.4 1-.3.4.1.6.4.7.8l.3 1.8 1.6.7c.3.2.6.5.6.9s-.2.7-.5.9l-1.5.8-.2 1.8c-.1.4-.3.7-.6.8h-.6m-1.8-3.1c.2 0 .5.1.7.2l.7.7.1-1.1c0-.3.2-.6.5-.7l.9-.5-1-.4c-.3-.2-.5-.4-.6-.7l-.2-1.1-.7.8c-.2.2-.6.3-.9.3l-1.1-.2.5.9c.2.3.2.6 0 .9l-.5 1 1.1-.2c.3.2.4.1.5.1z"/><path class="st6" d="M59.6 57.1c-1.1.8-1.4 2.4-.6 3.6.8 1.1 2.4 1.4 3.6.6 1.1-.8 1.4-2.4.6-3.6-.8-1.3-2.4-1.5-3.6-.6"/><path class="st6" d="M61.2 62.5c-1.1 0-2-.5-2.7-1.4-1.1-1.5-.7-3.6.7-4.6 1.5-1.1 3.6-.7 4.6.7 1.1 1.5.7 3.6-.7 4.6-.6.5-1.2.7-1.9.7m0-5.2c-.4 0-.7.1-1.1.3-.8.6-1 1.8-.4 2.6s1.8 1 2.6.4 1-1.8.4-2.6c-.4-.4-1-.7-1.5-.7M113 14.8c1.4.5 2.8-.2 3.2-1.6.5-1.4-.2-2.8-1.6-3.2-1.4-.5-2.8.2-3.2 1.6-.5 1.3.2 2.7 1.6 3.2"/><path class="st6" d="M113.8 15.7c-.4 0-.7-.1-1.1-.2-1.7-.6-2.7-2.5-2-4.2.6-1.7 2.5-2.7 4.2-2 1.7.6 2.7 2.5 2 4.2-.3.8-.9 1.5-1.7 1.9-.4.2-.9.3-1.4.3m0-5.1c-.7 0-1.5.5-1.7 1.2-.3 1 .2 2 1.1 2.4.5.2 1 .2 1.4-.1.4-.2.8-.6.9-1.1.3-1-.2-2-1.1-2.4h-.6"/><path class="st6" d="M168.2 17.5c.1.1 0 .2-.1.3-.2.1-.3.1-.4-.1-.3-.5-.8-.8-1.4-1.1-.2-.1-.2-.2-.2-.4.1-.2.2-.2.4-.2.8.5 1.3.9 1.7 1.5 0-.1 0 0 0 0m-4.5-1.5c.1.2-.1.4-.2.4-.5.1-1 .2-1.5.4-.1 0-.2.1-.3.2-.2.1-.3 0-.4-.2-.1-.2 0-.3.2-.4.1-.1.2-.1.3-.2.5-.2 1.1-.3 1.5-.4.2-.1.3 0 .4.2m-4.3 2.3c0 .1 0 .2-.1.3 0 0 0 .1-.1.1l-.9 1.5c-.1.2-.2.2-.4.2s-.2-.2-.2-.4c.2-.6.6-1.1 1-1.6 0 0 0-.1.1-.1.1-.2.3-.2.4-.1.2 0 .2.1.2.1m5.8 23.3c.2.6.2 1.3.3 1.9 0 .2-.1.3-.3.3-.2 0-.3-.1-.3-.3 0-.6-.1-1.2-.2-1.8-.1-.2.1-.3.2-.4.2.1.3.1.3.3m-1.2-2.8c.1.2 0 .3-.2.4-.2.1-.3 0-.4-.1-.3-.5-.6-1.1-1.1-1.5-.1-.2-.1-.3.1-.4.2-.1.3-.1.4.1.6.3.9.8 1.2 1.5 0-.1 0-.1 0 0m-6.4-15.9v.2c-.1.6-.2 1.2-.2 1.9 0 .2-.2.3-.3.3s-.3-.2-.3-.3c0-.6.1-1.3.2-1.9 0-.2.2-.2.3-.2h.3m3.2 12.1c0 .1 0 .2-.1.3-.1.2-.3.2-.4.1-.2-.2-.3-.2-.6-.4s-.6-.4-1-.6c-.2-.1-.2-.2-.1-.4s.2-.2.4-.1c.3.2.7.4 1.1.6.2.1.4.2.7.5m4.3 11.6v.2c0 .1-.1.2-.1.2 0 .1-.1.2-.2.2-.6.2-1.2.2-1.8-.1-.2-.1-.2-.2-.2-.4.1-.2.2-.2.4-.2.4.2.8.2 1.2.1v-.1c.1-.2.2-.2.4-.2.2.1.2.2.3.3M157.5 28v.4c.1.5.1 1.1.2 1.5 0 .2-.1.3-.2.3-.2 0-.3-.1-.3-.2-.1-.5-.1-1.1-.2-1.5v-.3c0-.2.1-.3.2-.3.1-.2.3-.1.3.1m.6 4.9s0 .1 0 0c.1.6.2 1.3.3 1.9 0 .2-.1.3-.2.3s-.3-.1-.3-.2c-.2-.6-.2-1.2-.3-1.9 0-.2.1-.3.2-.3.1.1.2.1.3.2m1.1 5c.2.6.3 1.2.5 1.9.1.2-.1.3-.2.4-.2.1-.3-.1-.4-.2-.2-.6-.3-1.2-.5-1.9-.1-.2.1-.3.2-.4.1-.1.3 0 .4.2m2.1 6.5c.1.2 0 .3-.2.4-.2.1-.3 0-.4-.2-.2-.2-.2-.6-.4-.9l-.3-.9c-.1-.2 0-.3.2-.4s.3 0 .4.2l.3.9c.2.3.3.6.4.9m-4.9-11.9v.2c-.1.2-.2.2-.4.2-.6-.2-1.1-.4-1.8-.6-.2-.1-.2-.2-.2-.4.1-.2.2-.2.4-.2l1.8.6c.1.1.2.1.2.2m-4.8-1.4v.2c0 .2-.2.2-.3.2-.6-.2-1.1-.2-1.9-.4-.2 0-.2-.2-.2-.3 0-.2.2-.2.3-.2.7.2 1.3.3 1.9.4.1-.1.2 0 .2.1m-4.9-1.2v.2c0 .2-.2.2-.3.2-.6-.2-1.3-.3-1.9-.4-.2 0-.2-.2-.2-.3 0-.2.2-.2.3-.2.6.2 1.1.2 1.9.4.1 0 .2 0 .2.1m-4.8-1.2v.2c-.1.2-.2.2-.4.2l-1.8-.6c-.2-.1-.2-.2-.2-.4.1-.2.2-.2.4-.2.6.2 1.1.4 1.8.6.1 0 .1.1.2.2m-4.6-1.9v.2c-.1.2-.2.2-.4.1-.6-.3-1.1-.6-1.6-1.1-.2-.1-.2-.3-.1-.4.1-.2.3-.2.4-.1.5.3 1 .6 1.5 1 .1.2.2.2.2.3m-4-3.1c.1.1 0 .2-.1.3-.2.1-.3.1-.4 0-.4-.5-.8-.9-1.2-1.5-.1-.2-.1-.3.1-.4.2-.1.3-.1.4.1.4.6.8 1 1.2 1.5 0-.1 0 0 0 0m-2.9-4.1c.1.2 0 .3-.1.3-.2.1-.3.1-.4-.1-.2-.2-.2-.4-.4-.6-.2-.3-.4-.6-.6-1-.1-.2-.1-.3.1-.4.2-.1.3-.1.4.1.2.3.4.6.6 1 .1.2.2.5.4.7 0-.1 0 0 0 0m-2.8-4.2c.1.2 0 .2-.1.3-.2.1-.3.1-.4-.1-.2-.3-.5-.6-.7-.9l-.5-.5c-.1-.1-.1-.3 0-.4.1-.1.3-.1.4 0 .2.2.3.3.5.6.2.4.6.6.8 1m-3.7-3.3v.2c-.1.2-.2.2-.4.1-.6-.3-1.1-.6-1.6-.8-.2-.1-.2-.2-.2-.4s.2-.2.4-.2c.6.2 1.1.5 1.8.8v.3m-4.7-1.4c0 .2-.2.4-.3.4-.6 0-1.2.2-1.8.3-.2.1-.3 0-.4-.2s0-.3.2-.4c.6-.2 1.2-.3 1.9-.4.2.1.4.1.4.3"/><path class="st6" d="M164 48.1c-.5 0-.9-.1-1.4-.3-.2-.2-.4-.3-.6-.6-.1-.2-.1-.6.1-.8.2-.5.9-.7 1.4-.5.2.1.3.1.4.1.2-.3.7-.5 1.1-.3.2.1.5.3.6.6.1.2.1.5 0 .7 0 .1-.1.2-.1.2-.1.2-.3.5-.6.6-.1.2-.6.3-.9.3m-3-2.5c-.1 0-.2 0-.3-.1-.2-.1-.5-.2-.6-.5-.2-.3-.3-.6-.4-1l-.3-.9c-.2-.6.1-1.1.6-1.4.6-.2 1.1.1 1.4.6l.3.9c.1.2.2.5.3.7 0 0 0 .1.1.1.2.5 0 1.1-.5 1.3-.3.2-.4.3-.6.3m4.2-1c-.2 0-.5-.1-.7-.2-.2-.2-.3-.5-.3-.7 0-.6-.1-1.1-.2-1.6-.1-.2 0-.6.1-.8.2-.2.4-.4.6-.5.5-.2 1.1.2 1.2.6v.2c.2.7.2 1.4.3 2.1 0 .2-.1.6-.2.7-.2.1-.4.2-.8.2m-5.8-3.8c-.5 0-.9-.3-1-.7-.2-.6-.3-1.2-.5-1.9-.2-.6.2-1.1.7-1.3.5-.2 1.1.2 1.2.6v.1c.2.6.3 1.2.5 1.8.2.6-.2 1.1-.7 1.3 0 .1-.1.1-.2.1m4.4-.9c-.3 0-.7-.2-.9-.5l-1-1.5c-.3-.5-.2-1.1.2-1.5.5-.3 1.1-.2 1.5.2.4.6.8 1.1 1.1 1.7 0 .1.1.1.1.2.2.5 0 1.1-.5 1.3-.2 0-.4.1-.5.1zm-3.3-3.8c-.2 0-.5-.1-.6-.2-.2-.2-.3-.2-.5-.4-.1-.1-.2-.1-.2-.2-.2.2-.4.5-.7.6-.2.1-.6 0-.8-.2-.2-.2-.4-.4-.5-.6-.1-.6-.2-1.1-.3-1.7l-.2.2c-.2.1-.6.1-.8 0-.6-.2-1.1-.4-1.7-.6-.6-.2-.8-.8-.6-1.3.2-.6.8-.8 1.3-.6.6.2 1.3.4 1.9.6.2.1.5.3.6.6.2-.2.3-.2.6-.2.5-.1 1 .2 1.1.6 0 .1.1.2.1.2v.1c.2 0 .4 0 .6.2.3.2.7.5 1.1.6.2.2.4.3.6.5.2.1.2.2.3.4.2.3.1.7-.2 1.1-.5 0-.7.1-1.1.3.1 0 0 0 0 0zm-9.1-3.9h-.2c-.6-.2-1.1-.2-1.8-.4-.2-.1-.5-.2-.6-.5s-.2-.5-.2-.8c.2-.6.6-.9 1.2-.8.7.2 1.3.3 1.9.4.3.1.6.3.7.6.1.2.1.4.1.6-.2.6-.6.9-1.1.9zm-5-1.1h-.2c-.7-.2-1.3-.3-1.9-.4-.6-.2-.9-.7-.8-1.3.2-.6.7-.9 1.3-.8.6.2 1.1.2 1.8.4.3.1.6.3.7.6.1.2.1.4.1.6 0 .5-.5.9-1 .9m11-.1c-.5 0-1-.4-1.1-.9-.1-.5-.1-1.1-.2-1.5v-.3c-.1-.6.4-1.1 1-1.1.5 0 .9.2 1.1.6 0 .1.1.2.1.3v.3c.1.5.1 1.1.2 1.5 0 .2-.1.6-.2.8-.2.2-.4.3-.7.4-.1-.1-.1-.1-.2-.1m-15.8-1.2c-.1 0-.2 0-.3-.1-.6-.2-1.3-.4-1.9-.6-.2-.1-.5-.3-.6-.6s-.1-.6 0-.8c.1-.2.3-.5.6-.6.2-.1.6-.1.8 0 .6.2 1.1.4 1.7.6.3.1.6.3.6.6.1.2.1.5 0 .7-.1.6-.5.8-.9.8zm-4.7-1.9c-.2 0-.3-.1-.5-.2-.6-.3-1.1-.7-1.7-1.1-.2-.2-.4-.4-.4-.6-.1-.2 0-.6.2-.8s.4-.4.6-.4c.2-.1.6 0 .8.2l1.5 1c.2.1.4.3.5.6.1.3.1.6-.1.9-.2.2-.3.4-.6.5h-.3m20.2-2.1c-.6 0-1.1-.5-1.1-1.1 0-.7.1-1.4.2-2 .1-.6.6-1 1.2-.9.4.1.6.3.8.6.1.2.1.3.1.6-.1.6-.2 1.1-.2 1.8 0 .2-.2.6-.3.7-.2.3-.4.3-.7.3M133 24.8c-.3 0-.6-.1-.8-.3L131 23c-.2-.2-.2-.5-.2-.8.1-.2.2-.5.4-.6.2-.2.5-.2.8-.2.2.1.5.2.6.4.4.5.7 1 1.1 1.4.1.1.2.2.2.3.2.4.1.9-.2 1.1-.2.1-.4.2-.7.2m25.2-3.7c-.2 0-.3 0-.4-.1-.5-.2-.7-.9-.5-1.4.3-.6.6-1.2 1.1-1.7l.1-.1c.3-.5 1.1-.6 1.5-.2.2.1.2.2.3.4.2.3.1.7-.2 1.1l-.1.1c-.3.4-.6.9-.8 1.4-.3.3-.6.5-1 .5m-28.1-.3c-.3 0-.7-.2-.9-.5-.2-.2-.2-.4-.4-.6l-.6-.9c-.2-.3-.2-.5-.2-.8.1-.2.2-.5.5-.6.2-.2.5-.2.8-.2s.5.2.6.5c.2.3.4.6.6 1 .2.2.2.4.4.6 0 .1.1.1.1.2.2.5 0 1-.4 1.3h-.5m37.8-2.2h-.2c-.2 0-.5-.2-.7-.4-.3-.4-.6-.6-1.1-.9-.2-.2-.4-.3-.6-.6-.1-.2-.1-.6.1-.8.2-.2.3-.4.6-.6.2-.1.6-.1.8.1.7.3 1.4.8 1.8 1.5.1.1.1.2.2.2.2.4 0 .9-.3 1.2-.1.3-.3.3-.6.3m-6.3-1c-.4 0-.8-.2-1-.6-.1-.2-.1-.6 0-.8.1-.2.3-.5.6-.6.1-.1.2-.1.3-.2.6-.2 1.1-.4 1.7-.5.5-.1 1 .2 1.1.6 0 .1.1.2.1.2.1.6-.3 1.1-.9 1.2-.4.1-.8.2-1.3.3-.1 0-.2.1-.2.1-.1.3-.2.3-.4.3m-34.2-1c-.3 0-.6-.2-.8-.4-.2-.3-.5-.6-.7-.9-.2-.2-.3-.3-.4-.5-.2-.2-.3-.5-.3-.7 0-.2.1-.6.3-.7.4-.4 1.1-.4 1.5 0 .2.2.3.4.6.6.2.3.5.6.8 1 .1.1.1.2.2.2.2.4 0 .9-.3 1.2-.5.1-.8.2-.9.2m-3.8-3.4c-.2 0-.4-.1-.6-.2-.5-.3-1.1-.6-1.5-.7-.2-.1-.5-.3-.6-.6-.1-.2-.2-.6 0-.8.1-.2.3-.5.6-.6.2-.1.6-.2.8 0 .6.2 1.2.6 1.9.9.2.1.3.3.4.5.1.3.1.6-.1.9-.1.5-.5.6-.9.6zm-6.5-1c-.4 0-.8-.2-1-.6-.1-.2-.1-.6 0-.8s.3-.5.6-.6c.6-.2 1.4-.4 2.2-.4.4 0 .8.2 1 .6.1.1.1.2.1.3 0 .6-.4 1.1-1 1.1s-1.1.1-1.5.3c-.2.1-.4.1-.4.1m70.4 107.4c-.1.2-.2.2-.4.1s-.2-.2-.1-.4c.2-.2.2-.5.3-.7 0-.2.2-.2.3-.2s.2.2.2.3c.1.3-.1.6-.3.9"/><path class="st6" d="M187.3 120.5c-.2 0-.4-.1-.6-.2-.5-.3-.6-1-.3-1.5l.2-.5c.1-.2.2-.5.5-.6.2-.2.5-.2.8-.2.2.1.5.2.6.5.2.2.2.5.2.8-.1.4-.2.8-.5 1.2l-.1.1c-.1.3-.5.4-.8.4zm8.4-1.3c-.1.2-.2.2-.4.1s-.2-.2-.1-.4c.3-.5.6-1.1.9-1.6.1-.2.2-.2.4-.2s.2.2.2.4l-1 1.7m-2 2.5c-.5.5-.9 1-1.4 1.4-.2.1-.3.1-.4 0-.1-.2-.1-.3 0-.4.5-.4.9-.8 1.3-1.3.1-.1.3-.2.4 0 .2-.1.2.2.1.3m4.1-7c-.1.1-.2.2-.3.1s-.2-.2-.2-.4c.2-.6.3-1.2.4-1.8 0-.2.2-.2.3-.2s.2.2.2.3c-.1.6-.2 1.2-.5 1.9v.1m-7.9 10.1c-.6.4-1.2.6-1.8.9-.2.1-.3 0-.4-.2-.1-.2 0-.3.2-.4.6-.2 1.1-.5 1.6-.8.2-.1.3 0 .4.1.1.1.1.3 0 .4m8.6-15.1c-.1.1-.2.1-.2.1-.2 0-.3-.2-.3-.3 0-.5-.1-1.1-.1-1.5 0-.1 0-.2-.1-.3 0-.2.1-.3.2-.3.2 0 .3.1.3.2s0 .2.1.3c.1.5.1 1.1.1 1.6.1.2.1.2 0 .2m-13.3 16.6c-.1.1-.2.2-.2.1-.6 0-1.2-.2-1.6-.5-.1-.1-.2-.2-.3-.2-.1-.2-.1-.3 0-.4.2-.1.3-.1.4 0l.2.2c.3.2.7.3 1.3.3.2 0 .3.2.3.3 0 .1 0 .2-.1.2m13.3-22c-.2.3-.6.6-.8 1-.1.1-.3.2-.4 0-.1-.1-.1-.2-.1-.3-.1 0-.2-.1-.2-.2-.2-.4-.4-.7-.7-1.1-.1-.2-.2-.2-.3-.3-.1-.1-.1-.3 0-.4.1-.1.3-.1.4 0l.4.4c.3.3.6.7.8 1.2.3-.4.6-.7.9-1.1.1-.2.2-.2.4-.1s.2.2.1.4-.3.3-.5.5m-13.3 17.3c0 .1 0 .1 0 0-.2.2-.2.2-.4.2-.4.2-.7.6-1.1 1-.1.2-.3.2-.4.1-.2-.1-.2-.3-.1-.4.3-.4.7-.8 1.2-1.1.1-.1.2-.2.3-.2.2-.1.3-.1.4.1.2.1.2.2.1.3m15.2-20.5c-.1.1-.2.2-.3.1-.2-.1-.2-.2-.2-.4.2-.6.4-1.1.6-1.8.1-.2.2-.2.4-.2.2.1.2.2.2.4-.2.6-.5 1.2-.7 1.9 0-.1 0 0 0 0m-5.1 6.1c-.7.4-1.4.6-2 .6-.2 0-.3-.1-.3-.2 0-.2.1-.3.2-.3.6 0 1.1-.2 1.7-.5.2-.1.3 0 .4.2.1 0 .1.1 0 .2m6.3-11c-.1.1-.2.2-.2.1-.2 0-.2-.2-.2-.3.1-.5.1-1.1.2-1.6v-.2c0-.2.2-.3.3-.3s.3.2.3.3v.2c0 .6-.1 1.1-.2 1.6-.2.1-.2.2-.2.2m-10.9 10.5s-.1 0 0 0c-.2.2-.3.2-.5 0-.2-.3-.4-.6-.6-1-.1-.3-.2-.6-.1-1 0-.2.2-.3.3-.2.2 0 .3.2.2.3 0 .2 0 .5.1.8.1.2.2.5.4.7.3 0 .3.2.2.4m2.9-4.6c-.1.1-.2.2-.2.1-.3 0-.7 0-1.1.1-.2.1-.4.2-.6.2-.2.1-.3 0-.4-.2s0-.3.2-.4c.2-.2.5-.2.7-.3.4-.1.8-.1 1.2-.1.2 0 .3.2.2.3v.3m8.1-10.9c-.1.1-.2.1-.2.1-.2 0-.3-.1-.3-.3 0-.6-.1-1.2-.1-1.9 0-.2.1-.3.2-.3s.3.1.3.2c.1.6.1 1.3.1 1.9.1.2.1.3 0 .3m-.3-5c-.1.1-.2.1-.2.1-.2 0-.3-.1-.3-.2v-.2c-.1-.6-.1-1.1-.2-1.6 0-.2.1-.3.2-.3s.3.1.3.2c.1.6.1 1.1.2 1.6v.4m-.5-4.9c-.1.1-.2.1-.2.1-.2 0-.3-.1-.3-.2 0-.6-.1-1.3-.1-1.9 0-.2.2-.3.3-.3s.3.2.3.3c0 .6 0 1.2.1 1.9-.1-.1-.1 0-.1.1m0-5.1c-.1.1-.2.2-.2.1-.2 0-.3-.2-.3-.3 0-.6.1-1.3.1-1.9 0-.2.2-.3.3-.2.2 0 .3.2.2.3 0 .6-.1 1.2-.1 1.9v.1m.3-4.9c-.1.1-.2.2-.2.1-.2 0-.2-.2-.2-.3.1-.6.2-1.2.2-1.9 0-.2.2-.2.3-.2s.2.2.2.3c-.1.6-.2 1.2-.2 1.9-.1 0-.1 0-.1.1m.7-5c-.1.1-.2.2-.3.1-.2 0-.2-.2-.2-.3.1-.6.2-1.2.4-1.9 0-.2.2-.2.3-.2s.2.2.2.3c-.2.6-.2 1.2-.4 1.9.1.1 0 .1 0 .1m1.2-4.8c-.1.1-.2.2-.3.1-.2-.1-.2-.2-.2-.4.2-.6.3-1.2.6-1.8.1-.2.2-.2.4-.2.2.1.2.2.2.4-.3.6-.5 1.2-.7 1.9 0-.1 0-.1 0 0m1.5-4.8c-.1.1-.2.2-.3.1-.2-.1-.2-.2-.2-.4l.6-1.8c.1-.2.2-.2.4-.2.2.1.2.2.2.4-.2.7-.5 1.2-.7 1.9.1 0 0 0 0 0m1.9-4.6c-.1.1-.2.2-.4.1s-.2-.2-.2-.4c.2-.6.6-1.1.8-1.7.1-.2.2-.2.4-.2.2.1.2.2.2.4-.2.6-.5 1.2-.8 1.8"/><path class="st6" d="M184.9 127.2c-.8 0-1.5-.2-2.1-.6-.2-.1-.2-.2-.4-.4s-.2-.5-.2-.7c0-.2.2-.6.3-.7.4-.4 1.1-.3 1.5.1l.1.1c.2.2.5.2.8.2.6 0 1.1.5 1.1 1.1 0 .2-.1.4-.2.6-.3.1-.6.3-.9.3m-.4-1.3.6.5-.6-.5zm3.4.6c-.2 0-.2 0-.4-.1s-.5-.3-.6-.6c-.1-.2-.1-.6 0-.8.1-.2.3-.5.6-.6.6-.2 1.1-.5 1.5-.7.5-.2 1.1-.1 1.5.4.2.3.2.8-.1 1.1-.1.1-.2.2-.3.2l-1.8.9c-.1.2-.3.2-.4.2zm4.3-2.6c-.3 0-.6-.2-.8-.4-.4-.4-.3-1.1.1-1.5.4-.4.9-.8 1.3-1.2.2-.2.5-.3.7-.3.2 0 .6.1.7.3.4.4.4 1 .1 1.4l-.1.1c-.5.5-1 1-1.5 1.4-.1.1-.4.2-.5.2zm-8.7-.2c-.2 0-.5-.1-.6-.2-.5-.3-.5-1.1-.2-1.5.4-.5.8-.9 1.4-1.2.1-.1.2-.2.3-.2.5-.3 1.1-.2 1.5.3.2.4.2.8-.1 1.2l-.2.2-.2.2c-.3.2-.6.5-.9.8-.2.2-.4.3-.7.4h-.3m11.9-3.6c-.2 0-.4-.1-.6-.2-.2-.2-.4-.4-.5-.6-.1-.2 0-.6.2-.8l.9-1.5c.2-.5.9-.7 1.4-.5.5.2.7.9.5 1.4l-1 1.7v.1c-.2.3-.6.4-.9.4zm2.1-4.5c-.1 0-.2 0-.3-.1-.2-.1-.5-.2-.6-.5-.2-.2-.2-.6-.1-.8.2-.6.3-1.1.4-1.7.1-.2.2-.5.4-.6.2-.2.5-.2.8-.2.2.1.5.2.6.4.2.2.2.5.2.8-.1.6-.2 1.3-.5 1.9 0 .1-.1.2-.2.3 0 .3-.4.5-.7.5zm.7-5c-.6 0-1.1-.5-1.1-1.1 0-.5-.1-1-.1-1.5 0-.1 0-.2-.1-.3-.1-.2 0-.6.2-.8s.4-.4.6-.4c.2-.1.6 0 .8.2.2.2.4.4.4.6 0 .1 0 .2.1.3.1.6.1 1.1.2 1.7 0 .2-.1.5-.2.6-.2.6-.4.7-.8.7.1 0 .1 0 0 0m-5.1-2c-.2 0-.5-.1-.6-.2-.2-.2-.3-.4-.3-.7-.1-.6.4-1.1 1-1.1.5 0 .9-.2 1.4-.4.2-.2.6-.2.8-.1.2.1.5.2.6.5.2.3.2.8-.1 1.1-.1.2-.2.2-.4.3-.8.4-1.5.5-2.4.6.1 0 .1 0 0 0zm-2.7-1.1c-.3 0-.6-.2-.8-.3-.3-.3-.6-.7-.6-1.2-.2-.4-.2-.8-.2-1.3.1-.6.6-1 1.1-1s1 .6 1 1.1c0 .2 0 .3.1.5l.2.5c.3.4.3.9.1 1.3l-.2.2c-.2.1-.5.2-.7.2zm7-1.3c-.2 0-.5-.1-.7-.2-.1-.1-.2-.2-.2-.3-.1-.1-.2-.2-.2-.3-.2-.3-.4-.6-.6-1-.1-.1-.2-.2-.2-.3-.4-.4-.4-1.1 0-1.5.4-.4 1.1-.4 1.5 0 .2.2.3.3.4.5.1.2.2.2.3.4.1-.1.2-.2.2-.3.2-.2.4-.4.6-.4.2-.1.6 0 .8.2.5.3.6 1 .2 1.5-.2.2-.2.4-.4.6-.2.4-.6.7-.9 1.1-.2-.2-.5 0-.8 0m-6-2.9c-.1 0-.2 0-.3-.1-.2-.1-.5-.2-.6-.5s-.2-.6-.1-.8c.1-.2.2-.5.5-.6.3-.2.6-.2 1-.3.5-.1 1-.2 1.5-.1.6.1 1 .6 1 1.1 0 .2-.1.4-.2.6-.2.3-.6.5-1 .4-.2 0-.6 0-.8.1-.2 0-.3.1-.4.2h-.6m8.6-1.3c-.2 0-.2 0-.4-.1s-.5-.3-.6-.6-.1-.6 0-.8c.2-.6.4-1.1.6-1.7.1-.2.2-.5.5-.6.2-.2.5-.2.8-.1.2.1.5.2.6.5s.2.5.1.8c-.2.6-.4 1.3-.6 1.9 0 .1-.1.2-.2.2-.1.3-.4.5-.8.5zm1.3-4.9h-.2c-.2 0-.5-.2-.7-.4-.2-.2-.2-.5-.2-.8.1-.5.1-1.1.2-1.5v-.2c0-.6.5-1.1 1.1-1 .2 0 .6.2.7.3.2.2.3.5.2.7v.2c0 .6-.1 1.1-.2 1.7 0 .2-.1.3-.2.5-.2.3-.4.5-.7.5zm0-5c-.6 0-1.1-.4-1.1-1s-.1-1.2-.1-1.9c0-.2.1-.6.2-.7.2-.2.4-.3.7-.3.6-.1 1.1.4 1.1 1 .1.7.1 1.3.1 1.9 0 .2-.1.5-.2.6 0 .2-.3.4-.7.4.1 0 .1 0 0 0zm-.3-5c-.6 0-1-.4-1.1-1v-.2c-.1-.6-.1-1.1-.2-1.6-.1-.6.4-1.1 1-1.1.2 0 .6.1.7.2.2.2.3.4.4.7.1.6.1 1.1.2 1.6v.3c0 .2-.1.5-.2.7-.1.2-.4.4-.8.4zm-.5-4.9c-.6 0-1.1-.4-1.1-1s-.1-1.3-.1-1.9c0-.6.4-1.1 1.1-1.1.6 0 1.1.5 1.1 1.1 0 .6 0 1.2.1 1.9 0 .2-.1.5-.2.6-.2.1-.5.3-.9.4.1 0 .1 0 0 0m0-5.1c-.1 0-.1 0 0 0-.6 0-1.1-.5-1.1-1.1 0-.6.1-1.3.1-1.9 0-.6.6-1.1 1.1-1 .2 0 .6.2.7.3.2.2.2.5.2.7 0 .6-.1 1.2-.1 1.9 0 .2-.1.4-.2.6-.1.4-.4.5-.7.5zm.3-5c-.3 0-.6-.2-.8-.4s-.2-.5-.2-.7c.1-.6.2-1.3.2-1.9 0-.2.2-.5.4-.7.2-.2.5-.2.8-.2.6.1 1 .6.9 1.2-.1.6-.2 1.2-.2 1.9 0 .2-.1.3-.2.5-.2.2-.5.3-.9.3zm.8-4.9h-.2c-.2-.1-.5-.2-.6-.4-.2-.2-.2-.5-.2-.8.1-.6.2-1.2.4-1.9.1-.2.2-.5.5-.6.2-.2.5-.2.8-.2.6.2.9.6.8 1.2-.2.6-.2 1.2-.4 1.8 0 .2-.1.3-.2.4-.3.4-.6.5-.9.5m1.1-4.8h-.3c-.2-.1-.5-.2-.6-.5-.2-.2-.2-.5-.1-.8.2-.6.3-1.2.6-1.9.1-.2.2-.5.5-.6.2-.2.6-.2.8-.1.2.1.5.2.6.5.2.2.2.6.1.8-.2.6-.3 1.2-.5 1.8 0 .2-.1.2-.2.3-.2.3-.6.5-.9.5m1.6-4.8c-.1 0-.2 0-.3-.1-.6-.2-.8-.8-.6-1.4.2-.6.5-1.2.6-1.8.2-.6.8-.8 1.4-.6s.8.8.6 1.4c-.2.6-.5 1.1-.6 1.7 0 .1-.1.2-.2.2-.3.4-.6.6-.9.6zm1.9-4.6c-.2 0-.3 0-.4-.1-.2-.1-.5-.3-.6-.6-.1-.2-.1-.6 0-.8.2-.6.6-1.1.8-1.7.2-.2.3-.4.6-.5.2-.1.6-.1.8.1.2.2.4.3.5.6.1.2.1.6-.1.8-.2.6-.6 1.1-.8 1.7 0 .1-.1.2-.1.2 0 .1-.4.3-.7.3z"/><path class="st5" d="m192.7 90.8-15.2-4.6c-1.1-.3-1.6-1.4-1.3-2.4l2.7-8.8c.3-1.1 1.4-1.6 2.4-1.3l15.2 4.6c1.1.3 1.6 1.4 1.3 2.4l-2.7 8.8c-.3 1-1.4 1.6-2.4 1.3"/><path class="st2" d="M193.2 91.7c-.2 0-.6 0-.8-.1L177.2 87c-.6-.2-1.2-.6-1.6-1.3-.3-.6-.4-1.4-.2-2l2.7-8.8c.2-.6.6-1.2 1.3-1.6.6-.3 1.4-.4 2-.2l15.2 4.6c1.4.4 2.2 1.9 1.8 3.3l-2.7 8.8c-.2.6-.6 1.2-1.3 1.6-.3.1-.7.3-1.2.3m-12.5-17.3c-.2 0-.4.1-.6.2-.2.2-.5.4-.6.7l-2.7 8.8c-.1.3-.1.6.1.9.2.2.4.5.7.6l15.2 4.6c.3.1.6.1.9-.1s.5-.4.6-.7l2.7-8.8c.2-.6-.2-1.3-.8-1.5L181 74.5c0-.1-.1-.1-.3-.1"/><path class="st4" d="m185.3 78.4 5.2 4.9-7.1 1.2 1.9-6.1z"/><path class="st2" d="M183.3 85.2c-.2 0-.4-.1-.6-.2-.2-.2-.2-.5-.2-.7l1.9-6.2c.1-.2.2-.4.5-.5.2-.1.5 0 .7.2l5.2 4.9c.2.2.2.5.2.7-.1.2-.3.5-.6.5l-7.1 1.3c.1 0 .1 0 0 0m2.3-5.5-1.1 3.8 4.5-.7c-.1 0-3.4-3.1-3.4-3.1z"/><path class="st3" d="m118.8 137.7-6.4-.2.4-10.7c0-.8.7-1.5 1.5-1.5l3.3.2c.8 0 1.5.7 1.5 1.5l-.3 10.7z"/><path class="st2" d="m118.8 138.5-6.4-.2c-.2 0-.4-.1-.5-.2-.2-.2-.2-.3-.2-.6l.4-10.7c0-.6.2-1.1.7-1.5.4-.4 1.1-.6 1.6-.6l3.3.2c1.2.1 2.3 1.1 2.2 2.4l-.4 10.7c0 .1-.3.5-.7.5m-5.6-1.7 4.9.2.4-10c0-.4-.3-.8-.7-.8l-3.3-.2c-.4 0-.8.3-.8.7l-.5 10.1z"/><path class="st3" d="M119.3 122.9c-.1 1.9-1.7 3.5-3.7 3.4-1.9-.1-3.5-1.7-3.4-3.7.1-1.9 1.7-3.5 3.7-3.4 2 .1 3.5 1.7 3.4 3.7"/><path class="st2" d="M115.8 127h-.2c-1.1-.1-2.2-.5-3-1.4-.8-.8-1.1-1.9-1.1-3.1.1-1.1.5-2.2 1.4-3 .8-.8 1.9-1.1 3.1-1.1 2.4.1 4.2 2 4.1 4.4-.1 1.1-.5 2.2-1.4 3-.8.8-1.7 1.2-2.9 1.2m0-7c-.7 0-1.4.2-1.9.7-.6.5-.9 1.2-.9 1.9s.2 1.5.7 1.9c.5.6 1.2.9 1.9.9s1.5-.2 1.9-.7c.6-.5.9-1.2.9-1.9.3-1.5-.9-2.8-2.6-2.8"/><path class="st2" d="M111.2 136.3c-.3 0-.6-.2-.7-.5-1.1-3.2-.6-7 1.2-10 .2-.3.6-.5 1.1-.2.3.2.5.6.2 1.1-1.5 2.6-1.9 5.8-1.1 8.8.2.4-.1.8-.5 1 0-.2-.1-.2-.2-.2m2.8 13.2h-1.6c-.2 0-.4-.1-.6-.2s-.2-.4-.2-.6c.3-3.5.5-7.1.5-10.6 0-.4.3-.7.7-.7s.7.3.7.7c0 3.3-.2 6.7-.4 10h.8c.4 0 .7.3.7.7s-.2.7-.6.7m6.1.2h-1.6c-.4 0-.7-.3-.7-.6-.3-3.6-.4-7.2-.4-10.8 0-.4.3-.7.7-.7.4 0 .7.3.7.7 0 3.3.1 6.7.3 10h.9c.4 0 .7.3.7.7.1.3-.2.7-.6.7m6-18.2c-.2 0-.3-.1-.4-.2-2.3-1.6-4.7-3.2-7.1-4.5-.3-.2-.5-.6-.2-1.1.2-.3.6-.5 1.1-.2 2.4 1.5 4.9 3 7.2 4.6.3.2.4.7.2 1.1-.3.2-.5.3-.8.3"/><path class="st3" d="m133.8 138.1 6.4-.2-.4-10.7c0-.8-.7-1.5-1.5-1.5l-3.3.2c-.8 0-1.5.7-1.5 1.5l.3 10.7z"/><path class="st2" d="M133.8 138.9c-.4 0-.7-.3-.7-.7l-.4-10.7c-.1-1.2 1-2.3 2.2-2.4l3.3-.2c.6 0 1.2.2 1.6.6.4.4.7 1 .7 1.5l.4 10.7c0 .2-.1.4-.2.6-.2.2-.3.2-.5.2l-6.4.4m4.5-12.4s-.1 0 0 0l-3.3.2c-.4 0-.7.4-.7.8l.4 10 4.9-.2-.4-10c0-.2-.1-.4-.2-.6-.4-.2-.5-.2-.7-.2"/><path class="st3" d="M133.3 123.2c.1 1.9 1.7 3.5 3.7 3.4s3.5-1.7 3.4-3.7c-.1-1.9-1.7-3.5-3.7-3.4-2 .1-3.5 1.8-3.4 3.7"/><path class="st2" d="M136.8 127.3c-1.1 0-2.1-.4-2.9-1.1-.8-.8-1.3-1.8-1.4-3-.1-1.1.3-2.2 1.1-3.1.8-.8 1.8-1.3 3-1.4 2.4-.1 4.3 1.8 4.4 4.1.1 2.4-1.8 4.3-4.1 4.4l-.1.1m0-6.9c-.8 0-1.5.3-2 .9-.5.6-.7 1.2-.7 1.9s.3 1.5.9 1.9c.6.5 1.2.7 1.9.7 1.5-.1 2.7-1.4 2.7-2.8-.2-1.5-1.4-2.6-2.8-2.6"/><path class="st2" d="M141.4 136.6h-.2c-.4-.2-.6-.6-.5-1 .9-2.9.5-6.2-1.1-8.8-.2-.3-.1-.8.2-1.1s.8-.1 1.1.2c1.8 2.9 2.2 6.7 1.2 10-.1.5-.4.7-.7.7m-1.1 13.2h-1.6c-.4 0-.7-.3-.7-.7s.3-.7.7-.7h.8c-.3-3.3-.4-6.7-.4-10 0-.4.3-.7.7-.7s.7.3.7.7c0 3.6.2 7.1.5 10.6 0 .2-.1.4-.2.6-.1.1-.3.2-.5.2m-6.1.3h-1.6c-.4 0-.7-.3-.7-.7 0-.4.3-.7.7-.7h.9c.2-3.3.4-6.7.3-10 0-.4.3-.7.7-.7s.7.3.7.7c0 3.6-.1 7.2-.4 10.8.1.2-.2.6-.6.6m-7.7-18.2c-.2 0-.5-.1-.6-.3-.2-.3-.2-.8.2-1.1 2.4-1.6 4.7-3.2 7.2-4.6.3-.2.8-.1 1.1.2.2.3.1.8-.2 1.1-2.4 1.4-4.8 2.9-7.1 4.5-.3.1-.5.2-.6.2"/><path class="st3" d="m79.2 70.4-5.8-2.6 4.4-9.7c.3-.7 1.2-1.1 2-.7l3 1.4c.7.3 1.1 1.2.7 2l-4.3 9.6z"/><path class="st2" d="M79.2 71.1c-.1 0-.2 0-.3-.1L73 68.5c-.2-.1-.3-.2-.4-.4-.1-.2-.1-.4 0-.6l4.5-9.8c.2-.6.7-1 1.3-1.2.6-.2 1.2-.2 1.7.1l3 1.4c1.1.5 1.6 1.9 1.1 3l-4.4 9.7c-.1.3-.4.4-.6.4m-4.9-3.7 4.5 2 4.1-9.1c.2-.4 0-.8-.4-1.1l-3-1.4c-.2-.1-.4-.1-.6 0s-.3.2-.4.4c0 .1-4.2 9.2-4.2 9.2z"/><path class="st3" d="M85.3 56.9c-.8 1.8-2.8 2.5-4.6 1.8-1.8-.8-2.5-2.8-1.8-4.6.8-1.8 2.8-2.5 4.6-1.8 1.8.7 2.6 2.8 1.8 4.6"/><path class="st2" d="M82.1 59.7c-.6 0-1.2-.1-1.8-.4-2.1-1-3.1-3.5-2.1-5.6s3.5-3.1 5.6-2.1c1.1.5 1.9 1.3 2.2 2.4.4 1.1.3 2.2-.1 3.2-.6 1.5-2.2 2.5-3.8 2.5m0-7.1c-.3 0-.6.1-1 .2-.7.2-1.2.8-1.5 1.5-.6 1.4 0 3 1.4 3.7.6.3 1.5.3 2.1.1.6-.2 1.2-.8 1.5-1.5s.3-1.5.1-2.1c-.2-.7-.8-1.2-1.5-1.5-.4-.3-.7-.4-1.1-.4"/><path class="st2" d="M81.4 63.6c-.2 0-.5 0-.7-.2-.5-.2-.8-.6-1.1-.9L77.1 59c-.2-.3-.2-.8.2-1.1.3-.2.8-.2 1.1.2l2.7 3.5c.2.2.3.4.4.4.2.1.6-.1.8-.2l4.5-1.6c.4-.2.8.1 1 .5.2.4-.1.8-.5 1l-4.5 1.6c-.5.1-.9.3-1.4.3"/><path class="st2" d="M86.8 60.5c-.2 0-.5 0-.7-.1l-2.4-.2c-.4-.1-.7-.4-.6-.8.1-.4.4-.7.8-.6l2.4.2c.5.1.9.1 1.1-.1.2-.2.3-.4.5-.7l1.9-3.7c.2-.4.6-.5 1-.3.3.2.5.6.3 1l-1.9 3.7c-.2.4-.5.9-1 1.3-.5.2-1 .3-1.4.3M68.7 80.4c-.2 0-.3-.1-.4-.2l-1.4-1c-.2-.2-.3-.3-.3-.6s.1-.4.2-.6l6-5.7c.2-.2.4-.4.5-.6s0-.5-.1-.8l-.6-3.2c-.1-.4.2-.8.6-.9s.8.2.9.6l.6 3.2c.1.4.2 1 0 1.5-.2.6-.6.9-.9 1.2l-5.4 5 .6.4c.3.2.4.7.2 1.1 0 .5-.2.6-.5.6m15.6 1.8c-.3 0-.6-.2-.7-.6-.2-1.1-.2-2.7-.3-4.1s-.1-2.9-.3-3.9c-.1-.3-.2-.7-.3-.9-.2-.2-.4-.2-.6-.3L78.4 71c-.4-.2-.6-.6-.4-1 .2-.4.6-.6 1-.4l3.6 1.5c.4.2.8.3 1.2.7.5.5.6 1.1.6 1.6.2 1.1.2 2.7.3 4.1 0 1.1.1 2.3.2 3.2l.9-.2c.4-.1.8.2.9.6.1.4-.2.8-.6.9l-1.6.2h-.2"/><path class="st3" d="m155.1 62.5-6.4.2-.2-10.8c0-.8.6-1.5 1.5-1.5l3.3-.1c.8 0 1.5.6 1.5 1.5l.3 10.7z"/><path class="st2" d="M148.7 63.3c-.2 0-.4-.1-.5-.2-.2-.2-.2-.3-.2-.5l-.2-10.7c0-1.2 1-2.3 2.2-2.4l3.3-.1c1.2 0 2.3 1 2.4 2.2l.2 10.7c0 .4-.3.7-.7.7l-6.5.3m4.6-12.3-3.3.1c-.4 0-.7.4-.7.8l.2 10 4.9-.1-.2-10.1c-.1-.4-.5-.7-.9-.7"/><path class="st3" d="M154.8 47.6c.1 1.9-1.5 3.6-3.4 3.6-1.9.1-3.6-1.5-3.6-3.4-.1-1.9 1.5-3.6 3.4-3.6 2-.1 3.6 1.5 3.6 3.4"/><path class="st2" d="M151.3 51.9c-2.3 0-4.2-1.9-4.2-4.1 0-1.1.4-2.2 1.2-3 .8-.8 1.9-1.3 3-1.3 2.4-.1 4.3 1.8 4.4 4.1s-1.8 4.3-4.1 4.4c-.2-.1-.3-.1-.3-.1m0-7.1s-.1 0 0 0c-.8 0-1.5.3-2 .8-.5.6-.8 1.2-.7 1.9 0 1.5 1.3 2.8 2.8 2.7 1.5 0 2.8-1.3 2.7-2.8-.1-1.3-1.4-2.6-2.8-2.6"/><path class="st2" d="M148.4 52.5c-.1 0-.2 0-.2-.1-1.2-.5-2.4-1-3.6-1.7-.4-.2-.7-.5-1-.7-.6-.6-1-1.2-1.3-1.9l-1.9-3.5c-.2-.3-.1-.8.2-1.1.3-.2.8-.1 1.1.2l1.9 3.5c.3.6.6 1.1 1.1 1.5.2.2.4.4.7.6 1 .6 2.2 1.1 3.2 1.5.4.2.6.6.4 1 0 .5-.3.7-.6.7m10.8 8.9c-.4 0-.7-.3-.7-.7l-.2-4.5c0-.6-.1-1.1-.3-1.5-.2-.3-.5-.6-.8-.8l-2.8-2.4c-.3-.2-.3-.7-.1-1.1.2-.3.7-.3 1.1-.1l2.8 2.4c.4.3.8.7 1.1 1.2.4.7.5 1.5.5 2.2l.2 4.5c0 .4-.4.7-.8.8m-13.9 13.4c-.1 0-.1 0 0 0l-1.7-.1c-.4 0-.7-.4-.6-.8 0-.4.4-.7.8-.6l.8.1c.4-3.9 2-7.7 3.4-11 .2-.4.6-.6 1-.4.4.2.6.6.4 1-1.5 3.7-3.2 7.4-3.4 11.3 0 .2-.1.4-.2.5h-.5m13 .9-2-.2c-.3-.1-.6-.3-.6-.7l-.2-5.8c-.1-2.2-.2-4.4-1-6.4-.2-.4.1-.8.4-1 .4-.2.8.1 1 .4.8 2.3 1 4.6 1.1 6.9V74l1.3.2c.4.1.7.4.6.8 0 .3-.3.7-.6.7"/><path class="st3" d="m166.9 138.1 6.1-1.8-3-10.3c-.2-.8-1.1-1.3-1.9-1.1l-3.2 1c-.8.2-1.3 1.1-1.1 1.9l3.1 10.3z"/><path class="st2" d="M166.9 138.8c-.2 0-.2 0-.3-.1-.2-.1-.3-.2-.3-.4l-3-10.3c-.3-1.2.3-2.4 1.5-2.8l3.2-1c1.2-.3 2.4.3 2.8 1.5l3 10.3c.1.4-.1.8-.5.9l-6.2 1.9h-.2m1.6-13.2h-.2l-3.2 1c-.4.1-.6.6-.5 1l2.8 9.6 4.7-1.4-2.8-9.6c-.2-.4-.5-.6-.8-.6"/><path class="st3" d="M162.6 123.8c.6 1.9 2.5 2.9 4.4 2.4 1.9-.6 2.9-2.5 2.4-4.4-.6-1.9-2.5-2.9-4.4-2.4-1.9.6-2.9 2.5-2.4 4.4"/><path class="st2" d="M166 127c-.7 0-1.4-.2-2-.5-1-.6-1.7-1.5-2-2.5s-.2-2.3.3-3.2c.6-1 1.5-1.7 2.5-2 1.1-.3 2.3-.2 3.2.3 1 .6 1.7 1.5 2 2.5s.2 2.3-.3 3.2c-.6 1-1.5 1.7-2.5 2-.4.2-.8.2-1.2.2m0-7c-.2 0-.5 0-.8.1-.7.2-1.3.6-1.6 1.3-.3.6-.4 1.4-.2 2.1.2.7.6 1.3 1.3 1.6.6.3 1.4.4 2.1.2.7-.2 1.3-.6 1.6-1.3.3-.6.4-1.4.2-2.1-.2-.7-.6-1.3-1.3-1.6-.4-.2-.8-.3-1.3-.3m-3.9 16.2c-.2 0-.5-.1-.6-.3-.2-.3-.2-.8.2-1.1 1.1-.8 2.3-1.5 3.5-2.2.4-.2.8-.1 1 .3.2.4.1.8-.3 1-1.1.6-2.3 1.3-3.3 2-.2.2-.4.3-.5.3"/><path class="st2" d="M171.2 135.8c-.2 0-.3-.1-.4-.2-.3-.2-.4-.7-.2-1.1l2.8-4.2c.1-.1.2-.4.2-.5 0-.1-.2-.2-.4-.5-.7-.5-1.4-1.1-2-1.8-.6-.6-1.3-1.2-1.9-1.7-.3-.2-.4-.7-.2-1.1.2-.3.7-.4 1.1-.2.7.5 1.4 1.1 2 1.8.6.6 1.3 1.2 1.9 1.7.3.2 1 .7 1.1 1.5.1.6-.2 1.1-.5 1.5l-2.8 4.2c-.3.4-.5.6-.7.6m2.2 14h-1.5c-.4 0-.7-.3-.7-.7s.3-.7.7-.7h.5l-1.5-5.4c-.2-.6-.3-1.2-.3-1.9 0-.9 1.7-5.1 1.7-5.2.2-.4.6-.6 1-.4s.6.6.4 1c-.6 1.5-1.5 4.2-1.6 4.7 0 .4.1.9.2 1.4l1.8 6.3c.1.2 0 .5-.2.6-.1.2-.3.3-.5.3m-8.6.2h-1.4c-.4 0-.7-.3-.7-.7s.3-.7.7-.7h.7l.3-2.2c.3-2.8.7-5.8 2.2-8.5.2-.3.6-.5 1.1-.3.3.2.5.6.3 1-1.3 2.4-1.7 5.3-2 7.9l-.4 2.8c-.1.4-.4.7-.8.7"/><path class="st3" d="m107.9 25.7-6.2 1.7-2.8-10.3c-.2-.8.2-1.6 1.1-1.9l3.2-.9c.8-.2 1.6.2 1.9 1.1-.1 0 2.8 10.3 2.8 10.3z"/><path class="st2" d="M101.8 28.2c-.3 0-.6-.2-.7-.6l-2.9-10.3c-.2-.6-.1-1.2.2-1.7.3-.6.8-.9 1.4-1.1l3.2-.9c.6-.2 1.2-.1 1.7.2.6.3.9.8 1.1 1.4l2.9 10.3c.1.2 0 .4-.1.6-.1.2-.2.3-.5.3l-6.3 1.8c.1-.1.1 0 0 0m1.7-13.1h-.2l-3.2.9c-.2.1-.4.2-.5.4-.1.2-.2.4-.1.6l2.7 9.6 4.7-1.3-2.7-9.6c-.1-.2-.2-.4-.4-.5 0-.1-.1-.1-.3-.1"/><path class="st3" d="M103.9 11.4c.6 1.9-.6 3.8-2.4 4.3-1.9.6-3.8-.6-4.3-2.4-.6-1.9.6-3.8 2.4-4.3 1.8-.6 3.7.6 4.3 2.4"/><path class="st2" d="M100.5 16.6c-.7 0-1.5-.2-2-.6-1-.6-1.7-1.5-2-2.5s-.2-2.3.4-3.2c.6-1 1.5-1.7 2.5-2s2.3-.2 3.2.4c1 .6 1.7 1.5 2 2.6.3 1.1.2 2.3-.4 3.2-.6 1-1.5 1.7-2.5 2-.4 0-.8.1-1.2.1m0-7c-.2 0-.5 0-.7.1-.7.2-1.3.6-1.6 1.3-.3.6-.5 1.4-.2 2.1.2.7.6 1.3 1.3 1.6.6.3 1.4.5 2.1.2.7-.2 1.3-.6 1.6-1.3.3-.6.5-1.4.2-2.1-.2-.7-.6-1.3-1.3-1.6-.5-.2-.9-.3-1.4-.3m-3.1 9.8h-.3c-.7-.1-1.5-.3-1.9-.7-.3-.3-.6-.6-.7-1.1-.3-.6-.7-1.3-1.1-2-.2-.3-.4-.6-.4-.9 0-.4.3-.7.7-.8.4 0 .7.2.8.6l.2.2c.3.7.7 1.4 1.1 2 .2.2.3.5.5.6.2.2.6.3 1 .3s.9-.1 1.4-.1c.4-.1.8.2.9.6.1.4-.2.8-.6.9-.6.3-1.1.4-1.6.4"/><path class="st2" d="M98.5 22.4h-.6l-3.6-.3c-.4 0-.7-.4-.6-.8 0-.4.4-.7.8-.6l3.6.3c.3 0 .7.1 1.1-.1.2-.2.5-.5.7-.8.6-.8 1.1-1.6 1.5-2.5.2-.3.6-.5 1.1-.3.3.2.5.6.3 1.1-.5.9-1.1 1.8-1.6 2.7-.3.5-.7 1.1-1.4 1.3-.6-.1-1 0-1.3 0m-6.3 11.7c-.2 0-.3-.1-.5-.2L90 32.6c-.3-.2-.3-.7-.1-1.1.2-.3.7-.3 1.1-.1l1.1.9 3.2-4.3c.5-.6 1.2-1.6 2.4-1.9 1.5-.3 4 .5 4.3.6.4.2.6.6.5 1-.2.4-.6.6-1 .5-.9-.3-2.7-.7-3.5-.5-.6.2-1 .7-1.5 1.3l-3.7 5c-.2.2-.3.2-.5.3l-.1-.2"/></svg>