<svg xmlns="http://www.w3.org/2000/svg" viewBox="0 0 135 135"><style>.st2{fill:#7e8ab2}</style><g style="opacity:.1"><path class="st2" d="m135 2.1-3.8 4-2.6-2.7 3.2-3.4h-1.4l-3.2 3.4-2.6 2.7L119 0h-1.3l3.2 3.4-2.6 2.7-5.7-6.1h-1.3l6.5 6.8-2.6 2.7-9-9.5h-1.3l9.7 10.1-1.6 1.7-.9 1-.9-1-8.7-9.1-8.7 9.1-.9 1-.9-1-.7-.7-1-1 1-1L99.8 0h-1.3l-7.4 7.8-1.6 1.7-2.6-2.7 4.2-4.4L93.3 0H92l-1 1-4.8 5.1-2.6-2.7L86.9 0h-1.4l-3.2 3.4-2.6 2.7L74 0h-1.3l3.2 3.4-2.6 2.7L67.6 0h-1.3l6.5 6.8-2.6 2.7-9-9.5h-1.3l9.7 10.1-1.6 1.7-.9 1-.9-1-8.7-9.1-8.7 9.1-.9 1-.9-1-.7-.7-1-1 1-1L54.8 0h-1.3l-7.4 7.8-1.6 1.7-2.6-2.7 4.2-4.4L48.3 0H47l-1 1-4.8 5.1-2.6-2.7L41.9 0h-1.4l-3.2 3.4-2.6 2.7L29 0h-1.3l3.2 3.4-2.6 2.7L22.6 0h-1.3l6.5 6.8-2.6 2.7-9-9.5h-1.3l9.7 10.1-1.6 1.7-.9 1-.9-1-8.7-9.1-8.7 9.1-.9 1-.9-1-.7-.7-1-1 1-1L9.8 0H8.5L1.1 7.8 0 8.9v2.5l.4.4.7.7 7.4 7.7L5.9 23l-4.8-5.1L0 16.8v1.4l1.1 1.1 4.2 4.4-2.6 2.7-1.6-1.7L0 23.6V25l1.1 1 1 1-1 1L0 29.1v1.4l1.1-1.1 8-8.4 2.6 2.7L1.1 34.8 0 35.9v1.4l1.1-1.1 11.2-11.8 15.4 16.2-2.6 2.7-12.8-13.6L1.1 41.5 0 42.6V45.2l.4.4.7.7L8.4 54l-2.6 2.7L1 51.6l-1-1V52l1.1 1 4.2 4.4-2.6 2.7-1.6-1.7L0 57.3v1.4l1.1 1.1 1 1-1 1L0 62.9v1.4l1.1-1.1 8-8.4 2.6 2.7-10.6 11L0 69.6V71l1.1-1.1 11.2-11.8 15.4 16.2-2.5 2.7-12.9-13.5L1.1 75.3 0 76.4V79l.4.4.7.6 7.4 7.7-2.6 2.7-4.8-5.1-1.1-1v1.4l1.1 1.1 4.2 4.4-2.6 2.7-1.6-1.7L0 91.1v1.4l1.1 1.1 1 1-1 1-1.1 1V98l1.1-1.1 8-8.4 2.6 2.7-10.6 11.1-1.1 1.1v1.4l1.1-1.1 11.2-11.8L27.7 108l-2.6 2.7-12.8-13.5L1.1 109 0 110.1V112.7l.4.4.7.7 7.4 7.7-2.6 2.7-4.8-5.1-1.1-1v1.4l1.1 1.1 4.2 4.4-2.6 2.7-1.6-1.7-1.1-1.2v1.4l1.1 1.1 1 1-1 1-1.1 1.1v1.4l1.1-1.1 8-8.4 2.6 2.7L2 135h1.3l9-9.4 9 9.4h1.3L13 124.9l2.6-2.7L27.7 135H29.1l5.7-6 5.7 6h1.4l4.1-4.3 8-8.4 2.6 2.7-9.6 10h1.3l9-9.4 9 9.4h1.3L58 124.9l2.6-2.7L72.7 135H74.1l5.7-6 5.7 6h1.4l4.1-4.3 8-8.4 2.6 2.7-9.6 10h1.3l9-9.4 9 9.4h1.3l-9.6-10.1 2.6-2.7 12.2 12.8H119.2l5.7-6 5.7 6h1.4l3.1-3.2v-1.4l-.6.6-9.6-10.1-9.6 10.1-2.6-2.7 12.2-12.8 10.2 10.7v-1.4l-10.2-10.7-12.9 13.5-2.6-2.7 11.3-11.8 4.2-4.4 4.2 4.4 6 6.3V118l-4.7-5-4.8-5.1 2.6-2.7 7 7.3V109.9l-.6.6-2.6-2.7 3.1-3.3v-1.4l-3.8 4-2.6-2.7L135 98v-1.4l-.6.6-9.6-10.1-9.6 10.1-2.6-2.7 12.2-12.8L135 92.4V91l-10.2-10.7L112 93.9l-2.6-2.7 11.3-11.8 4.2-4.4 4.2 4.4 6 6.3v-1.4l-4.7-5-4.8-5.1 2.6-2.7 7 7.3V76.2l-.6.6-2.6-2.7 3-3.1v-1.4l-3.8 4-2.6-2.7 6.3-6.6v-1.4l-.6.6-9.6-10.1-9.6 10.1-2.6-2.7L124.8 48 135 58.7v-1.4l-10.2-10.7L112 60.1l-2.6-2.7 11.3-11.8 4.2-4.4 4.2 4.4 6 6.3v-1.4l-4.7-5-4.8-5.1 2.6-2.7 7 7.3v-2.4l-.6.6-2.6-2.7 3.1-3.3v-1.4l-3.8 4-2.6-2.7 6.3-6.6v-1.4l-.6.6-9.6-10.1-9.6 10.1-2.6-2.7 12.2-12.8L135 24.9v-1.4l-10.2-10.7L112 26.4l-2.6-2.7 11.3-11.8 4.2-4.4 4.2 4.4 6 6.3v-1.4l-4.7-5-4.8-5.1 2.6-2.7 7 7.3V8.9l-.6.6-2.6-2.7 3.1-3.3V2.1zM3.3 114.8l1.6-1.7 7.4-7.8 7.4 7.8 1.6 1.7-2.6 2.7-4.2-4.4-2.3-2.4-2.3 2.4-4.2 4.4-2.4-2.7zm0-33.8 1.6-1.7 7.4-7.8 7.4 7.8 1.6 1.7-2.6 2.7-4.2-4.4-2.2-2.3-2.3 2.3-4.2 4.4L3.3 81zm0-33.7 1.6-1.7 7.4-7.8 7.4 7.8 1.6 1.7-2.6 2.7-4.2-4.4-2.3-2.4-2.2 2.4L5.9 50l-2.6-2.7zM39 11.8l7.1 7.4 4.2 4.4-2.6 2.7-1.6-1.7-11.3-11.7L22 26.4l-2.6-2.7 11.3-11.8 4.2-4.4 4.1 4.3zm45 0 7.1 7.4 4.2 4.4-2.6 2.7-1.6-1.7-11.3-11.7L67 26.4l-2.6-2.7 11.3-11.8 4.2-4.4 4.1 4.3zm31.2 98.9-12.9-13.5L91.1 109l-1.6 1.7-2.6-2.7 4.2-4.4 11.2-11.8 15.4 16.2-2.5 2.7zM74 101.3l5.8-6.1 5.8 6.1-3.2 3.4-2.6 2.7-5.8-6.1zm-45 0 5.8-6.1 5.8 6.1-3.2 3.4-2.6 2.7-5.8-6.1zm-4.8-22 7.4-7.7 2.6 2.7-4.8 5.1-10.7 11.1-2.6-2.7 8.1-8.5zm0-33.7 7.4-7.7 2.6 2.7-4.8 5.1-10.7 11-2.5-2.7 8-8.4zm48.5-5.1-2.6 2.7-12.8-13.5-11.2 11.8-1.6 1.7-2.6-2.7 4.2-4.4 11.2-11.8 15.4 16.2zM51.5 84.4l4.8-5 1-1 1 1 4.8 5-5.8 6.1-5.8-6.1zM83 37.9l7.4 7.7.7.7 7.4 7.7-2.6 2.7-4.8-5.1-5.8-6.1-4.8-5.1 2.5-2.5zM60.5 54.7l15.4 16.2-2.6 2.7-15.4-16.2 2.6-2.7zm12.2 19.6L70.2 77 57.3 63.5 46.1 75.3 44.4 77l-2.6-2.7 4.2-4.4 11.2-11.8 15.5 16.2zm-25 6-.9-1-.7-.7-1-1 1-1 11.2-11.8 12.2 12.8-1.6 1.7-.9 1-.9-1-8.7-9.1-8.7 9.1-1 1zm21.5-1 7.4-7.7 2.6 2.7-4.8 5.1-10.7 11.1-2.6-2.7 8.1-8.5zm1.6-15.1 9-9.4 9 9.4-2.6 2.7-6.4-6.7-6.4 6.7-2.6-2.7zm9-10.8-9.6 10.1-2.6-2.7L79.8 48 91 59.8l1 1-1 1-1.6 1.7-9.6-10.1zm-22.5 3.3-5.8-6.1 4.8-5 1-1 1 1 4.8 5-5.8 6.1zm-.6.7L46.1 68.5l-4.8 5.1-2.6-2.7 7.4-7.7 8-8.4 2.6 2.6zM48.3 81l1.6-1.7 7.4-7.8 7.4 7.8 1.6 1.7-2.6 2.7-4.2-4.4-2.2-2.3-2.3 2.3-4.2 4.4-2.5-2.7zm16.1 10.2 11.3-11.8 4.2-4.4 4.2 4.4 7.1 7.4 4.2 4.4-2.6 2.7-1.6-1.7-11.4-11.8L67 93.9l-2.6-2.7zm31.5-.7-4.8-5.1-5.8-6.1-4.8-5.1 2.6-2.7 7.4 7.7.7.7 7.4 7.7-2.7 2.9zM79.8 73.6 74 67.5l5.8-6.1 5.8 6.1-3.2 3.4-2.6 2.7zm4.2-28 7.1 7.4 4.2 4.4-2.6 2.7-1.6-1.7-11.3-11.8L67 60.1l-2.6-2.7 11.3-11.8 4.2-4.4 4.1 4.4zM63.7 50l-4.2-4.4-2.3-2.4-2.2 2.4-4.1 4.4-2.6-2.7 1.6-1.7 7.4-7.8 7.4 7.8 1.6 1.7-2.6 2.7zm3.9 44.5 12.2-12.8L91 93.5l1 1-1 1-1.6 1.7-9.6-10.1-9.6 10.1-2.6-2.7zm14.8-57.3-2.6 2.7-5.8-6.1 5.8-6.1 5.8 6.1-3.2 3.4zm-8.1 8.4L63.7 56.7 61.2 54l8-8.4 7.4-7.7 2.6 2.7-4.9 5zm-6.4 0-.9 1-.9-1-8.7-9.1-8.7 9.1-.9 1-.9-1-.7-.7-1-1 1-1 11.2-11.8 12.2 12.8-1.7 1.7zM38 37.9l7.4 7.7.7.7 7.4 7.7-2.6 2.7-4.8-5.1-5.8-6.1-4.8-5.1 2.5-2.5zm0 33.7 7.4 7.7.7.7 7.4 7.7-2.6 2.7-4.8-5.1-5.8-6.1-4.8-5.1 2.5-2.5zm.7 33.1 7.4-7.7 8-8.4 2.6 2.7-10.6 11.1-4.8 5.1-2.6-2.8zm21.8-16.2 15.4 16.2-2.6 2.7-15.4-16.2 2.6-2.7zm10.3 9.4 9-9.4 9 9.4-2.6 2.7-6.4-6.7-6.4 6.7-2.6-2.7zm12.9 6.8 7.4-7.7 8-8.4 2.6 2.7-10.6 11.1-4.8 5.1-2.6-2.8zm0-33.8 7.4-7.7 8-8.4 2.6 2.7-10.6 11-4.8 5.1-2.6-2.7zm2.5-37.8-6.4-6.7-6.4 6.7-2.6-2.7 9-9.4 9 9.4-2.6 2.7zm-45 0-6.4-6.7-6.4 6.7-2.6-2.7 9-9.4 9 9.4-2.6 2.7zm-6.4-5.4 5.8 6.1-3.2 3.4-2.6 2.7-5.8-6.1 5.8-6.1zm-4.1 17.9 4.2-4.4 4.2 4.4 7.1 7.4 4.2 4.4-2.6 2.7-1.6-1.7-11.4-11.8L22 60.1l-2.6-2.7 11.3-11.8zm4.1 2.4L46 59.8l1 1-1 1-1.6 1.7-9.6-10.1-9.6 10.1-2.6-2.7L34.8 48zm0 6.7 9 9.4-2.6 2.7-6.4-6.7-6.4 6.7-2.6-2.7 9-9.4zm0 6.8 5.8 6.1-3.2 3.4-2.6 2.7-5.8-6.2 5.8-6zm-4.1 17.8 4.2-4.4 4.2 4.4 7.1 7.4 4.2 4.4-2.6 2.7-1.6-1.7-11.4-11.7L22 93.9l-2.6-2.7 11.3-11.9zm4.1 2.4L46 93.5l1 1-1 1-1.6 1.7-9.6-10.1-9.6 10.1-2.6-2.7 12.2-12.8zm0 6.8 9 9.4-2.6 2.7-6.4-6.7-6.4 6.7-2.6-2.7 9-9.4zm7.1 19.5 4.2-4.4 11.2-11.8L72.7 108l-2.6 2.7-12.8-13.5L46.1 109l-1.6 1.7-2.6-2.7zm54.6-23.6 4.8-5 1-1 1 1 4.8 5-5.8 6.1-5.8-6.1zm8.1-5.1-2.3-2.4-2.3 2.4-4.2 4.4-2.5-2.7 1.6-1.7 7.4-7.8 7.4 7.8 1.6 1.7-2.6 2.7-4.1-4.4zm6.4 0-8.7-9.1-8.7 9.1-.9 1-.9-1-.7-.7-1-1 1-1 11.2-11.8 12.2 12.8-1.6 1.7-.9 1-1-1zm4.2-2.3-12.9-13.5-11.2 11.8-1.7 1.7-2.6-2.7 4.2-4.4 11.2-11.8 15.4 16.2-2.4 2.7zM96.5 50.6l4.8-5 1-1 1 1 4.8 5-5.8 6.1-5.8-6.1zm8.1-5-2.3-2.4-2.3 2.4-4.1 4.4-2.6-2.7 1.6-1.7 7.4-7.8 7.4 7.8 1.6 1.7-2.6 2.7-4.1-4.4zm6.4 0-8.7-9.1-8.7 9.1-.9 1-.9-1-.7-.7-1-1 1-1 11.2-11.8 12.2 12.8-1.6 1.7-.9 1-1-1zm4.2-2.4-12.9-13.5-11.2 11.8-1.6 1.7-2.6-2.7 4.2-4.4 11.2-11.8 15.4 16.2-2.5 2.7zm-24.1-8.4-4.8 5.1-2.6-2.7 7.4-7.7 8-8.4 2.6 2.7-10.6 11zm0-6.8-1.6 1.7-9.6-10.1-9.6 10.1-2.7-2.7 12.2-12.8L91.1 26l1 1-1 1zm-30.6-7 15.4 16.2-2.6 2.7-15.4-16.2 2.6-2.7zM46.1 34.8l-4.8 5.1-2.6-2.7 7.4-7.7 8-8.4 2.6 2.7-10.6 11zm0-6.8-1.6 1.7-9.6-10.1-9.6 10.1-2.7-2.7 12.2-12.8L46.1 26l1 1-1 1zm-21.9 85.1 7.4-7.7 2.6 2.7-4.8 5.1-10.6 11.1-2.6-2.7 8-8.5zm6.5 0 4.2-4.4 4.2 4.4 7.1 7.4 4.2 4.4-2.6 2.7-1.6-1.7L35 114.1l-13 13.5-2.6-2.7 11.3-11.8zm20.2 11.1-4.8-5.1-5.8-6.1-4.8-5.1 2.6-2.7 7.4 7.7.7.7 7.4 7.7-2.7 2.9zm-3.2-10.1-.9-1-.7-.7-1-1 1-1 11.2-11.8 12.2 12.8-1.6 1.7-.9 1-.9-1-8.7-9.1-8.7 9.1-1 1zm21.5-1 7.4-7.7 2.6 2.7-4.8 5.1-10.6 11.1-2.6-2.7 8-8.5zm6.5 0 4.2-4.4 4.2 4.4 7.1 7.4 4.2 4.4-2.6 2.7-1.6-1.7L80 114.1l-13 13.5-2.6-2.7 11.3-11.8zm20.2 11.1-4.8-5.1-5.8-6.1-4.8-5.1 2.6-2.7 7.4 7.7.7.7 7.4 7.7-2.7 2.9zm-3.2-10.1-.9-1-.7-.7-1-1 1-1 11.2-11.8 12.2 12.8-1.6 1.7-.9 1-.9-1-8.7-9.1-8.7 9.1-1 1zm25.7-6.8L103 91.1l2.6-2.7 15.4 16.2-2.6 2.7zm0-33.7L103 57.4l2.6-2.7L121 70.9l-2.6 2.7zm0-33.8L103 23.6l2.6-2.7L121 37.1l-2.6 2.7zM102.3 23l-5.8-6.1 4.8-5 1-1 1 1 4.8 5-5.8 6.1zm-45 0-5.8-6.1 4.8-5 1-1 1 1 4.8 5-5.8 6.1zM22.6 128.3l12.2-12.8L46 127.3l1 1-1 1-1.6 1.7-9.6-10.1-9.6 10.1-2.6-2.7zm25.7-13.5 1.6-1.7 7.4-7.8 7.4 7.8 1.6 1.7-2.6 2.7-4.2-4.4-2.3-2.4-2.3 2.4-4.2 4.4-2.4-2.7zm19.3 13.5 12.2-12.8L91 127.3l1 1-1 1-1.6 1.7-9.6-10.1-9.6 10.1-2.6-2.7zm25.7-13.5 1.6-1.7 7.4-7.8 7.4 7.8 1.6 1.7-2.6 2.7-4.2-4.4-2.3-2.4-2.3 2.4-4.2 4.4-2.4-2.7zm1.6-103 7.4-7.8 7.4 7.8 1.6 1.7-2.6 2.7-4.2-4.4-2.3-2.4-2.3 2.4-4.2 4.4-2.6-2.7 1.8-1.7zM83 4.1l7.4 7.7.7.7 7.4 7.7-2.6 2.8-4.8-5.1-5.8-6.1-4.8-5.1L83 4.1zm-8.7 7.7L63.7 23l-2.6-2.7 8-8.4 7.4-7.7 2.6 2.7-4.8 4.9zm-24.4 0L57.3 4l7.4 7.8 1.6 1.7-2.6 2.7-4.2-4.4-2.3-2.4-2.2 2.4-4.2 4.4-2.6-2.7 1.7-1.7zM38 4.1l7.4 7.7.7.7 7.4 7.7-2.6 2.8-4.8-5.1-5.8-6.1-4.8-5.1L38 4.1zm-8.7 7.7L18.7 23l-2.6-2.7 8-8.4 7.4-7.7 2.6 2.7-4.8 4.9zm-24.4 0L12.3 4l7.4 7.8 1.6 1.7-2.6 2.7-4.2-4.4-2.3-2.4-2.2 2.4-4.2 4.4-2.6-2.7 1.7-1.7zm1.6 5.1 4.8-5 1-1 1 1 4.8 5-5.8 6.1-5.8-6.1zm6.4 6.8 2.6-2.7 15.4 16.2-2.6 2.7-15.4-16.2zM1.1 42.9l11.2-11.8 12.2 12.8-1.6 1.7-.9 1-.9-1-8.7-9.1-8.7 9.1-.9 1-.9-1-.7-.7-1-1 .9-1zm5.4 7.7 4.8-5 1-1 1 1 4.8 5-5.8 6.1-5.8-6.1zm6.4 6.8 2.6-2.7 15.4 16.2-2.6 2.7-15.4-16.2zM1.1 76.6l11.2-11.8 12.2 12.8-1.6 1.7-.9 1-.9-1-8.7-9.1-8.7 9.1-.9 1-.9-1-.7-.7-1-1 .9-1zm5.4 7.8 4.8-5 1-1 1 1 4.8 5-5.8 6.1-5.8-6.1zm6.4 6.8 2.6-2.7 15.4 16.2-2.6 2.7-15.4-16.2zM1.1 110.4l11.2-11.8 12.2 12.8-1.6 1.7-.9 1-.9-1-8.7-9.1-8.7 9.1-.9 1-.9-1-.7-.7-1-1 .9-1zm11.2 13.8-5.8-6.1 4.8-5 1-1 1 1 4.8 5-5.8 6.1zm22.5 3.4-6.4 6.7-2.6-2.7 9-9.4 9 9.4-2.6 2.7-6.4-6.7zm22.5-3.4-5.8-6.1 4.8-5 1-1 1 1 4.8 5-5.8 6.1zm22.5 3.4-6.4 6.7-2.6-2.7 9-9.4 9 9.4-2.6 2.7-6.4-6.7zm22.5-3.4-5.8-6.1 4.8-5 1-1 1 1 4.8 5-5.8 6.1zm22.5-2 9 9.4-2.6 2.7-6.4-6.7-6.4 6.7-2.6-2.7 9-9.4zm-5.5-9.1-10.6 11.1-2.6-2.7 8-8.4 7.4-7.7 2.6 2.7-4.8 5zm5.5-5.8-5.8-6.1 5.8-6.1 5.8 6.1-3.2 3.4-2.6 2.7zm0-18.8 9 9.4-2.6 2.7-6.4-6.7-6.4 6.7-2.6-2.7 9-9.4zm-5.5-9.2-10.6 11.1-2.6-2.7 8-8.4 7.4-7.7 2.6 2.7-4.8 5zm5.5-5.7-5.8-6.1 5.8-6.1 5.8 6.1-3.2 3.4-2.6 2.7zm0-18.9 9 9.4-2.6 2.7-6.4-6.7-6.4 6.7-2.6-2.7 9-9.4zm-5.5-9.1-10.6 11.1-2.6-2.7 8-8.4 7.4-7.7 2.6 2.7-4.8 5zm5.5-5.8-5.8-6.1 5.8-6.1 5.8 6.1-3.2 3.4-2.6 2.7zm0-18.8 9 9.4-2.6 2.7-6.4-6.7-6.4 6.7-2.6-2.7 9-9.4zm-5.5-9.2L108.7 23l-2.6-2.7 8-8.4 7.4-7.7 2.6 2.7-4.8 4.9z"/><path class="st2" d="M98.5 135h1.3l2.5-2.7 2.5 2.7h1.3l-3.8-4zM53.5 135h1.3l2.5-2.7 2.5 2.7h1.3l-3.8-4zM3.3 0H2l-.9 1L0 2.1v1.4l1.1-1.1zM8.5 135h1.3l2.5-2.7 2.5 2.7h1.3l-3.8-4z"/></g></svg>