<svg xmlns="http://www.w3.org/2000/svg" xmlns:xlink="http://www.w3.org/1999/xlink" viewBox="0 0 200 200"><style>.st8{fill:#8594b2}</style><g id="Layer_4"><defs><path id="SVGID_1_" d="M0 .1h200v200H0z"/></defs><clipPath id="SVGID_2_"><use xlink:href="#SVGID_1_" style="overflow:visible"/></clipPath><g style="opacity:.1;clip-path:url(#SVGID_2_)"><defs><path id="SVGID_3_" style="opacity:.1" d="M-316.9-137.2h795.7v530.5h-795.7z"/></defs><clipPath id="SVGID_4_"><use xlink:href="#SVGID_3_" style="overflow:visible"/></clipPath><g style="clip-path:url(#SVGID_4_)"><circle class="st8" cx="9.5" cy="11.6" r="3.5"/><path transform="rotate(-45.004 45.421 11.895)" class="st8" d="M34.6 10.6h21.6v2.7H34.6z"/><path transform="rotate(-45.001 45.424 11.896)" class="st8" d="M44.1 1.1h2.7v21.6h-2.7z"/><path class="st8" d="M84.9 11.6c0 1.9-1.6 3.5-3.5 3.5s-3.5-1.6-3.5-3.5 1.6-3.5 3.5-3.5 3.5 1.5 3.5 3.5z"/><path transform="rotate(-45.004 117.295 11.895)" class="st8" d="M106.5 10.6h21.6v2.7h-21.6z"/><path transform="rotate(-45.001 117.302 11.897)" class="st8" d="M116 1.1h2.7v21.6H116z"/><circle class="st8" cx="153.2" cy="11.6" r="3.5"/><path transform="rotate(-45.004 189.168 11.895)" class="st8" d="M178.4 10.6H200v2.7h-21.6z"/><path transform="rotate(-45.001 189.18 11.898)" class="st8" d="M187.9 1.1h2.7v21.6h-2.7z"/><path transform="rotate(-45.004 8.928 41.268)" class="st8" d="M-1.9 39.9h21.6v2.7H-1.9z"/><path transform="rotate(-45.001 8.927 41.27)" class="st8" d="M7.6 30.5h2.7v21.6H7.6z"/><circle class="st8" cx="44.9" cy="41" r="3.5"/><g><path transform="rotate(-45.004 80.8 41.268)" class="st8" d="M70 39.9h21.6v2.7H70z"/><path transform="rotate(-45.001 80.805 41.271)" class="st8" d="M79.5 30.5h2.7v21.6h-2.7z"/></g><g><circle class="st8" cx="116.7" cy="41" r="3.5"/></g><g><path transform="rotate(-45.004 152.672 41.268)" class="st8" d="M141.9 39.9h21.6v2.7h-21.6z"/><path transform="rotate(-45.001 152.682 41.272)" class="st8" d="M151.4 30.5h2.7v21.6h-2.7z"/></g><g><circle class="st8" cx="188.6" cy="41" r="3.5"/></g><g><circle transform="rotate(-45.001 9.485 70.328)" class="st8" cx="9.5" cy="70.3" r="3.5"/><path transform="rotate(-45.004 45.421 70.641)" class="st8" d="M34.6 69.3h21.6V72H34.6z"/><path transform="rotate(-45.001 45.424 70.647)" class="st8" d="M44.1 59.8h2.7v21.6h-2.7z"/><path class="st8" d="M84.9 70.3c0 1.9-1.6 3.5-3.5 3.5s-3.5-1.6-3.5-3.5 1.6-3.5 3.5-3.5 3.5 1.6 3.5 3.5z"/><path transform="rotate(-45.004 117.296 70.641)" class="st8" d="M106.5 69.3h21.6V72h-21.6z"/><path transform="rotate(-45.001 117.302 70.647)" class="st8" d="M116 59.8h2.7v21.6H116z"/><circle transform="rotate(-45.001 153.24 70.33)" class="st8" cx="153.2" cy="70.3" r="3.5"/><path transform="rotate(-45.004 189.17 70.64)" class="st8" d="M178.4 69.3H200V72h-21.6z"/><path transform="rotate(-45.001 189.18 70.648)" class="st8" d="M187.9 59.8h2.7v21.6h-2.7z"/><path transform="rotate(-45.004 8.928 100.015)" class="st8" d="M-1.9 98.7h21.6v2.7H-1.9z"/><path transform="rotate(-45.001 8.927 100.021)" class="st8" d="M7.6 89.2h2.7v21.6H7.6z"/><circle class="st8" cx="44.9" cy="99.7" r="3.5"/><g><path transform="rotate(-45.004 80.802 100.015)" class="st8" d="M70 98.7h21.6v2.7H70z"/><path transform="rotate(-45.001 80.806 100.022)" class="st8" d="M79.5 89.2h2.7v21.6h-2.7z"/></g><g><circle class="st8" cx="116.7" cy="99.7" r="3.5"/></g><g><path transform="rotate(-45.004 152.674 100.014)" class="st8" d="M141.9 98.7h21.6v2.7h-21.6z"/><path transform="rotate(-45.001 152.684 100.023)" class="st8" d="M151.4 89.2h2.7v21.6h-2.7z"/></g><g><circle class="st8" cx="188.6" cy="99.7" r="3.5"/></g></g><g><circle transform="rotate(-45.001 9.484 129.078)" class="st8" cx="9.5" cy="129.1" r="3.5"/><path transform="rotate(-45.004 45.421 129.387)" class="st8" d="M34.6 128.1h21.6v2.7H34.6z"/><path transform="rotate(-45.001 45.422 129.396)" class="st8" d="M44.1 118.6h2.7v21.6h-2.7z"/><path class="st8" d="M84.9 129.1c0 1.9-1.6 3.5-3.5 3.5s-3.5-1.6-3.5-3.5 1.6-3.5 3.5-3.5 3.5 1.5 3.5 3.5z"/><path transform="rotate(-45.004 117.297 129.388)" class="st8" d="M106.5 128.1h21.6v2.7h-21.6z"/><path transform="rotate(-45.001 117.3 129.397)" class="st8" d="M116 118.6h2.7v21.6H116z"/><circle transform="rotate(-45.001 153.24 129.08)" class="st8" cx="153.2" cy="129.1" r="3.5"/><path transform="rotate(-45.004 189.17 129.388)" class="st8" d="M178.4 128.1H200v2.7h-21.6z"/><path transform="rotate(-45.001 189.177 129.398)" class="st8" d="M187.9 118.6h2.7v21.6h-2.7z"/><path transform="rotate(-45.004 8.928 158.762)" class="st8" d="M-1.9 157.4h21.6v2.7H-1.9z"/><path transform="rotate(-45.001 8.926 158.77)" class="st8" d="M7.6 148h2.7v21.6H7.6z"/><circle transform="rotate(-82.981 44.868 158.454)" class="st8" cx="44.9" cy="158.5" r="3.5"/><g><path transform="rotate(-45.004 80.802 158.762)" class="st8" d="M70 157.4h21.6v2.7H70z"/><path transform="rotate(-45.001 80.804 158.771)" class="st8" d="M79.5 148h2.7v21.6h-2.7z"/></g><g><circle transform="rotate(-80.781 116.747 158.45)" class="st8" cx="116.7" cy="158.5" r="3.5"/></g><g><path transform="rotate(-45.004 152.674 158.76)" class="st8" d="M141.9 157.4h21.6v2.7h-21.6z"/><path transform="rotate(-45.001 152.681 158.772)" class="st8" d="M151.4 148h2.7v21.6h-2.7z"/></g><g><circle transform="rotate(-82.981 188.625 158.453)" class="st8" cx="188.6" cy="158.5" r="3.5"/></g></g><g><circle transform="rotate(-76.714 9.492 187.84)" class="st8" cx="9.5" cy="187.8" r="3.5"/><path transform="rotate(-45.004 45.422 188.134)" class="st8" d="M34.6 186.8h21.6v2.7H34.6z"/><path transform="rotate(-45.001 45.423 188.148)" class="st8" d="M44.1 177.3h2.7v21.6h-2.7z"/><path class="st8" d="M84.9 187.8c0 1.9-1.6 3.5-3.5 3.5s-3.5-1.6-3.5-3.5 1.6-3.5 3.5-3.5 3.5 1.6 3.5 3.5z"/><path transform="rotate(-45.004 117.297 188.135)" class="st8" d="M106.5 186.8h21.6v2.7h-21.6z"/><path transform="rotate(-45.001 117.301 188.148)" class="st8" d="M116 177.3h2.7v21.6H116z"/><g><circle transform="rotate(-76.714 153.257 187.836)" class="st8" cx="153.2" cy="187.8" r="3.5"/></g><g><path transform="rotate(-45.004 189.171 188.135)" class="st8" d="M178.4 186.8H200v2.7h-21.6z"/><path transform="rotate(-45.001 189.18 188.149)" class="st8" d="M187.9 177.3h2.7v21.6h-2.7z"/></g></g></g></g></g></svg>