<svg xmlns="http://www.w3.org/2000/svg" viewBox="0 0 200 200"><style>.st0{fill:#fff}</style><g style="opacity:.42"><path fill="st0" d="M1.7 4.7 0 6.8v2.5l2.9-3.6z"/><path transform="rotate(-39.592 15.46 4.69)" class="st0" d="M12.4 3.9h6.1v1.6h-6.1z"/><path transform="rotate(-39.592 30.389 21.03)" class="st0" d="M27.3 20.2h6.1v1.6h-6.1z"/><path transform="rotate(-8.094 13.786 43.316)" class="st0" d="M13 40.3h1.6v6.1H13z"/><path transform="rotate(-34.442 22.021 14.26)" class="st0" d="M21.2 11.2h1.6v6.1h-1.6z"/><path transform="rotate(-34.439 41.43 7.55)" class="st0" d="M40.6 4.5h1.6v6.1h-1.6z"/><path class="st0" d="M10.7 2.1 9.3 0H7.4l2 3z"/><path transform="rotate(-34.442 10.58 27.153)" class="st0" d="M9.8 24.1h1.6v6.1H9.8z"/><path transform="rotate(-68.765 36.394 27.634)" class="st0" d="M33.4 26.8h6.1v1.6h-6.1z"/><path transform="rotate(-34.439 30.39 33.199)" class="st0" d="M29.6 30.2h1.6v6.1h-1.6z"/><path transform="matrix(.09494 -.9955 .9955 .09494 -17.548 61.416)" class="st0" d="M24.2 37.3h1.6v6.1h-1.6z"/><path transform="rotate(-42.971 35.456 44.273)" class="st0" d="M32.4 43.5h6.1v1.6h-6.1z"/><path transform="rotate(-60 28.652 6.704)" class="st0" d="M25.6 5.9h6.1v1.6h-6.1z"/><path class="st0" d="M41.1 0h-2.3l-1 1.1 1.1 1.1zM25.2 0h-1.6l-.7 2.8 1.5.4z"/><path transform="rotate(-63.9 5.645 36.293)" class="st0" d="M2.6 35.5h6.1v1.6H2.6z"/><path transform="rotate(-11.894 4.37 17.218)" class="st0" d="M3.6 14.2h1.6v6.1H3.6z"/><path transform="rotate(-11.894 44.115 20.065)" class="st0" d="M43.3 17h1.6v6.1h-1.6z"/><path transform="rotate(-42.971 12.396 13.643)" class="st0" d="M9.4 12.9h6.1v1.6H9.4z"/><path transform="rotate(-34.442 42.793 36.03)" class="st0" d="M42 33h1.6v6.1H42z"/><path transform="rotate(-63.9 18.555 22.306)" class="st0" d="M17.8 19.3h1.6v6.1h-1.6z"/><path transform="matrix(.09494 -.9955 .9955 .09494 19.36 48.58)" class="st0" d="M35.6 10.6h1.6v6.1h-1.6z"/><path transform="rotate(-63.901 19.544 31.82)" class="st0" d="M18.8 28.8h1.6v6.1h-1.6z"/><path class="st0" d="M2.4 26.5 0 27.6v1.8l3.1-1.5zM3.4 45.6l-3.4-2v1.8L2.7 47zM49.1 10.4 53 5.7l-1.3-1-3.8 4.7 1.2 1zM47.6 30.5l5.5-2.6-.7-1.4-5.5 2.5.7 1.5z"/><path transform="rotate(-39.592 65.461 4.69)" class="st0" d="M62.4 3.9h6.1v1.6h-6.1z"/><path transform="rotate(-39.592 80.392 21.03)" class="st0" d="M77.3 20.2h6.1v1.6h-6.1z"/><path transform="rotate(-8.094 63.771 43.318)" class="st0" d="M63 40.3h1.6v6.1H63z"/><path transform="rotate(-34.442 72.017 14.26)" class="st0" d="M71.2 11.2h1.6v6.1h-1.6z"/><path transform="rotate(-34.439 91.433 7.55)" class="st0" d="M90.6 4.5h1.6v6.1h-1.6z"/><path class="st0" d="M60.7 2.1 59.3 0h-1.9l2 3z"/><path transform="rotate(-34.442 60.577 27.153)" class="st0" d="M59.8 24.1h1.6v6.1h-1.6z"/><path transform="rotate(-68.765 86.392 27.635)" class="st0" d="M83.4 26.8h6.1v1.6h-6.1z"/><path transform="rotate(-34.439 80.393 33.198)" class="st0" d="M79.6 30.2h1.6v6.1h-1.6z"/><path transform="scale(1.00002) rotate(-84.552 75 40.358)" class="st0" d="M74.2 37.3h1.6v6.1h-1.6z"/><path transform="rotate(-42.971 85.453 44.275)" class="st0" d="M82.4 43.5h6.1v1.6h-6.1z"/><path transform="rotate(-60 78.652 6.706)" class="st0" d="M75.6 5.9h6.1v1.6h-6.1z"/><path class="st0" d="M91.1 0h-2.3l-1 1.1 1.1 1.1zM75.2 0h-1.6l-.7 2.8 1.5.4z"/><path transform="rotate(-63.9 55.647 36.291)" class="st0" d="M52.6 35.5h6.1v1.6h-6.1z"/><path transform="rotate(-11.894 54.365 17.219)" class="st0" d="M53.6 14.2h1.6v6.1h-1.6z"/><path transform="rotate(-11.894 94.11 20.066)" class="st0" d="M93.3 17h1.6v6.1h-1.6z"/><path transform="rotate(-42.971 62.398 13.644)" class="st0" d="M59.4 12.9h6.1v1.6h-6.1z"/><path transform="rotate(-34.442 92.788 36.03)" class="st0" d="M92 33h1.6v6.1H92z"/><path transform="rotate(-63.9 68.557 22.305)" class="st0" d="M67.8 19.3h1.6v6.1h-1.6z"/><path transform="matrix(.09494 -.9955 .9955 .09494 64.613 98.353)" class="st0" d="M85.6 10.6h1.6v6.1h-1.6z"/><path transform="rotate(-63.901 69.545 31.82)" class="st0" d="M68.8 28.8h1.6v6.1h-1.6z"/><path class="st0" d="m48.2 42.6-.8 1.3 5.3 3.1.7-1.4zM99.1 10.4l3.9-4.7-1.3-1-3.8 4.7 1.2 1zM97.6 30.5l5.5-2.6-.7-1.4-5.5 2.5.7 1.5zM1.7 54.7 0 56.8v2.5l2.9-3.6z"/><path transform="rotate(-39.592 15.46 54.69)" class="st0" d="M12.4 53.9h6.1v1.6h-6.1z"/><path transform="rotate(-39.592 30.387 71.03)" class="st0" d="M27.3 70.2h6.1v1.6h-6.1z"/><path transform="rotate(-8.089 13.795 93.348)" class="st0" d="M13 90.3h1.6v6.1H13z"/><path transform="rotate(-34.439 22.025 64.264)" class="st0" d="M21.2 61.2h1.6v6.1h-1.6z"/><path transform="rotate(-34.435 41.427 57.548)" class="st0" d="M40.6 54.5h1.6v6.1h-1.6z"/><path transform="rotate(-34.442 8.344 50.027)" class="st0" d="M7.6 47h1.6v6.1H7.6z"/><path transform="rotate(-34.442 10.581 77.149)" class="st0" d="M9.8 74.1h1.6v6.1H9.8z"/><path transform="rotate(-68.765 36.393 77.63)" class="st0" d="M33.4 76.8h6.1v1.6h-6.1z"/><path transform="rotate(-34.442 30.387 83.192)" class="st0" d="M29.6 80.2h1.6v6.1h-1.6z"/><path transform="rotate(-84.551 25.002 90.357) scale(1.00002)" class="st0" d="M24.2 87.3h1.6v6.1h-1.6z"/><path transform="rotate(-42.966 35.458 94.267)" class="st0" d="M32.4 93.5h6.1v1.6h-6.1z"/><path transform="rotate(-60 28.65 56.702)" class="st0" d="M25.6 55.9h6.1v1.6h-6.1z"/><path transform="rotate(-45.001 40.467 49.512)" class="st0" d="M37.4 48.7h6.1v1.6h-6.1z"/><path transform="rotate(-75.298 24.397 50.029)" class="st0" d="M21.4 49.2h6.1v1.6h-6.1z"/><path class="st0" d="m42.1 96.8-4.3 4.3 1.1 1.1 4.3-4.3zM24.4 96.9l-1.5 5.9 1.5.4 1.5-5.9z"/><path transform="rotate(-63.904 5.643 86.285)" class="st0" d="M2.6 85.5h6.1v1.6H2.6z"/><path transform="rotate(-11.894 4.37 67.214)" class="st0" d="M3.6 64.2h1.6v6.1H3.6z"/><path transform="rotate(-11.894 44.115 70.06)" class="st0" d="M43.3 67h1.6v6.1h-1.6z"/><path transform="rotate(-42.971 12.392 63.639)" class="st0" d="M9.4 62.9h6.1v1.6H9.4z"/><path transform="rotate(-34.439 42.8 86.039)" class="st0" d="M42 83h1.6v6.1H42z"/><path transform="rotate(-63.901 18.553 72.306)" class="st0" d="M17.8 69.3h1.6v6.1h-1.6z"/><path transform="rotate(-84.551 36.396 63.641) scale(1.00002)" class="st0" d="M35.6 60.6h1.6v6.1h-1.6z"/><path transform="rotate(-63.9 19.546 81.82)" class="st0" d="M18.8 78.8h1.6v6.1h-1.6z"/><path class="st0" d="M2.4 76.5 0 77.6v1.7l3.1-1.4zM3.4 95.6l-3.4-2v1.8L2.7 97zM47.6 80.5l5.5-2.6-.7-1.4-5.5 2.5.7 1.5zM51.7 54.7l-3.8 4.7 1.2 1 3.9-4.7-1.3-1z"/><path transform="rotate(-39.592 65.462 54.69)" class="st0" d="M62.4 53.9h6.1v1.6h-6.1z"/><path transform="rotate(-39.592 80.39 71.03)" class="st0" d="M77.3 70.2h6.1v1.6h-6.1z"/><path transform="rotate(-8.089 63.806 93.347)" class="st0" d="M63 90.3h1.6v6.1H63z"/><path transform="rotate(-34.439 72.029 64.264)" class="st0" d="M71.2 61.2h1.6v6.1h-1.6z"/><path transform="rotate(-34.435 91.426 57.547)" class="st0" d="M90.6 54.5h1.6v6.1h-1.6z"/><path transform="rotate(-34.442 58.341 50.026)" class="st0" d="M57.6 47h1.6v6.1h-1.6z"/><path transform="rotate(-34.442 60.578 77.148)" class="st0" d="M59.8 74.1h1.6v6.1h-1.6z"/><path transform="rotate(-68.765 86.392 77.632)" class="st0" d="M83.4 76.8h6.1v1.6h-6.1z"/><path transform="rotate(-34.442 80.386 83.191)" class="st0" d="M79.6 80.2h1.6v6.1h-1.6z"/><path transform="rotate(-84.551 75.002 90.357) scale(1.00002)" class="st0" d="M74.2 87.3h1.6v6.1h-1.6z"/><path transform="rotate(-42.966 85.456 94.267)" class="st0" d="M82.4 93.5h6.1v1.6h-6.1z"/><path transform="rotate(-60 78.648 56.704)" class="st0" d="M75.6 55.9h6.1v1.6h-6.1z"/><path transform="rotate(-45.001 90.468 49.512)" class="st0" d="M87.4 48.7h6.1v1.6h-6.1z"/><path transform="rotate(-75.298 74.395 50.028)" class="st0" d="M71.4 49.2h6.1v1.6h-6.1z"/><path class="st0" d="m92.1 96.8-4.3 4.3 1.1 1.1 4.3-4.3zM74.4 96.9l-1.5 5.9 1.5.4 1.5-5.9z"/><path transform="rotate(-63.9 55.648 86.292)" class="st0" d="M52.6 85.5h6.1v1.6h-6.1z"/><path transform="rotate(-11.894 54.366 67.214)" class="st0" d="M53.6 64.2h1.6v6.1h-1.6z"/><path transform="rotate(-11.894 94.111 70.06)" class="st0" d="M93.3 67h1.6v6.1h-1.6z"/><path transform="rotate(-42.971 62.39 63.64)" class="st0" d="M59.4 62.9h6.1v1.6h-6.1z"/><path transform="rotate(-34.439 92.805 86.038)" class="st0" d="M92 83h1.6v6.1H92z"/><path transform="rotate(-63.901 68.554 72.307)" class="st0" d="M67.8 69.3h1.6v6.1h-1.6z"/><path transform="rotate(-84.551 86.396 63.642) scale(1.00002)" class="st0" d="M85.6 60.6h1.6v6.1h-1.6z"/><path transform="rotate(-63.9 69.547 81.819)" class="st0" d="M68.8 78.8h1.6v6.1h-1.6z"/><path class="st0" d="m48.2 92.6-.8 1.3 5.3 3.1.7-1.4zM97.6 80.5l5.5-2.6-.7-1.4-5.5 2.5.7 1.5z"/><path transform="rotate(-39.592 115.463 4.69)" class="st0" d="M112.4 3.9h6.1v1.6h-6.1z"/><path transform="rotate(-39.592 130.396 21.03)" class="st0" d="M127.3 20.2h6.1v1.6h-6.1z"/><path transform="rotate(-8.094 113.757 43.319)" class="st0" d="M113 40.3h1.6v6.1H113z"/><path transform="rotate(-34.442 122.013 14.26)" class="st0" d="M121.2 11.2h1.6v6.1h-1.6z"/><path transform="rotate(-34.439 141.436 7.55)" class="st0" d="M140.6 4.5h1.6v6.1h-1.6z"/><path class="st0" d="M110.7 2.1 109.3 0h-1.9l2 3z"/><path transform="rotate(-34.442 110.572 27.153)" class="st0" d="M109.8 24.1h1.6v6.1h-1.6z"/><path transform="rotate(-68.765 136.39 27.636)" class="st0" d="M133.4 26.8h6.1v1.6h-6.1z"/><path transform="rotate(-34.439 130.397 33.197)" class="st0" d="M129.6 30.2h1.6v6.1h-1.6z"/><path transform="scale(1.00002) rotate(-84.552 125 40.358)" class="st0" d="M124.2 37.3h1.6v6.1h-1.6z"/><path transform="rotate(-42.971 135.45 44.278)" class="st0" d="M132.4 43.5h6.1v1.6h-6.1z"/><path transform="rotate(-60 128.652 6.707)" class="st0" d="M125.6 5.9h6.1v1.6h-6.1z"/><path class="st0" d="M141.1 0h-2.3l-1 1.1 1.1 1.1zM125.2 0h-1.6l-.7 2.8 1.5.4z"/><path transform="rotate(-63.9 105.65 36.29)" class="st0" d="M102.6 35.5h6.1v1.6h-6.1z"/><path transform="rotate(-11.894 104.361 17.22)" class="st0" d="M103.6 14.2h1.6v6.1h-1.6z"/><path transform="rotate(-11.894 144.105 20.066)" class="st0" d="M143.3 17h1.6v6.1h-1.6z"/><path transform="rotate(-42.971 112.4 13.645)" class="st0" d="M109.4 12.9h6.1v1.6h-6.1z"/><path transform="rotate(-34.442 142.784 36.03)" class="st0" d="M142 33h1.6v6.1H142z"/><path transform="rotate(-63.9 118.559 22.304)" class="st0" d="M117.8 19.3h1.6v6.1h-1.6z"/><path transform="matrix(.09494 -.9955 .9955 .09494 109.866 148.127)" class="st0" d="M135.6 10.6h1.6v6.1h-1.6z"/><path transform="rotate(-63.901 119.546 31.821)" class="st0" d="M118.8 28.8h1.6v6.1h-1.6z"/><path class="st0" d="m98.2 42.6-.8 1.3 5.3 3.1.7-1.4zM149.1 10.4l3.9-4.7-1.3-1-3.8 4.7 1.2 1zM147.6 30.5l5.5-2.6-.7-1.4-5.5 2.5.7 1.5z"/><path transform="rotate(-39.592 165.465 4.69)" class="st0" d="M162.4 3.9h6.1v1.6h-6.1z"/><path transform="rotate(-39.592 180.4 21.03)" class="st0" d="M177.3 20.2h6.1v1.6h-6.1z"/><path transform="rotate(-8.094 163.742 43.32)" class="st0" d="M163 40.3h1.6v6.1H163z"/><path transform="rotate(-34.442 172.008 14.26)" class="st0" d="M171.2 11.2h1.6v6.1h-1.6z"/><path transform="rotate(-34.439 191.44 7.549)" class="st0" d="M190.6 4.5h1.6v6.1h-1.6z"/><path class="st0" d="M160.7 2.1 159.3 0h-1.9l2 3z"/><path transform="rotate(-34.442 160.568 27.153)" class="st0" d="M159.8 24.1h1.6v6.1h-1.6z"/><path transform="rotate(-68.765 186.389 27.637)" class="st0" d="M183.4 26.8h6.1v1.6h-6.1z"/><path transform="rotate(-34.439 180.4 33.197)" class="st0" d="M179.6 30.2h1.6v6.1h-1.6z"/><path transform="matrix(.09494 -.9955 .9955 .09494 118.211 210.739)" class="st0" d="M174.2 37.3h1.6v6.1h-1.6z"/><path transform="rotate(-42.971 185.448 44.28)" class="st0" d="M182.4 43.5h6.1v1.6h-6.1z"/><path transform="rotate(-60 178.652 6.708)" class="st0" d="M175.6 5.9h6.1v1.6h-6.1z"/><path class="st0" d="M191.1 0h-2.3l-1 1.1 1.1 1.1zM175.2 0h-1.6l-.7 2.8 1.5.4z"/><path transform="rotate(-63.9 155.651 36.289)" class="st0" d="M152.6 35.5h6.1v1.6h-6.1z"/><path transform="rotate(-11.894 154.357 17.22)" class="st0" d="M153.6 14.2h1.6v6.1h-1.6z"/><path transform="rotate(-11.894 194.1 20.067)" class="st0" d="M193.3 17h1.6v6.1h-1.6z"/><path transform="rotate(-42.971 162.402 13.645)" class="st0" d="M159.4 12.9h6.1v1.6h-6.1z"/><path transform="rotate(-34.442 192.78 36.03)" class="st0" d="M192 33h1.6v6.1H192z"/><path transform="rotate(-63.9 168.56 22.302)" class="st0" d="M167.8 19.3h1.6v6.1h-1.6z"/><path transform="matrix(.09494 -.9955 .9955 .09494 155.119 197.902)" class="st0" d="M185.6 10.6h1.6v6.1h-1.6z"/><path transform="rotate(-63.901 169.547 31.822)" class="st0" d="M168.8 28.8h1.6v6.1h-1.6z"/><path class="st0" d="m148.2 42.6-.8 1.3 5.3 3.1.7-1.4zM197.9 9.4l1.2 1 .9-1.1V6.8zM197.6 30.5l2.4-1.1v-1.8l-3.1 1.4zM197.4 43.9l2.6 1.5v-1.8l-1.8-1zM101.7 54.7l-3.8 4.7 1.2 1 3.9-4.7-1.3-1z"/><path transform="rotate(-39.592 115.465 54.69)" class="st0" d="M112.4 53.9h6.1v1.6h-6.1z"/><path transform="rotate(-39.592 130.39 71.031)" class="st0" d="M127.3 70.2h6.1v1.6h-6.1z"/><path transform="rotate(-8.089 113.817 93.347)" class="st0" d="M113 90.3h1.6v6.1H113z"/><path transform="rotate(-34.439 122.033 64.263)" class="st0" d="M121.2 61.2h1.6v6.1h-1.6z"/><path transform="rotate(-34.435 141.426 57.547)" class="st0" d="M140.6 54.5h1.6v6.1h-1.6z"/><path transform="rotate(-34.442 108.338 50.026)" class="st0" d="M107.6 47h1.6v6.1h-1.6z"/><path transform="rotate(-34.442 110.575 77.148)" class="st0" d="M109.8 74.1h1.6v6.1h-1.6z"/><path transform="rotate(-68.765 136.39 77.633)" class="st0" d="M133.4 76.8h6.1v1.6h-6.1z"/><path transform="rotate(-34.442 130.384 83.19)" class="st0" d="M129.6 80.2h1.6v6.1h-1.6z"/><path transform="rotate(-84.551 125.002 90.357) scale(1.00002)" class="st0" d="M124.2 87.3h1.6v6.1h-1.6z"/><path transform="rotate(-42.966 135.453 94.267)" class="st0" d="M132.4 93.5h6.1v1.6h-6.1z"/><path transform="rotate(-60 128.647 56.706)" class="st0" d="M125.6 55.9h6.1v1.6h-6.1z"/><path transform="rotate(-45.001 140.468 49.513)" class="st0" d="M137.4 48.7h6.1v1.6h-6.1z"/><path transform="rotate(-75.298 124.393 50.028)" class="st0" d="M121.4 49.2h6.1v1.6h-6.1z"/><path class="st0" d="m142.1 96.8-4.3 4.3 1.1 1.1 4.3-4.3zM124.4 96.9l-1.5 5.9 1.5.4 1.5-5.9z"/><path transform="rotate(-63.9 105.65 86.29)" class="st0" d="M102.6 85.5h6.1v1.6h-6.1z"/><path transform="rotate(-11.894 104.363 67.215)" class="st0" d="M103.6 64.2h1.6v6.1h-1.6z"/><path transform="rotate(-11.894 144.107 70.061)" class="st0" d="M143.3 67h1.6v6.1h-1.6z"/><path transform="rotate(-42.971 112.387 63.643)" class="st0" d="M109.4 62.9h6.1v1.6h-6.1z"/><path transform="rotate(-34.439 142.809 86.037)" class="st0" d="M142 83h1.6v6.1H142z"/><path transform="rotate(-63.901 118.555 72.308)" class="st0" d="M117.8 69.3h1.6v6.1h-1.6z"/><path transform="rotate(-84.551 136.396 63.642) scale(1.00002)" class="st0" d="M135.6 60.6h1.6v6.1h-1.6z"/><path transform="rotate(-63.9 119.548 81.818)" class="st0" d="M118.8 78.8h1.6v6.1h-1.6z"/><path class="st0" d="m98.2 92.6-.8 1.3 5.3 3.1.7-1.4zM147.6 80.5l5.5-2.6-.7-1.4-5.5 2.5.7 1.5zM151.7 54.7l-3.8 4.7 1.2 1 3.9-4.7-1.3-1z"/><path transform="rotate(-39.592 165.468 54.69)" class="st0" d="M162.4 53.9h6.1v1.6h-6.1z"/><path transform="rotate(-39.592 180.393 71.032)" class="st0" d="M177.3 70.2h6.1v1.6h-6.1z"/><path transform="rotate(-8.089 163.828 93.345)" class="st0" d="M163 90.3h1.6v6.1H163z"/><path transform="rotate(-34.439 172.037 64.263)" class="st0" d="M171.2 61.2h1.6v6.1h-1.6z"/><path transform="rotate(-34.435 191.425 57.546)" class="st0" d="M190.6 54.5h1.6v6.1h-1.6z"/><path transform="rotate(-34.442 158.334 50.026)" class="st0" d="M157.6 47h1.6v6.1h-1.6z"/><path transform="rotate(-34.442 160.571 77.148)" class="st0" d="M159.8 74.1h1.6v6.1h-1.6z"/><path transform="rotate(-68.765 186.389 77.634)" class="st0" d="M183.4 76.8h6.1v1.6h-6.1z"/><path transform="rotate(-34.442 180.383 83.189)" class="st0" d="M179.6 80.2h1.6v6.1h-1.6z"/><path transform="rotate(-84.551 175.002 90.357) scale(1.00002)" class="st0" d="M174.2 87.3h1.6v6.1h-1.6z"/><path transform="rotate(-42.966 185.45 94.267)" class="st0" d="M182.4 93.5h6.1v1.6h-6.1z"/><path transform="rotate(-60 178.646 56.708)" class="st0" d="M175.6 55.9h6.1v1.6h-6.1z"/><path transform="rotate(-45.001 190.468 49.513)" class="st0" d="M187.4 48.7h6.1v1.6h-6.1z"/><path transform="rotate(-75.298 174.391 50.028)" class="st0" d="M171.4 49.2h6.1v1.6h-6.1z"/><path class="st0" d="m192.1 96.8-4.3 4.3 1.1 1.1 4.3-4.3zM174.4 96.9l-1.5 5.9 1.5.4 1.5-5.9z"/><path transform="rotate(-63.9 155.651 86.29)" class="st0" d="M152.6 85.5h6.1v1.6h-6.1z"/><path transform="rotate(-11.894 154.36 67.215)" class="st0" d="M153.6 64.2h1.6v6.1h-1.6z"/><path transform="rotate(-11.894 194.103 70.062)" class="st0" d="M193.3 67h1.6v6.1h-1.6z"/><path transform="rotate(-42.971 162.384 63.646)" class="st0" d="M159.4 62.9h6.1v1.6h-6.1z"/><path transform="rotate(-34.439 192.813 86.037)" class="st0" d="M192 83h1.6v6.1H192z"/><path transform="rotate(-63.901 168.556 72.308)" class="st0" d="M167.8 69.3h1.6v6.1h-1.6z"/><path transform="rotate(-84.551 186.396 63.642) scale(1.00002)" class="st0" d="M185.6 60.6h1.6v6.1h-1.6z"/><path transform="rotate(-63.9 169.55 81.817)" class="st0" d="M168.8 78.8h1.6v6.1h-1.6z"/><path class="st0" d="m148.2 92.6-.8 1.3 5.3 3.1.7-1.4zM199.1 60.4l.9-1.1v-2.5l-2.1 2.6zM197.6 80.5l2.4-1.2v-1.7l-3.1 1.4zM197.4 93.9l2.6 1.5v-1.8l-1.8-1.1zM1.7 104.7 0 106.8v2.5l2.9-3.6z"/><path transform="rotate(-39.592 15.46 104.695)" class="st0" d="M12.4 103.9h6.1v1.6h-6.1z"/><path transform="rotate(-39.592 30.387 121.032)" class="st0" d="M27.3 120.2h6.1v1.6h-6.1z"/><path transform="rotate(-8.094 13.783 143.283)" class="st0" d="M13 140.3h1.6v6.1H13z"/><path transform="rotate(-34.439 22.026 114.269)" class="st0" d="M21.2 111.2h1.6v6.1h-1.6z"/><path transform="rotate(-34.435 41.427 107.547)" class="st0" d="M40.6 104.5h1.6v6.1h-1.6z"/><path class="st0" d="m9.4 103 1.3-.9-3.4-5L6 98z"/><path transform="rotate(-34.442 10.583 127.147)" class="st0" d="M9.8 124.1h1.6v6.1H9.8z"/><path transform="rotate(-68.765 36.394 127.63)" class="st0" d="M33.4 126.8h6.1v1.6h-6.1z"/><path transform="rotate(-34.442 30.388 133.19)" class="st0" d="M29.6 130.2h1.6v6.1h-1.6z"/><path transform="rotate(-84.551 25.002 140.357) scale(1.00002)" class="st0" d="M24.2 137.3h1.6v6.1h-1.6z"/><path transform="rotate(-42.966 35.458 144.264)" class="st0" d="M32.4 143.5h6.1v1.6h-6.1z"/><path transform="rotate(-59.994 28.653 106.7)" class="st0" d="M25.6 105.9h6.1v1.6h-6.1z"/><path transform="rotate(-63.9 5.647 136.295)" class="st0" d="M2.6 135.5h6.1v1.6H2.6z"/><path transform="rotate(-11.894 4.37 117.218)" class="st0" d="M3.6 114.2h1.6v6.1H3.6z"/><path transform="rotate(-11.894 44.114 120.056)" class="st0" d="M43.3 117h1.6v6.1h-1.6z"/><path transform="rotate(-42.971 12.391 113.64)" class="st0" d="M9.4 112.9h6.1v1.6H9.4z"/><path transform="rotate(-34.439 42.802 136.042)" class="st0" d="M42 133h1.6v6.1H42z"/><path transform="rotate(-63.9 18.556 122.308)" class="st0" d="M17.8 119.3h1.6v6.1h-1.6z"/><path transform="rotate(-84.551 36.396 113.641) scale(1.00002)" class="st0" d="M35.6 110.6h1.6v6.1h-1.6z"/><path transform="rotate(-63.9 19.548 131.822)" class="st0" d="M18.8 128.8h1.6v6.1h-1.6z"/><path class="st0" d="M2.4 126.5 0 127.6v1.7l3.1-1.4zM3.4 145.6l-3.4-2v1.8l2.7 1.6zM47.6 130.5l5.5-2.6-.7-1.4-5.5 2.5.7 1.5zM51.7 104.7l-3.8 4.7 1.2 1 3.9-4.7-1.3-1z"/><path transform="rotate(-39.592 65.464 104.695)" class="st0" d="M62.4 103.9h6.1v1.6h-6.1z"/><path transform="rotate(-39.592 80.389 121.033)" class="st0" d="M77.3 120.2h6.1v1.6h-6.1z"/><path transform="rotate(-8.094 63.767 143.285)" class="st0" d="M63 140.3h1.6v6.1H63z"/><path transform="rotate(-34.439 72.03 114.268)" class="st0" d="M71.2 111.2h1.6v6.1h-1.6z"/><path transform="rotate(-34.435 91.427 107.547)" class="st0" d="M90.6 104.5h1.6v6.1h-1.6z"/><path class="st0" d="m59.4 103 1.3-.9-3.4-5-1.3.9z"/><path transform="rotate(-34.442 60.58 127.147)" class="st0" d="M59.8 124.1h1.6v6.1h-1.6z"/><path transform="rotate(-68.765 86.393 127.631)" class="st0" d="M83.4 126.8h6.1v1.6h-6.1z"/><path transform="rotate(-34.442 80.387 133.19)" class="st0" d="M79.6 130.2h1.6v6.1h-1.6z"/><path transform="rotate(-84.551 75.002 140.357) scale(1.00002)" class="st0" d="M74.2 137.3h1.6v6.1h-1.6z"/><path transform="rotate(-42.966 85.456 144.264)" class="st0" d="M82.4 143.5h6.1v1.6h-6.1z"/><path transform="rotate(-59.994 78.652 106.7)" class="st0" d="M75.6 105.9h6.1v1.6h-6.1z"/><path transform="rotate(-63.9 55.65 136.293)" class="st0" d="M52.6 135.5h6.1v1.6h-6.1z"/><path transform="rotate(-11.894 54.365 117.21)" class="st0" d="M53.6 114.2h1.6v6.1h-1.6z"/><path transform="rotate(-11.894 94.11 120.057)" class="st0" d="M93.3 117h1.6v6.1h-1.6z"/><path transform="rotate(-42.971 62.39 113.641)" class="st0" d="M59.4 112.9h6.1v1.6h-6.1z"/><path transform="rotate(-34.439 92.805 136.042)" class="st0" d="M92 133h1.6v6.1H92z"/><path transform="rotate(-63.9 68.558 122.307)" class="st0" d="M67.8 119.3h1.6v6.1h-1.6z"/><path transform="rotate(-84.551 86.396 113.642) scale(1.00002)" class="st0" d="M85.6 110.6h1.6v6.1h-1.6z"/><path transform="rotate(-63.9 69.55 131.821)" class="st0" d="M68.8 128.8h1.6v6.1h-1.6z"/><path class="st0" d="m48.2 142.6-.8 1.3 5.3 3.1.7-1.4zM97.6 130.5l5.5-2.6-.7-1.4-5.5 2.5.7 1.5zM1.7 154.7 0 156.8v2.5l2.9-3.6z"/><path transform="rotate(-39.592 15.459 154.692)" class="st0" d="M12.4 153.9h6.1v1.6h-6.1z"/><path transform="rotate(-39.592 30.386 171.032)" class="st0" d="M27.3 170.2h6.1v1.6h-6.1z"/><path transform="rotate(-8.094 13.784 193.286)" class="st0" d="M13 190.3h1.6v6.1H13z"/><path transform="rotate(-34.442 22.022 164.245)" class="st0" d="M21.2 161.2h1.6v6.1h-1.6z"/><path transform="rotate(-34.439 41.43 157.556)" class="st0" d="M40.6 154.5h1.6v6.1h-1.6z"/><path transform="rotate(-34.439 8.348 150.042)" class="st0" d="M7.6 147h1.6v6.1H7.6z"/><path transform="rotate(-34.439 10.582 177.16)" class="st0" d="M9.8 174.1h1.6v6.1H9.8z"/><path transform="rotate(-68.765 36.394 177.63)" class="st0" d="M33.4 176.8h6.1v1.6h-6.1z"/><path transform="rotate(-34.442 30.394 183.197)" class="st0" d="M29.6 180.1h1.6v6.1h-1.6z"/><path transform="rotate(-84.551 25.002 190.356) scale(1.00002)" class="st0" d="M24.2 187.3h1.6v6.1h-1.6z"/><path transform="rotate(-42.971 35.453 194.268)" class="st0" d="M32.4 193.5h6.1v1.6h-6.1z"/><path transform="rotate(-60.007 28.65 156.695)" class="st0" d="M25.6 155.9h6.1v1.6h-6.1z"/><path transform="rotate(-45.001 40.47 149.516)" class="st0" d="M37.4 148.7h6.1v1.6h-6.1z"/><path transform="rotate(-75.298 24.397 150.024)" class="st0" d="M21.4 149.2h6.1v1.6h-6.1z"/><path class="st0" d="m6 198 1.4 2h1.9l-2-2.9zM38.8 200h2.3l2.1-2.1-1.1-1.1zM23.6 200h1.6l.7-2.7-1.5-.4z"/><path transform="rotate(-63.9 5.65 186.296)" class="st0" d="M2.6 185.5h6.1v1.6H2.6z"/><path transform="rotate(-11.894 4.37 167.218)" class="st0" d="M3.6 164.2h1.6v6.1H3.6z"/><path transform="rotate(-11.894 44.114 170.051)" class="st0" d="M43.3 167h1.6v6.1h-1.6z"/><path transform="rotate(-42.971 12.39 163.638)" class="st0" d="M9.4 162.8h6.1v1.6H9.4z"/><path transform="rotate(-34.442 42.796 186.02)" class="st0" d="M42 183h1.6v6.1H42z"/><path transform="rotate(-63.901 18.552 172.307)" class="st0" d="M17.8 169.3h1.6v6.1h-1.6z"/><path transform="rotate(-84.551 36.396 163.64) scale(1.00002)" class="st0" d="M35.6 160.6h1.6v6.1h-1.6z"/><path transform="rotate(-63.9 19.548 181.821)" class="st0" d="M18.8 178.8h1.6v6.1h-1.6z"/><path class="st0" d="M2.4 176.5 0 177.6v1.7l3.1-1.4zM0 195.4l2.7 1.6.7-1.4-3.4-2zM47.6 180.5l5.5-2.6-.7-1.4-5.5 2.5.7 1.5zM51.7 154.7l-3.8 4.7 1.2 1 3.9-4.7-1.3-1z"/><path transform="rotate(-39.592 65.46 154.693)" class="st0" d="M62.4 153.9h6.1v1.6h-6.1z"/><path transform="rotate(-39.592 80.388 171.033)" class="st0" d="M77.3 170.2h6.1v1.6h-6.1z"/><path transform="rotate(-8.094 63.774 193.287)" class="st0" d="M63 190.3h1.6v6.1H63z"/><path transform="rotate(-34.442 72.017 164.244)" class="st0" d="M71.2 161.2h1.6v6.1h-1.6z"/><path transform="rotate(-34.439 91.433 157.556)" class="st0" d="M90.6 154.5h1.6v6.1h-1.6z"/><path transform="rotate(-34.439 58.352 150.042)" class="st0" d="M57.6 147h1.6v6.1h-1.6z"/><path transform="rotate(-34.439 60.584 177.16)" class="st0" d="M59.8 174.1h1.6v6.1h-1.6z"/><path transform="rotate(-68.765 86.393 177.63)" class="st0" d="M83.4 176.8h6.1v1.6h-6.1z"/><path transform="rotate(-34.442 80.396 183.195)" class="st0" d="M79.6 180.1h1.6v6.1h-1.6z"/><path transform="rotate(-84.551 75.002 190.356) scale(1.00002)" class="st0" d="M74.2 187.3h1.6v6.1h-1.6z"/><path transform="rotate(-42.971 85.452 194.27)" class="st0" d="M82.4 193.5h6.1v1.6h-6.1z"/><path transform="rotate(-60.007 78.647 156.695)" class="st0" d="M75.6 155.9h6.1v1.6h-6.1z"/><path transform="rotate(-45.001 90.473 149.516)" class="st0" d="M87.4 148.7h6.1v1.6h-6.1z"/><path transform="rotate(-75.298 74.396 150.024)" class="st0" d="M71.4 149.2h6.1v1.6h-6.1z"/><path class="st0" d="m56 198 1.4 2h1.9l-2-2.9zM88.8 200h2.3l2.1-2.1-1.1-1.1zM73.6 200h1.6l.7-2.7-1.5-.4z"/><path transform="rotate(-63.9 55.651 186.295)" class="st0" d="M52.6 185.5h6.1v1.6h-6.1z"/><path transform="rotate(-11.894 54.365 167.206)" class="st0" d="M53.6 164.2h1.6v6.1h-1.6z"/><path transform="rotate(-11.894 94.11 170.052)" class="st0" d="M93.3 167h1.6v6.1h-1.6z"/><path transform="rotate(-42.971 62.39 163.64)" class="st0" d="M59.4 162.8h6.1v1.6h-6.1z"/><path transform="rotate(-34.442 92.794 186.02)" class="st0" d="M92 183h1.6v6.1H92z"/><path transform="rotate(-63.901 68.553 172.308)" class="st0" d="M67.8 169.3h1.6v6.1h-1.6z"/><path transform="rotate(-84.551 86.396 163.64) scale(1.00002)" class="st0" d="M85.6 160.6h1.6v6.1h-1.6z"/><path transform="rotate(-63.9 69.55 181.82)" class="st0" d="M68.8 178.8h1.6v6.1h-1.6z"/><path class="st0" d="m48.2 192.6-.8 1.3 5.3 3.1.7-1.4-5.2-3zM97.6 180.5l5.5-2.6-.7-1.4-5.5 2.5.7 1.5zM101.7 104.7l-3.8 4.7 1.2 1 3.9-4.7-1.3-1z"/><path transform="rotate(-39.592 115.468 104.695)" class="st0" d="M112.4 103.9h6.1v1.6h-6.1z"/><path transform="rotate(-39.592 130.39 121.033)" class="st0" d="M127.3 120.2h6.1v1.6h-6.1z"/><path transform="rotate(-8.094 113.752 143.286)" class="st0" d="M113 140.3h1.6v6.1H113z"/><path transform="rotate(-34.439 122.034 114.268)" class="st0" d="M121.2 111.2h1.6v6.1h-1.6z"/><path transform="rotate(-34.435 141.426 107.546)" class="st0" d="M140.6 104.5h1.6v6.1h-1.6z"/><path class="st0" d="m109.4 103 1.3-.9-3.4-5-1.3.9z"/><path transform="rotate(-34.442 110.577 127.146)" class="st0" d="M109.8 124.1h1.6v6.1h-1.6z"/><path transform="rotate(-68.765 136.392 127.632)" class="st0" d="M133.4 126.8h6.1v1.6h-6.1z"/><path transform="rotate(-34.442 130.385 133.188)" class="st0" d="M129.6 130.2h1.6v6.1h-1.6z"/><path transform="rotate(-84.551 125.002 140.357) scale(1.00002)" class="st0" d="M124.2 137.3h1.6v6.1h-1.6z"/><path transform="rotate(-42.966 135.453 144.264)" class="st0" d="M132.4 143.5h6.1v1.6h-6.1z"/><path transform="rotate(-59.994 128.651 106.7)" class="st0" d="M125.6 105.9h6.1v1.6h-6.1z"/><path transform="rotate(-63.9 105.65 136.292)" class="st0" d="M102.6 135.5h6.1v1.6h-6.1z"/><path transform="rotate(-11.894 104.362 117.211)" class="st0" d="M103.6 114.2h1.6v6.1h-1.6z"/><path transform="rotate(-11.894 144.106 120.057)" class="st0" d="M143.3 117h1.6v6.1h-1.6z"/><path transform="rotate(-42.971 112.39 113.643)" class="st0" d="M109.4 112.9h6.1v1.6h-6.1z"/><path transform="rotate(-34.439 142.81 136.041)" class="st0" d="M142 133h1.6v6.1H142z"/><path transform="rotate(-63.9 118.559 122.306)" class="st0" d="M117.8 119.3h1.6v6.1h-1.6z"/><path transform="rotate(-84.551 136.396 113.642) scale(1.00002)" class="st0" d="M135.6 110.6h1.6v6.1h-1.6z"/><path transform="rotate(-63.9 119.552 131.82)" class="st0" d="M118.8 128.8h1.6v6.1h-1.6z"/><path class="st0" d="m98.2 142.6-.8 1.3 5.3 3.1.7-1.4zM147.6 130.5l5.5-2.6-.7-1.4-5.5 2.5.7 1.5zM151.7 104.7l-3.8 4.7 1.2 1 3.9-4.7-1.3-1z"/><path transform="rotate(-39.592 165.472 104.694)" class="st0" d="M162.4 103.9h6.1v1.6h-6.1z"/><path transform="rotate(-39.592 180.393 121.033)" class="st0" d="M177.3 120.2h6.1v1.6h-6.1z"/><path transform="rotate(-8.094 163.737 143.287)" class="st0" d="M163 140.3h1.6v6.1H163z"/><path transform="rotate(-34.439 172.038 114.267)" class="st0" d="M171.2 111.2h1.6v6.1h-1.6z"/><path transform="rotate(-34.435 191.426 107.546)" class="st0" d="M190.6 104.5h1.6v6.1h-1.6z"/><path class="st0" d="m159.4 103 1.3-.9-3.4-5-1.3.9z"/><path transform="rotate(-34.442 160.574 127.145)" class="st0" d="M159.8 124.1h1.6v6.1h-1.6z"/><path transform="rotate(-68.765 186.39 127.633)" class="st0" d="M183.4 126.8h6.1v1.6h-6.1z"/><path transform="rotate(-34.442 180.383 133.187)" class="st0" d="M179.6 130.2h1.6v6.1h-1.6z"/><path transform="rotate(-84.551 175.002 140.357) scale(1.00002)" class="st0" d="M174.2 137.3h1.6v6.1h-1.6z"/><path transform="rotate(-42.966 185.45 144.264)" class="st0" d="M182.4 143.5h6.1v1.6h-6.1z"/><path transform="rotate(-59.994 178.65 106.7)" class="st0" d="M175.6 105.9h6.1v1.6h-6.1z"/><path transform="rotate(-63.9 155.653 136.291)" class="st0" d="M152.6 135.5h6.1v1.6h-6.1z"/><path transform="rotate(-11.894 154.359 117.212)" class="st0" d="M153.6 114.2h1.6v6.1h-1.6z"/><path transform="rotate(-11.894 194.102 120.058)" class="st0" d="M193.3 117h1.6v6.1h-1.6z"/><path transform="rotate(-42.971 162.388 113.645)" class="st0" d="M159.4 112.9h6.1v1.6h-6.1z"/><path transform="rotate(-34.439 192.813 136.04)" class="st0" d="M192 133h1.6v6.1H192z"/><path transform="rotate(-63.9 168.56 122.305)" class="st0" d="M167.8 119.3h1.6v6.1h-1.6z"/><path transform="rotate(-84.551 186.396 113.642) scale(1.00002)" class="st0" d="M185.6 110.6h1.6v6.1h-1.6z"/><path transform="rotate(-63.9 169.554 131.818)" class="st0" d="M168.8 128.8h1.6v6.1h-1.6z"/><path class="st0" d="m148.2 142.6-.8 1.3 5.3 3.1.7-1.4zM199.1 110.4l.9-1.1v-2.5l-2.1 2.6zM197.6 130.5l2.4-1.2v-1.7l-3.1 1.4zM197.4 143.9l2.6 1.5v-1.8l-1.8-1.1zM101.7 154.7l-3.8 4.7 1.2 1 3.9-4.7-1.3-1z"/><path transform="rotate(-39.592 115.462 154.693)" class="st0" d="M112.4 153.9h6.1v1.6h-6.1z"/><path transform="rotate(-39.592 130.39 171.033)" class="st0" d="M127.3 170.2h6.1v1.6h-6.1z"/><path transform="rotate(-8.094 113.764 193.287)" class="st0" d="M113 190.3h1.6v6.1H113z"/><path transform="rotate(-34.442 122.013 164.244)" class="st0" d="M121.2 161.2h1.6v6.1h-1.6z"/><path transform="rotate(-34.439 141.436 157.556)" class="st0" d="M140.6 154.5h1.6v6.1h-1.6z"/><path transform="rotate(-34.439 108.357 150.041)" class="st0" d="M107.6 147h1.6v6.1h-1.6z"/><path transform="rotate(-34.439 110.586 177.16)" class="st0" d="M109.8 174.1h1.6v6.1h-1.6z"/><path transform="rotate(-68.765 136.392 177.63)" class="st0" d="M133.4 176.8h6.1v1.6h-6.1z"/><path transform="rotate(-34.442 130.397 183.194)" class="st0" d="M129.6 180.1h1.6v6.1h-1.6z"/><path transform="rotate(-84.551 125.002 190.356) scale(1.00002)" class="st0" d="M124.2 187.3h1.6v6.1h-1.6z"/><path transform="rotate(-42.971 135.45 194.271)" class="st0" d="M132.4 193.5h6.1v1.6h-6.1z"/><path transform="rotate(-60.007 128.645 156.695)" class="st0" d="M125.6 155.9h6.1v1.6h-6.1z"/><path transform="rotate(-45.001 140.475 149.516)" class="st0" d="M137.4 148.7h6.1v1.6h-6.1z"/><path transform="rotate(-75.298 124.394 150.023)" class="st0" d="M121.4 149.2h6.1v1.6h-6.1z"/><path class="st0" d="m106 198 1.4 2h1.9l-2-2.9zM138.8 200h2.3l2.1-2.1-1.1-1.1zM123.6 200h1.6l.7-2.7-1.5-.4z"/><path transform="rotate(-63.9 105.653 186.293)" class="st0" d="M102.6 185.5h6.1v1.6h-6.1z"/><path transform="rotate(-11.894 104.361 167.206)" class="st0" d="M103.6 164.2h1.6v6.1h-1.6z"/><path transform="rotate(-11.894 144.106 170.052)" class="st0" d="M143.3 167h1.6v6.1h-1.6z"/><path transform="rotate(-42.971 112.388 163.641)" class="st0" d="M109.4 162.8h6.1v1.6h-6.1z"/><path transform="rotate(-34.442 142.791 186.019)" class="st0" d="M142 183h1.6v6.1H142z"/><path transform="rotate(-63.901 118.554 172.309)" class="st0" d="M117.8 169.3h1.6v6.1h-1.6z"/><path transform="rotate(-84.551 136.396 163.64) scale(1.00002)" class="st0" d="M135.6 160.6h1.6v6.1h-1.6z"/><path transform="rotate(-63.9 119.55 181.819)" class="st0" d="M118.8 178.8h1.6v6.1h-1.6z"/><path class="st0" d="m98.2 192.6-.8 1.3 5.3 3.1.7-1.4-5.2-3zM147.6 180.5l5.5-2.6-.7-1.4-5.5 2.5.7 1.5zM151.7 154.7l-3.8 4.7 1.2 1 3.9-4.7-1.3-1z"/><path transform="rotate(-39.592 165.464 154.693)" class="st0" d="M162.4 153.9h6.1v1.6h-6.1z"/><path transform="rotate(-39.592 180.39 171.033)" class="st0" d="M177.3 170.2h6.1v1.6h-6.1z"/><path transform="rotate(-8.094 163.753 193.288)" class="st0" d="M163 190.3h1.6v6.1H163z"/><path transform="rotate(-34.442 172.009 164.244)" class="st0" d="M171.2 161.2h1.6v6.1h-1.6z"/><path transform="rotate(-34.439 191.44 157.556)" class="st0" d="M190.6 154.5h1.6v6.1h-1.6z"/><path transform="rotate(-34.439 158.361 150.04)" class="st0" d="M157.6 147h1.6v6.1h-1.6z"/><path transform="rotate(-34.439 160.588 177.16)" class="st0" d="M159.8 174.1h1.6v6.1h-1.6z"/><path transform="rotate(-68.765 186.392 177.63)" class="st0" d="M183.4 176.8h6.1v1.6h-6.1z"/><path transform="rotate(-34.442 180.398 183.192)" class="st0" d="M179.6 180.1h1.6v6.1h-1.6z"/><path transform="rotate(-84.551 175.002 190.356) scale(1.00002)" class="st0" d="M174.2 187.3h1.6v6.1h-1.6z"/><path transform="rotate(-42.971 185.45 194.273)" class="st0" d="M182.4 193.5h6.1v1.6h-6.1z"/><path transform="rotate(-60.007 178.643 156.696)" class="st0" d="M175.6 155.9h6.1v1.6h-6.1z"/><path transform="rotate(-45.001 190.478 149.515)" class="st0" d="M187.4 148.7h6.1v1.6h-6.1z"/><path transform="rotate(-75.298 174.392 150.023)" class="st0" d="M171.4 149.2h6.1v1.6h-6.1z"/><path class="st0" d="m156 198 1.4 2h1.9l-2-2.9zM188.8 200h2.3l2.1-2.1-1.1-1.1zM173.6 200h1.6l.7-2.7-1.5-.4z"/><path transform="rotate(-63.9 155.655 186.292)" class="st0" d="M152.6 185.5h6.1v1.6h-6.1z"/><path transform="rotate(-11.894 154.358 167.207)" class="st0" d="M153.6 164.2h1.6v6.1h-1.6z"/><path transform="rotate(-11.894 194.102 170.053)" class="st0" d="M193.3 167h1.6v6.1h-1.6z"/><path transform="rotate(-42.971 162.387 163.643)" class="st0" d="M159.4 162.8h6.1v1.6h-6.1z"/><path transform="rotate(-34.442 192.788 186.018)" class="st0" d="M192 183h1.6v6.1H192z"/><path transform="rotate(-63.901 168.555 172.31)" class="st0" d="M167.8 169.3h1.6v6.1h-1.6z"/><path transform="rotate(-84.551 186.396 163.64) scale(1.00002)" class="st0" d="M185.6 160.6h1.6v6.1h-1.6z"/><path transform="rotate(-63.9 169.552 181.818)" class="st0" d="M168.8 178.8h1.6v6.1h-1.6z"/><path class="st0" d="m148.2 192.6-.8 1.3 5.3 3.1.7-1.4-5.2-3zM199.1 160.4l.9-1.1v-2.5l-2.1 2.6zM197.6 180.5l2.4-1.2v-1.7l-3.1 1.4zM197.4 193.9l2.6 1.5v-1.8l-1.8-1.1z"/></g></svg>