<svg xmlns="http://www.w3.org/2000/svg" viewBox="0 0 135.8 135.8"><style>.st4{fill:#205493}</style><g style="opacity:.1" id="Layer_5"><path class="st4" d="m127.8 18.6-16.4 32.7L95 18.6l-.6-1.2L85.7 0H84.5l9.3 18.6.6 1.2L110.5 52H44.3L61 18.6 70.3 0h-1.1l-9.3 18.6-16.4 32.7-16.4-32.7-.6-1.2L17.8 0H16.6l9.3 18.6.6 1.2L42.6 52H0v1h42.6L26.5 85.3l-17 34-9.5-19v2.3L8.7 120H0v1h8.6l-7.4 14.9h1.1l7.1-14.2 7.1 14.2H17.7L10.4 121h66.2l-7.4 14.9h1.1l7.1-14.2 7.1 14.2H85.7L78.3 121h57.5v-1H78.3l16.1-32.3 17-34 24.4 48.9v-2.3L112.2 53h23.7v-1h-23.6L129 18.6l6.9-13.8V2.4l-8.1 16.2zM26.5 119.9H10.3l16.1-32.3 17-34 33.1 66.3h-50zm67.9-34.6-17 34L44.3 53h66.2L94.4 85.3z"/><path class="st4" d="m99.8 18.6 11.1 22.1c.1.2.3.3.5.3s.4-.1.5-.3L123 18.6 132.2 0H131l-9.3 18.6-10.4 20.8L101 18.6 94.4 5.4 91.7 0h-1.1l3.8 7.7 5.4 10.9z"/><path class="st4" d="M110.9 16.4c.1.2.3.3.5.3s.4-.1.5-.3L118.5 3c.1-.2.1-.3 0-.5s-.3-.2-.4-.2h-13.4c-.2 0-.3.1-.4.2-.1.2-.1.3 0 .5l6.6 13.4zm6.3-13.1L111.3 15l-5.9-11.7h11.8zM111.4 64.1c-.2 0-.4.1-.5.3l-16.5 33-8.4 16.8c-.1.2-.1.3 0 .5s.3.2.4.2h49.3v-2.5l-24-48c0-.2-.1-.3-.3-.3zm-17 49.8h-7.1l7.1-14.2 17-33.9 24.1 48.1H94.4z"/><path class="st4" d="m110.9 76.5-15.8 31.6c-.1.2-.1.3 0 .5s.3.2.4.2h31.6c.2 0 .3-.1.4-.2.1-.2.1-.3 0-.5l-15.8-31.6c-.1-.2-.3-.3-.5-.3l-.3.3zm15.4 31.3H96.4l15-29.9 14.9 29.9z"/><path class="st4" d="m110.9 88.7-6.7 13.4c-.1.2-.1.3 0 .5s.3.2.4.2H118c.2 0 .3-.1.4-.2.1-.2.1-.3 0-.5l-6.7-13.4c-.1-.2-.3-.3-.5-.3 0 0-.2.1-.3.3zm6.3 13.1h-11.7l5.9-11.7 5.8 11.7zM127.2 132.1H95.6c-.2 0-.3.1-.4.2-.1.2-.1.3 0 .5l1.5 3h1.1l-1.4-2.7h29.9l-1.4 2.7h1.1l1.5-3c.1-.2.1-.3 0-.5 0-.1-.2-.2-.3-.2zM120 46.2c-.1.2-.1.3 0 .5s.3.2.4.2h15.4v-1h-14.6L135 18.6l.9-1.7v-2.3l-2 4L120 46.2z"/><path class="st4" d="M129.1 40.6c.1.2.3.2.4.2h6.3v-1h-5.5l5.5-10.9v-2.3l-6.7 13.5c-.1.2-.1.4 0 .5zM120 58.3c-.1.2-.1.3 0 .5l15.8 31.7v-2.3l-14.6-29.1h14.6v-1h-15.4c-.1 0-.3 0-.4.2z"/><path class="st4" d="M129.1 64.4c-.1.2-.1.3 0 .5l6.7 13.5V76l-5.5-10.9h5.5v-1h-6.3c-.1 0-.3.1-.4.3zM110.9 28.5c.1.2.3.3.5.3s.4-.1.5-.3l5-10L126.1 0H125l-9.3 18.6-4.3 8.6-4.3-8.6L97.8 0h-1.1l9.3 18.6 4.9 9.9zM31.9 18.6 43 40.7c.1.2.3.3.5.3s.4-.1.5-.3l11-22.1L64.2 0h-1.1l-9.3 18.6-10.4 20.7-10.3-20.7-6.6-13.2L23.8 0h-1.1l3.8 7.7 5.4 10.9z"/><path class="st4" d="M43 16.4c.1.2.3.3.5.3s.4-.1.5-.3L50.6 3c.1-.2.1-.3 0-.5s-.3-.2-.4-.2H36.8c-.2 0-.3.1-.4.2-.1.2-.1.3 0 .5L43 16.4zm6.3-13.1L43.4 15 37.6 3.3h11.7zM77.4 132c-.2 0-.4.1-.5.3l-1.8 3.6h1.1l1.1-2.2 1.1 2.2h1.1l-1.8-3.6c.1-.2-.1-.3-.3-.3zM86.5 126c-.2 0-.3.1-.4.2-.1.2-.1.3 0 .5l4.5 9.1h1.1l-4.4-8.8h48.1l-4.4 8.8h1.1l3.7-7.4V126H86.5zM43 64.4l-16.5 33-8.4 16.8c-.1.2-.1.3 0 .5s.3.2.4.2h49.8c.2 0 .3-.1.4-.2.1-.2.1-.3 0-.5L43.9 64.4c-.1-.2-.3-.3-.5-.3-.1 0-.3.1-.4.3zm24.5 49.5H19.4l7.1-14.2 17-33.9 24 48.1z"/><path class="st4" d="m43 76.5-15.8 31.6c-.1.2-.1.3 0 .5s.3.2.4.2h31.6c.2 0 .3-.1.4-.2.1-.2.1-.3 0-.5L43.9 76.5c-.1-.2-.3-.3-.5-.3-.1 0-.3.2-.4.3zm15.4 31.3H28.5l15-29.9 14.9 29.9z"/><path class="st4" d="M43 88.7 36.3 102c-.1.2-.1.3 0 .5s.3.2.4.2h13.4c.2 0 .3-.1.4-.2.1-.2.1-.3 0-.5l-6.7-13.4c-.1-.2-.3-.3-.5-.3 0 .1-.2.2-.3.4zm6.3 13.1H37.6L43.4 90l5.9 11.8zM68.3 126H18.6c-.2 0-.3.1-.4.2-.1.2-.1.3 0 .5l4.5 9.1h1.1l-4.4-8.8h48.1l-4.4 8.8h1.1l4.5-9.1c.1-.2.1-.3 0-.5 0-.1-.2-.2-.4-.2z"/><path class="st4" d="M59.2 132.1H27.7c-.2 0-.3.1-.4.2-.1.2-.1.3 0 .5l1.5 3h1.1l-1.4-2.7h29.9l-1.4 2.7h1.1l1.5-3c.1-.2.1-.3 0-.5 0-.1-.2-.2-.4-.2zM52.1 46.2c-.1.2-.1.3 0 .5s.3.2.4.2h49.8c.2 0 .3-.1.4-.2.1-.2.1-.3 0-.5l-8.4-16.8-5.4-10.9L79.7 0h-1.1l9.3 18.6 6.6 13.2 7.1 14.2H53.5l13.7-27.4L76.3 0h-1.1l-9.3 18.6-13.8 27.6z"/><path class="st4" d="M61.2 40.1c-.1.2-.1.3 0 .5s.3.2.4.2h31.6c.2 0 .3-.1.4-.2.1-.2.1-.3 0-.5L82.9 18.6l-5-10c-.1-.2-.3-.3-.5-.3s-.4.1-.5.3l-5 10-10.7 21.5zM77.4 9.9l4.3 8.6 10.7 21.3H62.5l10.7-21.3 4.2-8.6z"/><path class="st4" d="M70.3 34.6c.1.2.3.2.4.2h13.4c.2 0 .3-.1.4-.2.1-.2.1-.3 0-.5l-6.7-13.4c-.1-.2-.3-.3-.5-.3s-.4.1-.5.3l-6.7 13.4c.1.1.1.3.2.5zm7.1-12.5 5.9 11.7H71.6l5.8-11.7zM52.5 58.1c-.2 0-.3.1-.4.2-.1.2-.1.3 0 .5L77 108.6c.1.2.3.3.5.3s.4-.1.5-.3l16.5-33 8.4-16.8c.1-.2.1-.3 0-.5s-.3-.2-.4-.2h-50zm41.9 15.2-17 33.9-24-48.1h48.1l-7.1 14.2z"/><path class="st4" d="M93.2 64.1H61.6c-.2 0-.3.1-.4.2-.1.2-.1.3 0 .5L77 96.4c.1.2.3.3.5.3s.4-.1.5-.3l15.8-31.6c.1-.2.1-.3 0-.5-.2-.1-.4-.2-.6-.2zm-15.8 31-15-29.9h29.9L77.4 95.1z"/><path class="st4" d="M70.3 70.9 77 84.3c.1.2.3.3.5.3s.4-.1.5-.3l6.7-13.4c.1-.2.1-.3 0-.5s-.3-.2-.4-.2H70.7c-.2 0-.3.1-.4.2-.1.2-.1.4 0 .5zm13 .3-5.9 11.7-5.9-11.7h11.8zM34.4 46.9c.2 0 .3-.1.4-.2.1-.2.1-.3 0-.5l-8.4-16.8L21 18.6 11.7 0h-1.1l9.3 18.6 6.6 13.2L33.6 46H0v1h34.4zM43 28.5c.1.2.3.3.5.3s.4-.1.5-.3l5-10L58.2 0H57l-9.3 18.6-4.3 8.6-4.3-8.6L29.9 0h-1.1L38 18.6l5 9.9zM7.3 0 0 14.5v2.3L8.4 0zM2.3 0H1.2L0 2.4V4.8L2.4 0zM9.5 132c-.2 0-.4.1-.5.3l-1.8 3.6h1.1l1.1-2.2 1.1 2.2h1.1l-1.8-3.6c.1-.2-.1-.3-.3-.3zM.8 114.7c.1-.2.1-.3 0-.5l-.8-1.8v2.5h.4c.2 0 .4-.1.4-.2zM.4 126H0v2.5l.9-1.7c.1-.2.1-.3 0-.5s-.3-.3-.5-.3z"/><path class="st4" d="M25.7 40.6c.1-.2.1-.3 0-.5L15 18.6l-5-10c-.1-.2-.3-.3-.5-.3s-.4.1-.5.3l-5 10-4 8.1V29l5.2-10.4L9.5 10l4.3 8.6 10.7 21.3H0v1h25.3c.2 0 .3-.1.4-.3z"/><path class="st4" d="M16.2 34.8c.2 0 .3-.1.4-.2.1-.2.1-.3 0-.5L10 20.7c-.1-.2-.3-.3-.5-.3s-.4.1-.5.3L2.4 34.1c-.1.2-.1.3 0 .5s.3.2.4.2h13.4zM9.5 22.1l5.9 11.7H3.6l5.9-11.7zM9.5 108.8c.2 0 .4-.1.5-.3l16.5-33 8.4-16.8c.1-.2.1-.3 0-.5s-.3-.2-.4-.2H0v1h33.6l-7.1 14.2-17 33.9L0 88.2v2.3l9.1 18.1c0 .1.2.2.4.2z"/><path class="st4" d="M9.5 96.7c.2 0 .4-.1.5-.3l15.8-31.6c.1-.2.1-.3 0-.5s-.3-.2-.4-.2H0v1h24.5L9.5 95 0 76v2.3l9.1 18.1c0 .2.2.3.4.3z"/><path class="st4" d="M9.5 84.6c.2 0 .4-.1.5-.3l6.7-13.4c.1-.2.1-.3 0-.5s-.3-.2-.4-.2H2.8c-.2 0-.3.1-.4.2-.1.2-.1.3 0 .5l6.7 13.4c0 .2.2.3.4.3zm5.9-13.4L9.5 82.9 3.6 71.2h11.8z"/></g></svg>