<svg xmlns="http://www.w3.org/2000/svg" viewBox="0 0 135.8 135.8"><style>.st3{fill:#9f999b}</style><g style="opacity:.1"><path class="st3" d="M135.1 0h-1.3c1 1.1 1.6 2.6 1.6 4.1 0 1.6-.6 3.2-1.8 4.3-1.2 1.2-2.7 1.8-4.3 1.8-1.6 0-3.2-.6-4.3-1.8-1.2-1.2-1.8-2.7-1.8-4.3 0-1.6.6-3 1.6-4.1h-1.3c-.9 1.2-1.3 2.6-1.3 4.1 0 1.9.7 3.7 2.1 5 1.3 1.3 3.1 2.1 5 2.1s3.7-.7 5-2.1c.6-.6 1.1-1.4 1.5-2.1V1.3c-.2-.5-.4-.9-.7-1.3zM129.3 42.3c-1.9 0-3.7.7-5 2.1-1.3 1.3-2.1 3.1-2.1 5s.7 3.7 2.1 5c1.3 1.3 3.1 2.1 5 2.1s3.7-.7 5-2.1c.6-.6 1.1-1.4 1.5-2.1v-5.8c-.4-.8-.8-1.5-1.5-2.1-1.3-1.3-3.1-2.1-5-2.1zm4.4 11.4c-1.2 1.2-2.7 1.8-4.3 1.8-1.6 0-3.2-.6-4.3-1.8-1.2-1.2-1.8-2.7-1.8-4.3s.6-3.2 1.8-4.3c1.2-1.2 2.7-1.8 4.3-1.8 1.6 0 3.2.6 4.3 1.8 1.2 1.2 1.8 2.7 1.8 4.3-.1 1.7-.7 3.2-1.8 4.3z"/><path class="st3" d="M129.3 21.9c-.5-2.3-1.3-4.5-2.5-6.5-2.1-3.6-5.1-6.7-8.7-8.7-.2-.8-.3-1.7-.3-2.5 0-1.4.3-2.8.8-4.1h-1.1c-.5 1.3-.7 2.7-.7 4.1 0 .6.1 1.3.1 1.9-1.4-.7-2.9-1.3-4.5-1.7v-.2c0-1.4.2-2.8.5-4.1h-1c-.3 1.3-.5 2.7-.5 4.1-1.4-.3-2.9-.5-4.3-.5 0-1.2.1-2.5.4-3.7H105.9c.2 1.2.3 2.4.4 3.7-1.5 0-2.9.2-4.3.5 0-1.4-.2-2.8-.5-4.1h-1c.3 1.3.5 2.7.5 4.1v.2c-1.6.4-3.1 1-4.5 1.7.1-.6.1-1.3.1-1.9 0-1.4-.2-2.8-.7-4.1h-1.1c.5 1.3.8 2.7.8 4.1 0 .9-.1 1.7-.3 2.5-3.6 2.1-6.6 5.1-8.7 8.7-1.1 2-2 4.2-2.5 6.5-.5-2.3-1.3-4.5-2.5-6.5-2.1-3.6-5.1-6.7-8.7-8.7-.2-.8-.3-1.7-.3-2.5 0-1.4.3-2.8.8-4.1h-1.1c-.5 1.3-.7 2.7-.7 4.1 0 .6.1 1.3.1 1.9-1.4-.7-2.9-1.3-4.5-1.7v-.2c0-1.4.2-2.8.5-4.1h-1c-.3 1.3-.5 2.7-.5 4.1-1.4-.3-2.9-.5-4.3-.5 0-1.2.1-2.5.4-3.7H60.7c.2 1.2.3 2.4.4 3.7-1.5 0-2.9.2-4.3.5 0-1.4-.2-2.8-.5-4.1h-1c.3 1.3.5 2.7.5 4.1v.2c-1.6.4-3.1 1-4.5 1.7.1-.6.1-1.3.1-1.9 0-1.4-.2-2.8-.7-4.1h-1.1c.5 1.3.8 2.7.8 4.1 0 .9-.1 1.7-.3 2.5-3.6 2.1-6.6 5.1-8.7 8.7-1.1 2-2 4.2-2.5 6.5-.5-2.3-1.3-4.5-2.5-6.5-2.1-3.6-5.1-6.7-8.7-8.7-.2-.8-.3-1.7-.3-2.5 0-1.4.3-2.8.8-4.1H27c-.5 1.3-.7 2.7-.7 4.1 0 .6.1 1.3.1 1.9-1.4-.7-2.9-1.3-4.5-1.7v-.2c0-1.4.2-2.8.5-4.1h-1c-.3 1.2-.4 2.6-.4 4-1.4-.3-2.9-.5-4.3-.5 0-1.2.1-2.5.4-3.7H15.3c.2 1.2.3 2.4.4 3.7-1.5 0-2.9.2-4.3.5 0-1.4-.2-2.8-.5-4.1h-1c.3 1.3.5 2.7.5 4.1v.2c-1.6.4-3.1 1-4.5 1.7 0-.6.1-1.2.1-1.9 0-1.4-.3-2.8-.8-4.1h-1c.5 1.3.8 2.7.8 4.1 0 .9-.1 1.7-.3 2.5C3 7.7 1.4 8.8 0 10.2v1.4c4-4.3 9.8-7 16.1-7 8.1 0 15.1 4.3 19 10.8 1.9 3.2 3 6.9 3.1 10.9-1.5 0-2.9.2-4.3.5 0-4.2-1.4-8.2-4.1-11.4-.4-.4-.7-.8-1.1-1.2C25.4 10.8 20.9 9 16.1 9s-9.2 1.9-12.6 5.2c-.4.4-.8.8-1.1 1.2-1 1.2-1.8 2.5-2.4 3.8V22c.7-2.5 2-4.8 3.8-6.7l.5-.5c3.2-3.2 7.4-4.9 11.9-4.9s8.7 1.7 11.9 4.9l.5.5c2.9 3.1 4.4 7.1 4.4 11.4v.2c-1.6.4-3.1 1-4.5 1.7.1-.6.1-1.3.1-1.9 0-3.3-1.3-6.5-3.6-8.8-1.1-1.1-2.3-1.9-3.7-2.6-1.6-.7-3.3-1.1-5.1-1.1-1.8 0-3.5.4-5.1 1.1-1.4.7-2.7 1.6-3.8 2.7-2.4 2.4-3.6 5.5-3.6 8.8 0 .6.1 1.3.1 1.9-1.2-.6-2.5-1.1-3.8-1.5v1c8.9 2.8 15.5 11 15.6 20.7-1.5 0-2.9.2-4.3.5 0-4.8-1.9-9.2-5.2-12.6-1.8-1.8-3.8-3.1-6.1-4v1.1c2 .8 3.8 2.1 5.4 3.6 3.2 3.2 4.9 7.4 4.9 11.9v.2c-1.6.4-3.1 1-4.5 1.7.1-.6.2-1.2.2-1.9 0-3.3-1.3-6.5-3.6-8.8-.7-.7-1.5-1.3-2.3-1.8V40c.6.4 1.1.8 1.6 1.3 2.2 2.2 3.4 5 3.4 8.1 0 .9-.1 1.7-.3 2.5-1.7 1-3.3 2.2-4.7 3.5v1.4c4-4.3 9.8-7 16.1-7 8.1 0 15.1 4.3 19 10.8 1.9 3.2 3 6.9 3.1 10.9-1.5 0-2.9.2-4.3.5 0-4.2-1.4-8.2-4.1-11.4-.4-.4-.7-.8-1.1-1.2-3.4-3.4-7.8-5.2-12.6-5.2S7 56.1 3.6 59.4c-.4.4-.8.8-1.1 1.2-1 1.2-1.8 2.5-2.4 3.8v2.8c.7-2.5 2-4.8 3.8-6.7l.5-.5c3.2-3.2 7.4-4.9 11.9-4.9S25 56.8 28.2 60l.5.5c2.9 3.1 4.4 7.1 4.4 11.4v.2c-1.6.4-3.1 1-4.5 1.7.1-.6.1-1.3.1-1.9 0-3.3-1.3-6.5-3.6-8.8-1.1-1.1-2.3-1.9-3.7-2.6-1.6-.7-3.3-1.1-5.1-1.1-1.8 0-3.5.4-5.1 1.1-1.4.6-2.6 1.5-3.7 2.6-2.4 2.4-3.6 5.5-3.6 8.8 0 .6.1 1.3.1 1.9-1.2-.6-2.5-1.1-3.8-1.5v1C9.1 76 15.7 84.2 15.8 94c-1.5 0-2.9.2-4.3.5 0-4.8-1.9-9.2-5.2-12.6-1.8-1.8-3.8-3.1-6.1-4V79c2 .8 3.8 2.1 5.4 3.6 3.2 3.2 4.9 7.4 4.9 11.9v.2c-1.6.4-3.1 1-4.5 1.7-.1-.4 0-1 0-1.7 0-3.3-1.3-6.5-3.6-8.8-.7-.7-1.5-1.3-2.3-1.8v1.2c.6.4 1.1.8 1.6 1.3 2.2 2.2 3.4 5 3.4 8.1 0 .9-.1 1.7-.3 2.5-1.7 1-3.3 2.2-4.7 3.5v1.4c4-4.3 9.8-7 16.1-7 8.1 0 15.1 4.3 19 10.8 1.9 3.2 3 6.9 3.1 10.9-1.5 0-2.9.2-4.3.5 0-4.2-1.4-8.2-4.1-11.4-.4-.4-.7-.8-1.1-1.2-3.4-3.4-7.8-5.2-12.6-5.2s-9.2 1.9-12.6 5.2c-.4.4-.8.8-1.1 1.2-1 1.2-1.8 2.5-2.4 3.8v2.8c.7-2.5 2-4.8 3.8-6.7l.5-.5c3.2-3.2 7.4-4.9 11.9-4.9s8.7 1.7 11.9 4.9l.5.5c2.9 3.1 4.4 7.1 4.4 11.4v.2c-1.6.4-3.1 1-4.5 1.7.1-.6.1-1.3.1-1.9 0-3.3-1.3-6.5-3.6-8.8-1.1-1.1-2.3-1.9-3.7-2.6-1.6-.7-3.3-1.1-5.1-1.1-1.8 0-3.5.4-5.1 1.1-1.4.6-2.6 1.5-3.7 2.6-2.4 2.4-3.6 5.5-3.6 8.8 0 .6.1 1.3.1 1.9-1.2-.6-2.5-1.1-3.8-1.5v1c7.8 2.4 13.7 8.9 15.3 17H17c1.9-10.2 10.9-18 21.8-18 10.8 0 19.8 7.8 21.8 18H62.2c1.9-10.2 10.9-18 21.8-18 10.8 0 19.8 7.8 21.8 18H107.4c1.9-10.2 10.9-18 21.8-18 2.3 0 4.4.3 6.5 1v-1c-.2-.1-.4-.1-.7-.2v-.2c0-1.6.2-3.2.7-4.7v-2.8c-1.1 2.3-1.7 4.9-1.7 7.5-1.4-.3-2.9-.5-4.3-.5.1-4 1.2-7.7 3.1-10.9.8-1.4 1.8-2.6 2.9-3.8v-1.4c-1.6 1.5-2.9 3.3-4 5.2-1.1 2-2 4.2-2.5 6.5-.5-2.3-1.3-4.5-2.5-6.5-2.1-3.6-5.1-6.7-8.7-8.7-.2-.8-.3-1.7-.3-2.5 0-3.1 1.2-5.9 3.4-8.1 2.2-2.2 5-3.4 8.1-3.4 2.4 0 4.6.7 6.5 2v-1.2c-1.9-1.2-4.2-1.8-6.5-1.8-3.3 0-6.5 1.3-8.8 3.6-2.4 2.4-3.6 5.5-3.6 8.8 0 .6.1 1.3.1 1.9-1.4-.7-2.9-1.3-4.5-1.7v-.2c0-4.5 1.7-8.7 4.9-11.9 3.2-3.2 7.4-4.9 11.9-4.9 2.3 0 4.5.4 6.5 1.3v-1.1c-2-.8-4.2-1.2-6.5-1.2-4.8 0-9.2 1.9-12.6 5.2-3.4 3.4-5.2 7.8-5.2 12.6-1.4-.3-2.9-.5-4.3-.5.2-12 10.1-21.6 22.1-21.6 2.3 0 4.4.3 6.5 1v-1c-.2-.1-.4-.1-.7-.2V72c0-1.6.2-3.2.7-4.7v-2.8c-1.1 2.3-1.7 4.9-1.7 7.5-1.4-.3-2.9-.5-4.3-.5.1-4 1.2-7.7 3.1-10.9.8-1.4 1.8-2.6 2.9-3.8v-1.4c-1.6 1.5-2.9 3.3-4 5.2-1.1 2-2 4.2-2.5 6.5-.5-2.3-1.3-4.5-2.5-6.5-2.1-3.6-5.1-6.7-8.7-8.7-.2-.8-.3-1.7-.3-2.5 0-3.1 1.2-5.9 3.4-8.1 2.2-2.2 5-3.4 8.1-3.4 2.4 0 4.6.7 6.5 2v-1.2c-1.9-1.2-4.2-1.8-6.5-1.8-3.3 0-6.5 1.3-8.8 3.6-2.4 2.4-3.6 5.5-3.6 8.8 0 .6.1 1.3.1 1.9-1.4-.7-2.9-1.3-4.5-1.7v-.2c0-4.5 1.7-8.7 4.9-11.9 3.2-3.2 7.4-4.9 11.9-4.9 2.3 0 4.5.4 6.5 1.3v-1.1c-2-.8-4.2-1.2-6.5-1.2-4.8 0-9.2 1.9-12.6 5.2-3.4 3.4-5.2 7.8-5.2 12.6-1.4-.3-2.9-.5-4.3-.5.2-12 10.1-21.6 22.1-21.6 2.3 0 4.4.3 6.5 1v-1c-.2-.1-.4-.1-.7-.2v-.2c0-1.6.2-3.2.7-4.7v-2.8c-1.1 2.3-1.7 4.9-1.7 7.5-1.4-.3-2.9-.5-4.3-.5.1-4 1.2-7.7 3.1-10.9.8-1.4 1.8-2.6 2.9-3.8v-1.4c-1.6 1.5-2.9 3.3-4 5.2-1 2-1.9 4.2-2.4 6.5zM16.1 135.1c-1.4-6.5-5.5-12-11.2-15.3-.2-.8-.3-1.7-.3-2.5 0-3.1 1.2-5.9 3.4-8.1 1.8-1.8 4.2-3 6.7-3.3.5-.1.9-.1 1.4-.1.5 0 .9 0 1.4.1 2.5.3 4.9 1.4 6.7 3.3 2.2 2.2 3.4 5 3.4 8.1 0 .9-.1 1.7-.3 2.5-5.6 3.3-9.8 8.8-11.2 15.3zm90.1-86.2c-1.5 0-2.9.2-4.3.5 0-4.8-1.9-9.2-5.2-12.6-3.4-3.4-7.8-5.2-12.6-5.2s-9.2 1.9-12.6 5.2c-3.4 3.4-5.2 7.8-5.2 12.6-1.4-.3-2.9-.5-4.3-.5.1-11.9 10-21.6 22.1-21.6S106 37 106.2 48.9zm0 45.3c-1.5 0-2.9.2-4.3.5 0-4.8-1.9-9.2-5.2-12.6-3.4-3.4-7.8-5.2-12.6-5.2s-9.2 1.9-12.6 5.2c-3.4 3.4-5.2 7.8-5.2 12.6-1.4-.3-2.9-.5-4.3-.5.2-12 10.1-21.6 22.1-21.6s21.9 9.6 22.1 21.6zm-22.1 18.3c-.5-2.3-1.3-4.5-2.5-6.5-2.1-3.6-5.1-6.7-8.7-8.7-.2-.8-.3-1.7-.3-2.5 0-3.1 1.2-5.9 3.4-8.1 2.2-2.2 5-3.4 8.1-3.4 3.1 0 5.9 1.2 8.1 3.4 2.2 2.2 3.4 5 3.4 8.1 0 .9-.1 1.7-.3 2.5-3.6 2.1-6.6 5.1-8.7 8.7-1.2 2-2.1 4.2-2.5 6.5zm8.8-26.6c-2.4-2.4-5.5-3.6-8.8-3.6-3.3 0-6.5 1.3-8.8 3.6-2.4 2.4-3.6 5.5-3.6 8.8 0 .6.1 1.3.1 1.9-1.4-.7-2.9-1.3-4.5-1.7v-.2c0-4.5 1.7-8.7 4.9-11.9 3.2-3.2 7.4-4.9 11.9-4.9s8.7 1.7 11.9 4.9c3.2 3.2 4.9 7.4 4.9 11.9v.2c-1.6.4-3.1 1-4.5 1.7.1-.6.1-1.3.1-1.9 0-3.3-1.3-6.4-3.6-8.8zm-31.5-36c8.1 0 15.1 4.3 19 10.8 1.9 3.2 3 6.9 3.1 10.9-1.5 0-2.9.2-4.3.5 0-4.2-1.4-8.2-4.1-11.4-.4-.4-.7-.8-1.1-1.2-3.4-3.4-7.8-5.2-12.6-5.2s-9.2 1.9-12.6 5.2c-.4.4-.8.8-1.1 1.2-2.7 3.2-4.1 7.2-4.1 11.4-1.4-.3-2.9-.5-4.3-.5.1-4 1.2-7.7 3.1-10.9 3.9-6.4 10.9-10.8 19-10.8zM44.6 27v-.2c0-4.2 1.6-8.3 4.4-11.4l.5-.5c3.2-3.2 7.4-4.9 11.9-4.9s8.7 1.7 11.9 4.9l.5.5c2.9 3.1 4.4 7.1 4.4 11.4v.2c-1.6.4-3.1 1-4.5 1.7.1-.6.1-1.3.1-1.9 0-3.3-1.3-6.5-3.6-8.8-1.1-1.1-2.3-1.9-3.7-2.6-1.6-.7-3.3-1.1-5.1-1.1-1.8 0-3.5.4-5.1 1.1-1.3.6-2.6 1.5-3.7 2.6-2.4 2.4-3.6 5.5-3.6 8.8 0 .6.1 1.3.1 1.9-1.4-.7-2.9-1.3-4.5-1.7zm5.6 2.3c-.2-.8-.3-1.7-.3-2.5 0-3.1 1.2-5.9 3.4-8.1 1.8-1.8 4.2-3 6.7-3.3.5-.1.9-.1 1.4-.1.5 0 .9 0 1.4.1 2.5.3 4.9 1.4 6.7 3.3 2.2 2.2 3.4 5 3.4 8.1 0 .9-.1 1.7-.3 2.5-5.6 3.2-9.8 8.7-11.2 15.2-1.4-6.4-5.5-12-11.2-15.2zm-5.6 43v-.2c0-4.2 1.6-8.3 4.4-11.4l.5-.5c3.2-3.2 7.4-4.9 11.9-4.9s8.7 1.7 11.9 4.9l.5.5c2.9 3.1 4.4 7.1 4.4 11.4v.2c-1.6.4-3.1 1-4.5 1.7.1-.6.1-1.3.1-1.9 0-3.3-1.3-6.5-3.6-8.8-1.1-1.1-2.3-1.9-3.7-2.6-1.6-.7-3.3-1.1-5.1-1.1-1.8 0-3.5.4-5.1 1.1-1.4.6-2.6 1.5-3.7 2.6-2.4 2.4-3.6 5.5-3.6 8.8 0 .6.1 1.3.1 1.9-1.4-.7-2.9-1.3-4.5-1.7zm5.6 2.3c-.2-.8-.3-1.7-.3-2.5 0-3.1 1.2-5.9 3.4-8.1 1.8-1.8 4.2-3 6.7-3.3.5-.1.9-.1 1.4-.1.5 0 .9 0 1.4.1 2.5.3 4.9 1.4 6.7 3.3 2.2 2.2 3.4 5 3.4 8.1 0 .9-.1 1.7-.3 2.5-5.6 3.2-9.8 8.7-11.2 15.2-1.4-6.5-5.5-12-11.2-15.2zm33.9-7.4c-.5-2.3-1.3-4.5-2.5-6.5-2.1-3.6-5.1-6.7-8.7-8.7-.2-.8-.3-1.7-.3-2.5 0-3.1 1.2-5.9 3.4-8.1 2.2-2.2 5-3.4 8.1-3.4 3.1 0 5.9 1.2 8.1 3.4 2.2 2.2 3.4 5 3.4 8.1 0 .9-.1 1.7-.3 2.5-3.6 2.1-6.6 5.1-8.7 8.7-1.2 2-2.1 4.2-2.5 6.5zm8.8-26.6c-2.4-2.4-5.5-3.6-8.8-3.6-3.3 0-6.5 1.3-8.8 3.6-2.4 2.4-3.6 5.5-3.6 8.8 0 .6.1 1.3.1 1.9-1.4-.7-2.9-1.3-4.5-1.7v-.2c0-4.5 1.7-8.7 4.9-11.9 3.2-3.2 7.4-4.9 11.9-4.9s8.7 1.7 11.9 4.9c3.2 3.2 4.9 7.4 4.9 11.9v.2c-1.6.4-3.1 1-4.5 1.7.1-.6.1-1.3.1-1.9 0-3.3-1.3-6.4-3.6-8.8zM42.4 15.4C46.3 9 53.3 4.6 61.4 4.6s15.1 4.3 19 10.8c1.9 3.2 3 6.9 3.1 10.9-1.5 0-2.9.2-4.3.5 0-4.2-1.4-8.2-4.1-11.4-.4-.4-.7-.8-1.1-1.2C70.6 10.8 66.2 9 61.4 9s-9.2 1.9-12.6 5.2c-.4.4-.8.8-1.1 1.2-2.7 3.2-4.1 7.2-4.1 11.4-1.4-.3-2.9-.5-4.3-.5.1-4 1.2-7.7 3.1-10.9zM5 29.3c-.2-.8-.3-1.7-.3-2.5 0-3.1 1.2-5.9 3.4-8.1 1.8-1.8 4.2-3 6.7-3.3.5-.1.9-.1 1.4-.1.5 0 .9 0 1.4.1 2.5.3 4.9 1.4 6.7 3.3 2.2 2.2 3.4 5 3.4 8.1 0 .9-.1 1.7-.3 2.5-5.6 3.2-9.8 8.7-11.2 15.2-1.4-6.4-5.6-12-11.2-15.2zm11.6 19.6c.2-12 10.1-21.6 22.1-21.6 12.1 0 21.9 9.7 22.1 21.6-1.5 0-2.9.2-4.3.5 0-4.8-1.9-9.2-5.2-12.6-3.4-3.4-7.8-5.2-12.6-5.2s-9.2 1.9-12.6 5.2c-3.4 3.4-5.2 7.8-5.2 12.6-1.3-.3-2.8-.4-4.3-.5zm5.4.8v-.2c0-4.5 1.7-8.7 4.9-11.9 3.2-3.2 7.4-4.9 11.9-4.9s8.7 1.7 11.9 4.9c3.2 3.2 4.9 7.4 4.9 11.9v.2c-1.6.4-3.1 1-4.5 1.7.1-.6.1-1.3.1-1.9 0-3.3-1.3-6.5-3.6-8.8-2.4-2.4-5.5-3.6-8.8-3.6-3.3 0-6.5 1.3-8.8 3.6-2.4 2.4-3.6 5.5-3.6 8.8 0 .6.1 1.3.1 1.9-1.4-.7-2.9-1.3-4.5-1.7zm14.3 11c-2.1-3.6-5.1-6.7-8.7-8.7-.2-.8-.3-1.7-.3-2.5 0-3.1 1.2-5.9 3.4-8.1 2.2-2.2 5-3.4 8.1-3.4 3.1 0 5.9 1.2 8.1 3.4 2.2 2.2 3.4 5 3.4 8.1 0 .9-.1 1.7-.3 2.5-3.6 2.1-6.6 5.1-8.7 8.7-1.1 2-2 4.2-2.5 6.5-.5-2.3-1.4-4.5-2.5-6.5zM5 74.6c-.2-.8-.3-1.7-.3-2.5 0-3.1 1.2-6 3.3-8.1 1.8-1.8 4.2-3 6.7-3.3.5-.1.9-.1 1.4-.1.5 0 .9 0 1.4.1 2.5.3 4.9 1.4 6.7 3.3 2.2 2.2 3.4 5 3.4 8.1 0 .9-.1 1.7-.3 2.5-5.6 3.2-9.8 8.7-11.2 15.2-1.3-6.5-5.5-12-11.1-15.2zm11.6 19.6c.2-12 10.1-21.6 22.1-21.6 12.1 0 21.9 9.7 22.1 21.6-1.5 0-2.9.2-4.3.5 0-4.8-1.9-9.2-5.2-12.6-3.4-3.4-7.8-5.2-12.6-5.2s-9.2 1.9-12.6 5.2C22.8 85.5 21 90 21 94.7c-1.4-.3-2.9-.5-4.4-.5zm5.4.8v-.2c0-4.5 1.7-8.7 4.9-11.9 3.2-3.2 7.4-4.9 11.9-4.9s8.7 1.7 11.9 4.9c3.2 3.2 4.9 7.4 4.9 11.9v.2c-1.6.4-3.1 1-4.5 1.7.1-.6.1-1.3.1-1.9 0-3.3-1.3-6.5-3.6-8.8-2.4-2.4-5.5-3.6-8.8-3.6-3.3 0-6.5 1.3-8.8 3.6-2.4 2.4-3.6 5.5-3.6 8.8 0 .6.1 1.3.1 1.9-1.4-.8-2.9-1.3-4.5-1.7zm14.3 11c-2.1-3.6-5.1-6.7-8.7-8.7-.2-.8-.3-1.7-.3-2.5 0-3.1 1.2-5.9 3.4-8.1 2.2-2.2 5-3.4 8.1-3.4 3.1 0 5.9 1.2 8.1 3.4 2.2 2.2 3.4 5 3.4 8.1 0 .9-.1 1.7-.3 2.5-3.6 2.1-6.6 5.1-8.7 8.7-1.1 2-2 4.2-2.5 6.5-.5-2.3-1.4-4.5-2.5-6.5zm25.1 29.1c-1.4-6.5-5.5-12-11.2-15.3-.2-.8-.3-1.7-.3-2.5 0-3.1 1.2-5.9 3.4-8.1 1.8-1.8 4.2-3 6.7-3.3.5-.1.9-.1 1.4-.1.5 0 .9 0 1.4.1 2.5.3 4.9 1.4 6.7 3.3 2.2 2.2 3.4 5 3.4 8.1 0 .9-.1 1.7-.3 2.5-5.6 3.3-9.8 8.8-11.2 15.3zm8.8-26.6c-1.1-1.1-2.3-1.9-3.7-2.6-1.6-.7-3.3-1.1-5.1-1.1-1.8 0-3.5.4-5.1 1.1-1.4.6-2.6 1.5-3.7 2.6-2.4 2.4-3.6 5.5-3.6 8.8 0 .6.1 1.3.1 1.9-1.4-.7-2.9-1.3-4.5-1.7v-.2c0-4.2 1.6-8.3 4.4-11.4l.5-.5c3.2-3.2 7.4-4.9 11.9-4.9s8.7 1.7 11.9 4.9l.5.5c2.9 3.1 4.4 7.1 4.4 11.4v.2c-1.6.4-3.1 1-4.5 1.7.1-.6.1-1.3.1-1.9.1-3.3-1.2-6.4-3.6-8.8zm9 8.9c0-4.2-1.4-8.2-4.1-11.4-.4-.4-.7-.8-1.1-1.2-3.4-3.4-7.8-5.2-12.6-5.2s-9.2 1.9-12.6 5.2c-.4.4-.8.8-1.1 1.2-2.7 3.2-4.1 7.2-4.1 11.4-1.4-.3-2.9-.5-4.3-.5.1-4 1.2-7.7 3.1-10.9 3.9-6.4 10.9-10.8 19-10.8s15.1 4.3 19 10.8c1.9 3.2 3 6.9 3.1 10.9-1.4 0-2.9.2-4.3.5zm27.5 17.7c-1.4-6.5-5.5-12-11.2-15.3-.2-.8-.3-1.7-.3-2.5 0-3.1 1.2-5.9 3.4-8.1 1.8-1.8 4.2-3 6.7-3.3.5-.1.9-.1 1.4-.1.5 0 .9 0 1.4.1 2.5.3 4.9 1.4 6.7 3.3 2.2 2.2 3.4 5 3.4 8.1 0 .9-.1 1.7-.3 2.5-5.7 3.3-9.8 8.8-11.2 15.3zm8.8-26.6c-1.1-1.1-2.3-1.9-3.7-2.6-1.6-.7-3.3-1.1-5.1-1.1-1.8 0-3.5.4-5.1 1.1-1.4.6-2.6 1.5-3.7 2.6-2.4 2.4-3.6 5.5-3.6 8.8 0 .6.1 1.3.1 1.9-1.4-.7-2.9-1.3-4.5-1.7v-.2c0-4.2 1.6-8.3 4.4-11.4l.5-.5c3.2-3.2 7.4-4.9 11.9-4.9s8.7 1.7 11.9 4.9l.5.5c2.9 3.1 4.4 7.1 4.4 11.4v.2c-1.6.4-3.1 1-4.5 1.7.1-.6.1-1.3.1-1.9.1-3.3-1.2-6.4-3.6-8.8zm10.2-2.5c1.9 3.2 3 6.9 3.1 10.9-1.5 0-2.9.2-4.3.5 0-4.2-1.4-8.2-4.1-11.4-.4-.4-.7-.8-1.1-1.2-3.4-3.4-7.8-5.2-12.6-5.2s-9.2 1.9-12.6 5.2c-.4.4-.8.8-1.1 1.2-2.7 3.2-4.1 7.2-4.1 11.4-1.4-.3-2.9-.5-4.3-.5.1-4 1.2-7.7 3.1-10.9 3.9-6.4 10.9-10.8 19-10.8s15.1 4.3 19 10.8zm-19-16.1c-1.4-6.5-5.5-12-11.2-15.3-.2-.8-.3-1.7-.3-2.5 0-3.1 1.2-5.9 3.4-8.1 1.8-1.8 4.2-3 6.7-3.3.5-.1.9-.1 1.4-.1.5 0 .9 0 1.4.1 2.5.3 4.9 1.4 6.7 3.3 2.2 2.2 3.4 5 3.4 8.1 0 .9-.1 1.7-.3 2.5-5.7 3.2-9.8 8.7-11.2 15.3zm8.8-26.6c-1.1-1.1-2.3-1.9-3.7-2.6-1.6-.7-3.3-1.1-5.1-1.1-1.8 0-3.5.4-5.1 1.1-1.4.6-2.6 1.5-3.7 2.6-2.4 2.4-3.6 5.5-3.6 8.8 0 .6.1 1.3.1 1.9-1.4-.7-2.9-1.3-4.5-1.7v-.2c0-4.2 1.6-8.3 4.4-11.4l.5-.5c3.2-3.2 7.4-4.9 11.9-4.9s8.7 1.7 11.9 4.9l.5.5c2.9 3.1 4.4 7.1 4.4 11.4v.2c-1.6.4-3.1 1-4.5 1.7.1-.6.1-1.3.1-1.9.1-3.4-1.2-6.5-3.6-8.8zm10.2-2.6c1.9 3.2 3 6.9 3.1 10.9-1.5 0-2.9.2-4.3.5 0-4.2-1.4-8.2-4.1-11.4-.4-.4-.7-.8-1.1-1.2-3.4-3.4-7.8-5.2-12.6-5.2s-9.2 1.9-12.6 5.2c-.4.4-.8.8-1.1 1.2-2.7 3.2-4.1 7.2-4.1 11.4-1.4-.3-2.9-.5-4.3-.5.1-4 1.2-7.7 3.1-10.9 3.9-6.4 10.9-10.8 19-10.8s15.1 4.4 19 10.8zm-19-16.1c-1.4-6.5-5.5-12-11.2-15.3-.2-.8-.3-1.7-.3-2.5 0-3.1 1.2-5.9 3.4-8.1 1.8-1.8 4.2-3 6.7-3.3.5-.1.9-.1 1.4-.1.5 0 .9 0 1.4.1 2.5.3 4.9 1.4 6.7 3.3 2.2 2.2 3.4 5 3.4 8.1 0 .9-.1 1.7-.3 2.5-5.7 3.2-9.8 8.8-11.2 15.3zm8.8-26.6c-1.1-1.1-2.3-1.9-3.7-2.6-1.6-.7-3.3-1.1-5.1-1.1-1.8 0-3.5.4-5.1 1.1-1.4.6-2.6 1.5-3.7 2.6-2.4 2.4-3.6 5.5-3.6 8.8 0 .6.1 1.3.1 1.9-1.4-.7-2.9-1.3-4.5-1.7v-.2c0-4.2 1.6-8.3 4.4-11.4l.5-.5c3.2-3.2 7.4-4.9 11.9-4.9s8.7 1.7 11.9 4.9l.5.5c2.9 3.1 4.4 7.1 4.4 11.4v.2c-1.6.4-3.1 1-4.5 1.7.1-.6.1-1.3.1-1.9.1-3.3-1.2-6.5-3.6-8.8zm9 8.8c0-4.2-1.4-8.2-4.1-11.4-.4-.4-.7-.8-1.1-1.2-3.4-3.4-7.8-5.2-12.6-5.2s-9.2 1.9-12.6 5.2c-.4.4-.8.8-1.1 1.2-2.7 3.2-4.1 7.2-4.1 11.4-1.4-.3-2.9-.5-4.3-.5.1-4 1.2-7.7 3.1-10.9 3.9-6.4 10.9-10.8 19-10.8s15.1 4.3 19 10.8c1.9 3.2 3 6.9 3.1 10.9-1.5 0-2.9.2-4.3.5z"/><path class="st3" d="M106.7 19.7c-1.9 0-3.7.7-5 2.1-1.3 1.3-2.1 3.1-2.1 5s.7 3.7 2.1 5c1.3 1.3 3.1 2.1 5 2.1s3.7-.7 5-2.1c1.3-1.3 2.1-3.1 2.1-5s-.7-3.7-2.1-5c-1.3-1.4-3.1-2.1-5-2.1zm4.3 11.4c-1.2 1.2-2.7 1.8-4.3 1.8-1.6 0-3.2-.6-4.3-1.8-1.2-1.2-1.8-2.7-1.8-4.3 0-1.6.6-3.2 1.8-4.3 1.2-1.2 2.7-1.8 4.3-1.8 1.6 0 3.2.6 4.3 1.8 1.2 1.2 1.8 2.7 1.8 4.3 0 1.6-.6 3.2-1.8 4.3zM129.3 87.6c-1.9 0-3.7.7-5 2.1-1.3 1.3-2.1 3.1-2.1 5s.7 3.7 2.1 5c1.3 1.3 3.1 2.1 5 2.1s3.7-.7 5-2.1c.6-.6 1.1-1.4 1.5-2.1v-5.8c-.4-.8-.8-1.5-1.5-2.1-1.3-1.4-3.1-2.1-5-2.1zm4.4 11.4c-1.2 1.2-2.7 1.8-4.3 1.8-1.6 0-3.2-.6-4.3-1.8-1.2-1.2-1.8-2.7-1.8-4.3 0-1.6.6-3.2 1.8-4.3 1.2-1.2 2.7-1.8 4.3-1.8 1.6 0 3.2.6 4.3 1.8 1.2 1.2 1.8 2.7 1.8 4.3-.1 1.6-.7 3.2-1.8 4.3zM106.7 65c-1.9 0-3.7.7-5 2.1-1.3 1.3-2.1 3.1-2.1 5s.7 3.7 2.1 5 3.1 2.1 5 2.1 3.7-.7 5-2.1c1.3-1.3 2.1-3.1 2.1-5s-.7-3.7-2.1-5c-1.3-1.4-3.1-2.1-5-2.1zm4.3 11.4c-1.2 1.2-2.7 1.8-4.3 1.8-1.6 0-3.2-.6-4.3-1.8-1.2-1.2-1.8-2.7-1.8-4.3 0-1.6.6-3.2 1.8-4.3 1.2-1.2 2.7-1.8 4.3-1.8 1.6 0 3.2.6 4.3 1.8 1.2 1.2 1.8 2.7 1.8 4.3 0 1.6-.6 3.1-1.8 4.3zM116.8 127.4c-2.4 2.4-4 5.3-4.7 8.4h1c.7-2.9 2.2-5.6 4.4-7.7 3.2-3.2 7.4-4.9 11.9-4.9 2.3 0 4.5.4 6.5 1.3v-1.1c-2-.8-4.2-1.2-6.5-1.2-4.8 0-9.3 1.8-12.6 5.2z"/><path class="st3" d="M120.5 131.2c-1.3 1.3-2.3 2.9-2.9 4.7h1.1c.6-1.5 1.4-2.8 2.6-4 2.2-2.2 5-3.4 8.1-3.4 2.4 0 4.6.7 6.5 2v-1.2c-1.9-1.2-4.2-1.8-6.5-1.8-3.4 0-6.5 1.3-8.9 3.7z"/><path class="st3" d="M129.3 132.9c-1.9 0-3.7.7-5 2.1-.3.3-.5.6-.7.9h1.3l.2-.2c1.2-1.2 2.7-1.8 4.3-1.8 1.6 0 3.2.6 4.3 1.8l.2.2h1.3c-.2-.3-.5-.6-.7-.9-1.5-1.4-3.3-2.1-5.2-2.1zM106.7 110.2c-1.9 0-3.7.7-5 2.1-1.3 1.3-2.1 3.1-2.1 5s.7 3.7 2.1 5c1.3 1.3 3.1 2.1 5 2.1s3.7-.7 5-2.1c1.3-1.3 2.1-3.1 2.1-5s-.7-3.7-2.1-5c-1.3-1.3-3.1-2.1-5-2.1zm4.3 11.5c-1.2 1.2-2.7 1.8-4.3 1.8-1.6 0-3.2-.6-4.3-1.8-1.2-1.2-1.8-2.7-1.8-4.3 0-1.6.6-3.2 1.8-4.3 1.2-1.2 2.7-1.8 4.3-1.8 1.6 0 3.2.6 4.3 1.8 1.2 1.2 1.8 2.7 1.8 4.3 0 1.6-.6 3.1-1.8 4.3zM84.1 11.3c1.9 0 3.7-.7 5-2.1 1.3-1.3 2.1-3.1 2.1-5 0-1.5-.5-2.9-1.3-4.1h-1.3c1 1.1 1.6 2.6 1.6 4.1 0 1.6-.6 3.2-1.8 4.3-1.2 1.2-2.7 1.8-4.3 1.8-1.6 0-3.2-.6-4.3-1.8C78.6 7.3 78 5.8 78 4.2c0-1.6.6-3 1.6-4.1h-1.3C77.4 1.3 77 2.7 77 4.2c0 1.9.7 3.7 2.1 5 1.3 1.3 3.1 2.1 5 2.1zM91.2 49.4c0-1.9-.7-3.7-2.1-5-1.3-1.3-3.1-2.1-5-2.1s-3.7.7-5 2.1c-1.3 1.3-2.1 3.1-2.1 5s.7 3.7 2.1 5c1.3 1.3 3.1 2.1 5 2.1s3.7-.7 5-2.1c1.3-1.3 2.1-3.1 2.1-5zm-7.1 6.1c-1.6 0-3.2-.6-4.3-1.8-1.2-1.2-1.8-2.7-1.8-4.3s.6-3.2 1.8-4.3c1.2-1.2 2.7-1.8 4.3-1.8 1.6 0 3.2.6 4.3 1.8 1.2 1.2 1.8 2.7 1.8 4.3 0 1.6-.6 3.2-1.8 4.3s-2.7 1.8-4.3 1.8zM91.2 94.7c0-1.9-.7-3.7-2.1-5-1.3-1.3-3.1-2.1-5-2.1s-3.7.7-5 2.1c-1.3 1.3-2.1 3.1-2.1 5s.7 3.7 2.1 5c1.3 1.3 3.1 2.1 5 2.1s3.7-.7 5-2.1c1.3-1.3 2.1-3.1 2.1-5zm-7.1 6.1c-1.6 0-3.2-.6-4.3-1.8-1.2-1.2-1.8-2.7-1.8-4.3 0-1.6.6-3.2 1.8-4.3 1.2-1.2 2.7-1.8 4.3-1.8 1.6 0 3.2.6 4.3 1.8 1.2 1.2 1.8 2.7 1.8 4.3 0 1.6-.6 3.2-1.8 4.3s-2.7 1.8-4.3 1.8zM84.1 122.2c-4.8 0-9.2 1.9-12.6 5.2-2.4 2.4-4 5.3-4.7 8.4h1c.7-2.9 2.2-5.6 4.4-7.7 3.2-3.2 7.4-4.9 11.9-4.9s8.7 1.7 11.9 4.9c2.2 2.2 3.7 4.8 4.4 7.7h1c-.8-3.2-2.4-6.1-4.7-8.4-3.4-3.4-7.9-5.2-12.6-5.2z"/><path class="st3" d="M84.1 127.5c-3.3 0-6.5 1.3-8.8 3.6-1.3 1.3-2.3 2.9-2.9 4.7h1.1c.6-1.5 1.4-2.8 2.6-4 2.2-2.2 5-3.4 8.1-3.4 3.1 0 5.9 1.2 8.1 3.4 1.1 1.1 2 2.5 2.6 4H96c-.6-1.7-1.6-3.3-2.9-4.7-2.6-2.3-5.7-3.6-9-3.6z"/><path class="st3" d="M84.1 132.9c-1.9 0-3.7.7-5 2.1-.3.3-.5.6-.7.9h1.3l.2-.2c1.2-1.2 2.7-1.8 4.3-1.8 1.6 0 3.2.6 4.3 1.8l.2.2H90c-.2-.3-.5-.6-.7-.9-1.6-1.4-3.3-2.1-5.2-2.1zM61.4 110.2c-1.9 0-3.7.7-5 2.1-1.3 1.3-2.1 3.1-2.1 5s.7 3.7 2.1 5c1.3 1.3 3.1 2.1 5 2.1s3.7-.7 5-2.1c1.3-1.3 2.1-3.1 2.1-5s-.7-3.7-2.1-5c-1.3-1.3-3.1-2.1-5-2.1zm4.3 11.5c-1.2 1.2-2.7 1.8-4.3 1.8-1.6 0-3.2-.6-4.3-1.8-1.2-1.2-1.8-2.7-1.8-4.3 0-1.6.6-3.2 1.8-4.3 1.2-1.2 2.7-1.8 4.3-1.8 1.6 0 3.2.6 4.3 1.8 1.2 1.2 1.8 2.7 1.8 4.3 0 1.6-.6 3.1-1.8 4.3zM38.8 11.3c1.9 0 3.7-.7 5-2.1 1.3-1.3 2.1-3.1 2.1-5 0-1.5-.5-2.9-1.3-4.1h-1.3c1 1.1 1.6 2.6 1.6 4.1 0 1.6-.6 3.2-1.8 4.3-1.2 1.2-2.7 1.8-4.3 1.8-1.6 0-3.2-.6-4.3-1.8-1.2-1.2-1.8-2.7-1.8-4.3 0-1.6.6-3 1.6-4.1H33c-.9 1.2-1.3 2.6-1.3 4.1 0 1.9.7 3.7 2.1 5 1.3 1.3 3.1 2.1 5 2.1zM45.9 49.4c0-1.9-.7-3.7-2.1-5-1.3-1.3-3.1-2.1-5-2.1s-3.7.7-5 2.1c-1.3 1.3-2.1 3.1-2.1 5s.7 3.7 2.1 5c1.3 1.3 3.1 2.1 5 2.1s3.7-.7 5-2.1c1.3-1.3 2.1-3.1 2.1-5zm-7.1 6.1c-1.6 0-3.2-.6-4.3-1.8-1.2-1.2-1.8-2.7-1.8-4.3s.6-3.2 1.8-4.3c1.2-1.2 2.7-1.8 4.3-1.8 1.6 0 3.2.6 4.3 1.8 1.2 1.2 1.8 2.7 1.8 4.3 0 1.6-.6 3.2-1.8 4.3-1.2 1.2-2.7 1.8-4.3 1.8zM61.4 33.9c1.9 0 3.7-.7 5-2.1 1.3-1.3 2.1-3.1 2.1-5s-.7-3.7-2.1-5c-1.3-1.3-3.1-2.1-5-2.1s-3.7.7-5 2.1c-1.3 1.3-2.1 3.1-2.1 5s.7 3.7 2.1 5c1.3 1.4 3.1 2.1 5 2.1zm-4.3-11.4c1.2-1.2 2.7-1.8 4.3-1.8 1.6 0 3.2.6 4.3 1.8 1.2 1.2 1.8 2.7 1.8 4.3 0 1.6-.6 3.2-1.8 4.3-1.2 1.2-2.7 1.8-4.3 1.8-1.6 0-3.2-.6-4.3-1.8-1.2-1.2-1.8-2.7-1.8-4.3 0-1.6.6-3.2 1.8-4.3zM21.2 31.8c1.3-1.3 2.1-3.1 2.1-5s-.7-3.7-2.1-5c-1.3-1.3-3.1-2.1-5-2.1s-3.7.7-5 2.1c-1.3 1.3-2.1 3.1-2.1 5s.7 3.7 2.1 5c1.3 1.3 3.1 2.1 5 2.1 1.8 0 3.6-.7 5-2.1zm-5.1 1.1c-1.6 0-3.2-.6-4.3-1.8-1.1-1.1-1.8-2.7-1.8-4.3 0-1.6.6-3.2 1.8-4.3 1.2-1.2 2.7-1.8 4.3-1.8 1.6 0 3.2.6 4.3 1.8 1.2 1.2 1.8 2.7 1.8 4.3 0 1.6-.6 3.2-1.8 4.3-1.1 1.2-2.6 1.8-4.3 1.8zM45.9 94.7c0-1.9-.7-3.7-2.1-5-1.3-1.3-3.1-2.1-5-2.1s-3.7.7-5 2.1c-1.3 1.3-2.1 3.1-2.1 5s.7 3.7 2.1 5c1.3 1.3 3.1 2.1 5 2.1s3.7-.7 5-2.1c1.3-1.3 2.1-3.1 2.1-5zm-7.1 6.1c-1.6 0-3.2-.6-4.3-1.8-1.2-1.2-1.8-2.7-1.8-4.3 0-1.6.6-3.2 1.8-4.3 1.2-1.2 2.7-1.8 4.3-1.8 1.6 0 3.2.6 4.3 1.8 1.2 1.2 1.8 2.7 1.8 4.3 0 1.6-.6 3.2-1.8 4.3-1.2 1.2-2.7 1.8-4.3 1.8zM61.4 79.2c1.9 0 3.7-.7 5-2.1 1.3-1.3 2.1-3.1 2.1-5s-.7-3.7-2.1-5c-1.3-1.3-3.1-2.1-5-2.1s-3.7.7-5 2.1c-1.3 1.3-2.1 3.1-2.1 5s.7 3.7 2.1 5c1.3 1.3 3.1 2.1 5 2.1zm-4.3-11.5c1.2-1.2 2.7-1.8 4.3-1.8 1.6 0 3.2.6 4.3 1.8 1.2 1.2 1.8 2.7 1.8 4.3 0 1.6-.6 3.2-1.8 4.3-1.2 1.2-2.7 1.8-4.3 1.8-1.6 0-3.2-.6-4.3-1.8-1.2-1.2-1.8-2.7-1.8-4.3 0-1.6.6-3.1 1.8-4.3zM21.2 77.1c1.3-1.3 2.1-3.1 2.1-5s-.7-3.7-2.1-5c-1.3-1.3-3.1-2.1-5-2.1s-3.7.7-5 2.1c-1.3 1.3-2.1 3.1-2.1 5s.7 3.7 2.1 5c1.3 1.3 3.1 2.1 5 2.1 1.8 0 3.6-.8 5-2.1zm-5.1 1.1c-1.6 0-3.2-.6-4.3-1.8-1.2-1.2-1.8-2.7-1.8-4.3 0-1.6.6-3.2 1.8-4.3 1.2-1.2 2.7-1.8 4.3-1.8 1.6 0 3.2.6 4.3 1.8 1.2 1.2 1.8 2.7 1.8 4.3 0 1.6-.6 3.2-1.8 4.3-1.1 1.1-2.6 1.8-4.3 1.8zM38.8 122.2c-4.8 0-9.2 1.9-12.6 5.2-2.4 2.4-4 5.3-4.7 8.4h1c.7-2.9 2.2-5.6 4.4-7.7 3.2-3.2 7.4-4.9 11.9-4.9s8.7 1.7 11.9 4.9c2.2 2.2 3.7 4.8 4.4 7.7h1c-.8-3.2-2.4-6.1-4.7-8.4-3.4-3.4-7.9-5.2-12.6-5.2z"/><path class="st3" d="M38.8 127.5c-3.3 0-6.5 1.3-8.8 3.6-1.3 1.3-2.3 2.9-2.9 4.7h1.1c.6-1.5 1.4-2.8 2.6-4 2.2-2.2 5-3.4 8.1-3.4 3.1 0 5.9 1.2 8.1 3.4 1.1 1.1 2 2.5 2.6 4h1.1c-.6-1.7-1.6-3.3-2.9-4.7-2.6-2.3-5.7-3.6-9-3.6z"/><path class="st3" d="M38.8 132.9c-1.9 0-3.7.7-5 2.1-.3.3-.5.6-.7.9h1.3l.2-.2c1.2-1.2 2.7-1.8 4.3-1.8 1.6 0 3.2.6 4.3 1.8l.2.2h1.3c-.2-.3-.5-.6-.7-.9-1.5-1.4-3.3-2.1-5.2-2.1zM16.1 110.2c-1.9 0-3.7.7-5 2.1-1.3 1.3-2.1 3.1-2.1 5s.7 3.7 2.1 5c1.3 1.3 3.1 2.1 5 2.1s3.7-.7 5-2.1c1.3-1.3 2.1-3.1 2.1-5s-.7-3.7-2.1-5c-1.3-1.3-3.1-2.1-5-2.1zm4.4 11.5c-1.2 1.2-2.7 1.8-4.3 1.8-1.6 0-3.2-.6-4.3-1.8-1.2-1.2-1.8-2.7-1.8-4.3 0-1.6.6-3.2 1.8-4.3 1.2-1.2 2.7-1.8 4.3-1.8 1.6 0 3.2.6 4.3 1.8 1.2 1.2 1.8 2.7 1.8 4.3-.1 1.6-.7 3.1-1.8 4.3zM0 1.3V7c.4-.9.6-1.9.6-2.9S.4 2.2 0 1.3zM0 46.5v5.8c.4-.9.6-1.9.6-2.9s-.2-2-.6-2.9zM0 91.8v5.8c.4-.9.6-1.9.6-2.9s-.2-2-.6-2.9zM0 123.4v1.1c2 .8 3.8 2.1 5.4 3.6 2.2 2.2 3.7 4.8 4.4 7.7h1c-.8-3.2-2.4-6.1-4.7-8.4-1.8-1.8-3.8-3.1-6.1-4zM0 129.4v1.2c.6.4 1.1.8 1.6 1.3 1.1 1.1 2 2.5 2.6 4h1.1c-.6-1.7-1.6-3.3-2.9-4.7-.8-.7-1.6-1.3-2.4-1.8z"/></g></svg>