<svg xmlns="http://www.w3.org/2000/svg" viewBox="0 0 135.8 135.8"><path d="M134.6 6.8C132.8 3.5 129.7 1 126 0h-7.4c-1.1.3-2.1.7-3.1 1.2-2.3 1.3-4.3 3.2-5.6 5.6-.5 1-.9 2-1.2 3.1-.3-1.1-.7-2.1-1.2-3.1-1.8-3.3-4.9-5.8-8.6-6.8h-7.4c-1.1.3-2.1.7-3.1 1.2C86 2.5 84 4.5 82.7 6.8c-.5 1-.9 2-1.2 3.1-.3-1.1-.7-2.1-1.2-3.1C78.5 3.5 75.4 1 71.6 0h-7.4c-1.1.3-2.1.7-3.1 1.2-2.3 1.3-4.3 3.2-5.6 5.6-.5 1-.9 2-1.2 3.1-.3-1.1-.7-2.1-1.2-3.1C51.3 3.5 48.2 1 44.5 0H37c-1 .3-2.1.7-3 1.2-2.3 1.3-4.3 3.2-5.6 5.6-.5 1-.9 2-1.2 3.1-.3-1.1-.7-2.1-1.2-3.1C24.1 3.5 21 1 17.3 0H9.9C8.8.3 7.8.7 6.8 1.2 4.5 2.5 2.5 4.5 1.2 6.8c-.5 1-.9 2-1.2 3.1v7.4c1 3.7 3.5 6.8 6.8 8.6 1 .5 2 .9 3.1 1.2-1.1.3-2.1.7-3.1 1.2-2.3 1.3-4.3 3.2-5.6 5.6-.5 1-.9 2-1.2 3.1v7.4c1 3.7 3.5 6.8 6.8 8.6 1 .5 2 .9 3.1 1.2-1.1.3-2.1.7-3.1 1.2-2.3 1.3-4.3 3.2-5.6 5.6-.5 1-.9 2-1.2 3.1v7.4c1 3.7 3.5 6.8 6.8 8.6 1 .5 2 .9 3.1 1.2-1.1.3-2.1.7-3.1 1.2C4.5 84 2.5 86 1.2 88.3c-.5 1-.9 2-1.2 3.1v7.4c1 3.7 3.5 6.8 6.8 8.6 1 .5 2 .9 3.1 1.2-1.1.3-2.1.7-3.1 1.2-2.3 1.3-4.3 3.2-5.6 5.6-.5 1-.9 2-1.2 3.1v7.4c1 3.7 3.5 6.8 6.8 8.6 1 .5 2 .9 3.1 1.2h7.4c4.8-1.3 8.5-5.1 9.9-9.9 1 3.7 3.5 6.8 6.8 8.6 1 .5 2 .9 3.1 1.2h7.4c4.8-1.3 8.5-5.1 9.9-9.9 1 3.7 3.5 6.8 6.8 8.6 1 .5 2 .9 3.1 1.2h7.4c4.8-1.3 8.5-5.1 9.9-9.9 1 3.7 3.5 6.8 6.8 8.6 1 .5 2 .9 3.1 1.2h7.4c4.8-1.3 8.5-5.1 9.9-9.9 1 3.7 3.5 6.8 6.8 8.6 1 .5 2 .9 3.1 1.2h7.4c4.8-1.3 8.5-5.1 9.9-9.8v-7.4c-.3-1.1-.7-2.1-1.2-3-1.8-3.3-4.9-5.8-8.6-6.8 4.8-1.3 8.5-5.1 9.9-9.8v-7.4c-.3-1.1-.7-2.1-1.2-3-1.8-3.3-4.9-5.8-8.6-6.8 4.8-1.3 8.5-5.1 9.9-9.8v-7.4c-.3-1.1-.7-2.1-1.2-3-1.8-3.3-4.9-5.8-8.6-6.8 4.8-1.3 8.5-5.1 9.9-9.8V37c-.3-1.1-.7-2.1-1.2-3-1.8-3.3-4.9-5.8-8.6-6.8 4.8-1.3 8.5-5.1 9.9-9.8V9.9c-.9-1.1-1.3-2.2-1.8-3.1zm-1.2 0c1.1 1.8 1.8 4 1.9 6.3-4.5-.2-8.4-2.6-10.6-6.3-1.1-1.8-1.8-4-1.9-6.3 4.5.2 8.4 2.7 10.6 6.3zm-11.1 125.3c-1-3.7-3.5-6.8-6.8-8.6-1-.5-2-.9-3.1-1.2 1.1-.3 2.1-.7 3.1-1.2 2.3-1.3 4.3-3.2 5.6-5.6.5-1 .9-2 1.2-3.1.3 1.1.7 2.1 1.2 3.1 1.8 3.3 4.9 5.8 8.6 6.8-4.8 1.3-8.5 5-9.8 9.8zm-27.2 0c-1-3.7-3.5-6.8-6.8-8.6-1-.5-2-.9-3.1-1.2 1.1-.3 2.1-.7 3.1-1.2 2.3-1.3 4.3-3.2 5.6-5.6.5-1 .9-2 1.2-3.1.3 1.1.7 2.1 1.2 3.1 1.8 3.3 4.9 5.8 8.6 6.8-4.7 1.3-8.5 5-9.8 9.8zm-27.2 0c-1-3.7-3.5-6.8-6.8-8.6-1-.5-2-.9-3.1-1.2 1.1-.3 2.1-.7 3.1-1.2 2.3-1.3 4.3-3.2 5.6-5.6.5-1 .9-2 1.2-3.1.3 1.1.7 2.1 1.2 3.1 1.8 3.3 4.9 5.8 8.6 6.8-4.7 1.3-8.5 5-9.8 9.8zm-27.1 0c-1-3.7-3.5-6.8-6.8-8.6-1-.5-2-.9-3.1-1.2 1.1-.3 2.1-.7 3.1-1.3 2.3-1.3 4.3-3.2 5.6-5.6.5-1 .9-2 1.2-3.1.3 1.1.7 2.1 1.2 3.1 1.8 3.3 4.9 5.8 8.6 6.8-4.8 1.4-8.5 5.1-9.8 9.9zm-27.2 0c-1-3.7-3.5-6.8-6.8-8.6-1-.5-2-.9-3.1-1.2 1.1-.3 2.1-.7 3.1-1.2 2.3-1.3 4.3-3.2 5.6-5.6.5-1 .9-2 1.2-3.1.3 1.1.7 2.1 1.2 3.1 1.8 3.3 4.9 5.8 8.6 6.8-4.7 1.3-8.5 5-9.8 9.8zm0-128.4c.3 1.1.7 2.1 1.2 3.1 1.8 3.3 4.9 5.8 8.6 6.8-4.8 1.3-8.5 5.1-9.9 9.9-1-3.7-3.5-6.8-6.8-8.6-1-.5-2-.9-3.1-1.2 1.1-.3 2.1-.7 3.1-1.2C9 11.2 11 9.3 12.3 6.9c.6-1.1 1-2.1 1.3-3.2zm27.2 0c.3 1.1.7 2.1 1.2 3.1 1.8 3.3 4.9 5.8 8.6 6.8-4.8 1.3-8.5 5.1-9.9 9.9-1-3.7-3.5-6.8-6.8-8.6-1-.5-2-.9-3.1-1.2 1.1-.3 2.1-.7 3.1-1.2 2.3-1.3 4.3-3.2 5.6-5.6.6-1.1 1-2.1 1.3-3.2zm27.1 0c.3 1.1.7 2.1 1.2 3.1 1.8 3.3 4.9 5.8 8.6 6.8-4.8 1.3-8.5 5.1-9.9 9.9-1-3.7-3.5-6.8-6.8-8.6-1-.5-2-.9-3.1-1.2 1.1-.3 2.1-.7 3.1-1.2 2.3-1.3 4.3-3.2 5.6-5.6.6-1.1 1-2.1 1.3-3.2zm27.2 0c.3 1.1.7 2.1 1.2 3.1 1.8 3.3 4.9 5.8 8.6 6.8-4.8 1.3-8.5 5.1-9.9 9.9-1-3.7-3.5-6.8-6.8-8.6-1-.5-2-.9-3.1-1.2 1.1-.3 2.1-.7 3.1-1.2 2.3-1.3 4.3-3.2 5.6-5.6.6-1.1 1-2.1 1.3-3.2zm13.6 114.8c-.3-1.1-.7-2.1-1.2-3.1-1.8-3.3-4.9-5.8-8.6-6.8 4.8-1.3 8.5-5.1 9.9-9.9 1 3.7 3.5 6.8 6.8 8.6 1 .5 2 .9 3.1 1.2-1.1.3-2.1.7-3.1 1.2-2.3 1.3-4.3 3.2-5.6 5.6-.6 1.1-1 2.2-1.3 3.2zm-27.2 0c-.3-1.1-.7-2.1-1.2-3.1-1.8-3.3-4.9-5.8-8.6-6.8 4.8-1.3 8.5-5.1 9.9-9.9 1 3.7 3.5 6.8 6.8 8.6 1 .5 2 .9 3.1 1.2-1.1.3-2.1.7-3.1 1.2-2.3 1.3-4.3 3.2-5.6 5.6-.6 1.1-1 2.2-1.3 3.2zm-27.2 0c-.3-1.1-.7-2.1-1.2-3.1-1.8-3.3-4.9-5.8-8.6-6.8 4.8-1.3 8.5-5.1 9.9-9.9 1 3.7 3.5 6.8 6.8 8.6 1 .5 2 .9 3.1 1.2-1.1.3-2.1.7-3.1 1.2-2.3 1.3-4.3 3.2-5.6 5.6-.6 1.1-1 2.2-1.3 3.2zm-27.1 0c-.3-1.1-.7-2.1-1.2-3.1-1.8-3.3-4.9-5.8-8.6-6.8 4.8-1.3 8.5-5.1 9.9-9.9 1 3.7 3.5 6.8 6.8 8.6 1 .5 2 .9 3.1 1.2-1.1.3-2.1.7-3.1 1.2-2.3 1.3-4.3 3.2-5.6 5.6-.6 1.1-1 2.2-1.3 3.2zm0-101.2c1 3.7 3.5 6.8 6.8 8.6 1 .5 2 .9 3.1 1.2-1.1.3-2.1.7-3.1 1.2-2.3 1.3-4.3 3.2-5.6 5.6-.5 1-.9 2-1.2 3.1-.3-1.1-.7-2.1-1.2-3.1-1.8-3.3-4.9-5.8-8.6-6.8 4.7-1.2 8.5-5 9.8-9.8zm27.1 0c1 3.7 3.5 6.8 6.8 8.6 1 .5 2 .9 3.1 1.2-1.1.3-2.1.7-3.1 1.2-2.3 1.3-4.3 3.2-5.6 5.6-.5 1-.9 2-1.2 3.1-.3-1-.7-2.1-1.2-3-1.8-3.3-4.9-5.8-8.6-6.8 4.8-1.3 8.5-5.1 9.8-9.9zm27.2 0c1 3.7 3.5 6.8 6.8 8.6 1 .5 2 .9 3.1 1.2-1.1.3-2.1.7-3.1 1.2-2.3 1.4-4.3 3.3-5.6 5.7-.5 1-.9 2-1.2 3.1-.3-1.1-.7-2.1-1.2-3.1-1.8-3.3-4.9-5.8-8.6-6.8 4.7-1.3 8.5-5.1 9.8-9.9zM96.3 34c1.8 3.3 4.9 5.8 8.6 6.8-4.8 1.3-8.5 5.1-9.9 9.9-1-3.7-3.5-6.8-6.8-8.6-1-.5-2-.9-3.1-1.2 1.1-.3 2.1-.7 3.1-1.2 2.3-1.3 4.3-3.2 5.6-5.6.5-1 .9-2 1.2-3.1.4 1 .8 2 1.3 3zM81.5 91.4c-.3-1.1-.7-2.1-1.2-3.1-1.8-3.3-4.9-5.8-8.6-6.8 4.8-1.3 8.5-5.1 9.9-9.9 1 3.7 3.5 6.8 6.8 8.6 1 .5 2 .9 3.1 1.2-1.1.3-2.1.7-3.1 1.2C86 84 84 86 82.7 88.3c-.5 1-.9 2-1.2 3.1zm-27.2 0c-.3-1.1-.7-2.1-1.2-3.1-1.8-3.3-4.9-5.8-8.6-6.8 4.8-1.3 8.5-5.1 9.9-9.9 1 3.7 3.5 6.8 6.8 8.6 1 .5 2 .9 3.1 1.2-1.1.3-2.1.7-3.1 1.2-2.3 1.3-4.3 3.2-5.6 5.6-.6 1.1-1 2.1-1.3 3.2zm0-46.9c1 3.7 3.5 6.8 6.8 8.6 1 .5 2 .9 3.1 1.2-1.1.3-2.1.7-3.1 1.2-2.3 1.3-4.3 3.2-5.6 5.6-.5 1-.9 2-1.2 3.1-.3-1.1-.7-2.1-1.2-3.1-1.8-3.3-4.9-5.8-8.6-6.8 4.8-1.3 8.5-5 9.8-9.8zm27.2 0c1 3.7 3.5 6.8 6.8 8.6 1 .5 2 .9 3.1 1.2-1.1.3-2.1.7-3.1 1.2-2.3 1.3-4.3 3.2-5.6 5.6-.5 1-.9 2-1.2 3.1-.3-1.1-.7-2.1-1.2-3.1-1.8-3.3-4.9-5.8-8.6-6.8 4.7-1.3 8.5-5 9.8-9.8zM61.1 69.2c-1-.5-2-.9-3.1-1.2 1.1-.3 2.1-.7 3.1-1.2 2.3-1.3 4.3-3.2 5.6-5.6.5-1 .9-2 1.2-3.1.3 1.1.7 2.1 1.2 3.1 1.8 3.3 4.9 5.8 8.6 6.8-4.8 1.3-8.5 5.1-9.9 9.9-.9-3.8-3.4-6.9-6.7-8.7zM67.4 81c-2.3-.1-4.4-.8-6.3-1.9-3.6-2.2-6.1-6.1-6.3-10.6 2.3.1 4.4.8 6.3 1.9 3.7 2.2 6.1 6.1 6.3 10.6zM54.9 67.4c.1-2.3.8-4.4 1.9-6.3 1.1-1.8 2.6-3.3 4.4-4.4 1.8-1.1 4-1.8 6.3-1.9-.1 2.3-.8 4.4-1.9 6.3-1.1 1.8-2.6 3.3-4.4 4.4-1.9 1.1-4 1.8-6.3 1.9zm13.6-12.5c4.5.2 8.4 2.6 10.6 6.3 1.1 1.8 1.8 4 1.9 6.3-4.5-.2-8.4-2.6-10.6-6.3-1.2-1.9-1.8-4-1.9-6.3zM81 68.5c-.3 6.8-5.7 12.2-12.5 12.5.2-6.8 5.7-12.3 12.5-12.5zm-29.1-7.4c1.1 1.8 1.8 4 1.9 6.3-4.5-.2-8.4-2.6-10.6-6.3-1.1-1.8-1.8-4-1.9-6.3 4.5.3 8.4 2.7 10.6 6.3zM41.3 81c.3-6.8 5.7-12.2 12.5-12.5-.3 6.7-5.7 12.2-12.5 12.5zm47-1.9c-3.6-2.2-6.1-6.1-6.3-10.6 2.3.1 4.4.8 6.3 1.9 3.6 2.2 6.1 6.1 6.3 10.6-2.3-.1-4.5-.8-6.3-1.9zm-4.4-18c1.1-1.8 2.6-3.3 4.4-4.4 1.8-1.1 4-1.8 6.3-1.9-.1 2.3-.8 4.4-1.9 6.3-1.1 1.8-2.6 3.3-4.4 4.4-1.8 1.1-4 1.8-6.3 1.9.1-2.3.8-4.4 1.9-6.3zm4.4-9.2c-3.6-2.2-6.1-6.1-6.3-10.6 2.3.1 4.4.8 6.3 1.9 3.6 2.2 6.1 6.1 6.3 10.6-2.3-.1-4.5-.8-6.3-1.9zm-19.8 1.9c.2-6.8 5.7-12.2 12.5-12.5-.3 6.8-5.8 12.2-12.5 12.5zm-7.4-1.9c-3.6-2.2-6.1-6.1-6.3-10.6 2.3.1 4.4.8 6.3 1.9 3.6 2.2 6.1 6.1 6.3 10.6-2.3-.1-4.4-.8-6.3-1.9zm-19.8 1.9c.3-6.8 5.7-12.2 12.5-12.5-.3 6.8-5.7 12.2-12.5 12.5zm-.5 4.3c.3 1.1.7 2.1 1.2 3.1 1.8 3.3 4.9 5.8 8.6 6.8-4.8 1.3-8.5 5.1-9.9 9.9-1-3.7-3.5-6.8-6.8-8.6-1-.5-2-.9-3.1-1.2 1.1-.3 2.1-.7 3.1-1.2 2.3-1.3 4.3-3.2 5.6-5.6.6-1.1 1-2.2 1.3-3.2zm11.1 30.2c1.1 1.8 1.8 4 1.9 6.3-4.5-.2-8.4-2.6-10.6-6.3-1.1-1.8-1.8-4-1.9-6.3 4.5.2 8.4 2.7 10.6 6.3zm4.9 0c1.1-1.8 2.6-3.3 4.4-4.4 1.8-1.1 4-1.8 6.3-1.9-.1 2.3-.8 4.4-1.9 6.3-1.1 1.8-2.6 3.3-4.4 4.4-1.8 1.1-4 1.8-6.3 1.9.1-2.3.7-4.5 1.9-6.3zm22.3 0c1.1 1.8 1.8 4 1.9 6.3-4.5-.2-8.4-2.6-10.6-6.3-1.1-1.8-1.8-4-1.9-6.3 4.5.2 8.4 2.7 10.6 6.3zm4.8 0c1.1-1.8 2.6-3.3 4.4-4.4 1.8-1.1 4-1.8 6.3-1.9-.1 2.3-.8 4.4-1.9 6.3-1.1 1.8-2.6 3.3-4.4 4.4-1.8 1.1-4 1.8-6.3 1.9.1-2.3.8-4.5 1.9-6.3zm11.2-10.5c-1-3.7-3.5-6.8-6.8-8.6-1-.5-2-.9-3.1-1.2 1.1-.3 2.1-.7 3.1-1.2 2.3-1.3 4.3-3.2 5.6-5.6.5-1 .9-2 1.2-3.1.3 1.1.7 2.1 1.2 3.1 1.8 3.3 4.9 5.8 8.6 6.8-4.7 1.2-8.5 5-9.8 9.8zM92.7 34c-1.1 1.8-2.6 3.3-4.4 4.4-1.8 1.1-4 1.8-6.3 1.9.1-2.3.8-4.4 1.9-6.3 1.1-1.8 2.6-3.3 4.4-4.4 1.8-1.1 4-1.8 6.3-1.9-.1 2.3-.8 4.4-1.9 6.3zm-23.5 0c1.8 3.3 4.9 5.8 8.6 6.8-4.8 1.3-8.5 5.1-9.9 9.9-1-3.7-3.5-6.8-6.8-8.6-1-.5-2-.9-3.1-1.2 1.1-.3 2.1-.7 3.1-1.2 2.3-1.3 4.3-3.2 5.6-5.6.5-1 .9-2 1.2-3.1.3 1 .7 2 1.3 3zm-.7-6.3c4.5.2 8.4 2.6 10.6 6.3 1.1 1.8 1.8 4 1.9 6.3-4.5-.2-8.4-2.6-10.6-6.3-1.2-1.9-1.8-4-1.9-6.3zm-3 6.3c-1.1 1.8-2.6 3.3-4.4 4.4-1.8 1.1-4 1.8-6.3 1.9.1-2.3.8-4.4 1.9-6.3 1.1-1.8 2.6-3.3 4.4-4.4 1.8-1.1 4-1.8 6.3-1.9-.1 2.3-.8 4.4-1.9 6.3zM42 34c1.8 3.3 4.9 5.8 8.6 6.8-4.8 1.3-8.5 5.1-9.9 9.9-1-3.7-3.5-6.8-6.8-8.6-1-.5-2-.9-3.1-1.2 1.1-.3 2.1-.7 3.1-1.2 2.3-1.3 4.3-3.2 5.6-5.6.5-1 .9-2 1.2-3.1.4 1 .8 2 1.3 3zm-.7-6.3c4.5.2 8.4 2.6 10.6 6.3 1.1 1.8 1.8 4 1.9 6.3-4.5-.2-8.4-2.6-10.6-6.3-1.1-1.9-1.8-4-1.9-6.3zm-3 6.3c-1.1 1.8-2.6 3.3-4.4 4.4-1.8 1.1-4 1.8-6.3 1.9.1-2.3.8-4.4 1.9-6.3 1.1-1.8 2.6-3.3 4.4-4.4 1.8-1.1 4-1.8 6.3-1.9-.1 2.3-.7 4.4-1.9 6.3zM34 43.2c3.6 2.2 6.1 6.1 6.3 10.6-2.3-.1-4.4-.8-6.3-1.9-3.6-2.2-6.1-6.1-6.3-10.6 2.3.1 4.4.8 6.3 1.9zm4.3 17.9c-1.1 1.8-2.6 3.3-4.4 4.4-1.8 1.1-4 1.8-6.3 1.9.1-2.3.8-4.4 1.9-6.3 1.1-1.8 2.6-3.3 4.4-4.4 1.8-1.1 4-1.8 6.3-1.9-.1 2.4-.7 4.5-1.9 6.3zM34 70.4c3.6 2.2 6.1 6.1 6.3 10.6-2.3-.1-4.4-.8-6.3-1.9-3.6-2.2-6.1-6.1-6.3-10.6 2.3 0 4.4.7 6.3 1.9zm0 25.9c-1-.5-2-.9-3.1-1.2 1.1-.3 2.1-.7 3.1-1.2 2.3-1.3 4.3-3.2 5.6-5.6.5-1 .9-2 1.2-3.1.3 1.1.7 2.1 1.2 3.1 1.8 3.3 4.9 5.8 8.6 6.8-4.8 1.3-8.5 5.1-9.9 9.9-1-3.7-3.4-6.9-6.7-8.7zm6.2 11.8c-2.3-.1-4.4-.8-6.3-1.9-3.6-2.2-6.1-6.1-6.3-10.6 2.3.1 4.4.8 6.3 1.9 3.7 2.2 6.1 6.1 6.3 10.6zM27.7 94.6c.1-2.3.8-4.4 1.9-6.3 1.1-1.8 2.6-3.3 4.4-4.4 1.8-1.1 4-1.8 6.3-1.9-.1 2.3-.8 4.4-1.9 6.3-1.1 1.8-2.6 3.3-4.4 4.4-1.9 1.1-4 1.8-6.3 1.9zm26.1 1c-.3 6.8-5.7 12.2-12.5 12.5.3-6.7 5.7-12.2 12.5-12.5zm7.3.7c-1-.5-2-.9-3.1-1.2 1.1-.3 2.1-.7 3.1-1.2 2.3-1.3 4.3-3.2 5.6-5.6.5-1 .9-2 1.2-3.1.3 1.1.7 2.1 1.2 3.1 1.8 3.3 4.9 5.8 8.6 6.8-4.8 1.3-8.5 5.1-9.9 9.9-.9-3.7-3.4-6.9-6.7-8.7zm6.3 11.8c-2.3-.1-4.4-.8-6.3-1.9-3.6-2.2-6.1-6.1-6.3-10.6 2.3.1 4.4.8 6.3 1.9 3.7 2.2 6.1 6.1 6.3 10.6zM81 95.6c-.3 6.8-5.7 12.2-12.5 12.5.2-6.7 5.7-12.2 12.5-12.5zm7.3.7c-1-.5-2-.9-3.1-1.2 1.1-.3 2.1-.7 3.1-1.2 2.3-1.3 4.3-3.2 5.6-5.6.5-1 .9-2 1.2-3.1.3 1.1.7 2.1 1.2 3.1 1.8 3.3 4.9 5.8 8.6 6.8-4.8 1.3-8.5 5.1-9.9 9.9-.9-3.7-3.4-6.9-6.7-8.7zm6.3 11.8c-2.3-.1-4.4-.8-6.3-1.9-3.6-2.2-6.1-6.1-6.3-10.6 2.3.1 4.4.8 6.3 1.9 3.6 2.2 6.1 6.1 6.3 10.6zm13.5-12.5c-.3 6.8-5.7 12.2-12.5 12.5.3-6.7 5.8-12.2 12.5-12.5zm-10.6-7.3c-1.1-1.8-1.8-4-1.9-6.3 4.5.2 8.4 2.6 10.6 6.3 1.1 1.8 1.8 4 1.9 6.3-4.5-.2-8.4-2.7-10.6-6.3zm10.6-19.8c-.3 6.8-5.7 12.2-12.5 12.5.3-6.8 5.8-12.3 12.5-12.5zm-10.6-7.4c-1.1-1.8-1.8-4-1.9-6.3 4.5.2 8.4 2.6 10.6 6.3 1.1 1.8 1.8 4 1.9 6.3-4.5-.2-8.4-2.6-10.6-6.3zm10.6-19.8c-.3 6.8-5.7 12.2-12.5 12.5.3-6.8 5.8-12.2 12.5-12.5zM97.5 34c-1.1-1.8-1.8-4-1.9-6.3 4.5.2 8.4 2.6 10.6 6.3 1.1 1.8 1.8 4 1.9 6.3-4.5-.3-8.4-2.7-10.6-6.3zM27.2 44.5c1 3.7 3.5 6.8 6.8 8.6 1 .5 2 .9 3.1 1.2-1.1.3-2.2.7-3.1 1.3-2.3 1.3-4.3 3.2-5.6 5.6-.5 1-.9 2-1.2 3.1-.3-1.1-.7-2.1-1.2-3.1-1.8-3.3-4.9-5.8-8.6-6.8 4.7-1.4 8.5-5.1 9.8-9.9zm0 27.1c1 3.7 3.5 6.8 6.8 8.6 1 .5 2 .9 3.1 1.2-1.1.3-2.1.7-3.1 1.2-2.3 1.3-4.3 3.2-5.6 5.6-.5 1-.9 2-1.2 3.1-.3-1.1-.7-2.1-1.2-3.1-1.8-3.3-4.9-5.8-8.6-6.8 4.7-1.2 8.5-5 9.8-9.8zm81.5 19.8c-.3-1.1-.7-2.1-1.2-3.1-1.8-3.3-4.9-5.8-8.6-6.8 4.8-1.3 8.5-5.1 9.9-9.9 1 3.7 3.5 6.8 6.8 8.6 1 .5 2 .9 3.1 1.2-1.1.3-2.1.7-3.1 1.2-2.3 1.3-4.3 3.2-5.6 5.6-.6 1.1-1 2.1-1.3 3.2zm0-27.2c-.3-1.1-.7-2.1-1.2-3.1-1.8-3.3-4.9-5.8-8.6-6.8 4.8-1.3 8.5-5.1 9.9-9.9 1 3.7 3.5 6.8 6.8 8.6 1 .5 2 .9 3.1 1.2-1.1.3-2.1.7-3.1 1.2-2.3 1.3-4.3 3.2-5.6 5.6-.6 1.1-1 2.1-1.3 3.2zm0-27.2c-.3-1.1-.7-2.1-1.2-3.1-1.8-3.3-4.9-5.8-8.6-6.8 4.8-1.3 8.5-5.1 9.9-9.9 1 3.7 3.5 6.8 6.8 8.6 1 .5 2 .9 3.1 1.2-1.1.3-2.1.7-3.1 1.2-2.3 1.3-4.3 3.2-5.6 5.6-.6 1.1-1 2.2-1.3 3.2zM95.6 26.6c.3-6.8 5.7-12.2 12.5-12.5-.2 6.8-5.7 12.3-12.5 12.5zm-7.3-1.9c-3.6-2.2-6.1-6.1-6.3-10.6 2.3.1 4.4.8 6.3 1.9 3.6 2.2 6.1 6.1 6.3 10.6-2.3-.1-4.5-.7-6.3-1.9zm-19.8 1.9c.3-6.8 5.7-12.2 12.5-12.5-.3 6.8-5.8 12.3-12.5 12.5zm-7.4-1.9c-3.6-2.2-6.1-6.1-6.3-10.6 2.3.1 4.4.8 6.3 1.9 3.6 2.2 6.1 6.1 6.3 10.6-2.3-.1-4.4-.7-6.3-1.9zm-19.8 1.9c.3-6.8 5.7-12.2 12.5-12.5-.3 6.8-5.7 12.3-12.5 12.5zM34 24.7c-3.6-2.2-6.1-6.1-6.3-10.6 2.3.1 4.4.8 6.3 1.9 3.6 2.2 6.1 6.1 6.3 10.6-2.4-.1-4.5-.7-6.3-1.9zm-19.9 1.9c.3-6.8 5.7-12.2 12.5-12.5-.2 6.8-5.7 12.3-12.5 12.5zM24.7 34c1.1 1.8 1.8 4 1.9 6.3-4.5-.3-8.4-2.7-10.6-6.3-1.1-1.8-1.8-4-1.9-6.3 4.5.2 8.4 2.6 10.6 6.3zM14.1 53.8c.3-6.8 5.7-12.2 12.5-12.5-.2 6.8-5.7 12.2-12.5 12.5zm10.6 7.3c1.1 1.8 1.8 4 1.9 6.3-4.5-.2-8.4-2.6-10.6-6.3-1.1-1.8-1.8-4-1.9-6.3 4.5.3 8.4 2.7 10.6 6.3zM14.1 81c.3-6.8 5.7-12.2 12.5-12.5-.2 6.7-5.7 12.2-12.5 12.5zm10.6 7.3c1.1 1.8 1.8 4 1.9 6.3-4.5-.2-8.4-2.6-10.6-6.3-1.1-1.8-1.8-4-1.9-6.3 4.5.2 8.4 2.7 10.6 6.3zm-10.6 19.8c.3-6.8 5.7-12.2 12.5-12.5-.2 6.8-5.7 12.3-12.5 12.5zm10.6 7.4c1.1 1.8 1.8 4 1.9 6.3-4.5-.2-8.4-2.6-10.6-6.3-1.1-1.8-1.8-4-1.9-6.3 4.5.2 8.4 2.6 10.6 6.3zm4.9 0c1.1-1.8 2.6-3.3 4.4-4.4 1.8-1.1 4-1.8 6.3-1.9-.1 2.3-.8 4.4-1.9 6.3-1.1 1.8-2.6 3.3-4.4 4.4-1.8 1.1-4 1.8-6.3 1.9.1-2.4.8-4.5 1.9-6.3zm22.3 0c1.1 1.8 1.8 4 1.9 6.3-4.5-.2-8.4-2.6-10.6-6.3-1.1-1.8-1.8-4-1.9-6.3 4.5.2 8.4 2.6 10.6 6.3zm4.9 0c1.1-1.8 2.6-3.3 4.4-4.4 1.8-1.1 4-1.8 6.3-1.9-.1 2.3-.8 4.4-1.9 6.3-1.1 1.8-2.6 3.3-4.4 4.4-1.8 1.1-4 1.8-6.3 1.9.1-2.4.7-4.5 1.9-6.3zm22.3 0c1.1 1.8 1.8 4 1.9 6.3-4.5-.2-8.4-2.6-10.6-6.3-1.1-1.8-1.8-4-1.9-6.3 4.5.2 8.4 2.6 10.6 6.3zm4.8 0c1.1-1.8 2.6-3.3 4.4-4.4 1.8-1.1 4-1.8 6.3-1.9-.1 2.3-.8 4.4-1.9 6.3-1.1 1.8-2.6 3.3-4.4 4.4-1.8 1.1-4 1.8-6.3 1.9.1-2.4.8-4.5 1.9-6.3zm22.4 0c1.1 1.8 1.8 4 1.9 6.3-4.5-.2-8.4-2.6-10.6-6.3-1.1-1.8-1.8-4-1.9-6.3 4.4.2 8.3 2.6 10.6 6.3zm4.8 0c1.1-1.8 2.6-3.3 4.4-4.4 1.8-1.1 4-1.8 6.3-1.9-.1 2.3-.8 4.4-1.9 6.3-1.1 1.8-2.6 3.3-4.4 4.4-1.8 1.1-4 1.8-6.3 1.9.1-2.4.8-4.5 1.9-6.3zm4.4-9.3c-3.6-2.2-6.1-6.1-6.3-10.6 2.3.1 4.4.8 6.3 1.9 3.6 2.2 6.1 6.1 6.3 10.6-2.4 0-4.5-.7-6.3-1.9zm-4.4-17.9c1.1-1.8 2.6-3.3 4.4-4.4 1.8-1.1 4-1.8 6.3-1.9-.1 2.3-.8 4.4-1.9 6.3-1.1 1.8-2.6 3.3-4.4 4.4-1.8 1.1-4 1.8-6.3 1.9.1-2.3.8-4.5 1.9-6.3zm4.4-9.2c-3.6-2.2-6.1-6.1-6.3-10.6 2.3.1 4.4.8 6.3 1.9 3.6 2.2 6.1 6.1 6.3 10.6-2.4-.1-4.5-.8-6.3-1.9zm-4.4-18c1.1-1.8 2.6-3.3 4.4-4.4 1.8-1.1 4-1.8 6.3-1.9-.1 2.3-.8 4.4-1.9 6.3-1.1 1.8-2.6 3.3-4.4 4.4-1.8 1.1-4 1.8-6.3 1.9.1-2.3.8-4.4 1.9-6.3zm4.4-9.2c-3.6-2.2-6.1-6.1-6.3-10.6 2.3.1 4.4.8 6.3 1.9 3.6 2.2 6.1 6.1 6.3 10.6-2.4-.1-4.5-.8-6.3-1.9zM111.1 34c1.1-1.8 2.6-3.3 4.4-4.4 1.8-1.1 4-1.8 6.3-1.9-.1 2.3-.8 4.4-1.9 6.3-1.1 1.8-2.6 3.3-4.4 4.4-1.8 1.1-4 1.8-6.3 1.9.1-2.4.8-4.5 1.9-6.3zm4.4-9.3c-3.6-2.2-6.1-6.1-6.3-10.6 2.3.1 4.4.8 6.3 1.9 3.6 2.2 6.1 6.1 6.3 10.6-2.4-.1-4.5-.7-6.3-1.9zM13.6 30.9c.3 1.1.7 2.1 1.2 3.1 1.8 3.3 4.9 5.8 8.6 6.8-4.8 1.3-8.5 5.1-9.9 9.9-1-3.7-3.5-6.8-6.8-8.6-1-.5-2-.9-3.1-1.2 1.1-.3 2.1-.7 3.1-1.2 2.3-1.3 4.3-3.2 5.6-5.6.6-1.1 1-2.1 1.3-3.2zm0 27.2c.3 1.1.7 2.1 1.2 3.1 1.8 3.3 4.9 5.8 8.6 6.8-4.8 1.3-8.5 5.1-9.9 9.9-1-3.7-3.5-6.8-6.8-8.6-1-.5-2-.9-3.1-1.2 1.1-.3 2.1-.7 3.1-1.2 2.3-1.3 4.3-3.2 5.6-5.6.6-1.1 1-2.2 1.3-3.2zm0 27.1c.3 1.1.7 2.1 1.2 3.1 1.8 3.3 4.9 5.8 8.6 6.8-4.8 1.3-8.5 5.1-9.9 9.9-1-3.7-3.5-6.8-6.8-8.6-1-.5-2-.9-3.1-1.2 1.1-.3 2.1-.7 3.1-1.2 2.3-1.3 4.3-3.2 5.6-5.6.6-1.1 1-2.1 1.3-3.2zM122.3 105c-1-3.7-3.5-6.8-6.8-8.6-1-.5-2-.9-3.1-1.2 1.1-.3 2.1-.7 3.1-1.2 2.3-1.3 4.3-3.2 5.6-5.6.5-1 .9-2 1.2-3.1.3 1.1.7 2.1 1.2 3.1 1.8 3.3 4.9 5.8 8.6 6.8-4.8 1.2-8.5 5-9.8 9.8zm0-27.2c-1-3.7-3.5-6.8-6.8-8.6-1-.5-2-.9-3.1-1.2 1.1-.3 2.1-.7 3.1-1.2 2.3-1.3 4.3-3.2 5.6-5.6.5-1 .9-2 1.2-3.1.3 1.1.7 2.1 1.2 3.1 1.8 3.3 4.9 5.8 8.6 6.8-4.8 1.2-8.5 5-9.8 9.8zm0-27.2c-1-3.7-3.5-6.8-6.8-8.6-1-.5-2-.9-3.1-1.2 1.1-.3 2.1-.7 3.1-1.2 2.3-1.3 4.3-3.2 5.6-5.6.5-1 .9-2 1.2-3.1.3 1.1.7 2.1 1.2 3.1 1.8 3.3 4.9 5.8 8.6 6.8-4.8 1.3-8.5 5-9.8 9.8zm0-27.1c-1-3.7-3.5-6.8-6.8-8.6-1-.5-2-.9-3.1-1.2 1.1-.3 2.1-.7 3.1-1.2 2.3-1.3 4.3-3.2 5.6-5.6.5-1 .9-2 1.2-3.1.3 1.1.7 2.1 1.2 3.1 1.8 3.3 4.9 5.8 8.6 6.8-4.8 1.2-8.5 5-9.8 9.8zM111.1 6.8c1.1-1.8 2.6-3.3 4.4-4.4 1.8-1.1 4-1.8 6.3-1.9-.1 2.3-.8 4.4-1.9 6.3-1.1 1.8-2.6 3.3-4.4 4.4-1.8 1.1-4 1.8-6.3 1.9.1-2.3.8-4.5 1.9-6.3zm-4.8 0c1.1 1.8 1.8 4 1.9 6.3-4.5-.2-8.4-2.6-10.6-6.3-1.1-1.8-1.8-4-1.9-6.3 4.4.2 8.3 2.7 10.6 6.3zm-22.4 0C85 5 86.5 3.5 88.3 2.4c1.8-1.1 4-1.8 6.3-1.9-.1 2.3-.8 4.4-1.9 6.3-1.1 1.8-2.6 3.3-4.4 4.4-1.8 1.1-4 1.8-6.3 1.9.1-2.3.8-4.5 1.9-6.3zm-4.8 0c1.1 1.8 1.8 4 1.9 6.3-4.5-.2-8.4-2.6-10.6-6.3-1.1-1.8-1.8-4-1.9-6.3 4.5.2 8.4 2.7 10.6 6.3zm-22.3 0c1.1-1.8 2.6-3.3 4.4-4.4C63 1.3 65.2.6 67.5.5c-.1 2.3-.8 4.4-1.9 6.3-1.1 1.8-2.6 3.3-4.4 4.4-1.8 1.1-4 1.8-6.3 1.9.1-2.3.7-4.5 1.9-6.3zm-4.9 0c1.1 1.8 1.8 4 1.9 6.3-4.5-.2-8.4-2.6-10.6-6.3-1.1-1.8-1.8-4-1.9-6.3 4.5.2 8.4 2.7 10.6 6.3zm-22.3 0C30.7 5 32.2 3.5 34 2.4c1.8-1.1 4-1.8 6.3-1.9-.1 2.3-.8 4.4-1.9 6.3-1.1 1.8-2.6 3.3-4.4 4.4-1.8 1.1-4 1.8-6.3 1.9.1-2.3.8-4.5 1.9-6.3zm-4.9 0c1.1 1.8 1.8 4 1.9 6.3-4.5-.2-8.4-2.6-10.6-6.3-1.1-1.8-1.8-4-1.9-6.3 4.5.2 8.4 2.7 10.6 6.3zm-22.3 0C3.5 5 5 3.5 6.8 2.4c1.8-1.1 4-1.8 6.3-1.9-.1 2.3-.8 4.5-1.9 6.3-1.1 1.8-2.6 3.3-4.4 4.4-1.8 1.1-4 1.8-6.3 1.9.1-2.3.8-4.5 1.9-6.3zm4.4 17.9C3.2 22.5.7 18.6.5 14.1c2.3.1 4.5.8 6.3 1.9 3.6 2.2 6.1 6.1 6.3 10.6-2.3-.1-4.5-.7-6.3-1.9zM2.4 34c1.1-1.8 2.6-3.3 4.4-4.4 1.8-1.1 4-1.8 6.3-1.9-.1 2.3-.8 4.4-1.9 6.3-1.1 1.8-2.6 3.3-4.4 4.4-1.8 1.1-4 1.8-6.3 1.9.1-2.4.8-4.5 1.9-6.3zm4.4 17.9C3.2 49.7.7 45.8.5 41.3c2.3.1 4.4.8 6.3 1.9 3.6 2.2 6.1 6.1 6.3 10.6-2.3-.1-4.5-.8-6.3-1.9zm-4.4 9.2c1.1-1.8 2.6-3.3 4.4-4.4 1.8-1.1 4-1.8 6.3-1.9-.1 2.3-.8 4.4-1.9 6.3-1.1 1.8-2.6 3.3-4.4 4.4-1.8 1.1-4 1.8-6.3 1.9.1-2.3.8-4.4 1.9-6.3zm4.4 18C3.2 76.9.7 73 .5 68.5c2.3.1 4.4.8 6.3 1.9 3.6 2.2 6.1 6.1 6.3 10.6-2.3-.1-4.5-.8-6.3-1.9zm-4.4 9.2C3.5 86.5 5 85 6.8 83.9c1.8-1.1 4-1.8 6.3-1.9-.1 2.3-.8 4.4-1.9 6.3-1.1 1.8-2.6 3.3-4.4 4.4-1.8 1.1-4 1.8-6.3 1.9.1-2.3.8-4.5 1.9-6.3zm4.4 17.9C3.2 104 .7 100.1.5 95.6c2.3.1 4.4.8 6.3 1.9 3.6 2.2 6.1 6.1 6.3 10.6-2.3 0-4.5-.7-6.3-1.9zm-4.4 9.3c1.1-1.8 2.6-3.3 4.4-4.4 1.8-1.1 4-1.8 6.3-1.9-.1 2.3-.8 4.4-1.9 6.3-1.1 1.8-2.6 3.3-4.4 4.4-1.8 1.1-4 1.8-6.3 1.9.1-2.4.8-4.5 1.9-6.3zm4.4 17.9c-3.6-2.2-6.1-6.1-6.3-10.6 2.3.1 4.4.8 6.3 1.9 3.6 2.2 6.1 6.1 6.3 10.6-2.3-.1-4.5-.8-6.3-1.9zm7.3 1.9c.3-6.8 5.7-12.2 12.5-12.5-.2 6.8-5.7 12.2-12.5 12.5zm19.9-1.9c-3.6-2.2-6.1-6.1-6.3-10.6 2.3.1 4.4.8 6.3 1.9 3.6 2.2 6.1 6.1 6.3 10.6-2.4-.1-4.5-.8-6.3-1.9zm7.3 1.9c.3-6.8 5.7-12.2 12.5-12.5-.3 6.8-5.7 12.2-12.5 12.5zm19.8-1.9c-3.6-2.2-6.1-6.1-6.3-10.6 2.3.1 4.4.8 6.3 1.9 3.6 2.2 6.1 6.1 6.3 10.6-2.3-.1-4.4-.8-6.3-1.9zm7.4 1.9c.3-6.8 5.7-12.2 12.5-12.5-.3 6.8-5.8 12.2-12.5 12.5zm19.8-1.9c-3.6-2.2-6.1-6.1-6.3-10.6 2.3.1 4.4.8 6.3 1.9 3.6 2.2 6.1 6.1 6.3 10.6-2.3-.1-4.5-.8-6.3-1.9zm7.3 1.9c.3-6.8 5.7-12.2 12.5-12.5-.2 6.8-5.7 12.2-12.5 12.5zm19.9-1.9c-3.6-2.2-6.1-6.1-6.3-10.6 2.3.1 4.4.8 6.3 1.9 3.6 2.2 6.1 6.1 6.3 10.6-2.4-.1-4.5-.8-6.3-1.9zm7.3 1.9c.3-6.8 5.7-12.2 12.5-12.5-.3 6.8-5.7 12.2-12.5 12.5zm10.6-19.8c1.1 1.8 1.8 4 1.9 6.3-4.5-.2-8.4-2.6-10.6-6.3-1.1-1.8-1.8-4-1.9-6.3 4.5.2 8.4 2.6 10.6 6.3zm-10.6-7.4c.3-6.8 5.7-12.2 12.5-12.5-.3 6.8-5.7 12.3-12.5 12.5zm10.6-19.8c1.1 1.8 1.8 4 1.9 6.3-4.5-.2-8.4-2.6-10.6-6.3-1.1-1.8-1.8-4-1.9-6.3 4.5.2 8.4 2.7 10.6 6.3zM122.8 81c.3-6.8 5.7-12.2 12.5-12.5-.3 6.7-5.7 12.2-12.5 12.5zm10.6-19.9c1.1 1.8 1.8 4 1.9 6.3-4.5-.2-8.4-2.6-10.6-6.3-1.1-1.8-1.8-4-1.9-6.3 4.5.3 8.4 2.7 10.6 6.3zm-10.6-7.3c.3-6.8 5.7-12.2 12.5-12.5-.3 6.8-5.7 12.2-12.5 12.5zM133.4 34c1.1 1.8 1.8 4 1.9 6.3-4.5-.2-8.4-2.6-10.6-6.3-1.1-1.8-1.8-4-1.9-6.3 4.5.2 8.4 2.6 10.6 6.3zm-10.6-7.4c.3-6.8 5.7-12.2 12.5-12.5-.3 6.8-5.7 12.3-12.5 12.5z" style="opacity:.1;fill:#95b28e"/></svg>