<svg xmlns="http://www.w3.org/2000/svg" viewBox="0 0 200 200"><g style="opacity:.56"><path fill="#93bbd1" d="M6.4 48.3c0-3.5-2.9-6.4-6.4-6.4v1.5c2.7 0 4.9 2.2 4.9 4.9S2.7 53.2 0 53.2v1.5c3.5-.1 6.4-2.9 6.4-6.4zM43 68.7c0-3.3-2.7-6-6-6s-6 2.7-6 6 2.7 6 6 6c3.3.1 6-2.6 6-6zM69.1 26.6c3.5 0 6.4-2.8 6.4-6.4s-2.9-6.4-6.4-6.4c-3.5 0-6.4 2.9-6.4 6.4s2.9 6.4 6.4 6.4zm0-11.2c2.7 0 4.9 2.2 4.9 4.9s-2.2 4.9-4.9 4.9-4.9-2.2-4.9-4.9c0-2.8 2.2-4.9 4.9-4.9zM17.4 6.4c3.5 0 6.4-2.9 6.4-6.4h-1.5c0 2.7-2.2 4.9-4.9 4.9S12.5 2.7 12.5 0H11c0 3.5 2.9 6.4 6.4 6.4zM6.1 35.1c.1.2.2.4.5.5.2.1.5 0 .7-.1l5.6-4 1.5 6.6c.1.3.4.6.7.6h.2c.4-.1.7-.5.6-.9L14.1 30c-.1-.2-.2-.4-.5-.5-.2-.1-.5-.1-.7.1l-5.7 4-1.8-6.8c-.1-.2-.2-.4-.5-.5-.2-.1-.5 0-.7.1L0 29.5v1.8l4.3-3.1 1.8 6.9zM31.2 81.6c-.2-.1-.5-.1-.7.1l-5.7 4-1.7-6.7c-.1-.2-.2-.4-.5-.5-.2-.1-.5 0-.7.1l-6.5 4.7c-.3.2-.4.7-.2 1 .2.3.7.4 1 .2l5.7-4 1.8 6.8c.1.2.2.4.5.5.2.1.5 0 .7-.1l5.6-4 1.5 6.6c.1.3.4.6.7.6h.2c.4-.1.7-.5.6-.9l-1.8-7.7c-.1-.4-.3-.6-.5-.7zM18.4 54.3c-.2.1-.4.2-.5.5l-2.5 6.5-5.2-4.7c-.2-.2-.4-.2-.7-.2-.2.1-.4.2-.5.5l-3 7.3c-.2.4 0 .8.4 1 .1 0 .2.1.3.1.3 0 .6-.2.7-.5l2.5-6.5 5.2 4.7c.2.2.4.2.7.2.2-.1.4-.2.5-.5l2.5-6.4 4.9 4.7c.3.3.8.3 1.1 0 .3-.3.3-.8 0-1.1L19 54.5c-.1-.2-.4-.3-.6-.2zM83.7 86.2c.3-.3.3-.8 0-1.1L78 79.7c-.2-.2-.4-.2-.7-.2-.2.1-.4.2-.5.5l-2.5 6.5-5.3-4.8c-.2-.2-.4-.2-.7-.2-.2.1-.4.2-.5.5l-2.9 7.5c-.2.4 0 .8.4 1 .1 0 .2.1.3.1.3 0 .6-.2.7-.5l2.5-6.5 5.2 4.7c.2.2.4.2.7.2.2-.1.4-.2.5-.5l2.5-6.4 4.9 4.7c.3.2.8.2 1.1-.1zM55.2 28.2l-2.5 6.5-5.2-4.7c-.2-.2-.4-.2-.7-.2-.2.1-.4.2-.5.5l-2.9 7.5c-.2.4 0 .8.4 1 .1 0 .2.1.3.1.3 0 .6-.2.7-.5l2.5-6.5 5.2 4.7c.2.2.4.2.7.2.2-.1.4-.2.5-.5l2.5-6.4 4.9 4.7c.3.3.8.3 1.1 0 .3-.3.3-.8 0-1.1L56.5 28c-.2-.2-.4-.2-.7-.2-.3 0-.5.2-.6.4zM30 9.5h.1c.4 0 .7-.3.7-.6l1.4-6.8 5.9 3.7c.3.2.5.2.8.1.2-.1.4-.3.4-.6L40.4 0h-1.5l-.8 4L32.2.3c-.2-.1-.5-.2-.7-.1-.2.1-.4.3-.4.6l-1.6 7.9c-.1.4.1.7.5.8zM47.4 2.2c.2-.4.1-.8-.2-1L45.5 0h-2.7l3.5 2.4c.4.2.8.1 1.1-.2zM10.7 22c.1 0 .2 0 .3-.1l3.4-1.8 1.6 3.1c.1.3.4.4.7.4.1 0 .2 0 .3-.1.4-.2.5-.6.3-1l-1.7-3.1 3.4-1.8c.4-.2.5-.6.3-1s-.6-.5-1-.3l-3.4 1.8-1.5-3.1c-.2-.4-.6-.5-1-.3s-.5.6-.3 1l1.6 3.1-3.4 1.8c-.4.2-.5.6-.3 1 .2.3.4.4.7.4zM83.6 25c.1 0 .2 0 .3-.1l3.4-1.8 1.7 3.1c.1.3.4.4.7.4.1 0 .2 0 .3-.1.4-.2.5-.6.3-1l-1.7-3.1 3.4-1.8c.4-.2.5-.6.3-1s-.6-.5-1-.3L88 21.1 86.4 18c-.2-.4-.6-.5-1-.3s-.5.6-.3 1l1.7 3.1-3.4 1.8c-.4.2-.5.6-.3 1-.1.2.2.4.5.4zM2 93.1c.1 0 .2 0 .3-.1.4-.2.5-.6.3-1L1 88.9l3.4-1.8c.4-.2.5-.6.3-1s-.7-.5-1-.3L.3 87.6l-.3-.7v3.2l1.3 2.5c.2.3.4.5.7.5zM45.3 12.2c0 .4.3.8.7.8l3.8.3-.3 3.5c0 .4.3.8.7.8h.1c.4 0 .7-.3.7-.7l.3-3.5 3.8.3h.1c.4 0 .7-.3.7-.7 0-.4-.3-.8-.7-.8l-3.8-.3.3-3.5c0-.4-.3-.8-.7-.8-.4 0-.8.3-.8.7l-.3 3.5-3.8-.3c-.4 0-.8.3-.8.7zM52.2 79l-1.4 3.2-3.5-1.6c-.4-.2-.8 0-1 .4-.2.4 0 .8.4 1l3.5 1.6-1.4 3.2c-.2.4 0 .8.4 1 .1 0 .2.1.3.1.3 0 .6-.2.7-.4l1.4-3.2 3.5 1.6c.1 0 .2.1.3.1.3 0 .6-.2.7-.4.2-.4 0-.8-.4-1L52.2 83l1.4-3.2c.2-.4 0-.8-.4-1-.4-.4-.8-.2-1 .2zM40.1 44.5l-.3 3.5-3.8-.2c-.4 0-.8.3-.8.7 0 .4.3.8.7.8l3.8.3-.3 3.5c0 .4.3.8.7.8h.1c.4 0 .7-.3.7-.7l.3-3.5 3.8.3h.1c.4 0 .7-.3.7-.7 0-.4-.3-.8-.7-.8l-3.8-.3.3-3.5c0-.4-.3-.8-.7-.8-.4-.1-.8.2-.8.6zM86 54.7c-.4 0-.8.3-.8.7l-.3 3.5-3.9-.2c-.4 0-.8.3-.8.7 0 .4.3.8.7.8l3.8.3-.2 3.5c0 .4.3.8.7.8h.1c.4 0 .7-.3.7-.7l.3-3.5 3.8.3h.1c.4 0 .7-.3.7-.7 0-.4-.3-.8-.7-.8l-3.8-.3.3-3.5c0-.5-.3-.8-.7-.9zM5 17.7c.1 0 .2 0 .3-.1.2-.1.4-.4.4-.6l.7-12.3c0-.3-.1-.5-.4-.7-.2-.1-.5-.1-.7 0L0 7.1v1.7L4.8 6l-.6 9.6L0 13v1.8l4.6 2.8c.1.1.2.1.4.1zM26.3 26.1l12.3 1c.2 0 .3-.1.4-.2.1-.1.1-.3 0-.4l-6-10.7c-.1-.1-.2-.2-.4-.2-.1 0-.3.1-.4.2l-6.3 9.7c-.1.1-.1.3 0 .4.1.1.2.2.4.2zM53 55.1c-.2.2-.3.4-.3.7l.9 12.3c0 .3.2.5.4.6.1 0 .2.1.3.1.2 0 .3-.1.5-.2l9.7-7.5c.2-.2.3-.4.3-.7 0-.3-.2-.5-.4-.6L53.8 55c-.3 0-.6 0-.8.1zm9.5 5.6-7.6 5.9-.6-9.6 8.2 3.7zM83.7 32.4l-11.1 5.3c-.1.1-.2.2-.2.4s.1.3.2.4l10.5 6.3c.1 0 .1.1.2.1h.2c.1-.1.2-.2.2-.4l.7-11.6c0-.2-.1-.3-.2-.4-.2-.1-.3-.1-.5-.1zM80.8 8.7c.1 0 .1.1.2.1s.2 0 .2-.1c.1-.1.2-.2.2-.4L80.9 0h-8l-2.8 1.7c-.1.1-.2.2-.2.4 0 .1.1.3.2.4l10.7 6.2zM4.1 75.6c.2 0 .3-.1.4-.2.1-.1.1-.3 0-.4L0 66.9v8.4l4.1.3zM104.6 17.6c.1.1.3.1.4.1.1 0 .2 0 .3-.1.2-.1.4-.4.4-.6l.7-12.3c0-.3-.1-.5-.4-.7-.1-.1-.3-.1-.4-.1-.1 0-.3 0-.4.1l-10.6 6.2c-.2.1-.4.4-.4.6 0 .3.1.5.4.7l10 6.1zm.2-11.6-.6 9.6-7.7-4.8 8.3-4.8zM63.3 9.1c.1 0 .2 0 .3-.1.4-.2.6-.7.4-1l-4.2-8h-1.7l4.6 8.7c.1.2.3.4.6.4zM87.7 7.8c.1 0 .2.1.3.1.3 0 .5-.2.7-.4L92 0h-1.7l-3.1 6.8c-.1.4.1.9.5 1zM30.4 37.7l-10.1 7.2c-.3.2-.4.7-.2 1 .1.2.4.3.6.3.2 0 .3 0 .4-.1l10.1-7.2c.3-.2.4-.7.2-1-.2-.4-.7-.4-1-.2zM71.2 74.8c.4 0 .7-.3.7-.6l1.7-12.3c.1-.4-.2-.8-.6-.8-.4-.1-.8.2-.8.6L70.5 74c-.1.4.2.8.6.8h.1zM60.4 44.2c-.2.4 0 .8.3 1l11.1 5.5c.1.1.2.1.3.1.3 0 .5-.2.7-.4.2-.4 0-.8-.3-1l-11.1-5.5c-.4-.2-.8-.1-1 .3zM100 54.6c3.5 0 6.4-2.9 6.4-6.4 0-3.5-2.9-6.4-6.4-6.4-3.5 0-6.4 2.9-6.4 6.4 0 3.6 2.9 6.4 6.4 6.4zm0-11.2c2.7 0 4.9 2.2 4.9 4.9s-2.2 4.9-4.9 4.9-4.9-2.2-4.9-4.9 2.2-4.9 4.9-4.9zM143 68.7c0-3.3-2.7-6-6-6s-6 2.7-6 6 2.7 6 6 6c3.3.1 6-2.6 6-6zM169.1 26.6c3.5 0 6.4-2.8 6.4-6.4s-2.9-6.4-6.4-6.4-6.4 2.9-6.4 6.4 2.9 6.4 6.4 6.4zm0-11.2c2.7 0 4.9 2.2 4.9 4.9s-2.2 4.9-4.9 4.9-4.9-2.2-4.9-4.9c0-2.8 2.2-4.9 4.9-4.9zM117.4 6.4c3.5 0 6.4-2.9 6.4-6.4h-1.5c0 2.7-2.2 4.9-4.9 4.9s-4.9-2.2-4.9-4.9H111c0 3.5 2.9 6.4 6.4 6.4zM105 26.3c-.2-.1-.5 0-.7.1l-6.5 4.7c-.3.2-.4.7-.2 1 .2.3.7.4 1 .2l5.7-4 1.8 6.8c.1.2.2.4.5.5.1 0 .2.1.4 0 .1 0 .2-.1.3-.1l5.6-4 1.5 6.6c.1.3.4.6.7.6h.2c.4-.1.7-.5.6-.9l-1.8-7.7c-.1-.2-.2-.4-.5-.5-.1 0-.2-.1-.4 0-.1 0-.2.1-.3.1l-5.7 4-1.8-6.8c0-.3-.1-.5-.4-.6zM131.2 81.6c-.2-.1-.5-.1-.7.1l-5.7 4-1.8-6.8c-.1-.2-.2-.4-.5-.5-.2-.1-.5 0-.7.1l-6.5 4.7c-.3.2-.4.7-.2 1 .2.3.7.4 1 .2l5.7-4 1.8 6.8c.1.2.2.4.5.5.2.1.5 0 .7-.1l5.6-4 1.5 6.6c.1.3.4.6.7.6h.2c.4-.1.7-.5.6-.9l-1.8-7.7c0-.3-.2-.5-.4-.6zM118.4 54.3c-.2.1-.4.2-.5.5l-2.5 6.5-5.2-4.7c-.2-.2-.4-.2-.7-.2-.2.1-.4.2-.5.5l-2.9 7.5c-.2.4 0 .8.4 1 .1 0 .2.1.3.1.3 0 .6-.2.7-.5l2.5-6.5 5.2 4.7c.2.2.4.2.7.2.2-.1.4-.2.5-.5l2.5-6.4 4.9 4.7c.3.3.8.3 1.1 0 .3-.3.3-.8 0-1.1l-5.7-5.5c-.3-.3-.6-.4-.8-.3zM183.7 86.2c.3-.3.3-.8 0-1.1l-5.7-5.5c-.2-.2-.4-.2-.7-.2-.2.1-.4.2-.5.5l-2.5 6.5-5.2-4.7c-.2-.2-.4-.2-.7-.2-.2.1-.4.2-.5.5l-2.9 7.5c-.2.4 0 .8.4 1 .1 0 .2.1.3.1.3 0 .6-.2.7-.5l2.5-6.5 5.2 4.7c.2.2.4.2.7.2.2-.1.4-.2.5-.5l2.5-6.4 4.9 4.7c.2.2.7.2 1-.1zM155.2 28.2l-2.5 6.5-5.2-4.7c-.2-.2-.4-.2-.7-.2-.2.1-.4.2-.5.5l-2.9 7.5c-.2.4 0 .8.4 1 .1 0 .2.1.3.1.3 0 .6-.2.7-.5l2.5-6.5 5.2 4.7c.2.2.4.2.7.2.2-.1.4-.2.5-.5l2.5-6.4 4.9 4.7c.3.3.8.3 1.1 0 .3-.3.3-.8 0-1.1l-5.7-5.5c-.2-.2-.4-.2-.7-.2-.3 0-.5.2-.6.4zM130 9.5h.1c.4 0 .7-.3.7-.6l1.4-6.8 5.9 3.7c.2.1.5.2.7.1.2-.1.4-.3.4-.6l1.1-5.4h-1.5l-.8 4-5.9-3.7c-.2-.1-.5-.2-.7-.1-.2.1-.4.3-.4.6l-1.6 7.9c0 .5.2.8.6.9zM147.4 2.2c.2-.4.1-.8-.2-1L145.5 0h-2.7l3.5 2.4c.4.2.8.1 1.1-.2zM110.7 22c.1 0 .2 0 .3-.1l3.4-1.8 1.6 3.1c.1.3.4.4.7.4.1 0 .2 0 .3-.1.4-.2.5-.6.3-1l-1.7-3.1 3.4-1.8c.4-.2.5-.6.3-1s-.6-.5-1-.3l-3.4 1.8-1.6-3.1c-.2-.4-.6-.5-1-.3s-.5.6-.3 1l1.6 3.1-3.4 1.8c-.4.2-.5.6-.3 1 .3.3.5.4.8.4zM183.6 25c.1 0 .2 0 .3-.1l3.4-1.8 1.6 3.1c.1.3.4.4.7.4.1 0 .2 0 .3-.1.4-.2.5-.6.3-1l-1.6-3.1 3.4-1.8c.4-.2.5-.6.3-1s-.6-.5-1-.3l-3.4 1.8-1.6-3.1c-.2-.4-.6-.5-1-.3s-.5.6-.3 1l1.6 3.1-3.4 1.8c-.4.2-.5.6-.3 1 .1.2.4.4.7.4zM103.7 85.7l-3.4 1.8-1.7-3.1c-.2-.4-.6-.5-1-.3s-.5.6-.3 1l1.7 3.1-3.4 1.8c-.4.2-.5.6-.3 1 .1.3.4.4.7.4.1 0 .2 0 .3-.1l3.4-1.8 1.7 3.1c.1.3.4.4.7.4.1 0 .2 0 .3-.1.4-.2.5-.6.3-1l-1.7-3.1 3.4-1.8c.4-.2.5-.6.3-1-.2-.3-.6-.5-1-.3zM145.3 12.2c0 .4.3.8.7.8l3.8.3-.3 3.5c0 .4.3.8.7.8h.1c.4 0 .7-.3.7-.7l.3-3.5 3.8.3h.1c.4 0 .7-.3.7-.7 0-.4-.3-.8-.7-.8l-3.8-.3.3-3.5c0-.4-.3-.8-.7-.8-.4 0-.8.3-.8.7l-.3 3.5-3.8-.3c-.4 0-.8.3-.8.7zM152.2 79l-1.4 3.2-3.5-1.6c-.4-.2-.8 0-1 .4-.2.4 0 .8.4 1l3.5 1.6-1.4 3.2c-.2.4 0 .8.4 1 .1 0 .2.1.3.1.3 0 .6-.2.7-.4l1.4-3.2 3.5 1.6c.1 0 .2.1.3.1.3 0 .6-.2.7-.4.2-.4 0-.8-.4-1l-3.5-1.6 1.4-3.2c.2-.4 0-.8-.4-1-.4-.4-.8-.2-1 .2zM140.1 44.5l-.3 3.5-3.8-.3c-.4 0-.8.3-.8.7 0 .4.3.8.7.8l3.8.3-.3 3.5c0 .4.3.8.7.8h.1c.4 0 .7-.3.7-.7l.3-3.5 3.8.4h.1c.4 0 .7-.3.7-.7 0-.4-.3-.8-.7-.8l-3.8-.3.3-3.5c0-.4-.3-.8-.7-.8-.4-.1-.8.2-.8.6zM190.2 59.4l-3.8-.3.3-3.5c0-.4-.3-.8-.7-.8-.4 0-.8.3-.8.7l-.3 3.5-3.8-.3c-.4 0-.8.3-.8.7 0 .4.3.8.7.8l3.8.3-.3 3.5c0 .4.3.8.7.8h.1c.4 0 .7-.3.7-.7l.3-3.5 3.8.3h.1c.4 0 .7-.3.7-.7 0-.4-.3-.8-.7-.8zM126.3 26.1l12.3 1c.2 0 .3-.1.4-.2.1-.1.1-.3 0-.4l-6-10.7c-.1-.1-.2-.2-.4-.2s-.3.1-.4.2l-6.3 9.7c-.1.1-.1.3 0 .4.1.1.2.2.4.2zM153 55.1c-.2.2-.3.4-.3.7l.9 12.3c0 .3.2.5.4.6.1 0 .2.1.3.1.2 0 .3-.1.5-.2l9.7-7.5c.2-.2.3-.4.3-.7 0-.3-.2-.5-.4-.6L153.8 55c-.3 0-.6 0-.8.1zm9.5 5.6-7.6 5.9-.7-9.6 8.3 3.7zM183.3 44.8h.2c.1-.1.2-.2.2-.4l.7-11.6c0-.2-.1-.3-.2-.4-.1-.1-.3-.1-.4 0l-11.1 5.3c-.1.1-.2.2-.2.4s.1.3.2.4l10.5 6.3h.1zM180.8 8.7c.1 0 .1.1.2.1s.2 0 .2-.1c.1-.1.2-.2.2-.4l-.5-8.3h-8l-2.8 1.7c-.1.1-.2.2-.2.4 0 .1.1.3.2.4l10.7 6.2zM98.6 64.3c-.1-.1-.2-.2-.4-.2s-.3.1-.4.2L91.5 74c-.1.1-.1.3 0 .4.1.1.2.2.4.2l12.3 1c.2 0 .3-.1.4-.2.1-.1.1-.3 0-.4l-6-10.7zM193.6 48.3c0 3.5 2.8 6.4 6.4 6.4v-1.5c-2.7 0-4.9-2.2-4.9-4.9s2.2-4.9 4.9-4.9v-1.5c-3.5 0-6.4 2.9-6.4 6.4zM197.6 32.2c.2.3.7.4 1 .2l1.3-1v-1.8l-2.2 1.6c-.2.2-.3.6-.1 1zM197.7 84.1c-.4.2-.5.6-.3 1l1.6 3.1-3.4 1.8c-.4.2-.5.6-.3 1 .1.3.4.4.7.4.1 0 .2 0 .3-.1l3.4-1.8.3.6v-3.2l-1.3-2.5c-.2-.4-.7-.5-1-.3zM200 7.1l-5.3 3.1c-.2.1-.4.4-.4.6 0 .3.1.5.3.7l5.3 3.3V13l-3.4-2.1 3.4-2V7.1zM198.2 64.1c-.2 0-.3.1-.4.2l-6.3 9.7c-.1.1-.1.3 0 .4.1.1.2.2.4.2l8.2.6v-8.4l-1.4-2.6c-.2 0-.4-.1-.5-.1zM163.3 9.1c.1 0 .2 0 .3-.1.4-.2.5-.7.3-1l-4.2-8H158l4.6 8.7c.2.2.4.4.7.4zM187.6 7.8c.1 0 .2.1.3.1.3 0 .6-.2.7-.4L192 0h-1.6l-3.1 6.8c-.2.4 0 .9.3 1zM130.4 37.7l-10.1 7.2c-.3.2-.4.7-.2 1 .1.2.4.3.6.3.2 0 .3 0 .4-.1l10.1-7.2c.3-.2.4-.7.2-1-.2-.4-.7-.4-1-.2zM171.2 74.8c.4 0 .7-.3.7-.6l1.7-12.3c.1-.4-.2-.8-.6-.8-.4-.1-.8.2-.8.6L170.5 74c-.1.4.2.8.6.8h.1zM160.4 44.2c-.2.4 0 .8.3 1l11.1 5.5c.1.1.2.1.3.1.3 0 .5-.2.7-.4.2-.4 0-.8-.3-1l-11.1-5.5c-.4-.2-.8-.1-1 .3zM6.4 148.3c0-3.5-2.9-6.4-6.4-6.4v1.5c2.7 0 4.9 2.2 4.9 4.9s-2.2 4.9-4.9 4.9v1.5c3.5-.1 6.4-2.9 6.4-6.4zM43 168.7c0-3.3-2.7-6-6-6s-6 2.7-6 6 2.7 6 6 6c3.3.1 6-2.6 6-6zM69.1 126.6c3.5 0 6.4-2.9 6.4-6.4 0-3.5-2.9-6.4-6.4-6.4-3.5 0-6.4 2.9-6.4 6.4 0 3.5 2.9 6.4 6.4 6.4zm0-11.2c2.7 0 4.9 2.2 4.9 4.9s-2.2 4.9-4.9 4.9-4.9-2.2-4.9-4.9c0-2.8 2.2-4.9 4.9-4.9zM23.8 100c0-3.5-2.9-6.4-6.4-6.4-3.5 0-6.4 2.8-6.4 6.4 0 3.5 2.9 6.4 6.4 6.4 3.5 0 6.4-2.9 6.4-6.4zm-6.4 4.9c-2.7 0-4.9-2.2-4.9-4.9s2.2-4.9 4.9-4.9 4.9 2.2 4.9 4.9-2.2 4.9-4.9 4.9zM6.1 135.1c.1.2.2.4.5.5.2.1.5 0 .7-.1l5.6-4 1.5 6.6c.1.4.4.6.7.6h.2c.4-.1.7-.5.6-.9l-1.8-7.7c-.1-.2-.2-.4-.5-.5-.2-.1-.5-.1-.7.1l-5.7 4-1.8-6.8c-.1-.2-.2-.4-.5-.5-.2-.1-.5-.1-.7.1l-4.2 3v1.8l4.3-3.1 1.8 6.9zM31.7 182.2c-.1-.2-.2-.4-.5-.5-.2-.1-.5-.1-.7.1l-5.7 4L23 179c-.1-.2-.2-.4-.5-.5-.2-.1-.5 0-.7.1l-6.5 4.7c-.3.2-.4.7-.2 1 .2.3.7.4 1 .2l5.7-4 1.8 6.8c.1.2.2.4.5.5.2.1.5 0 .7-.1l5.6-4 1.5 6.6c.1.3.4.6.7.6h.2c.4-.1.7-.5.6-.9l-1.7-7.8zM15.8 163.2c.2-.1.4-.2.5-.5l2.5-6.4 4.9 4.7c.3.3.8.3 1.1 0 .3-.3.3-.8 0-1.1l-5.7-5.5c-.2-.2-.4-.2-.7-.2-.2.1-.4.2-.5.5l-2.5 6.5-5.2-4.7c-.2-.2-.4-.2-.7-.2-.2.1-.4.2-.5.5l-3 7.4c-.2.4 0 .8.4 1 .1 0 .2.1.3.1.3 0 .6-.2.7-.5l2.5-6.5 5.2 4.7c.2.2.4.3.7.2zM78 179.7c-.2-.2-.4-.2-.7-.2-.2.1-.4.2-.5.5l-2.5 6.5-5.2-4.7c-.2-.2-.4-.2-.7-.2-.2.1-.4.2-.5.5l-2.9 7.5c-.2.4 0 .8.4 1 .1 0 .2.1.3.1.3 0 .6-.2.7-.5l2.5-6.5 5.2 4.7c.2.2.4.2.7.2.2-.1.4-.2.5-.5l2.5-6.4 4.9 4.7c.3.3.8.3 1.1 0 .3-.3.3-.8 0-1.1l-5.8-5.6zM43.8 138.7c.1 0 .2.1.3.1.3 0 .6-.2.7-.5l2.5-6.5 5.2 4.7c.2.2.4.2.7.2.2-.1.4-.2.5-.5l2.5-6.4 4.9 4.7c.3.3.8.3 1.1 0 .3-.3.3-.8 0-1.1l-5.7-5.5c-.2-.2-.4-.2-.7-.2-.2.1-.4.2-.5.5l-2.5 6.5-5.2-4.7c-.2-.2-.4-.2-.7-.2-.2.1-.4.2-.5.5l-2.9 7.5c-.3.3-.1.7.3.9zM39.3 105.4l1.3-6.8 5.7 3.8c.3.2.8.1 1-.2.2-.3.1-.8-.2-1l-6.6-4.4c-.2-.1-.5-.2-.7-.1-.2.1-.4.3-.4.5L38 104l-5.9-3.7c-.2-.1-.5-.2-.7-.1-.2.1-.4.3-.4.5l-1.6 7.9c-.1.4.2.8.6.9h.1c.4 0 .7-.2.7-.6l1.4-6.8 5.9 3.7c.2.1.5.2.7.1.3-.1.5-.3.5-.5zM19.5 116.6c-.2-.4-.6-.5-1-.3l-3.4 1.8-1.6-3.1c-.2-.4-.6-.5-1-.3s-.5.6-.3 1l1.6 3.1-3.4 1.8c-.4.2-.5.6-.3 1 .1.3.4.4.7.4.1 0 .2 0 .3-.1l3.4-1.8 1.6 3.1c.1.3.4.4.7.4.1 0 .2 0 .3-.1.4-.2.5-.6.3-1l-1.7-3.1 3.4-1.8c.5-.2.6-.6.4-1zM92.4 119.6c-.2-.4-.6-.5-1-.3l-3.4 1.8-1.6-3.1c-.2-.4-.6-.5-1-.3s-.5.6-.3 1l1.7 3.1-3.4 1.8c-.4.2-.5.6-.3 1 .1.3.4.4.7.4.1 0 .2 0 .3-.1l3.4-1.8 1.7 3.1c.1.3.4.4.7.4.1 0 .2 0 .3-.1.4-.2.5-.6.3-1l-1.7-3.1 3.4-1.8c.2-.2.4-.6.2-1zM3.7 185.7l-3.4 1.8-.3-.6v3.2l1.3 2.5c.1.3.4.4.7.4.1 0 .2 0 .3-.1.4-.2.5-.6.3-1l-1.6-3 3.4-1.8c.4-.2.5-.7.3-1-.2-.4-.6-.6-1-.4zM50.2 117.6c.1 0 .1 0 0 0 .4 0 .8-.3.8-.7l.3-3.5 3.8.3h.1c.4 0 .7-.3.7-.7 0-.4-.3-.8-.7-.8l-3.8-.3.3-3.5c0-.4-.3-.8-.7-.8-.4 0-.8.3-.8.7l-.3 3.5-3.8-.3c-.4 0-.8.3-.8.7 0 .4.3.8.7.8l3.8.3-.3 3.5c0 .4.3.8.7.8zM55.7 184.4l-3.5-1.6 1.4-3.2c.2-.4 0-.8-.4-1-.4-.2-.8 0-1 .4l-1.4 3.2-3.5-1.6c-.4-.2-.8 0-1 .4-.2.4 0 .8.4 1l3.5 1.6-1.4 3.2c-.2.4 0 .8.4 1 .1 0 .2.1.3.1.3 0 .6-.2.7-.4l1.4-3.2 3.5 1.6c.1 0 .2.1.3.1.3 0 .6-.2.7-.4.1-.6 0-1-.4-1.2zM45.1 148.5l-3.8-.3.3-3.5c0-.4-.3-.8-.7-.8-.4 0-.8.3-.8.7l-.3 3.5-3.8-.3c-.4 0-.8.3-.8.7 0 .4.3.8.7.8l3.8.3-.3 3.5c0 .4.3.8.7.8h.1c.4 0 .7-.3.7-.7l.3-3.5 3.8.3h.1c.4 0 .7-.3.7-.7.1-.4-.2-.8-.7-.8zM90.9 160.2c0-.4-.3-.8-.7-.8l-3.8-.3.3-3.5c0-.4-.3-.8-.7-.8-.4 0-.8.3-.8.7l-.3 3.5-3.8-.3c-.4 0-.8.3-.8.7 0 .4.3.8.7.8l3.8.3-.3 3.5c0 .4.3.8.7.8h.1c.4 0 .7-.3.7-.7l.3-3.5 3.8.3h.1c.3 0 .7-.3.7-.7zM5 117.7c.1 0 .2 0 .3-.1.2-.1.4-.4.4-.6l.7-12.3c0-.3-.1-.5-.4-.7-.2-.1-.5-.1-.8 0L0 107.1v1.7l4.8-2.8-.6 9.6L0 113v1.8l4.6 2.8c.1.1.2.1.4.1zM38.6 127c.1 0 .3-.1.4-.2.1-.1.1-.3 0-.4l-6-10.7c-.1-.1-.2-.2-.4-.2-.1 0-.3.1-.4.2l-6.3 9.7c-.1.1-.1.3 0 .4.1.1.2.2.4.2l12.3 1zM64.3 159.9l-10.6-4.8c-.2-.1-.5-.1-.7.1-.2.1-.3.4-.3.7l.9 12.3c0 .3.2.5.4.6.1 0 .2.1.3.1.2 0 .3-.1.5-.2l9.7-7.5c.2-.2.3-.4.3-.7-.1-.3-.3-.5-.5-.6zm-9.4 6.7-.7-9.6 8.3 3.8-7.6 5.8zM83.3 144.8h.2c.1-.1.2-.2.2-.4l.7-11.6c0-.2-.1-.3-.2-.4-.1-.1-.3-.1-.4 0l-11.1 5.3c-.1.1-.2.2-.2.4s.1.3.2.4l10.5 6.3h.1zM81 108.7c.1 0 .2 0 .2-.1.1-.1.2-.2.2-.4L80.7 96c0-.2-.1-.3-.2-.4-.1-.1-.3-.1-.4 0l-9.9 6c-.1.1-.2.2-.2.4s.1.3.2.4l10.6 6.2c0 .1.1.1.2.1zM4.1 175.6c.2 0 .3-.1.4-.2.1-.1.1-.3 0-.4L0 166.9v8.4l4.1.3zM106.9 135.6c.1 0 .2-.1.3-.1l5.6-4 1.5 6.6c.1.3.4.6.7.6h.2c.4-.1.7-.5.6-.9l-1.8-7.7c-.1-.2-.2-.4-.5-.5-.1 0-.2-.1-.4 0-.1 0-.2.1-.3.1l-5.7 4-1.8-6.8c-.1-.2-.2-.4-.5-.5-.2-.1-.5 0-.7.1l-6.5 4.7c-.3.2-.4.7-.2 1 .2.3.7.4 1 .2l5.7-4 1.8 6.8c.1.2.2.4.5.5.3-.1.4-.1.5-.1zM105.3 104l-10.6 6.2c-.2.1-.4.4-.4.6 0 .3.1.5.4.6l9.9 6.1c.1.1.3.1.4.1.1 0 .2 0 .3-.1.2-.1.4-.4.4-.6l.7-12.3c0-.3-.1-.5-.4-.7-.1-.1-.3-.1-.4-.1-.1.1-.2.1-.3.2zm-1 11.6-7.7-4.8 8.3-4.8-.6 9.6zM63.7 109c.4-.2.5-.6.3-1l-5.8-11c-.2-.4-.6-.5-1-.3s-.5.6-.3 1l5.8 11c.1.3.4.4.7.4 0 0 .1-.1.3-.1zM87.6 107.8c.1 0 .2.1.3.1.3 0 .6-.2.7-.4l5.1-11.3c.2-.4 0-.8-.4-1-.4-.2-.8 0-1 .4l-5.1 11.3c-.1.3.1.8.4.9zM17.4 193.6c-3.5 0-6.4 2.8-6.4 6.4h1.5c0-2.7 2.2-4.9 4.9-4.9s4.9 2.2 4.9 4.9h1.5c0-3.5-2.9-6.4-6.4-6.4zM39.9 196.6c-.2.1-.4.3-.5.6l-.6 2.8h1.5l.3-1.4 2.1 1.4h2.7l-5-3.3c-.1-.1-.3-.2-.5-.1zM80.5 195.7c-.1-.1-.3-.1-.4 0L73 200h8l-.2-3.9c-.1-.2-.2-.3-.3-.4zM57.2 196.7c-.4.2-.5.7-.3 1l1.2 2.3h1.7l-1.6-3c-.2-.4-.7-.5-1-.3zM93.4 195.2c-.4-.2-.8 0-1 .4l-2 4.5H92l1.8-3.8c.2-.5 0-1-.4-1.1zM20.7 146.3c.2 0 .3 0 .4-.1l10.1-7.2c.3-.2.4-.7.2-1-.2-.3-.7-.4-1-.2L20.3 145c-.3.2-.4.7-.2 1 .1.2.4.3.6.3zM71.1 174.8h.1c.4 0 .7-.3.7-.6l1.7-12.3c.1-.4-.2-.8-.6-.8-.4-.1-.8.2-.8.6L70.5 174c-.1.4.2.8.6.8zM60.8 145.2l11.1 5.5c.1.1.2.1.3.1.3 0 .5-.2.7-.4.2-.4 0-.8-.3-1l-11.1-5.5c-.4-.2-.8 0-1 .3-.3.4-.1.8.3 1zM100 141.9c-3.5 0-6.4 2.9-6.4 6.4 0 3.5 2.8 6.4 6.4 6.4 3.5 0 6.4-2.9 6.4-6.4 0-3.5-2.9-6.4-6.4-6.4zm0 11.2c-2.7 0-4.9-2.2-4.9-4.9s2.2-4.9 4.9-4.9 4.9 2.2 4.9 4.9-2.2 4.9-4.9 4.9zM143 168.7c0-3.3-2.7-6-6-6s-6 2.7-6 6 2.7 6 6 6c3.3.1 6-2.6 6-6zM169.1 126.6c3.5 0 6.4-2.9 6.4-6.4 0-3.5-2.9-6.4-6.4-6.4s-6.4 2.9-6.4 6.4c0 3.5 2.9 6.4 6.4 6.4zm0-11.2c2.7 0 4.9 2.2 4.9 4.9s-2.2 4.9-4.9 4.9-4.9-2.2-4.9-4.9c0-2.8 2.2-4.9 4.9-4.9zM123.8 100c0-3.5-2.9-6.4-6.4-6.4-3.5 0-6.4 2.8-6.4 6.4 0 3.5 2.8 6.4 6.4 6.4 3.5 0 6.4-2.9 6.4-6.4zm-6.4 4.9c-2.7 0-4.9-2.2-4.9-4.9s2.2-4.9 4.9-4.9 4.9 2.2 4.9 4.9-2.2 4.9-4.9 4.9zM131.7 182.2c-.1-.2-.2-.4-.5-.5-.2-.1-.5-.1-.7.1l-5.7 4-1.8-6.8c-.1-.2-.2-.4-.5-.5-.2-.1-.5 0-.7.1l-6.5 4.7c-.3.2-.4.7-.2 1 .2.3.7.4 1 .2l5.7-4 1.8 6.8c.1.2.2.4.5.5.2.1.5 0 .7-.1l5.6-4 1.5 6.6c.1.3.4.6.7.6h.2c.4-.1.7-.5.6-.9l-1.7-7.8zM115.8 163.2c.2-.1.4-.2.5-.5l2.5-6.4 4.9 4.7c.3.3.8.3 1.1 0 .3-.3.3-.8 0-1.1l-5.7-5.5c-.2-.2-.4-.2-.7-.2-.2.1-.4.2-.5.5l-2.5 6.5-5.2-4.7c-.2-.2-.4-.2-.7-.2-.2.1-.4.2-.5.5l-2.9 7.5c-.2.4 0 .8.4 1 .1 0 .2.1.3.1.3 0 .6-.2.7-.5l2.5-6.5 5.2 4.7c.1.1.3.2.6.1zM178 179.7c-.2-.2-.4-.2-.7-.2-.2.1-.4.2-.5.5l-2.5 6.5-5.2-4.7c-.2-.2-.4-.2-.7-.2-.2.1-.4.2-.5.5l-2.9 7.5c-.2.4 0 .8.4 1 .1 0 .2.1.3.1.3 0 .6-.2.7-.5l2.5-6.5 5.2 4.7c.2.2.4.2.7.2.2-.1.4-.2.5-.5l2.5-6.4 4.9 4.7c.3.3.8.3 1.1 0 .3-.3.3-.8 0-1.1l-5.8-5.6zM143.8 138.7c.1 0 .2.1.3.1.3 0 .6-.2.7-.5l2.5-6.5 5.2 4.7c.2.2.4.2.7.2.2-.1.4-.2.5-.5l2.5-6.4 4.9 4.7c.3.3.8.3 1.1 0 .3-.3.3-.8 0-1.1l-5.7-5.5c-.2-.2-.4-.2-.7-.2-.2.1-.4.2-.5.5l-2.5 6.5-5.2-4.7c-.2-.2-.4-.2-.7-.2-.2.1-.4.2-.5.5l-2.9 7.5c-.3.3-.1.7.3.9zM139.3 105.4l1.3-6.8 5.7 3.8c.3.2.8.1 1-.2.2-.3.1-.8-.2-1l-6.6-4.4c-.2-.1-.5-.2-.7-.1-.2.1-.4.3-.4.5L138 104l-5.9-3.7c-.2-.1-.5-.2-.7-.1-.2.1-.4.3-.4.5l-1.6 7.9c-.1.4.2.8.6.9h.1c.4 0 .7-.2.7-.6l1.4-6.8 5.9 3.7c.2.1.5.2.7.1.3-.1.5-.3.5-.5zM119.5 116.6c-.2-.4-.6-.5-1-.3l-3.4 1.8-1.6-3.1c-.2-.4-.6-.5-1-.3s-.5.6-.3 1l1.6 3.1-3.4 1.8c-.4.2-.5.6-.3 1 .1.3.4.4.7.4.1 0 .2 0 .3-.1l3.4-1.8 1.6 3.1c.1.3.4.4.7.4.1 0 .2 0 .3-.1.4-.2.5-.6.3-1l-1.7-3.1 3.4-1.8c.5-.2.6-.6.4-1zM192.4 119.6c-.2-.4-.6-.5-1-.3l-3.4 1.8-1.6-3.1c-.2-.4-.6-.5-1-.3s-.5.6-.3 1l1.6 3.1-3.4 1.8c-.4.2-.5.6-.3 1 .1.3.4.4.7.4.1 0 .2 0 .3-.1l3.4-1.8 1.6 3.1c.1.3.4.4.7.4.1 0 .2 0 .3-.1.4-.2.5-.6.3-1l-1.6-3.1 3.4-1.8c.3-.2.5-.6.3-1zM103.7 185.7l-3.4 1.8-1.7-3.1c-.2-.4-.6-.5-1-.3s-.5.6-.3 1l1.7 3.1-3.4 1.8c-.4.2-.5.6-.3 1 .1.3.4.4.7.4.1 0 .2 0 .3-.1l3.4-1.8 1.7 3.1c.1.3.4.4.7.4.1 0 .2 0 .3-.1.4-.2.5-.6.3-1l-1.7-3.1 3.4-1.8c.4-.2.5-.6.3-1-.2-.3-.6-.5-1-.3zM150.2 117.6c.1 0 .1 0 0 0 .4 0 .8-.3.8-.7l.3-3.5 3.8.3h.1c.4 0 .7-.3.7-.7 0-.4-.3-.8-.7-.8l-3.8-.3.3-3.5c0-.4-.3-.8-.7-.8-.4 0-.8.3-.8.7l-.3 3.5-3.8-.3c-.4 0-.8.3-.8.7 0 .4.3.8.7.8l3.8.3-.3 3.5c0 .4.3.8.7.8zM155.7 184.4l-3.5-1.6 1.4-3.2c.2-.4 0-.8-.4-1-.4-.2-.8 0-1 .4l-1.4 3.2-3.5-1.6c-.4-.2-.8 0-1 .4-.2.4 0 .8.4 1l3.5 1.6-1.4 3.2c-.2.4 0 .8.4 1 .1 0 .2.1.3.1.3 0 .6-.2.7-.4l1.4-3.2 3.5 1.6c.1 0 .2.1.3.1.3 0 .6-.2.7-.4.1-.6 0-1-.4-1.2zM145.1 148.5l-3.8-.3.3-3.5c0-.4-.3-.8-.7-.8-.4 0-.8.3-.8.7l-.3 3.5-3.8-.3c-.4 0-.8.3-.8.7 0 .4.3.8.7.8l3.8.3-.3 3.5c0 .4.3.8.7.8h.1c.4 0 .7-.3.7-.7l.3-3.5 3.8.3h.1c.4 0 .7-.3.7-.7.1-.4-.2-.8-.7-.8zM190.9 160.2c0-.4-.3-.8-.7-.8l-3.8-.3.3-3.5c0-.4-.3-.8-.7-.8-.4 0-.8.3-.8.7l-.3 3.5-3.8-.3c-.4 0-.8.3-.8.7 0 .4.3.8.7.8l3.8.3-.3 3.5c0 .4.3.8.7.8h.1c.4 0 .7-.3.7-.7l.3-3.5 3.8.3h.1c.3 0 .7-.3.7-.7zM138.6 127c.1 0 .3-.1.4-.2.1-.1.1-.3 0-.4l-6-10.7c-.1-.1-.2-.2-.4-.2s-.3.1-.4.2l-6.3 9.7c-.1.1-.1.3 0 .4.1.1.2.2.4.2l12.3 1zM164.3 159.9l-10.6-4.8c-.2-.1-.5-.1-.7.1-.2.1-.3.4-.3.7l.9 12.3c0 .3.2.5.4.6.1 0 .2.1.3.1.2 0 .3-.1.5-.2l9.7-7.5c.2-.2.3-.4.3-.7s-.3-.5-.5-.6zm-9.4 6.7-.7-9.6 8.3 3.8-7.6 5.8zM183.3 144.8h.2c.1-.1.2-.2.2-.4l.7-11.6c0-.2-.1-.3-.2-.4-.1-.1-.3-.1-.4 0l-11.1 5.3c-.1.1-.2.2-.2.4s.1.3.2.4l10.5 6.3h.1zM181 108.7c.1 0 .2 0 .2-.1.1-.1.2-.2.2-.4l-.7-12.2c0-.2-.1-.3-.2-.4-.1-.1-.3-.1-.4 0l-9.9 6c-.1.1-.2.2-.2.4s.1.3.2.4l10.6 6.2c0 .1.1.1.2.1zM91.8 174.7l12.3 1c.2 0 .3-.1.4-.2.1-.1.1-.3 0-.4l-6-10.7c-.1-.1-.2-.2-.4-.2s-.3.1-.4.2l-6.3 9.7c-.1.1-.1.3 0 .4.1.1.3.2.4.2zM193.6 148.3c0 3.5 2.8 6.4 6.4 6.4v-1.5c-2.7 0-4.9-2.2-4.9-4.9s2.2-4.9 4.9-4.9v-1.5c-3.5 0-6.4 2.9-6.4 6.4zM197.6 132.2c.2.3.7.4 1 .2l1.3-.9v-1.8l-2.2 1.6c-.2.1-.3.5-.1.9zM197.7 184.1c-.4.2-.5.6-.3 1l1.6 3.1-3.4 1.8c-.4.2-.5.6-.3 1 .1.3.4.4.7.4.1 0 .2 0 .3-.1l3.4-1.8.3.6v-3.2l-1.3-2.5c-.2-.4-.7-.5-1-.3zM194.4 110.8c0 .3.1.5.3.6l5.3 3.3V113l-3.4-2.1 3.4-2v-1.7l-5.3 3.1c-.2 0-.3.3-.3.5zM198.2 164.1c-.2 0-.3.1-.4.2l-6.3 9.7c-.1.1-.1.3 0 .4.1.1.2.2.4.2l8.2.6v-8.4l-1.4-2.6c-.2 0-.4-.1-.5-.1zM163.7 109c.4-.2.5-.6.3-1l-5.8-11c-.2-.4-.6-.5-1-.3s-.5.6-.3 1l5.8 11c.1.3.4.4.7.4 0 0 .1-.1.3-.1zM193.4 95.2c-.4-.2-.8 0-1 .4l-5.1 11.3c-.2.4 0 .8.4 1 .1 0 .2.1.3.1.3 0 .6-.2.7-.4l5.1-11.3c.2-.5 0-1-.4-1.1zM117.4 193.6c-3.5 0-6.4 2.8-6.4 6.4h1.5c0-2.7 2.2-4.9 4.9-4.9s4.9 2.2 4.9 4.9h1.5c0-3.5-2.9-6.4-6.4-6.4zM139.9 196.6c-.2.1-.4.3-.4.6l-.6 2.8h1.5l.3-1.4 2.1 1.4h2.7l-4.9-3.3c-.3-.1-.5-.2-.7-.1zM180.5 195.7c-.1-.1-.3-.1-.4 0L173 200h8l-.2-3.9c-.1-.2-.2-.3-.3-.4zM157.2 196.7c-.4.2-.5.7-.3 1l1.2 2.3h1.7l-1.6-3c-.2-.4-.7-.5-1-.3zM193.4 195.2c-.4-.2-.8 0-1 .4l-2 4.5h1.6l1.8-3.8c.2-.5 0-1-.4-1.1zM120.7 146.3c.2 0 .3 0 .4-.1l10.1-7.2c.3-.2.4-.7.2-1-.2-.3-.7-.4-1-.2l-10.1 7.2c-.3.2-.4.7-.2 1 .1.2.4.3.6.3zM171.1 174.8h.1c.4 0 .7-.3.7-.6l1.7-12.3c.1-.4-.2-.8-.6-.8-.4-.1-.8.2-.8.6l-1.7 12.3c-.1.4.2.8.6.8zM160.8 145.2l11.1 5.5c.1.1.2.1.3.1.3 0 .5-.2.7-.4.2-.4 0-.8-.3-1l-11.1-5.5c-.4-.2-.8 0-1 .3-.3.4-.1.8.3 1z"/></g></svg>