<svg xmlns="http://www.w3.org/2000/svg" class="svg-inline" viewBox="0 0 200 62"><path id="RTLogoText" d="M71.6 38h-3.8l-2.4-4.7h-1.5V38h-3.8V24h8.2c1.8 0 2.7.9 2.7 2.7v3.6c0 1.5-.6 2.4-1.9 2.7l2.5 5zm-4.7-7.6c.3 0 .4-.1.4-.4v-2.6c0-.3-.1-.4-.4-.4h-3v3.3l3 .1zm15.9 4.7h-4.1l-.8 2.9H74l4.2-14h5l4.3 14h-4l-.7-2.9zm-.8-3L80.7 27l-1.3 5.1H82zm8.3 3.2v-8.6c0-1.8.9-2.7 2.8-2.7h5.3c1.8 0 2.7.9 2.7 2.7v2.6h-3.8v-1.9c0-.3-.1-.4-.4-.4h-2.5c-.3 0-.4.1-.4.4v7c0 .3.1.4.4.4H97c.3 0 .4-.1.4-.4v-1.9h3.8v2.6c0 1.8-.9 2.7-2.7 2.7H93c-1.8.2-2.7-.7-2.7-2.5m22.8 2.7-2.4-5.5-2 2.8V38H105V24h3.7v6.4l4.1-6.4h4.1l-3.8 5.4 4.1 8.7-4.1-.1zm16.3-10.8h-3.5V24h10.8v3.2h-3.5V38h-3.8V27.2zM151.8 38H148l-2.4-4.7h-1.5V38h-3.8V24h8.2c1.8 0 2.7.9 2.7 2.7v3.6c0 1.5-.6 2.4-1.9 2.7l2.5 5zm-4.7-7.6c.3 0 .4-.1.4-.4v-2.6c0-.3-.1-.4-.4-.4h-3v3.3l3 .1zm15.8 4.7h-4.1l-.7 2.9h-3.9l4.2-14h5l4.3 14h-4l-.8-2.9zm-.7-3-1.3-5.1-1.3 5.1h2.6zm8.3 3.2v-8.6c0-1.8.9-2.7 2.8-2.7h5.4c1.8 0 2.7.9 2.7 2.7v2.6h-3.8v-1.9c0-.3-.1-.4-.4-.4h-2.5c-.3 0-.4.1-.4.4v7c0 .3.1.4.4.4h2.5c.3 0 .4-.1.4-.4v-1.9h3.8v2.6c0 1.8-.9 2.7-2.7 2.7h-5.4c-1.9.2-2.8-.7-2.8-2.5m22.8 2.7-2.4-5.5-2 2.8V38h-3.7V24h3.7v6.4L193 24h4.1l-3.9 5.4 4.1 8.7-4-.1z" /><path id="RTLogoIco" d="M23.1 17.8h-7.4c-14.5.2-17 19-6.6 26.7l16 16 5.5-5.5-17.9-19c-2.9-3.7-.3-9.1 4.4-9.1h6c6.1 0 6-9.1.1-9.1M35.2 28.7c-2.2 4-6.3 6.7-10.9 7l12 13.2c31.3-23.7-.5-63.8-28.4-40.2h15.2c10.3.5 17.1 11.1 12.1 20"/></svg>