<svg xmlns="http://www.w3.org/2000/svg" viewBox="0 0 26 26"><path class="icoLink" d="M22 22.4c-.2-.2-.4-.4-.6-.5-.5-.3-1.2-.5-2-.7-.9-.2-2-.4-3.2-.5l-.6.9c1.4.1 2.6.3 3.6.5.7.2 1.4.4 1.8.6.4.2.4.4.4.4 0 .1-.1.2-.4.4-.4.2-1 .5-1.8.6-1.6.4-3.8.6-6.1.6s-4.5-.2-6.1-.6c-.7-.2-1.4-.4-1.8-.6-.4-.2-.4-.4-.4-.4 0-.1.1-.2.4-.4.4-.2 1-.5 1.8-.6 1-.3 2.2-.4 3.6-.5l-.6-.9c-1.2.1-2.3.3-3.2.5-.9.2-1.5.5-2 .7-.4.1-.6.3-.8.5-.2.2-.3.5-.3.7s.1.5.3.7c.2.2.4.4.6.5.5.3 1.2.5 2 .7 1.7.4 3.9.6 6.3.6s4.6-.2 6.3-.6c.9-.2 1.5-.5 2-.7.3-.2.5-.3.6-.5.2-.2.3-.5.3-.7s.1-.5-.1-.7"/><path class="icoBorder" d="M16.5 1c-.9-.5-1.9-.7-3-.8h-.8.2c1 .1 2 .3 3 .8 2.9 1.5 4.7 4.8 4.5 7.9-.3 4-3.2 7-5.3 10.2l-2.4 3.6.3.4c.9-1.4 1.8-2.7 2.7-4.1 2.1-3.2 5-6.2 5.3-10.2.2-3-1.5-6.3-4.5-7.8"/><path class="icoHighlight" d="M15.9 1C15 .6 14 .3 13 .2h-.2c-.5 0-1 .1-1.4.2-.5.1-1.1.3-1.6.5s-1 .5-1.4.8c-.5.4-.9.8-1.3 1.2-.4.4-.7.9-1 1.3-.3.5-.5 1-.7 1.5-.7 2-.6 4.1.2 6.1 0 .1.1.1.1.2 1.1 2.4 2.9 4.6 4.4 6.9.7 1 1.3 2 2 3 .2.4.4.6.5.8l2.4-3.6c2.1-3.2 5-6.2 5.3-10.2.3-3.1-1.4-6.4-4.4-7.9M13 12.3c-2.3 0-4.2-1.9-4.2-4.2 0-2.3 1.9-4.2 4.2-4.2 2.3 0 4.2 1.9 4.2 4.2 0 2.3-1.9 4.2-4.2 4.2"/></svg>