<svg xmlns="http://www.w3.org/2000/svg" viewBox="0 0 26 26"><path class="icoLink" d="M20.6 4H5.4C4.2 4 3.2 5 3.2 6.2v13.6c0 1.2 1 2.2 2.2 2.2h15.2c1.2 0 2.2-1 2.2-2.2V6.2c0-1.2-1-2.2-2.2-2.2M9.7 5.9h2.2c.4 0 .8.4.8.8 0 .5-.4.8-.8.8H9.7c-.5 0-.8-.4-.8-.8s.4-.8.8-.8m-3.2-.2c.6 0 1.1.5 1.1 1.1 0 .6-.5 1.1-1.1 1.1-.6 0-1.1-.5-1.1-1.1 0-.7.5-1.1 1.1-1.1m14.1 13.6c0 .3-.2.5-.5.5H5.9c-.3 0-.5-.2-.5-.5V10c0-.3.2-.5.5-.5H20c.3 0 .5.2.5.5v9.3z"/><path class="icoHighlight" d="M18.8 16.4H18c-.2 0-.4-.2-.5-.4-.1-.2-.2-.5-.3-.7-.1-.2-.1-.4.1-.6l.5-.5c.2-.2.2-.5 0-.7l-.7-.7c-.2-.2-.5-.2-.7 0l-.5.5c-.2.2-.4.2-.6.1-.2-.1-.5-.2-.7-.3-.2-.1-.4-.3-.4-.5v-.7c0-.3-.2-.5-.5-.5h-1c-.3 0-.5.2-.5.5v.7c0 .2-.2.4-.4.5-.2.1-.5.2-.7.3-.2.1-.4.1-.6-.1l-.5-.5c-.2-.2-.5-.2-.7 0l-.7.7c-.2.2-.2.5 0 .7l.5.5c.2.2.2.4.1.6-.1.3-.2.5-.3.7-.1.2-.3.4-.5.4h-.7c-.3 0-.5.2-.5.5v1c0 .3.2.5.5.5h3.2c-.1-.3-.2-.7-.2-1 0-1.4 1.1-2.5 2.5-2.5s2.5 1.1 2.5 2.5c0 .4-.1.7-.2 1h3.2c.3 0 .5-.2.5-.5v-1c.1-.3-.1-.5-.4-.5"/></svg>
