<svg xmlns="http://www.w3.org/2000/svg" viewBox="0 0 22 20" class="svg-inline"><path d="M21.81 4.88C20.86 1.56 15.74.46 12.77.1 11.6-.04 10.4-.04 9.23.1 6.26.46 1.14 1.56.19 4.88c-.3 1.04-.24 1.98.16 2.66.27.47.7.79 1.2.9.53.13 1.12.16 1.55.16.36 0 .61-.02.63-.02.42-.04 2.57-.24 3.22-1.12.18-.25.25-.53.19-.82-.04-.21-.1-.43-.16-.64-.28-1.06-.36-1.55.66-1.91 1.61-.57 3.34-.55 3.36-.55.02 0 1.73-.02 3.35.55 1.03.36.95.85.67 1.91-.06.21-.11.42-.16.64-.06.29.01.57.19.82.66.88 2.8 1.09 3.22 1.12.05 0 1.2.09 2.19-.13.5-.11.92-.43 1.2-.9.39-.69.45-1.63.15-2.67zm-.83 2.26c-.16.28-.4.47-.69.53-.87.19-1.95.11-1.96.11-.91-.07-2.33-.36-2.65-.8-.05-.07-.06-.12-.04-.17.04-.2.09-.39.14-.59.25-.95.6-2.25-1.16-2.88-1.75-.62-3.55-.6-3.61-.6-.08 0-1.87-.02-3.62.6-1.77.62-1.42 1.92-1.16 2.87.05.2.1.39.14.59.01.05.01.1-.04.17-.33.44-1.75.74-2.66.81-.01 0-1.09.08-1.96-.11-.29-.07-.52-.25-.69-.53C.74 6.65.71 5.92.94 5.1 1.8 2.12 7.09 1.17 9.32.9 9.88.83 10.44.8 11 .8c.56 0 1.12.03 1.68.1 2.23.27 7.53 1.22 8.38 4.2.23.82.2 1.55-.08 2.04zM18.45 9.69a.4.4 0 00-.45-.33c-.21.04-.36.25-.32.46l1.16 6.73c.12.65-.05 1.32-.47 1.83-.42.52-1.04.81-1.7.81H5.33c-.66 0-1.28-.3-1.7-.81a2.25 2.25 0 01-.47-1.84l1.16-6.72c.04-.21-.1-.42-.32-.46a.4.4 0 00-.45.33l-1.16 6.72c-.16.89.07 1.8.64 2.49.57.7 1.41 1.1 2.3 1.1h11.34c.89 0 1.73-.4 2.3-1.1.57-.7.8-1.6.64-2.49l-1.16-6.72zM15.32 13.24c0-2.43-1.94-4.4-4.32-4.4-2.38 0-4.32 1.97-4.32 4.4 0 2.43 1.94 4.4 4.32 4.4 2.38 0 4.32-1.98 4.32-4.4zm-7.86 0c0-1.98 1.59-3.6 3.54-3.6s3.54 1.62 3.54 3.6c0 1.99-1.59 3.6-3.54 3.6s-3.54-1.62-3.54-3.6z"/></svg>