<svg xmlns="http://www.w3.org/2000/svg" viewBox="0 0 20 20" class="svg-inline"><path id="twitterIco" d="M19.27 4.25c-.68.3-1.42.51-2.19.6.79-.47 1.39-1.22 1.67-2.11-.74.44-1.55.75-2.42.92-.69-.74-1.68-1.2-2.78-1.2-2.1 0-3.81 1.7-3.81 3.81 0 .3.03.59.1.87-3.14-.16-5.95-1.68-7.82-3.98a3.805 3.805 0 001.17 5.08c-.62-.02-1.21-.19-1.72-.48v.05c0 1.84 1.31 3.38 3.05 3.73-.32.09-.66.13-1 .13-.25 0-.48-.02-.72-.07a3.806 3.806 0 003.56 2.64 7.63 7.63 0 01-4.73 1.63c-.31 0-.61-.02-.91-.05 1.68 1.08 3.68 1.71 5.83 1.71 7 0 10.83-5.8 10.83-10.83 0-.16 0-.33-.01-.49.75-.53 1.39-1.2 1.9-1.96zm0 0"/></svg>